<svg width="186" height="186" viewBox="0 0 186 186" fill="none" xmlns="http://www.w3.org/2000/svg">
<g filter="url(#filter0_d_106_23)">
<rect width="172" height="172" rx="20" fill="white" fill-opacity="0.45"/>
<path d="M132.583 78.8333V132.583M132.583 132.583V157.667H39.4163V132.583M132.583 132.583H157.666V78.8333C157.666 68.0833 150.5 55.5416 139.75 46.5833C129 37.6249 114.666 35.8333 114.666 35.8333L85.9997 64.4999M39.4163 132.583H14.333V78.8333C14.333 68.0833 21.4997 55.5416 32.2497 46.5833C42.9997 37.6249 57.333 35.8333 57.333 35.8333L85.9997 64.4999M39.4163 132.583V78.8333M85.9997 64.4999V96.7499" stroke="black" stroke-width="4" stroke-linecap="round" stroke-linejoin="round"/>
<path d="M32.2497 46.5833C42.9997 37.6249 57.333 35.8333 57.333 35.8333L85.9997 64.4999L114.666 35.8333C114.666 35.8333 129 37.6249 139.75 46.5833L146.916 30.4583L139.75 14.3333H32.2497L25.083 30.4583L32.2497 46.5833Z" stroke="black" stroke-width="4" stroke-linecap="round" stroke-linejoin="round"/>
</g>
<defs>
<filter id="filter0_d_106_23" x="0" y="0" width="186" height="186" filterUnits="userSpaceOnUse" color-interpolation-filters="sRGB">
<feFlood flood-opacity="0" result="BackgroundImageFix"/>
<feColorMatrix in="SourceAlpha" type="matrix" values="0 0 0 0 0 0 0 0 0 0 0 0 0 0 0 0 0 0 127 0" result="hardAlpha"/>
<feOffset dx="10" dy="10"/>
<feGaussianBlur stdDeviation="2"/>
<feComposite in2="hardAlpha" operator="out"/>
<feColorMatrix type="matrix" values="0 0 0 0 0 0 0 0 0 0 0 0 0 0 0 0 0 0 0.25 0"/>
<feBlend mode="normal" in2="BackgroundImageFix" result="effect1_dropShadow_106_23"/>
<feBlend mode="normal" in="SourceGraphic" in2="effect1_dropShadow_106_23" result="shape"/>
</filter>
</defs>
</svg>
