<?xml version="1.0" encoding="UTF-8"?>
<!DOCTYPE svg PUBLIC "-//W3C//DTD SVG 1.1//EN" "http://www.w3.org/Graphics/SVG/1.1/DTD/svg11.dtd">
<svg xmlns="http://www.w3.org/2000/svg" version="1.1" width="360px" height="360px" style="shape-rendering:geometricPrecision; text-rendering:geometricPrecision; image-rendering:optimizeQuality; fill-rule:evenodd; clip-rule:evenodd" xmlns:xlink="http://www.w3.org/1999/xlink">
<g><path style="opacity:0.049" fill="#d9dad5" d="M 198.5,27.5 C 187.614,27.8992 176.947,27.2325 166.5,25.5C 166.917,24.8761 167.584,24.5427 168.5,24.5C 178.645,25.5049 188.645,26.5049 198.5,27.5 Z"/></g>
<g><path style="opacity:0.855" fill="#49331e" d="M 164.5,25.5 C 165.167,25.5 165.833,25.5 166.5,25.5C 176.947,27.2325 187.614,27.8992 198.5,27.5C 198.833,27.5 199.167,27.5 199.5,27.5C 199.5,27.8333 199.5,28.1667 199.5,28.5C 195.298,28.1832 191.298,28.5166 187.5,29.5C 181.278,29.3086 175.111,28.642 169,27.5C 168.098,27.7432 167.265,28.0766 166.5,28.5C 164.49,27.6509 162.823,28.3176 161.5,30.5C 160.833,30.8333 160.167,31.1667 159.5,31.5C 155.578,33.9155 152.078,36.9155 149,40.5C 148.503,42.8098 148.337,45.1432 148.5,47.5C 147.833,47.5 147.5,47.1667 147.5,46.5C 146.368,45.6457 145.035,45.6457 143.5,46.5C 144.574,45.1154 145.907,43.9487 147.5,43C 146.584,42.7216 145.918,42.2216 145.5,41.5C 148.833,38.8333 151.833,35.8333 154.5,32.5C 158.392,30.9379 161.725,28.6046 164.5,25.5 Z"/></g>
<g><path style="opacity:0.224" fill="#d2c9c1" d="M 164.5,25.5 C 161.725,28.6046 158.392,30.9379 154.5,32.5C 157.275,29.3954 160.608,27.0621 164.5,25.5 Z"/></g>
<g><path style="opacity:1" fill="#aa793a" d="M 187.5,29.5 C 188.833,29.5 190.167,29.5 191.5,29.5C 183.567,31.4684 175.234,32.135 166.5,31.5C 166.5,30.5 166.5,29.5 166.5,28.5C 167.265,28.0766 168.098,27.7432 169,27.5C 175.111,28.642 181.278,29.3086 187.5,29.5 Z"/></g>
<g><path style="opacity:0.196" fill="#dfdfd6" d="M 199.5,28.5 C 199.5,28.1667 199.5,27.8333 199.5,27.5C 202.37,28.4333 204.704,30.1 206.5,32.5C 205.391,32.4431 204.391,32.1098 203.5,31.5C 202.205,30.5116 200.872,29.5116 199.5,28.5 Z"/></g>
<g><path style="opacity:1" fill="#93724b" d="M 191.5,29.5 C 194.636,28.9791 196.97,29.9791 198.5,32.5C 187.654,32.8278 176.987,32.4944 166.5,31.5C 175.234,32.135 183.567,31.4684 191.5,29.5 Z"/></g>
<g><path style="opacity:1" fill="#653e1a" d="M 166.5,28.5 C 166.5,29.5 166.5,30.5 166.5,31.5C 176.987,32.4944 187.654,32.8278 198.5,32.5C 198.5,33.1667 198.5,33.8333 198.5,34.5C 188.833,34.5 179.167,34.5 169.5,34.5C 168.122,33.7656 166.622,33.0989 165,32.5C 164.502,35.4816 164.335,38.4816 164.5,41.5C 163.566,40.4324 163.232,39.099 163.5,37.5C 164.01,34.6122 163.344,32.2789 161.5,30.5C 162.823,28.3176 164.49,27.6509 166.5,28.5 Z"/></g>
<g><path style="opacity:0.016" fill="#d3cfc1" d="M 208.5,34.5 C 210.027,34.427 211.027,35.0937 211.5,36.5C 209.973,36.573 208.973,35.9063 208.5,34.5 Z"/></g>
<g><path style="opacity:0.239" fill="#d1c5b3" d="M 154.5,32.5 C 151.833,35.8333 148.833,38.8333 145.5,41.5C 144.833,41.5 144.167,41.5 143.5,41.5C 146.871,38.1285 150.537,35.1285 154.5,32.5 Z"/></g>
<g><path style="opacity:1" fill="#976e38" d="M 165.5,35.5 C 166.568,34.5655 167.901,34.2322 169.5,34.5C 179.167,34.5 188.833,34.5 198.5,34.5C 199.461,36.2646 199.795,38.2646 199.5,40.5C 191.5,40.5 183.5,40.5 175.5,40.5C 175.5,40.1667 175.5,39.8333 175.5,39.5C 182.175,39.6663 188.842,39.4996 195.5,39C 196.337,37.9887 196.67,36.8221 196.5,35.5C 186.167,35.5 175.833,35.5 165.5,35.5 Z"/></g>
<g><path style="opacity:1" fill="#b37931" d="M 165.5,35.5 C 175.833,35.5 186.167,35.5 196.5,35.5C 196.67,36.8221 196.337,37.9887 195.5,39C 188.842,39.4996 182.175,39.6663 175.5,39.5C 172.167,39.5 168.833,39.5 165.5,39.5C 165.5,38.1667 165.5,36.8333 165.5,35.5 Z"/></g>
<g><path style="opacity:1" fill="#eca548" d="M 161.5,30.5 C 163.344,32.2789 164.01,34.6122 163.5,37.5C 160.024,38.7248 159.69,40.5581 162.5,43C 162.05,44.2853 161.383,45.452 160.5,46.5C 161.325,47.3857 162.325,47.719 163.5,47.5C 164.574,54.5109 165.407,61.5109 166,68.5C 162.899,71.1348 159.399,72.8015 155.5,73.5C 153.435,73.4828 151.435,73.1495 149.5,72.5C 149.125,61.7779 149.625,51.1112 151,40.5C 153.667,38.1667 156.333,35.8333 159,33.5C 159.464,32.9056 159.631,32.2389 159.5,31.5C 160.167,31.1667 160.833,30.8333 161.5,30.5 Z"/></g>
<g><path style="opacity:1" fill="#331804" d="M 187.5,29.5 C 191.298,28.5166 195.298,28.1832 199.5,28.5C 200.872,29.5116 202.205,30.5116 203.5,31.5C 202.178,31.67 201.011,31.3366 200,30.5C 199.308,31.4368 199.475,32.1034 200.5,32.5C 200.714,40.4645 199.714,48.1311 197.5,55.5C 197.998,50.8478 198.331,46.1811 198.5,41.5C 190.833,41.5 183.167,41.5 175.5,41.5C 175.5,41.1667 175.5,40.8333 175.5,40.5C 183.5,40.5 191.5,40.5 199.5,40.5C 199.795,38.2646 199.461,36.2646 198.5,34.5C 198.5,33.8333 198.5,33.1667 198.5,32.5C 196.97,29.9791 194.636,28.9791 191.5,29.5C 190.167,29.5 188.833,29.5 187.5,29.5 Z"/></g>
<g><path style="opacity:0.129" fill="#c2b7af" d="M 141.5,42.5 C 137.818,45.0078 133.818,47.0078 129.5,48.5C 132.914,45.4598 136.914,43.4598 141.5,42.5 Z"/></g>
<g><path style="opacity:1" fill="#b3792c" d="M 175.5,66.5 C 173.152,66.4077 171.486,65.4077 170.5,63.5C 170.5,61.5 170.5,59.5 170.5,57.5C 177.687,57.8245 184.687,57.4912 191.5,56.5C 191.5,54.1667 191.5,51.8333 191.5,49.5C 185.167,49.5 178.833,49.5 172.5,49.5C 171.5,49.5 170.5,49.5 169.5,49.5C 169.695,45.8076 171.695,43.9742 175.5,44C 181.801,42.8206 188.135,42.4873 194.5,43C 195.516,43.5194 196.182,44.3527 196.5,45.5C 195.626,52.4378 193.96,59.1045 191.5,65.5C 186.208,66.4948 180.875,66.8282 175.5,66.5 Z"/></g>
<g><path style="opacity:0.082" fill="#e4dcd0" d="M 221.5,44.5 C 224.754,44.7936 227.421,46.127 229.5,48.5C 226.515,47.6743 223.849,46.341 221.5,44.5 Z"/></g>
<g><path style="opacity:1" fill="#be9c69" d="M 141.5,42.5 C 141.842,41.6618 142.508,41.3284 143.5,41.5C 144.167,41.5 144.833,41.5 145.5,41.5C 145.918,42.2216 146.584,42.7216 147.5,43C 145.907,43.9487 144.574,45.1154 143.5,46.5C 134.194,51.4547 124.86,56.4547 115.5,61.5C 115.5,60.8333 115.5,60.1667 115.5,59.5C 117.404,59.2624 118.738,58.2624 119.5,56.5C 127.693,51.8226 136.027,47.3226 144.5,43C 143.552,42.5172 142.552,42.3505 141.5,42.5 Z"/></g>
<g><path style="opacity:0.008" fill="#eae3d6" d="M 231.5,49.5 C 233.027,49.427 234.027,50.0937 234.5,51.5C 232.973,51.573 231.973,50.9063 231.5,49.5 Z"/></g>
<g><path style="opacity:0.216" fill="#c0b7ae" d="M 127.5,49.5 C 127.027,50.9063 126.027,51.573 124.5,51.5C 124.973,50.0937 125.973,49.427 127.5,49.5 Z"/></g>
<g><path style="opacity:0.235" fill="#bcada2" d="M 124.5,51.5 C 124.027,52.9063 123.027,53.573 121.5,53.5C 121.973,52.0937 122.973,51.427 124.5,51.5 Z"/></g>
<g><path style="opacity:0.922" fill="#453118" d="M 141.5,42.5 C 142.552,42.3505 143.552,42.5172 144.5,43C 136.027,47.3226 127.693,51.8226 119.5,56.5C 120.167,55.5 120.833,54.5 121.5,53.5C 123.027,53.573 124.027,52.9063 124.5,51.5C 126.027,51.573 127.027,50.9063 127.5,49.5C 127.842,48.6618 128.508,48.3284 129.5,48.5C 133.818,47.0078 137.818,45.0078 141.5,42.5 Z"/></g>
<g><path style="opacity:1" fill="#dda255" d="M 163.5,37.5 C 163.232,39.099 163.566,40.4324 164.5,41.5C 164.779,46.2268 165.446,50.8935 166.5,55.5C 166.328,56.4916 166.662,57.1583 167.5,57.5C 168.326,61.1359 168.992,64.8026 169.5,68.5C 167.611,69.604 165.945,70.9373 164.5,72.5C 162.254,73.4552 159.921,74.1218 157.5,74.5C 156.833,74.5 156.167,74.5 155.5,74.5C 155.5,74.1667 155.5,73.8333 155.5,73.5C 159.399,72.8015 162.899,71.1348 166,68.5C 165.407,61.5109 164.574,54.5109 163.5,47.5C 162.325,47.719 161.325,47.3857 160.5,46.5C 161.383,45.452 162.05,44.2853 162.5,43C 159.69,40.5581 160.024,38.7248 163.5,37.5 Z"/></g>
<g><path style="opacity:1" fill="#4b2607" d="M 169.5,34.5 C 167.901,34.2322 166.568,34.5655 165.5,35.5C 165.5,36.8333 165.5,38.1667 165.5,39.5C 168.833,39.5 172.167,39.5 175.5,39.5C 175.5,39.8333 175.5,40.1667 175.5,40.5C 175.5,40.8333 175.5,41.1667 175.5,41.5C 172.5,41.5 169.5,41.5 166.5,41.5C 167.047,46.3549 167.047,51.0216 166.5,55.5C 165.446,50.8935 164.779,46.2268 164.5,41.5C 164.335,38.4816 164.502,35.4816 165,32.5C 166.622,33.0989 168.122,33.7656 169.5,34.5 Z"/></g>
<g><path style="opacity:0.078" fill="#d4c8bb" d="M 234.5,51.5 C 236.027,51.427 237.027,52.0937 237.5,53.5C 235.973,53.573 234.973,52.9063 234.5,51.5 Z"/></g>
<g><path style="opacity:0.208" fill="#b7a89b" d="M 121.5,53.5 C 120.833,54.5 120.167,55.5 119.5,56.5C 118.833,56.5 118.167,56.5 117.5,56.5C 118.262,54.7376 119.596,53.7376 121.5,53.5 Z"/></g>
<g><path style="opacity:1" fill="#a27435" d="M 175.5,41.5 C 183.167,41.5 190.833,41.5 198.5,41.5C 198.331,46.1811 197.998,50.8478 197.5,55.5C 195.32,58.381 194.32,61.7144 194.5,65.5C 191.431,66.7427 188.098,67.4094 184.5,67.5C 181.314,67.498 178.314,67.1647 175.5,66.5C 180.875,66.8282 186.208,66.4948 191.5,65.5C 193.96,59.1045 195.626,52.4378 196.5,45.5C 196.182,44.3527 195.516,43.5194 194.5,43C 188.135,42.4873 181.801,42.8206 175.5,44C 171.695,43.9742 169.695,45.8076 169.5,49.5C 170.5,49.5 171.5,49.5 172.5,49.5C 172.674,51.861 173.007,54.1944 173.5,56.5C 179.5,56.5 185.5,56.5 191.5,56.5C 184.687,57.4912 177.687,57.8245 170.5,57.5C 170.5,59.5 170.5,61.5 170.5,63.5C 169.774,60.7793 168.774,58.7793 167.5,57.5C 166.662,57.1583 166.328,56.4916 166.5,55.5C 167.047,51.0216 167.047,46.3549 166.5,41.5C 169.5,41.5 172.5,41.5 175.5,41.5 Z"/></g>
<g><path style="opacity:1" fill="#462b17" d="M 172.5,49.5 C 178.833,49.5 185.167,49.5 191.5,49.5C 191.5,51.8333 191.5,54.1667 191.5,56.5C 185.5,56.5 179.5,56.5 173.5,56.5C 173.007,54.1944 172.674,51.861 172.5,49.5 Z"/></g>
<g><path style="opacity:1" fill="#575141" d="M 189.5,51.5 C 190.434,52.5676 190.768,53.901 190.5,55.5C 185.637,55.8195 180.97,55.4861 176.5,54.5C 180.833,54.5 185.167,54.5 189.5,54.5C 189.5,53.5 189.5,52.5 189.5,51.5 Z"/></g>
<g><path style="opacity:1" fill="#f6f7f3" d="M 189.5,51.5 C 189.5,52.5 189.5,53.5 189.5,54.5C 185.167,54.5 180.833,54.5 176.5,54.5C 174.952,54.1788 174.285,53.1788 174.5,51.5C 179.5,51.5 184.5,51.5 189.5,51.5 Z"/></g>
<g><path style="opacity:0.204" fill="#a29592" d="M 117.5,56.5 C 116.833,57.5 116.167,58.5 115.5,59.5C 114.609,60.1098 113.609,60.4431 112.5,60.5C 113.585,58.4131 115.251,57.0798 117.5,56.5 Z"/></g>
<g><path style="opacity:0.918" fill="#35230d" d="M 117.5,56.5 C 118.167,56.5 118.833,56.5 119.5,56.5C 118.738,58.2624 117.404,59.2624 115.5,59.5C 116.167,58.5 116.833,57.5 117.5,56.5 Z"/></g>
<g><path style="opacity:1" fill="#dba257" d="M 217.5,45.5 C 224.726,48.4462 231.726,51.9462 238.5,56C 241.28,57.8123 243.78,59.979 246,62.5C 251.672,73.5073 256.506,84.8407 260.5,96.5C 258.957,95.2642 257.957,93.5976 257.5,91.5C 256.675,90.6143 255.675,90.281 254.5,90.5C 254.657,89.1266 254.49,87.7932 254,86.5C 252.488,85.7433 251.154,84.7433 250,83.5C 249.525,76.4569 247.859,69.7902 245,63.5C 243.127,61.2911 240.96,59.4578 238.5,58C 232.327,54.3752 225.993,51.2086 219.5,48.5C 219.338,56.7347 220.005,64.9013 221.5,73C 220.415,75.4127 219.415,77.9127 218.5,80.5C 219.888,82.109 220.888,83.9423 221.5,86C 218.379,89.7326 215.879,93.8993 214,98.5C 213.617,97.944 213.117,97.6107 212.5,97.5C 214.492,93.5168 216.492,89.5168 218.5,85.5C 217.373,82.9171 215.373,81.2504 212.5,80.5C 211.209,80.7373 210.209,80.404 209.5,79.5C 212.307,78.4233 215.14,77.4233 218,76.5C 217.982,66.1762 217.816,55.8429 217.5,45.5 Z"/></g>
<g><path style="opacity:1" fill="#b57829" d="M 147.5,46.5 C 146.647,55.3377 145.98,64.3377 145.5,73.5C 147.564,73.687 149.564,74.187 151.5,75C 148.385,75.5414 146.052,77.0414 144.5,79.5C 143.861,80.0968 143.528,80.9302 143.5,82C 144.732,85.4292 145.732,88.9292 146.5,92.5C 147.354,93.5217 148.354,94.3551 149.5,95C 146.901,98.3048 147.901,100.138 152.5,100.5C 153.31,102.798 154.144,105.132 155,107.5C 157.892,108.394 160.226,110.06 162,112.5C 162.701,116.904 164.701,120.571 168,123.5C 168.49,124.793 168.657,126.127 168.5,127.5C 169.822,127.33 170.989,127.663 172,128.5C 174.242,133.79 176.742,138.79 179.5,143.5C 180.833,143.5 182.167,143.5 183.5,143.5C 183.833,143.5 184.167,143.5 184.5,143.5C 188.02,150.688 192.353,157.355 197.5,163.5C 194.626,165.075 191.459,166.408 188,167.5C 187.131,170.113 186.631,172.78 186.5,175.5C 190.81,176.08 195.143,176.414 199.5,176.5C 199.666,185.839 199.5,195.173 199,204.5C 197.69,205.897 196.19,206.897 194.5,207.5C 193.833,207.833 193.167,208.167 192.5,208.5C 191.203,210.693 191.203,213.027 192.5,215.5C 195.421,216.407 198.421,216.74 201.5,216.5C 201.5,221.5 201.5,226.5 201.5,231.5C 201.357,255.509 201.691,279.509 202.5,303.5C 200.554,308.396 199.887,313.729 200.5,319.5C 199.167,319.5 197.833,319.5 196.5,319.5C 197.969,324.382 198.969,329.382 199.5,334.5C 188.828,334.667 178.161,334.5 167.5,334C 170.028,332.983 170.028,331.816 167.5,330.5C 164.914,329.52 162.247,329.187 159.5,329.5C 159.5,330.5 159.5,331.5 159.5,332.5C 148.185,331.706 136.852,331.373 125.5,331.5C 123.175,295.315 123.342,258.981 126,222.5C 128.423,220.583 130.256,218.25 131.5,215.5C 137.994,209.401 144.327,203.068 150.5,196.5C 146.833,193.167 143.167,189.833 139.5,186.5C 135.141,190.528 130.807,194.528 126.5,198.5C 126.167,193.333 125.833,188.167 125.5,183C 125.338,174.944 126.005,167.111 127.5,159.5C 128.833,159.5 130.167,159.5 131.5,159.5C 130.87,148.41 131.537,137.577 133.5,127C 132.713,118.066 132.047,109.066 131.5,100C 131.724,97.4851 132.057,94.9851 132.5,92.5C 130.056,87.9114 127.889,83.2447 126,78.5C 125.282,73.023 123.782,67.8563 121.5,63C 122.252,62.3292 122.586,61.4959 122.5,60.5C 129.672,56.0814 136.672,51.4148 143.5,46.5C 145.035,45.6457 146.368,45.6457 147.5,46.5 Z"/></g>
<g><path style="opacity:1" fill="#552505" d="M 143.5,46.5 C 136.672,51.4148 129.672,56.0814 122.5,60.5C 120.167,60.8333 118.833,62.1667 118.5,64.5C 117.5,63.8333 116.5,63.1667 115.5,62.5C 115.5,62.1667 115.5,61.8333 115.5,61.5C 124.86,56.4547 134.194,51.4547 143.5,46.5 Z"/></g>
<g><path style="opacity:1" fill="#552705" d="M 197.5,55.5 C 196.992,59.7359 195.992,63.7359 194.5,67.5C 194.5,66.8333 194.5,66.1667 194.5,65.5C 194.32,61.7144 195.32,58.381 197.5,55.5 Z"/></g>
<g><path style="opacity:1" fill="#b4792b" d="M 205.5,35.5 C 207.932,36.7502 210.266,38.2502 212.5,40C 214.141,41.129 215.141,42.629 215.5,44.5C 215.775,53.3587 216.442,62.192 217.5,71C 217.929,74.8602 216.262,76.6936 212.5,76.5C 210.44,75.1888 208.274,75.1888 206,76.5C 203.781,73.6395 200.947,71.6395 197.5,70.5C 196.548,66.8391 196.715,63.1724 198,59.5C 198.667,58.1667 199.667,57.1667 201,56.5C 201.257,50.8036 201.757,45.1369 202.5,39.5C 200.613,35.4777 201.613,34.1444 205.5,35.5 Z"/></g>
<g><path style="opacity:0.157" fill="#70563a" d="M 203.5,31.5 C 204.391,32.1098 205.391,32.4431 206.5,32.5C 207.5,32.8333 208.167,33.5 208.5,34.5C 208.973,35.9063 209.973,36.573 211.5,36.5C 214.569,39.5771 217.903,42.2437 221.5,44.5C 223.849,46.341 226.515,47.6743 229.5,48.5C 230.492,48.3284 231.158,48.6618 231.5,49.5C 231.973,50.9063 232.973,51.573 234.5,51.5C 234.973,52.9063 235.973,53.573 237.5,53.5C 243.819,56.3205 248.319,60.9872 251,67.5C 261.143,89.4535 269.31,112.12 275.5,135.5C 275.5,137.167 275.5,138.833 275.5,140.5C 274.167,137.167 272.833,133.833 271.5,130.5C 271.5,129.5 271.5,128.5 271.5,127.5C 268.601,117.129 264.934,107.129 260.5,97.5C 260.5,97.1667 260.5,96.8333 260.5,96.5C 256.506,84.8407 251.672,73.5073 246,62.5C 243.78,59.979 241.28,57.8123 238.5,56C 231.726,51.9462 224.726,48.4462 217.5,45.5C 217.158,44.6618 216.492,44.3284 215.5,44.5C 215.141,42.629 214.141,41.129 212.5,40C 210.266,38.2502 207.932,36.7502 205.5,35.5C 204.599,33.2729 202.933,32.2729 200.5,32.5C 199.475,32.1034 199.308,31.4368 200,30.5C 201.011,31.3366 202.178,31.67 203.5,31.5 Z"/></g>
<g><path style="opacity:1" fill="#612c06" d="M 215.5,44.5 C 216.492,44.3284 217.158,44.6618 217.5,45.5C 217.816,55.8429 217.982,66.1762 218,76.5C 215.14,77.4233 212.307,78.4233 209.5,79.5C 209.5,78.8333 209.167,78.5 208.5,78.5C 209.671,77.6554 211.005,76.9887 212.5,76.5C 216.262,76.6936 217.929,74.8602 217.5,71C 216.442,62.192 215.775,53.3587 215.5,44.5 Z"/></g>
<g><path style="opacity:1" fill="#82633b" d="M 177.5,68.5 C 182.544,68.1725 187.544,68.5059 192.5,69.5C 192.376,70.1067 192.043,70.44 191.5,70.5C 186.833,69.8333 182.167,69.1667 177.5,68.5 Z"/></g>
<g><path style="opacity:1" fill="#622f04" d="M 118.5,64.5 C 121.537,67.0601 123.371,70.3935 124,74.5C 125.574,79.3842 126.407,84.3842 126.5,89.5C 124.593,81.0088 121.926,72.6755 118.5,64.5 Z"/></g>
<g><path style="opacity:1" fill="#d79f5c" d="M 159.5,31.5 C 159.631,32.2389 159.464,32.9056 159,33.5C 156.333,35.8333 153.667,38.1667 151,40.5C 149.625,51.1112 149.125,61.7779 149.5,72.5C 148.2,70.777 147.533,68.6103 147.5,66C 148.138,59.8474 148.471,53.6807 148.5,47.5C 148.337,45.1432 148.503,42.8098 149,40.5C 152.078,36.9155 155.578,33.9155 159.5,31.5 Z"/></g>
<g><path style="opacity:1" fill="#e8a44d" d="M 185.5,91.5 C 185.041,94.8774 184.374,98.2107 183.5,101.5C 178.962,92.7359 175.629,83.4025 173.5,73.5C 173.414,72.5041 173.748,71.6708 174.5,71C 179.167,70.3333 183.833,70.3333 188.5,71C 187.65,77.854 186.65,84.6874 185.5,91.5 Z"/></g>
<g><path style="opacity:1" fill="#724310" d="M 164.5,72.5 C 163.421,74.543 161.754,75.8763 159.5,76.5C 158.833,75.8333 158.167,75.1667 157.5,74.5C 159.921,74.1218 162.254,73.4552 164.5,72.5 Z"/></g>
<g><path style="opacity:1" fill="#dea35d" d="M 177.5,68.5 C 182.167,69.1667 186.833,69.8333 191.5,70.5C 191.5,70.8333 191.5,71.1667 191.5,71.5C 189.5,78.1667 187.5,84.8333 185.5,91.5C 186.65,84.6874 187.65,77.854 188.5,71C 183.833,70.3333 179.167,70.3333 174.5,71C 173.748,71.6708 173.414,72.5041 173.5,73.5C 172.833,72.1667 172.167,70.8333 171.5,69.5C 171.47,68.5028 171.97,67.8361 173,67.5C 174.44,68.1476 175.94,68.4809 177.5,68.5 Z"/></g>
<g><path style="opacity:1" fill="#251305" d="M 155.5,74.5 C 156.167,74.5 156.833,74.5 157.5,74.5C 158.167,75.1667 158.833,75.8333 159.5,76.5C 157.143,76.6633 154.81,76.4966 152.5,76C 153.244,74.9614 154.244,74.4614 155.5,74.5 Z"/></g>
<g><path style="opacity:1" fill="#a67339" d="M 200.5,32.5 C 202.933,32.2729 204.599,33.2729 205.5,35.5C 201.613,34.1444 200.613,35.4777 202.5,39.5C 201.757,45.1369 201.257,50.8036 201,56.5C 199.667,57.1667 198.667,58.1667 198,59.5C 196.715,63.1724 196.548,66.8391 197.5,70.5C 200.947,71.6395 203.781,73.6395 206,76.5C 208.274,75.1888 210.44,75.1888 212.5,76.5C 211.005,76.9887 209.671,77.6554 208.5,78.5C 207.504,78.4142 206.671,78.7476 206,79.5C 202.333,76.5 198.667,73.5 195,70.5C 194.517,69.552 194.351,68.552 194.5,67.5C 195.992,63.7359 196.992,59.7359 197.5,55.5C 199.714,48.1311 200.714,40.4645 200.5,32.5 Z"/></g>
<g><path style="opacity:0.961" fill="#775e43" d="M 115.5,59.5 C 115.5,60.1667 115.5,60.8333 115.5,61.5C 115.5,61.8333 115.5,62.1667 115.5,62.5C 114.5,62.5 113.5,62.5 112.5,62.5C 110.852,71.4528 107.852,79.7861 103.5,87.5C 103.5,86.1667 103.5,84.8333 103.5,83.5C 105.538,75.3746 108.538,67.708 112.5,60.5C 113.609,60.4431 114.609,60.1098 115.5,59.5 Z"/></g>
<g><path style="opacity:1" fill="#3e1a03" d="M 170.5,63.5 C 171.486,65.4077 173.152,66.4077 175.5,66.5C 178.314,67.1647 181.314,67.498 184.5,67.5C 188.098,67.4094 191.431,66.7427 194.5,65.5C 194.5,66.1667 194.5,66.8333 194.5,67.5C 194.351,68.552 194.517,69.552 195,70.5C 198.667,73.5 202.333,76.5 206,79.5C 206.671,78.7476 207.504,78.4142 208.5,78.5C 209.167,78.5 209.5,78.8333 209.5,79.5C 210.209,80.404 211.209,80.7373 212.5,80.5C 212.158,81.3382 211.492,81.6716 210.5,81.5C 206.503,81.7253 203.169,80.3919 200.5,77.5C 198.763,75.4503 196.763,73.617 194.5,72C 193.184,71.4719 192.517,71.9719 192.5,73.5C 191.662,73.1583 191.328,72.4916 191.5,71.5C 191.5,71.1667 191.5,70.8333 191.5,70.5C 192.043,70.44 192.376,70.1067 192.5,69.5C 187.544,68.5059 182.544,68.1725 177.5,68.5C 175.94,68.4809 174.44,68.1476 173,67.5C 171.97,67.8361 171.47,68.5028 171.5,69.5C 170.508,69.6716 169.842,69.3382 169.5,68.5C 168.992,64.8026 168.326,61.1359 167.5,57.5C 168.774,58.7793 169.774,60.7793 170.5,63.5 Z"/></g>
<g><path style="opacity:0.278" fill="#c5b6a4" d="M 103.5,83.5 C 103.5,84.8333 103.5,86.1667 103.5,87.5C 102.833,88.1667 102.167,88.8333 101.5,89.5C 101.595,87.2143 102.262,85.2143 103.5,83.5 Z"/></g>
<g><path style="opacity:1" fill="#57270c" d="M 191.5,71.5 C 191.328,72.4916 191.662,73.1583 192.5,73.5C 189.682,83.7702 187.016,94.1035 184.5,104.5C 183.833,105.5 183.167,106.5 182.5,107.5C 182.167,106.167 181.833,104.833 181.5,103.5C 181.81,102.262 182.31,102.262 183,103.5C 183.464,102.906 183.631,102.239 183.5,101.5C 184.374,98.2107 185.041,94.8774 185.5,91.5C 187.5,84.8333 189.5,78.1667 191.5,71.5 Z"/></g>
<g><path style="opacity:1" fill="#b57829" d="M 115.5,175.5 C 115.5,178.167 115.5,180.833 115.5,183.5C 114.778,183.918 114.278,184.584 114,185.5C 113.512,193.079 112.345,200.412 110.5,207.5C 109.5,207.5 108.5,207.5 107.5,207.5C 106.287,211.033 104.954,214.533 103.5,218C 104.789,221.402 105.456,225.069 105.5,229C 105.702,233.986 105.035,238.819 103.5,243.5C 93.5621,244.652 83.2288,244.652 72.5,243.5C 72.5,242.5 72.5,241.5 72.5,240.5C 72.5,237.5 72.5,234.5 72.5,231.5C 74.2007,225.081 74.8674,218.415 74.5,211.5C 74.5,210.167 74.5,208.833 74.5,207.5C 75.1174,207.389 75.6174,207.056 76,206.5C 77.3334,197.166 78.5001,187.833 79.5,178.5C 79.2627,177.209 79.596,176.209 80.5,175.5C 81.9663,174.653 82.7996,173.32 83,171.5C 83.4108,166.481 83.9108,161.481 84.5,156.5C 84.5,156.167 84.5,155.833 84.5,155.5C 85.8017,153.328 86.9683,150.994 88,148.5C 89.9078,139.711 92.0744,131.045 94.5,122.5C 95.086,122.291 95.586,121.957 96,121.5C 96.498,118.518 96.6646,115.518 96.5,112.5C 97.5,112.5 98.5,112.5 99.5,112.5C 100.677,106.793 102.01,101.126 103.5,95.5C 103.5,94.1667 103.5,92.8333 103.5,91.5C 104.458,91.0472 105.292,90.3805 106,89.5C 106.35,86.2784 107.684,83.6117 110,81.5C 110.333,79.5 110.667,77.5 111,75.5C 111.915,76.3279 112.581,77.3279 113,78.5C 113.133,75.5862 114.3,73.2529 116.5,71.5C 117.584,72.6651 118.417,73.9984 119,75.5C 120.109,80.187 121.276,84.8537 122.5,89.5C 122.646,100.509 122.646,111.509 122.5,122.5C 119.857,128.396 118.357,134.729 118,141.5C 117.572,152.871 116.739,164.204 115.5,175.5 Z"/></g>
<g><path style="opacity:1" fill="#b07833" d="M 144.5,79.5 C 156.467,101.428 169.467,122.761 183.5,143.5C 182.167,143.5 180.833,143.5 179.5,143.5C 176.742,138.79 174.242,133.79 172,128.5C 170.989,127.663 169.822,127.33 168.5,127.5C 168.657,126.127 168.49,124.793 168,123.5C 164.701,120.571 162.701,116.904 162,112.5C 160.226,110.06 157.892,108.394 155,107.5C 154.144,105.132 153.31,102.798 152.5,100.5C 147.901,100.138 146.901,98.3048 149.5,95C 148.354,94.3551 147.354,93.5217 146.5,92.5C 145.732,88.9292 144.732,85.4292 143.5,82C 143.528,80.9302 143.861,80.0968 144.5,79.5 Z"/></g>
<g><path style="opacity:1" fill="#6c360b" d="M 169.5,68.5 C 169.842,69.3382 170.508,69.6716 171.5,69.5C 172.167,70.8333 172.833,72.1667 173.5,73.5C 175.629,83.4025 178.962,92.7359 183.5,101.5C 183.631,102.239 183.464,102.906 183,103.5C 182.31,102.262 181.81,102.262 181.5,103.5C 177.736,93.0406 174.236,82.3739 171,71.5C 170.586,71.0426 170.086,70.7093 169.5,70.5C 167.925,71.4565 166.258,72.1231 164.5,72.5C 165.945,70.9373 167.611,69.604 169.5,68.5 Z"/></g>
<g><path style="opacity:1" fill="#b57829" d="M 200.5,77.5 C 201.242,79.4258 202.242,81.2591 203.5,83C 206.478,83.696 209.478,84.196 212.5,84.5C 210.671,89.8083 208.837,95.1417 207,100.5C 206.333,101.833 205.333,102.833 204,103.5C 202.487,107.796 200.487,111.796 198,115.5C 197.506,117.134 197.34,118.801 197.5,120.5C 197.5,120.833 197.5,121.167 197.5,121.5C 195.74,121.931 193.74,121.931 191.5,121.5C 191.167,120.833 190.833,120.167 190.5,119.5C 191.715,117.785 192.715,115.951 193.5,114C 193.33,111.473 192.33,110.973 190.5,112.5C 188.154,110.763 187.154,108.43 187.5,105.5C 189.109,98.245 190.442,90.9117 191.5,83.5C 193.401,82.065 193.734,80.3983 192.5,78.5C 194.326,75.0831 196.492,75.0831 199,78.5C 199.383,77.944 199.883,77.6107 200.5,77.5 Z"/></g>
<g><path style="opacity:1" fill="#ab7635" d="M 200.5,77.5 C 203.169,80.3919 206.503,81.7253 210.5,81.5C 213.027,82.267 215.027,83.767 216.5,86C 210.319,97.6559 203.986,109.156 197.5,120.5C 197.34,118.801 197.506,117.134 198,115.5C 200.487,111.796 202.487,107.796 204,103.5C 205.333,102.833 206.333,101.833 207,100.5C 208.837,95.1417 210.671,89.8083 212.5,84.5C 209.478,84.196 206.478,83.696 203.5,83C 202.242,81.2591 201.242,79.4258 200.5,77.5 Z"/></g>
<g><path style="opacity:1" fill="#eca448" d="M 164.5,110.5 C 158.007,100.857 152.007,90.8571 146.5,80.5C 146.608,79.5581 146.941,78.7247 147.5,78C 151.486,77.5012 155.486,77.3345 159.5,77.5C 162.991,75.8925 166.658,74.8925 170.5,74.5C 170.414,76.677 169.747,78.677 168.5,80.5C 169.792,83.2884 171.626,85.6217 174,87.5C 174.253,90.2004 174.253,92.867 174,95.5C 174.419,94.3279 175.085,93.3279 176,92.5C 176.333,96.1667 176.667,99.8333 177,103.5C 177.414,103.043 177.914,102.709 178.5,102.5C 182.324,115.004 185.991,127.671 189.5,140.5C 182.365,134.932 178.199,127.265 177,117.5C 176.581,118.672 175.915,119.672 175,120.5C 171.112,118.278 168.279,115.112 166.5,111C 165.906,110.536 165.239,110.369 164.5,110.5 Z"/></g>
<g><path style="opacity:1" fill="#683104" d="M 212.5,80.5 C 215.373,81.2504 217.373,82.9171 218.5,85.5C 216.492,89.5168 214.492,93.5168 212.5,97.5C 207.595,105.637 202.929,113.97 198.5,122.5C 197.833,122.5 197.5,122.167 197.5,121.5C 197.5,121.167 197.5,120.833 197.5,120.5C 203.986,109.156 210.319,97.6559 216.5,86C 215.027,83.767 213.027,82.267 210.5,81.5C 211.492,81.6716 212.158,81.3382 212.5,80.5 Z"/></g>
<g><path style="opacity:1" fill="#6f3906" d="M 147.5,46.5 C 147.5,47.1667 147.833,47.5 148.5,47.5C 148.471,53.6807 148.138,59.8474 147.5,66C 147.533,68.6103 148.2,70.777 149.5,72.5C 151.435,73.1495 153.435,73.4828 155.5,73.5C 155.5,73.8333 155.5,74.1667 155.5,74.5C 154.244,74.4614 153.244,74.9614 152.5,76C 154.81,76.4966 157.143,76.6633 159.5,76.5C 159.5,76.8333 159.5,77.1667 159.5,77.5C 155.486,77.3345 151.486,77.5012 147.5,78C 146.941,78.7247 146.608,79.5581 146.5,80.5C 152.007,90.8571 158.007,100.857 164.5,110.5C 171.429,121.361 178.096,132.361 184.5,143.5C 184.167,143.5 183.833,143.5 183.5,143.5C 169.467,122.761 156.467,101.428 144.5,79.5C 146.052,77.0414 148.385,75.5414 151.5,75C 149.564,74.187 147.564,73.687 145.5,73.5C 145.98,64.3377 146.647,55.3377 147.5,46.5 Z"/></g>
<g><path style="opacity:0.404" fill="#725738" d="M 103.5,87.5 C 103.5,88.8333 103.5,90.1667 103.5,91.5C 103.5,92.8333 103.5,94.1667 103.5,95.5C 102.624,95.3691 101.957,95.7025 101.5,96.5C 96.0415,110.702 91.3748,125.035 87.5,139.5C 87.5,137.833 87.5,136.167 87.5,134.5C 87.5,134.167 87.5,133.833 87.5,133.5C 89.1628,131.562 89.8294,129.228 89.5,126.5C 92.7241,113.83 96.7241,101.496 101.5,89.5C 102.167,88.8333 102.833,88.1667 103.5,87.5 Z"/></g>
<g><path style="opacity:1" fill="#ac7731" d="M 200.5,77.5 C 199.883,77.6107 199.383,77.944 199,78.5C 196.492,75.0831 194.326,75.0831 192.5,78.5C 193.734,80.3983 193.401,82.065 191.5,83.5C 190.442,90.9117 189.109,98.245 187.5,105.5C 187.154,108.43 188.154,110.763 190.5,112.5C 192.33,110.973 193.33,111.473 193.5,114C 192.715,115.951 191.715,117.785 190.5,119.5C 190.833,120.167 191.167,120.833 191.5,121.5C 193.74,121.931 195.74,121.931 197.5,121.5C 197.5,122.167 197.833,122.5 198.5,122.5C 198.5,123.833 197.833,124.5 196.5,124.5C 194.777,126.253 193.277,128.253 192,130.5C 188.57,122.115 186.07,113.448 184.5,104.5C 187.016,94.1035 189.682,83.7702 192.5,73.5C 192.517,71.9719 193.184,71.4719 194.5,72C 196.763,73.617 198.763,75.4503 200.5,77.5 Z"/></g>
<g><path style="opacity:1" fill="#ad7832" d="M 115.5,62.5 C 116.5,63.1667 117.5,63.8333 118.5,64.5C 121.926,72.6755 124.593,81.0088 126.5,89.5C 126.294,100.511 125.794,111.511 125,122.5C 122.373,134.722 120.54,147.055 119.5,159.5C 117.844,164.731 116.51,170.065 115.5,175.5C 116.739,164.204 117.572,152.871 118,141.5C 118.357,134.729 119.857,128.396 122.5,122.5C 122.646,111.509 122.646,100.509 122.5,89.5C 121.276,84.8537 120.109,80.187 119,75.5C 118.417,73.9984 117.584,72.6651 116.5,71.5C 114.3,73.2529 113.133,75.5862 113,78.5C 112.581,77.3279 111.915,76.3279 111,75.5C 110.667,77.5 110.333,79.5 110,81.5C 107.684,83.6117 106.35,86.2784 106,89.5C 105.292,90.3805 104.458,91.0472 103.5,91.5C 103.5,90.1667 103.5,88.8333 103.5,87.5C 107.852,79.7861 110.852,71.4528 112.5,62.5C 113.5,62.5 114.5,62.5 115.5,62.5 Z"/></g>
<g><path style="opacity:1" fill="#e4a452" d="M 181.5,103.5 C 181.833,104.833 182.167,106.167 182.5,107.5C 188.329,125.48 193.829,143.48 199,161.5C 197.667,160.167 196.333,158.833 195,157.5C 191.723,152.586 188.223,147.92 184.5,143.5C 178.096,132.361 171.429,121.361 164.5,110.5C 165.239,110.369 165.906,110.536 166.5,111C 168.279,115.112 171.112,118.278 175,120.5C 175.915,119.672 176.581,118.672 177,117.5C 178.199,127.265 182.365,134.932 189.5,140.5C 185.991,127.671 182.324,115.004 178.5,102.5C 177.914,102.709 177.414,103.043 177,103.5C 176.667,99.8333 176.333,96.1667 176,92.5C 175.085,93.3279 174.419,94.3279 174,95.5C 174.253,92.867 174.253,90.2004 174,87.5C 171.626,85.6217 169.792,83.2884 168.5,80.5C 169.747,78.677 170.414,76.677 170.5,74.5C 166.658,74.8925 162.991,75.8925 159.5,77.5C 159.5,77.1667 159.5,76.8333 159.5,76.5C 161.754,75.8763 163.421,74.543 164.5,72.5C 166.258,72.1231 167.925,71.4565 169.5,70.5C 170.086,70.7093 170.586,71.0426 171,71.5C 174.236,82.3739 177.736,93.0406 181.5,103.5 Z"/></g>
<g><path style="opacity:1" fill="#a97839" d="M 103.5,95.5 C 102.01,101.126 100.677,106.793 99.5,112.5C 98.5,112.5 97.5,112.5 96.5,112.5C 96.6646,115.518 96.498,118.518 96,121.5C 95.586,121.957 95.086,122.291 94.5,122.5C 92.0744,131.045 89.9078,139.711 88,148.5C 86.9683,150.994 85.8017,153.328 84.5,155.5C 84.5,154.167 84.5,152.833 84.5,151.5C 87.114,148.069 88.114,144.069 87.5,139.5C 91.3748,125.035 96.0415,110.702 101.5,96.5C 101.957,95.7025 102.624,95.3691 103.5,95.5 Z"/></g>
<g><path style="opacity:1" fill="#d6a260" d="M 260.5,97.5 C 264.934,107.129 268.601,117.129 271.5,127.5C 270.504,127.586 269.671,127.252 269,126.5C 267.212,121.687 265.879,116.687 265,111.5C 264.104,108.918 262.771,106.584 261,104.5C 260.503,102.19 260.337,99.8568 260.5,97.5 Z"/></g>
<g><path style="opacity:1" fill="#673504" d="M 126.5,89.5 C 127.222,89.9175 127.722,90.5842 128,91.5C 127.944,113.227 125.111,135.894 119.5,159.5C 120.54,147.055 122.373,134.722 125,122.5C 125.794,111.511 126.294,100.511 126.5,89.5 Z"/></g>
<g><path style="opacity:0.416" fill="#9b8c78" d="M 89.5,126.5 C 89.8294,129.228 89.1628,131.562 87.5,133.5C 87.7215,130.933 88.3882,128.599 89.5,126.5 Z"/></g>
<g><path style="opacity:0.271" fill="#a99f88" d="M 87.5,134.5 C 87.5,136.167 87.5,137.833 87.5,139.5C 86.7972,141.629 85.7972,143.629 84.5,145.5C 84.7424,141.521 85.7424,137.854 87.5,134.5 Z"/></g>
<g><path style="opacity:0.2" fill="#a39385" d="M 275.5,135.5 C 276.768,137.905 277.435,140.572 277.5,143.5C 276.833,142.5 276.167,141.5 275.5,140.5C 275.5,138.833 275.5,137.167 275.5,135.5 Z"/></g>
<g><path style="opacity:1" fill="#aa7734" d="M 122.5,60.5 C 122.586,61.4959 122.252,62.3292 121.5,63C 123.782,67.8563 125.282,73.023 126,78.5C 127.889,83.2447 130.056,87.9114 132.5,92.5C 132.057,94.9851 131.724,97.4851 131.5,100C 132.047,109.066 132.713,118.066 133.5,127C 131.537,137.577 130.87,148.41 131.5,159.5C 130.167,159.5 128.833,159.5 127.5,159.5C 127.5,154.167 127.5,148.833 127.5,143.5C 126.698,144.952 126.198,146.618 126,148.5C 124.387,166.132 123.387,183.799 123,201.5C 120.873,203.114 119.373,205.114 118.5,207.5C 115.944,208.543 113.777,210.21 112,212.5C 113.152,202.902 114.319,193.235 115.5,183.5C 117.709,175.768 119.042,167.768 119.5,159.5C 125.111,135.894 127.944,113.227 128,91.5C 127.722,90.5842 127.222,89.9175 126.5,89.5C 126.407,84.3842 125.574,79.3842 124,74.5C 123.371,70.3935 121.537,67.0601 118.5,64.5C 118.833,62.1667 120.167,60.8333 122.5,60.5 Z"/></g>
<g><path style="opacity:1" fill="#5b2d05" d="M 127.5,143.5 C 128.166,137.175 128.832,130.841 129.5,124.5C 128.704,119.843 128.537,115.176 129,110.5C 130.572,118.755 130.905,127.089 130,135.5C 129.454,138.379 128.621,141.046 127.5,143.5 Z"/></g>
<g><path style="opacity:0.757" fill="#674929" d="M 275.5,140.5 C 276.167,141.5 276.833,142.5 277.5,143.5C 278.451,144.919 278.784,146.585 278.5,148.5C 278.5,150.167 278.5,151.833 278.5,153.5C 276.925,149.41 275.925,145.077 275.5,140.5 Z"/></g>
<g><path style="opacity:1" fill="#d6a35e" d="M 271.5,130.5 C 272.833,133.833 274.167,137.167 275.5,140.5C 275.925,145.077 276.925,149.41 278.5,153.5C 281.793,176.801 284.793,200.134 287.5,223.5C 282.267,192.544 276.934,161.544 271.5,130.5 Z"/></g>
<g><path style="opacity:0.806" fill="#5b401d" d="M 87.5,139.5 C 88.114,144.069 87.114,148.069 84.5,151.5C 84.5,149.833 84.5,148.167 84.5,146.5C 84.5,146.167 84.5,145.833 84.5,145.5C 85.7972,143.629 86.7972,141.629 87.5,139.5 Z"/></g>
<g><path style="opacity:0.216" fill="#c0b19e" d="M 84.5,146.5 C 84.5,148.167 84.5,149.833 84.5,151.5C 83.2318,153.905 82.5651,156.572 82.5,159.5C 81.8333,160.833 81.1667,162.167 80.5,163.5C 81.0735,157.545 82.4068,151.878 84.5,146.5 Z"/></g>
<g><path style="opacity:0.822" fill="#452809" d="M 84.5,151.5 C 84.5,152.833 84.5,154.167 84.5,155.5C 84.5,155.833 84.5,156.167 84.5,156.5C 83.8333,157.5 83.1667,158.5 82.5,159.5C 82.5651,156.572 83.2318,153.905 84.5,151.5 Z"/></g>
<g><path style="opacity:0.227" fill="#ac9687" d="M 278.5,148.5 C 279.913,151.219 280.58,154.219 280.5,157.5C 279.833,156.167 279.167,154.833 278.5,153.5C 278.5,151.833 278.5,150.167 278.5,148.5 Z"/></g>
<g><path style="opacity:1" fill="#713c0b" d="M 184.5,104.5 C 186.07,113.448 188.57,122.115 192,130.5C 193.277,128.253 194.777,126.253 196.5,124.5C 195.433,127.632 194.1,130.632 192.5,133.5C 195.423,144.607 199.089,155.274 203.5,165.5C 203.5,171.5 203.5,177.5 203.5,183.5C 202.596,184.209 202.263,185.209 202.5,186.5C 202.167,186.5 201.833,186.5 201.5,186.5C 201.666,179.825 201.5,173.158 201,166.5C 199.961,165.29 198.794,164.29 197.5,163.5C 192.353,157.355 188.02,150.688 184.5,143.5C 188.223,147.92 191.723,152.586 195,157.5C 196.333,158.833 197.667,160.167 199,161.5C 193.829,143.48 188.329,125.48 182.5,107.5C 183.167,106.5 183.833,105.5 184.5,104.5 Z"/></g>
<g><path style="opacity:0.937" fill="#735739" d="M 278.5,153.5 C 279.167,154.833 279.833,156.167 280.5,157.5C 280.28,162.1 280.946,166.433 282.5,170.5C 284.468,179.61 285.801,188.943 286.5,198.5C 286.229,203.434 286.896,208.1 288.5,212.5C 288.5,213.167 288.5,213.833 288.5,214.5C 288.5,217.5 288.5,220.5 288.5,223.5C 288.167,223.5 287.833,223.5 287.5,223.5C 284.793,200.134 281.793,176.801 278.5,153.5 Z"/></g>
<g><path style="opacity:1" fill="#ab7531" d="M 158.5,161.5 C 168.216,159.763 171.55,163.596 168.5,173C 163.274,174.164 158.441,173.331 154,170.5C 153.182,167.773 153.348,165.106 154.5,162.5C 156.297,163.932 157.63,163.599 158.5,161.5 Z"/></g>
<g><path style="opacity:1" fill="#6c3908" d="M 119.5,159.5 C 119.042,167.768 117.709,175.768 115.5,183.5C 115.5,180.833 115.5,178.167 115.5,175.5C 116.51,170.065 117.844,164.731 119.5,159.5 Z"/></g>
<g><path style="opacity:1" fill="#371b05" d="M 165.5,170.5 C 161.218,172.548 159.051,171.215 159,166.5C 162.502,163.534 165.335,164.034 167.5,168C 167.361,169.301 166.695,170.134 165.5,170.5 Z"/></g>
<g><path style="opacity:0.478" fill="#ab9d86" d="M 280.5,157.5 C 281.895,161.591 282.562,165.924 282.5,170.5C 280.946,166.433 280.28,162.1 280.5,157.5 Z"/></g>
<g><path style="opacity:1" fill="#a0763b" d="M 84.5,156.5 C 83.9108,161.481 83.4108,166.481 83,171.5C 82.7996,173.32 81.9663,174.653 80.5,175.5C 80.845,170.122 81.5117,164.789 82.5,159.5C 83.1667,158.5 83.8333,157.5 84.5,156.5 Z"/></g>
<g><path style="opacity:1" fill="#4d3f3c" d="M 165.5,170.5 C 161.862,171.263 160.362,169.93 161,166.5C 164.669,164.991 166.169,166.324 165.5,170.5 Z"/></g>
<g><path style="opacity:0.757" fill="#6b543d" d="M 82.5,159.5 C 81.5117,164.789 80.845,170.122 80.5,175.5C 79.596,176.209 79.2627,177.209 79.5,178.5C 78.1325,183.321 76.9659,188.321 76,193.5C 75.5065,191.866 75.3398,190.199 75.5,188.5C 76.2919,179.873 77.9586,171.54 80.5,163.5C 81.1667,162.167 81.8333,160.833 82.5,159.5 Z"/></g>
<g><path style="opacity:1" fill="#dea353" d="M 252.5,181.5 C 254.045,182.23 254.878,183.563 255,185.5C 255.781,195.505 256.614,205.505 257.5,215.5C 259.4,216.797 260.4,218.63 260.5,221C 259.595,227.8 259.261,234.633 259.5,241.5C 268.806,242.102 278.139,241.769 287.5,240.5C 288.105,234.889 288.105,229.222 287.5,223.5C 287.833,223.5 288.167,223.5 288.5,223.5C 288.194,226.385 288.527,229.052 289.5,231.5C 289.5,235.167 289.5,238.833 289.5,242.5C 279.796,242.685 270.129,243.352 260.5,244.5C 259.069,244.119 258.236,243.119 258,241.5C 257.259,233.102 256.426,224.769 255.5,216.5C 254.418,204.84 253.418,193.174 252.5,181.5 Z"/></g>
<g><path style="opacity:1" fill="#d7a15c" d="M 127.5,215.5 C 127.281,214.325 127.614,213.325 128.5,212.5C 131.529,210.305 134.029,207.638 136,204.5C 137.011,203.663 138.178,203.33 139.5,203.5C 139.167,200.5 140.5,199.167 143.5,199.5C 144.498,193.833 142.164,191.499 136.5,192.5C 136.649,193.552 136.483,194.552 136,195.5C 135.667,195.167 135.333,194.833 135,194.5C 130.221,199.279 125.387,204.113 120.5,209C 119.255,209.791 117.922,210.291 116.5,210.5C 117.167,209.5 117.833,208.5 118.5,207.5C 125.545,201.963 132.212,195.797 138.5,189C 141.776,190.237 144.609,192.403 147,195.5C 147.667,196.5 147.667,197.5 147,198.5C 140.679,204.318 134.179,209.984 127.5,215.5 Z"/></g>
<g><path style="opacity:1" fill="#b7782b" d="M 119.5,178.5 C 121.412,184.581 121.912,190.914 121,197.5C 120.01,200.626 118.844,203.626 117.5,206.5C 116.5,206.5 115.5,206.5 114.5,206.5C 115.836,197.146 117.503,187.813 119.5,178.5 Z"/></g>
<g><path style="opacity:1" fill="#db9f56" d="M 222.5,190.5 C 220.863,189.782 219.197,189.616 217.5,190C 215.167,193 212.833,196 210.5,199C 218.87,207.038 227.536,214.705 236.5,222C 237.823,222.816 238.489,223.983 238.5,225.5C 239.675,240.808 240.342,256.142 240.5,271.5C 239.883,271.389 239.383,271.056 239,270.5C 238.667,258.5 238.333,246.5 238,234.5C 236.749,230.918 235.749,227.251 235,223.5C 230.372,218.862 225.205,215.029 219.5,212C 217.533,209.564 215.866,207.064 214.5,204.5C 213.07,204.579 211.736,204.246 210.5,203.5C 209.371,197.402 211.371,192.402 216.5,188.5C 218.396,187.534 220.396,187.201 222.5,187.5C 222.5,188.5 222.5,189.5 222.5,190.5 Z"/></g>
<g><path style="opacity:1" fill="#9a7544" d="M 79.5,178.5 C 78.5001,187.833 77.3334,197.166 76,206.5C 75.6174,207.056 75.1174,207.389 74.5,207.5C 75.1901,203.51 75.3568,199.51 75,195.5C 74.79,197.058 74.29,198.391 73.5,199.5C 73.6459,195.613 74.3126,191.946 75.5,188.5C 75.3398,190.199 75.5065,191.866 76,193.5C 76.9659,188.321 78.1325,183.321 79.5,178.5 Z"/></g>
<g><path style="opacity:1" fill="#612f08" d="M 222.5,190.5 C 227.12,194.783 231.787,199.117 236.5,203.5C 237.48,200.914 237.813,198.247 237.5,195.5C 237.232,193.901 237.566,192.568 238.5,191.5C 238.45,196.552 238.95,201.552 240,206.5C 244.667,210.5 249.333,214.5 254,218.5C 254.464,217.906 254.631,217.239 254.5,216.5C 254.833,216.5 255.167,216.5 255.5,216.5C 256.426,224.769 257.259,233.102 258,241.5C 258.236,243.119 259.069,244.119 260.5,244.5C 259.5,245.167 258.5,245.833 257.5,246.5C 256.78,242.27 256.113,237.937 255.5,233.5C 255.633,228.728 254.3,228.562 251.5,233C 250.563,233.692 249.897,233.525 249.5,232.5C 250.983,230.906 252.483,229.24 254,227.5C 254.667,225.167 254.667,222.833 254,220.5C 243.127,210.625 231.961,201.125 220.5,192C 217.063,193.08 214.397,195.413 212.5,199C 224.362,209.366 236.028,219.866 247.5,230.5C 245.246,229.585 243.246,228.252 241.5,226.5C 240.791,225.596 239.791,225.263 238.5,225.5C 238.489,223.983 237.823,222.816 236.5,222C 227.536,214.705 218.87,207.038 210.5,199C 212.833,196 215.167,193 217.5,190C 219.197,189.616 220.863,189.782 222.5,190.5 Z"/></g>
<g><path style="opacity:1" fill="#aa7a31" d="M 197.5,163.5 C 198.794,164.29 199.961,165.29 201,166.5C 201.5,173.158 201.666,179.825 201.5,186.5C 202.128,193.913 201.461,200.913 199.5,207.5C 197.833,207.5 196.167,207.5 194.5,207.5C 196.19,206.897 197.69,205.897 199,204.5C 199.5,195.173 199.666,185.839 199.5,176.5C 195.143,176.414 190.81,176.08 186.5,175.5C 186.631,172.78 187.131,170.113 188,167.5C 191.459,166.408 194.626,165.075 197.5,163.5 Z"/></g>
<g><path style="opacity:1" fill="#392718" d="M 192.5,167.5 C 198.209,166.867 200.209,169.2 198.5,174.5C 191.746,176.532 189.746,174.199 192.5,167.5 Z"/></g>
<g><path style="opacity:1" fill="#5e2e08" d="M 127.5,143.5 C 127.5,148.833 127.5,154.167 127.5,159.5C 126.005,167.111 125.338,174.944 125.5,183C 125.833,188.167 126.167,193.333 126.5,198.5C 130.807,194.528 135.141,190.528 139.5,186.5C 143.167,189.833 146.833,193.167 150.5,196.5C 144.327,203.068 137.994,209.401 131.5,215.5C 129.537,217.279 127.371,218.946 125,220.5C 122.928,257.43 121.761,294.43 121.5,331.5C 118.167,331.5 114.833,331.5 111.5,331.5C 111.5,331.167 111.5,330.833 111.5,330.5C 114.167,330.5 116.833,330.5 119.5,330.5C 120.75,294.834 121.583,259.167 122,223.5C 121.329,224.252 120.496,224.586 119.5,224.5C 122.167,221.5 124.833,218.5 127.5,215.5C 134.179,209.984 140.679,204.318 147,198.5C 147.667,197.5 147.667,196.5 147,195.5C 144.609,192.403 141.776,190.237 138.5,189C 132.212,195.797 125.545,201.963 118.5,207.5C 119.373,205.114 120.873,203.114 123,201.5C 123.387,183.799 124.387,166.132 126,148.5C 126.198,146.618 126.698,144.952 127.5,143.5 Z"/></g>
<g><path style="opacity:0.29" fill="#c6baad" d="M 286.5,198.5 C 287.644,202.964 288.31,207.63 288.5,212.5C 286.896,208.1 286.229,203.434 286.5,198.5 Z"/></g>
<g><path style="opacity:0.865" fill="#40260d" d="M 74.5,207.5 C 74.5,208.833 74.5,210.167 74.5,211.5C 73.5184,208.038 73.185,204.371 73.5,200.5C 73.5,200.167 73.5,199.833 73.5,199.5C 74.29,198.391 74.79,197.058 75,195.5C 75.3568,199.51 75.1901,203.51 74.5,207.5 Z"/></g>
<g><path style="opacity:1" fill="#eca448" d="M 127.5,215.5 C 124.412,215.197 122.746,216.53 122.5,219.5C 119.449,221.74 116.116,223.24 112.5,224C 113.445,222.089 113.445,220.089 112.5,218C 113.979,215.539 115.313,213.039 116.5,210.5C 117.922,210.291 119.255,209.791 120.5,209C 125.387,204.113 130.221,199.279 135,194.5C 135.333,194.833 135.667,195.167 136,195.5C 136.483,194.552 136.649,193.552 136.5,192.5C 142.164,191.499 144.498,193.833 143.5,199.5C 140.5,199.167 139.167,200.5 139.5,203.5C 138.178,203.33 137.011,203.663 136,204.5C 134.029,207.638 131.529,210.305 128.5,212.5C 127.614,213.325 127.281,214.325 127.5,215.5 Z"/></g>
<g><path style="opacity:1" fill="#eda547" d="M 260.5,96.5 C 260.5,96.8333 260.5,97.1667 260.5,97.5C 260.337,99.8568 260.503,102.19 261,104.5C 262.771,106.584 264.104,108.918 265,111.5C 265.879,116.687 267.212,121.687 269,126.5C 269.671,127.252 270.504,127.586 271.5,127.5C 271.5,128.5 271.5,129.5 271.5,130.5C 276.934,161.544 282.267,192.544 287.5,223.5C 288.105,229.222 288.105,234.889 287.5,240.5C 278.139,241.769 268.806,242.102 259.5,241.5C 259.261,234.633 259.595,227.8 260.5,221C 260.4,218.63 259.4,216.797 257.5,215.5C 256.614,205.505 255.781,195.505 255,185.5C 254.878,183.563 254.045,182.23 252.5,181.5C 252.5,181.167 252.5,180.833 252.5,180.5C 251.94,168.272 250.106,156.272 247,144.5C 246.082,135.345 244.749,126.345 243,117.5C 241.441,115.783 240.608,113.783 240.5,111.5C 239.5,111.5 238.5,111.5 237.5,111.5C 234.042,103.053 233.709,94.3864 236.5,85.5C 236.043,84.7025 235.376,84.3691 234.5,84.5C 233.5,84.5 232.5,84.5 231.5,84.5C 230.492,90.6399 230.492,96.8066 231.5,103C 230.279,111.991 229.279,120.991 228.5,130C 230.714,140.009 232.714,149.843 234.5,159.5C 234.5,161.167 234.5,162.833 234.5,164.5C 234.666,173.506 234.5,182.506 234,191.5C 233.047,193.592 231.714,193.925 230,192.5C 229.667,193.167 229.333,193.833 229,194.5C 227.516,192.066 225.349,190.733 222.5,190.5C 222.5,189.5 222.5,188.5 222.5,187.5C 220.396,187.201 218.396,187.534 216.5,188.5C 211.371,192.402 209.371,197.402 210.5,203.5C 211.736,204.246 213.07,204.579 214.5,204.5C 215.866,207.064 217.533,209.564 219.5,212C 225.205,215.029 230.372,218.862 235,223.5C 235.749,227.251 236.749,230.918 238,234.5C 238.333,246.5 238.667,258.5 239,270.5C 239.383,271.056 239.883,271.389 240.5,271.5C 242.129,291.453 243.129,311.453 243.5,331.5C 242.167,331.5 240.833,331.5 239.5,331.5C 228.131,332.208 216.798,333.208 205.5,334.5C 205.5,324.167 205.5,313.833 205.5,303.5C 208.133,281.634 208.133,259.634 205.5,237.5C 206.163,214.11 206.163,190.777 205.5,167.5C 205.253,166.287 204.586,165.62 203.5,165.5C 199.089,155.274 195.423,144.607 192.5,133.5C 194.1,130.632 195.433,127.632 196.5,124.5C 197.833,124.5 198.5,123.833 198.5,122.5C 202.929,113.97 207.595,105.637 212.5,97.5C 213.117,97.6107 213.617,97.944 214,98.5C 215.879,93.8993 218.379,89.7326 221.5,86C 220.888,83.9423 219.888,82.109 218.5,80.5C 219.415,77.9127 220.415,75.4127 221.5,73C 220.005,64.9013 219.338,56.7347 219.5,48.5C 225.993,51.2086 232.327,54.3752 238.5,58C 240.96,59.4578 243.127,61.2911 245,63.5C 247.859,69.7902 249.525,76.4569 250,83.5C 251.154,84.7433 252.488,85.7433 254,86.5C 254.49,87.7932 254.657,89.1266 254.5,90.5C 255.675,90.281 256.675,90.6143 257.5,91.5C 257.957,93.5976 258.957,95.2642 260.5,96.5 Z"/></g>
<g><path style="opacity:1" fill="#dba057" d="M 236.5,159.5 C 237.812,161.743 238.478,164.41 238.5,167.5C 239.101,177.828 239.601,188.162 240,198.5C 241.044,200.715 241.71,203.048 242,205.5C 244.307,208.993 247.473,210.993 251.5,211.5C 250.352,198.095 249.352,184.762 248.5,171.5C 251.075,186.431 253.075,201.431 254.5,216.5C 254.631,217.239 254.464,217.906 254,218.5C 249.333,214.5 244.667,210.5 240,206.5C 238.95,201.552 238.45,196.552 238.5,191.5C 237.833,180.833 237.167,170.167 236.5,159.5 Z"/></g>
<g><path style="opacity:1" fill="#b1772e" d="M 249.5,232.5 C 248.5,232.167 247.833,231.5 247.5,230.5C 236.028,219.866 224.362,209.366 212.5,199C 214.397,195.413 217.063,193.08 220.5,192C 231.961,201.125 243.127,210.625 254,220.5C 254.667,222.833 254.667,225.167 254,227.5C 252.483,229.24 250.983,230.906 249.5,232.5 Z"/></g>
<g><path style="opacity:1" fill="#e4a453" d="M 234.5,164.5 C 235.459,174.837 236.459,185.17 237.5,195.5C 237.813,198.247 237.48,200.914 236.5,203.5C 231.787,199.117 227.12,194.783 222.5,190.5C 225.349,190.733 227.516,192.066 229,194.5C 229.333,193.833 229.667,193.167 230,192.5C 231.714,193.925 233.047,193.592 234,191.5C 234.5,182.506 234.666,173.506 234.5,164.5 Z"/></g>
<g><path style="opacity:1" fill="#eba54a" d="M 237.5,118.5 C 239.109,129.484 240.609,140.484 242,151.5C 244.173,157.546 246.34,163.546 248.5,169.5C 248.5,170.167 248.5,170.833 248.5,171.5C 249.352,184.762 250.352,198.095 251.5,211.5C 247.473,210.993 244.307,208.993 242,205.5C 241.71,203.048 241.044,200.715 240,198.5C 239.601,188.162 239.101,177.828 238.5,167.5C 238.478,164.41 237.812,161.743 236.5,159.5C 235.754,146.986 234.754,134.486 233.5,122C 233.472,118.41 233.972,114.91 235,111.5C 236.523,113.569 237.357,115.903 237.5,118.5 Z"/></g>
<g><path style="opacity:1" fill="#e1a357" d="M 237.5,111.5 C 238.5,111.5 239.5,111.5 240.5,111.5C 240.608,113.783 241.441,115.783 243,117.5C 244.749,126.345 246.082,135.345 247,144.5C 250.106,156.272 251.94,168.272 252.5,180.5C 248.099,162.159 244.599,143.492 242,124.5C 240.479,120.135 238.979,115.802 237.5,111.5 Z"/></g>
<g><path style="opacity:1" fill="#e1a253" d="M 234.5,84.5 C 233.222,92.0008 233.222,99.5008 234.5,107C 232.981,111.863 232.314,116.863 232.5,122C 233.188,134.503 233.854,147.003 234.5,159.5C 232.714,149.843 230.714,140.009 228.5,130C 229.279,120.991 230.279,111.991 231.5,103C 230.492,96.8066 230.492,90.6399 231.5,84.5C 232.5,84.5 233.5,84.5 234.5,84.5 Z"/></g>
<g><path style="opacity:1" fill="#753a09" d="M 234.5,84.5 C 235.376,84.3691 236.043,84.7025 236.5,85.5C 233.709,94.3864 234.042,103.053 237.5,111.5C 238.979,115.802 240.479,120.135 242,124.5C 244.599,143.492 248.099,162.159 252.5,180.5C 252.5,180.833 252.5,181.167 252.5,181.5C 253.418,193.174 254.418,204.84 255.5,216.5C 255.167,216.5 254.833,216.5 254.5,216.5C 253.075,201.431 251.075,186.431 248.5,171.5C 248.5,170.833 248.5,170.167 248.5,169.5C 245.239,153.934 242.405,138.267 240,122.5C 239.392,120.934 238.558,119.6 237.5,118.5C 237.357,115.903 236.523,113.569 235,111.5C 233.972,114.91 233.472,118.41 233.5,122C 234.754,134.486 235.754,146.986 236.5,159.5C 237.167,170.167 237.833,180.833 238.5,191.5C 237.566,192.568 237.232,193.901 237.5,195.5C 236.459,185.17 235.459,174.837 234.5,164.5C 234.5,162.833 234.5,161.167 234.5,159.5C 233.854,147.003 233.188,134.503 232.5,122C 232.314,116.863 232.981,111.863 234.5,107C 233.222,99.5008 233.222,92.0008 234.5,84.5 Z"/></g>
<g><path style="opacity:1" fill="#e1a256" d="M 237.5,118.5 C 238.558,119.6 239.392,120.934 240,122.5C 242.405,138.267 245.239,153.934 248.5,169.5C 246.34,163.546 244.173,157.546 242,151.5C 240.609,140.484 239.109,129.484 237.5,118.5 Z"/></g>
<g><path style="opacity:1" fill="#3f2e1a" d="M 194.5,207.5 C 196.167,207.5 197.833,207.5 199.5,207.5C 201.704,213.625 199.704,215.958 193.5,214.5C 192.534,212.604 192.201,210.604 192.5,208.5C 193.167,208.167 193.833,207.833 194.5,207.5 Z"/></g>
<g><path style="opacity:1" fill="#a17337" d="M 161.5,205.5 C 161.5,204.5 161.5,203.5 161.5,202.5C 168.329,201.828 171.163,204.828 170,211.5C 166.846,215.007 163.346,215.673 159.5,213.5C 158.52,210.914 158.187,208.247 158.5,205.5C 159.5,205.5 160.5,205.5 161.5,205.5 Z"/></g>
<g><path style="opacity:1" fill="#341b02" d="M 161.5,205.5 C 166.427,203.595 168.594,205.262 168,210.5C 161.645,214.201 159.478,212.534 161.5,205.5 Z"/></g>
<g><path style="opacity:1" fill="#494135" d="M 163.5,205.5 C 168.197,206.874 168.531,208.874 164.5,211.5C 160.867,210.059 160.534,208.059 163.5,205.5 Z"/></g>
<g><path style="opacity:1" fill="#9c6e3b" d="M 201.5,186.5 C 201.833,186.5 202.167,186.5 202.5,186.5C 202.829,201.676 202.496,216.676 201.5,231.5C 201.5,226.5 201.5,221.5 201.5,216.5C 198.421,216.74 195.421,216.407 192.5,215.5C 191.203,213.027 191.203,210.693 192.5,208.5C 192.201,210.604 192.534,212.604 193.5,214.5C 199.704,215.958 201.704,213.625 199.5,207.5C 201.461,200.913 202.128,193.913 201.5,186.5 Z"/></g>
<g><path style="opacity:1" fill="#daa256" d="M 116.5,210.5 C 115.313,213.039 113.979,215.539 112.5,218C 113.445,220.089 113.445,222.089 112.5,224C 116.116,223.24 119.449,221.74 122.5,219.5C 122.746,216.53 124.412,215.197 127.5,215.5C 124.833,218.5 122.167,221.5 119.5,224.5C 116.233,226.427 113.233,228.761 110.5,231.5C 109.304,226.142 109.471,220.809 111,215.5C 112.704,213.627 114.537,211.96 116.5,210.5 Z"/></g>
<g><path style="opacity:0.251" fill="#ab9a87" d="M 288.5,214.5 C 290.048,222.824 291.382,231.324 292.5,240C 292.472,241.07 292.139,241.903 291.5,242.5C 291.069,238.663 290.402,234.997 289.5,231.5C 288.527,229.052 288.194,226.385 288.5,223.5C 288.5,220.5 288.5,217.5 288.5,214.5 Z"/></g>
<g><path style="opacity:1" fill="#623106" d="M 115.5,183.5 C 114.319,193.235 113.152,202.902 112,212.5C 113.777,210.21 115.944,208.543 118.5,207.5C 117.833,208.5 117.167,209.5 116.5,210.5C 114.537,211.96 112.704,213.627 111,215.5C 109.471,220.809 109.304,226.142 110.5,231.5C 113.233,228.761 116.233,226.427 119.5,224.5C 119.443,225.609 119.11,226.609 118.5,227.5C 115.732,230.217 112.399,231.884 108.5,232.5C 107.671,237.453 107.337,242.453 107.5,247.5C 104.833,247.833 102.167,248.167 99.5,248.5C 98.5,248.5 97.5,248.5 96.5,248.5C 96.5,247.833 96.5,247.167 96.5,246.5C 99.8333,246.5 103.167,246.5 106.5,246.5C 106.712,233.377 108.046,220.377 110.5,207.5C 112.345,200.412 113.512,193.079 114,185.5C 114.278,184.584 114.778,183.918 115.5,183.5 Z"/></g>
<g><path style="opacity:0.204" fill="#cac0b3" d="M 72.5,211.5 C 72.7166,216.23 72.3833,220.897 71.5,225.5C 70.6387,232.571 70.6387,239.571 71.5,246.5C 70.1952,244.603 69.5286,242.269 69.5,239.5C 70.1179,229.977 71.1179,220.644 72.5,211.5 Z"/></g>
<g><path style="opacity:0.976" fill="#81643e" d="M 73.5,200.5 C 73.185,204.371 73.5184,208.038 74.5,211.5C 74.8674,218.415 74.2007,225.081 72.5,231.5C 72.7947,229.265 72.4614,227.265 71.5,225.5C 72.3833,220.897 72.7166,216.23 72.5,211.5C 72.185,207.629 72.5184,203.962 73.5,200.5 Z"/></g>
<g><path style="opacity:0.865" fill="#4a2e14" d="M 289.5,231.5 C 290.402,234.997 291.069,238.663 291.5,242.5C 291.5,242.833 291.5,243.167 291.5,243.5C 284.637,243.638 277.97,244.304 271.5,245.5C 267.671,244.931 264.337,245.598 261.5,247.5C 261.5,248.833 261.5,250.167 261.5,251.5C 261.828,262.346 261.494,273.013 260.5,283.5C 260.827,273.985 260.494,264.652 259.5,255.5C 260.055,251.988 259.388,248.988 257.5,246.5C 258.5,245.833 259.5,245.167 260.5,244.5C 270.129,243.352 279.796,242.685 289.5,242.5C 289.5,238.833 289.5,235.167 289.5,231.5 Z"/></g>
<g><path style="opacity:1" fill="#6e3a0e" d="M 203.5,183.5 C 203.5,218.159 203.834,252.826 204.5,287.5C 204.821,293.026 204.488,298.36 203.5,303.5C 203.167,303.5 202.833,303.5 202.5,303.5C 201.691,279.509 201.357,255.509 201.5,231.5C 202.496,216.676 202.829,201.676 202.5,186.5C 202.263,185.209 202.596,184.209 203.5,183.5 Z"/></g>
<g><path style="opacity:1" fill="#ac7837" d="M 110.5,207.5 C 108.046,220.377 106.712,233.377 106.5,246.5C 103.167,246.5 99.8333,246.5 96.5,246.5C 88.1134,246.42 79.78,245.753 71.5,244.5C 71.2322,242.901 71.5655,241.568 72.5,240.5C 72.5,241.5 72.5,242.5 72.5,243.5C 83.2288,244.652 93.5621,244.652 103.5,243.5C 105.035,238.819 105.702,233.986 105.5,229C 105.456,225.069 104.789,221.402 103.5,218C 104.954,214.533 106.287,211.033 107.5,207.5C 108.5,207.5 109.5,207.5 110.5,207.5 Z"/></g>
<g><path style="opacity:0.059" fill="#dacbc7" d="M 291.5,243.5 C 285.072,245.126 278.405,245.793 271.5,245.5C 277.97,244.304 284.637,243.638 291.5,243.5 Z"/></g>
<g><path style="opacity:0.012" fill="#e4d9d7" d="M 271.5,245.5 C 268.275,246.237 264.941,246.903 261.5,247.5C 264.337,245.598 267.671,244.931 271.5,245.5 Z"/></g>
<g><path style="opacity:0.147" fill="#c3b7ad" d="M 71.5,246.5 C 79.4903,247.023 87.4903,247.356 95.5,247.5C 95.81,250.713 95.4767,253.713 94.5,256.5C 94.9577,253.606 94.291,251.106 92.5,249C 85.2956,248.655 78.2956,247.821 71.5,246.5 Z"/></g>
<g><path style="opacity:1" fill="#b5782a" d="M 118.5,227.5 C 119.222,227.918 119.722,228.584 120,229.5C 121.013,260.612 119.846,291.612 116.5,322.5C 117.348,324.409 117.682,326.409 117.5,328.5C 110.48,328.498 103.48,328.165 96.5,327.5C 96.0507,301.079 97.0507,274.746 99.5,248.5C 102.167,248.167 104.833,247.833 107.5,247.5C 107.337,242.453 107.671,237.453 108.5,232.5C 112.399,231.884 115.732,230.217 118.5,227.5 Z"/></g>
<g><path style="opacity:1" fill="#e5a54f" d="M 203.5,165.5 C 204.586,165.62 205.253,166.287 205.5,167.5C 206.163,190.777 206.163,214.11 205.5,237.5C 208.133,259.634 208.133,281.634 205.5,303.5C 205.821,297.974 205.488,292.64 204.5,287.5C 203.834,252.826 203.5,218.159 203.5,183.5C 203.5,177.5 203.5,171.5 203.5,165.5 Z"/></g>
<g><path style="opacity:1" fill="#db9e57" d="M 241.5,226.5 C 243.246,228.252 245.246,229.585 247.5,230.5C 247.833,231.5 248.5,232.167 249.5,232.5C 249.897,233.525 250.563,233.692 251.5,233C 254.3,228.562 255.633,228.728 255.5,233.5C 254.883,233.389 254.383,233.056 254,232.5C 251.223,236.514 248.723,236.347 246.5,232C 245.207,231.51 243.873,231.343 242.5,231.5C 243.25,253.497 243.916,275.497 244.5,297.5C 242.823,277.512 241.49,257.345 240.5,237C 240.501,233.317 240.835,229.817 241.5,226.5 Z"/></g>
<g><path style="opacity:1" fill="#773c0c" d="M 238.5,225.5 C 239.791,225.263 240.791,225.596 241.5,226.5C 240.835,229.817 240.501,233.317 240.5,237C 241.49,257.345 242.823,277.512 244.5,297.5C 244.44,307.85 244.774,318.183 245.5,328.5C 245.5,329.167 245.5,329.833 245.5,330.5C 244.833,330.833 244.167,331.167 243.5,331.5C 243.129,311.453 242.129,291.453 240.5,271.5C 240.342,256.142 239.675,240.808 238.5,225.5 Z"/></g>
<g><path style="opacity:1" fill="#eba549" d="M 255.5,233.5 C 256.113,237.937 256.78,242.27 257.5,246.5C 259.388,248.988 260.055,251.988 259.5,255.5C 259.5,279.167 259.5,302.833 259.5,326.5C 254.889,327.485 250.222,328.152 245.5,328.5C 244.774,318.183 244.44,307.85 244.5,297.5C 243.916,275.497 243.25,253.497 242.5,231.5C 243.873,231.343 245.207,231.51 246.5,232C 248.723,236.347 251.223,236.514 254,232.5C 254.383,233.056 254.883,233.389 255.5,233.5 Z"/></g>
<g><path style="opacity:0.996" fill="#a7773a" d="M 111.5,330.5 C 106.153,329.927 100.82,329.26 95.5,328.5C 95.3467,301.825 95.68,275.158 96.5,248.5C 97.5,248.5 98.5,248.5 99.5,248.5C 97.0507,274.746 96.0507,301.079 96.5,327.5C 103.48,328.165 110.48,328.498 117.5,328.5C 117.682,326.409 117.348,324.409 116.5,322.5C 119.846,291.612 121.013,260.612 120,229.5C 119.722,228.584 119.222,227.918 118.5,227.5C 119.11,226.609 119.443,225.609 119.5,224.5C 120.496,224.586 121.329,224.252 122,223.5C 121.583,259.167 120.75,294.834 119.5,330.5C 116.833,330.5 114.167,330.5 111.5,330.5 Z"/></g>
<g><path style="opacity:0.846" fill="#9d8161" d="M 261.5,251.5 C 262.426,270.83 263.093,290.33 263.5,310C 263.499,315.677 263.166,321.177 262.5,326.5C 262.666,317.161 262.5,307.827 262,298.5C 261.83,308.342 261.33,318.009 260.5,327.5C 260.5,312.833 260.5,298.167 260.5,283.5C 261.494,273.013 261.828,262.346 261.5,251.5 Z"/></g>
<g><path style="opacity:1" fill="#5e391e" d="M 202.5,303.5 C 202.833,303.5 203.167,303.5 203.5,303.5C 203.567,314.177 203.901,324.844 204.5,335.5C 212.179,335.404 219.846,335.07 227.5,334.5C 227.5,334.833 227.5,335.167 227.5,335.5C 219.916,336.882 212.25,337.549 204.5,337.5C 199.968,337.818 195.634,337.485 191.5,336.5C 195.5,336.5 199.5,336.5 203.5,336.5C 202.649,325.523 202.316,314.523 202.5,303.5 Z"/></g>
<g><path style="opacity:1" fill="#d39b52" d="M 204.5,287.5 C 205.488,292.64 205.821,297.974 205.5,303.5C 205.5,313.833 205.5,324.167 205.5,334.5C 216.798,333.208 228.131,332.208 239.5,331.5C 235.539,332.684 231.539,333.684 227.5,334.5C 219.846,335.07 212.179,335.404 204.5,335.5C 203.901,324.844 203.567,314.177 203.5,303.5C 204.488,298.36 204.821,293.026 204.5,287.5 Z"/></g>
<g><path style="opacity:0.475" fill="#614c36" d="M 71.5,225.5 C 72.4614,227.265 72.7947,229.265 72.5,231.5C 72.5,234.5 72.5,237.5 72.5,240.5C 71.5655,241.568 71.2322,242.901 71.5,244.5C 79.78,245.753 88.1134,246.42 96.5,246.5C 96.5,247.167 96.5,247.833 96.5,248.5C 95.68,275.158 95.3467,301.825 95.5,328.5C 100.82,329.26 106.153,329.927 111.5,330.5C 111.5,330.833 111.5,331.167 111.5,331.5C 111.5,331.833 111.5,332.167 111.5,332.5C 106.435,332.1 101.435,331.267 96.5,330C 94.6667,329.5 93.5,328.333 93,326.5C 92.9447,303.155 93.4447,279.822 94.5,256.5C 95.4767,253.713 95.81,250.713 95.5,247.5C 87.4903,247.356 79.4903,247.023 71.5,246.5C 70.6387,239.571 70.6387,232.571 71.5,225.5 Z"/></g>
<g><path style="opacity:1" fill="#d5a35f" d="M 259.5,255.5 C 260.494,264.652 260.827,273.985 260.5,283.5C 260.5,298.167 260.5,312.833 260.5,327.5C 255.712,328.953 250.712,329.953 245.5,330.5C 245.5,329.833 245.5,329.167 245.5,328.5C 250.222,328.152 254.889,327.485 259.5,326.5C 259.5,302.833 259.5,279.167 259.5,255.5 Z"/></g>
<g><path style="opacity:0.557" fill="#644d39" d="M 262.5,326.5 C 262.64,328.124 261.973,329.29 260.5,330C 249.613,332.544 238.613,334.378 227.5,335.5C 227.5,335.167 227.5,334.833 227.5,334.5C 231.539,333.684 235.539,332.684 239.5,331.5C 240.833,331.5 242.167,331.5 243.5,331.5C 244.167,331.167 244.833,330.833 245.5,330.5C 250.712,329.953 255.712,328.953 260.5,327.5C 261.33,318.009 261.83,308.342 262,298.5C 262.5,307.827 262.666,317.161 262.5,326.5 Z"/></g>
<g><path style="opacity:1" fill="#aa7632" d="M 131.5,215.5 C 130.256,218.25 128.423,220.583 126,222.5C 123.342,258.981 123.175,295.315 125.5,331.5C 136.852,331.373 148.185,331.706 159.5,332.5C 159.5,331.5 159.5,330.5 159.5,329.5C 162.247,329.187 164.914,329.52 167.5,330.5C 170.028,331.816 170.028,332.983 167.5,334C 178.161,334.5 188.828,334.667 199.5,334.5C 198.969,329.382 197.969,324.382 196.5,319.5C 197.833,319.5 199.167,319.5 200.5,319.5C 199.887,313.729 200.554,308.396 202.5,303.5C 202.316,314.523 202.649,325.523 203.5,336.5C 199.5,336.5 195.5,336.5 191.5,336.5C 180.833,336.167 170.167,335.833 159.5,335.5C 146.995,333.782 134.328,332.449 121.5,331.5C 121.761,294.43 122.928,257.43 125,220.5C 127.371,218.946 129.537,217.279 131.5,215.5 Z"/></g>
<g><path style="opacity:0.345" fill="#5a4534" d="M 111.5,332.5 C 111.5,332.167 111.5,331.833 111.5,331.5C 114.833,331.5 118.167,331.5 121.5,331.5C 134.328,332.449 146.995,333.782 159.5,335.5C 159.5,335.833 159.5,336.167 159.5,336.5C 143.46,335.587 127.46,334.254 111.5,332.5 Z"/></g>
<g><path style="opacity:0.706" fill="#524030" d="M 159.5,336.5 C 159.5,336.167 159.5,335.833 159.5,335.5C 170.167,335.833 180.833,336.167 191.5,336.5C 195.634,337.485 199.968,337.818 204.5,337.5C 189.604,338.728 174.604,338.395 159.5,336.5 Z"/></g>
</svg>
