<?xml version="1.0" encoding="UTF-8"?>
<!DOCTYPE svg PUBLIC "-//W3C//DTD SVG 1.1//EN" "http://www.w3.org/Graphics/SVG/1.1/DTD/svg11.dtd">
<svg xmlns="http://www.w3.org/2000/svg" version="1.1" width="360px" height="360px" style="shape-rendering:geometricPrecision; text-rendering:geometricPrecision; image-rendering:optimizeQuality; fill-rule:evenodd; clip-rule:evenodd" xmlns:xlink="http://www.w3.org/1999/xlink">
<g><path style="opacity:0.11" fill="#9eafb9" d="M 236.5,4.5 C 237.919,3.54885 239.585,3.21552 241.5,3.5C 242.092,6.12717 242.425,8.79384 242.5,11.5C 241.539,8.94534 240.206,6.612 238.5,4.5C 237.833,4.5 237.167,4.5 236.5,4.5 Z"/></g>
<g><path style="opacity:0.234" fill="#def6fc" d="M 238.5,4.5 C 240.206,6.612 241.539,8.94534 242.5,11.5C 242.649,12.552 242.483,13.552 242,14.5C 240.526,11.2444 239.36,7.91104 238.5,4.5 Z"/></g>
<g><path style="opacity:0.063" fill="#dfeff7" d="M 215.5,9.5 C 212.456,11.0114 209.122,11.678 205.5,11.5C 208.589,10.2154 211.922,9.54877 215.5,9.5 Z"/></g>
<g><path style="opacity:0.047" fill="#a3aeb5" d="M 102.5,11.5 C 108.741,11.1389 115.074,11.8056 121.5,13.5C 120.903,14.1386 120.07,14.472 119,14.5C 113.443,13.7305 107.943,12.7305 102.5,11.5 Z"/></g>
<g><path style="opacity:1" fill="#5f85a6" d="M 236.5,4.5 C 237.167,4.5 237.833,4.5 238.5,4.5C 239.36,7.91104 240.526,11.2444 242,14.5C 242.483,13.552 242.649,12.552 242.5,11.5C 243.768,13.9052 244.435,16.5718 244.5,19.5C 244.565,22.4282 245.232,25.0948 246.5,27.5C 247.341,29.3792 247.675,31.3792 247.5,33.5C 247.322,37.1224 247.989,40.4557 249.5,43.5C 249.5,44.1667 249.5,44.8333 249.5,45.5C 249.657,46.8734 249.49,48.2068 249,49.5C 248.536,48.9056 248.369,48.2389 248.5,47.5C 246.167,42.6361 244,37.6361 242,32.5C 241.667,32.1667 241.333,31.8333 241,31.5C 240.79,33.0581 240.29,34.3915 239.5,35.5C 239.11,32.1606 238.61,28.8273 238,25.5C 237.612,24.572 236.945,23.9054 236,23.5C 231.89,24.8161 227.724,25.8161 223.5,26.5C 227.285,24.7341 231.285,23.2341 235.5,22C 233.942,17.4483 231.942,13.115 229.5,9C 221.434,10.5524 213.267,12.0524 205,13.5C 204.167,13.3333 203.333,13.1667 202.5,13C 203.416,12.7216 204.082,12.2216 204.5,11.5C 204.833,11.5 205.167,11.5 205.5,11.5C 209.122,11.678 212.456,11.0114 215.5,9.5C 222.445,7.68069 229.445,6.01402 236.5,4.5 Z"/></g>
<g><path style="opacity:0.037" fill="#e6f1f5" d="M 194.5,13.5 C 189.75,15.0308 184.75,15.6975 179.5,15.5C 184.29,14.2751 189.29,13.6084 194.5,13.5 Z"/></g>
<g><path style="opacity:1" fill="#759ec4" d="M 223.5,26.5 C 223.5,27.1667 223.167,27.5 222.5,27.5C 222.083,26.8761 221.416,26.5427 220.5,26.5C 211.09,28.358 202.423,30.358 194.5,32.5C 193.791,33.404 192.791,33.7373 191.5,33.5C 186.659,32.4682 181.659,32.4682 176.5,33.5C 176.608,28.1301 176.275,22.7968 175.5,17.5C 178.868,17.9639 180.202,17.6305 179.5,16.5C 179.5,16.1667 179.5,15.8333 179.5,15.5C 184.75,15.6975 189.75,15.0308 194.5,13.5C 197.627,12.4192 200.96,11.7526 204.5,11.5C 204.082,12.2216 203.416,12.7216 202.5,13C 203.333,13.1667 204.167,13.3333 205,13.5C 213.267,12.0524 221.434,10.5524 229.5,9C 231.942,13.115 233.942,17.4483 235.5,22C 231.285,23.2341 227.285,24.7341 223.5,26.5 Z"/></g>
<g><path style="opacity:0.898" fill="#cce0ea" d="M 102.5,11.5 C 107.943,12.7305 113.443,13.7305 119,14.5C 120.07,14.472 120.903,14.1386 121.5,13.5C 128.339,13.8891 135.006,14.5558 141.5,15.5C 136.979,15.5023 132.479,15.8356 128,16.5C 119.842,15.4724 111.675,14.9724 103.5,15C 102.261,18.3642 101.594,21.8642 101.5,25.5C 100.848,24.5514 100.514,23.3847 100.5,22C 101.091,18.4728 101.758,14.9728 102.5,11.5 Z"/></g>
<g><path style="opacity:0.055" fill="#e1f6fb" d="M 145.5,16.5 C 145.5,16.1667 145.5,15.8333 145.5,15.5C 156.833,15.5 168.167,15.5 179.5,15.5C 179.5,15.8333 179.5,16.1667 179.5,16.5C 177.5,16.5 175.5,16.5 173.5,16.5C 172.022,17.4475 171.022,18.7809 170.5,20.5C 170.5,19.1667 170.5,17.8333 170.5,16.5C 162.167,16.5 153.833,16.5 145.5,16.5 Z"/></g>
<g><path style="opacity:1" fill="#749ec4" d="M 141.5,15.5 C 142.833,15.5 144.167,15.5 145.5,15.5C 145.5,15.8333 145.5,16.1667 145.5,16.5C 146.609,17.29 147.942,17.79 149.5,18C 156.158,18.4996 162.825,18.6663 169.5,18.5C 169.5,23.5 169.5,28.5 169.5,33.5C 161.167,33.5 152.833,33.5 144.5,33.5C 129.879,32.8419 115.546,30.5086 101.5,26.5C 101.5,26.1667 101.5,25.8333 101.5,25.5C 101.594,21.8642 102.261,18.3642 103.5,15C 111.675,14.9724 119.842,15.4724 128,16.5C 132.479,15.8356 136.979,15.5023 141.5,15.5 Z"/></g>
<g><path style="opacity:1" fill="#79a6c9" d="M 173.5,16.5 C 173.037,22.1087 173.37,27.7754 174.5,33.5C 173.167,33.5 171.833,33.5 170.5,33.5C 170.5,29.1667 170.5,24.8333 170.5,20.5C 171.022,18.7809 172.022,17.4475 173.5,16.5 Z"/></g>
<g><path style="opacity:0.18" fill="#b3c6d5" d="M 244.5,19.5 C 246.04,21.8383 246.706,24.5049 246.5,27.5C 245.232,25.0948 244.565,22.4282 244.5,19.5 Z"/></g>
<g><path style="opacity:1" fill="#8db9d3" d="M 239.5,35.5 C 239.328,36.4916 239.662,37.1583 240.5,37.5C 241.51,45.2256 242.843,52.8923 244.5,60.5C 244.043,61.2975 243.376,61.6309 242.5,61.5C 239.044,58.9326 235.377,56.5993 231.5,54.5C 226.196,47.0965 222.53,38.9299 220.5,30C 220.684,28.6244 221.351,27.7911 222.5,27.5C 223.167,27.5 223.5,27.1667 223.5,26.5C 227.724,25.8161 231.89,24.8161 236,23.5C 236.945,23.9054 237.612,24.572 238,25.5C 238.61,28.8273 239.11,32.1606 239.5,35.5 Z"/></g>
<g><path style="opacity:1" fill="#4a779a" d="M 100.5,27.5 C 100.5,26.8333 100.833,26.5 101.5,26.5C 115.546,30.5086 129.879,32.8419 144.5,33.5C 144.5,33.8333 144.5,34.1667 144.5,34.5C 142.167,34.5 139.833,34.5 137.5,34.5C 136.215,41.8569 134.215,49.0235 131.5,56C 131.164,57.0299 130.497,57.5299 129.5,57.5C 131.897,51.3077 133.897,44.9743 135.5,38.5C 132.503,37.7518 129.503,37.0851 126.5,36.5C 125.824,37.6016 125.158,38.6016 124.5,39.5C 124.674,37.139 125.007,34.8056 125.5,32.5C 120.773,32.221 116.107,31.5544 111.5,30.5C 107.241,30.1019 105.408,32.1019 106,36.5C 105.51,35.2068 105.343,33.8734 105.5,32.5C 104.448,32.6495 103.448,32.4828 102.5,32C 101.901,30.3775 101.234,28.8775 100.5,27.5 Z"/></g>
<g><path style="opacity:0.375" fill="#a7b7c3" d="M 102.5,11.5 C 101.758,14.9728 101.091,18.4728 100.5,22C 100.514,23.3847 100.848,24.5514 101.5,25.5C 101.5,25.8333 101.5,26.1667 101.5,26.5C 100.833,26.5 100.5,26.8333 100.5,27.5C 100.5,28.1667 100.5,28.8333 100.5,29.5C 99.6829,31.9686 99.1829,34.6353 99,37.5C 98.5045,35.5273 98.3379,33.5273 98.5,31.5C 98.1502,25.0403 98.8169,18.707 100.5,12.5C 100.957,11.7025 101.624,11.3691 102.5,11.5 Z"/></g>
<g><path style="opacity:1" fill="#5d86a4" d="M 145.5,16.5 C 153.833,16.5 162.167,16.5 170.5,16.5C 170.5,17.8333 170.5,19.1667 170.5,20.5C 170.5,24.8333 170.5,29.1667 170.5,33.5C 171.833,33.5 173.167,33.5 174.5,33.5C 172.5,34.1667 170.5,34.8333 168.5,35.5C 162.167,35.5 155.833,35.5 149.5,35.5C 148.081,34.5489 146.415,34.2155 144.5,34.5C 144.5,34.1667 144.5,33.8333 144.5,33.5C 152.833,33.5 161.167,33.5 169.5,33.5C 169.5,28.5 169.5,23.5 169.5,18.5C 162.825,18.6663 156.158,18.4996 149.5,18C 147.942,17.79 146.609,17.29 145.5,16.5 Z"/></g>
<g><path style="opacity:1" fill="#8eb8d1" d="M 214.5,47.5 C 215.998,52.3217 218.664,56.3217 222.5,59.5C 223.203,61.7157 224.536,63.549 226.5,65C 229.887,68.0535 233.553,70.7202 237.5,73C 236.289,73.8928 236.289,74.7261 237.5,75.5C 240.592,77.9296 243.925,79.9296 247.5,81.5C 248.973,86.249 250.307,90.9156 251.5,95.5C 251.754,101.095 252.754,106.428 254.5,111.5C 255.44,122.491 257.44,133.158 260.5,143.5C 266.956,183.773 274.29,223.773 282.5,263.5C 283.401,272.238 284.734,280.905 286.5,289.5C 286.328,290.492 286.662,291.158 287.5,291.5C 287.5,293.833 287.5,296.167 287.5,298.5C 273.018,302.715 258.352,306.215 243.5,309C 231.811,310.894 220.144,311.394 208.5,310.5C 206.038,294.69 202.871,279.024 199,263.5C 196.666,247.498 194.333,231.498 192,215.5C 191.505,217.473 191.338,219.473 191.5,221.5C 188.444,204.734 186.111,187.734 184.5,170.5C 185.152,169.551 185.486,168.385 185.5,167C 185,163.5 184.5,160 184,156.5C 183.506,158.134 183.34,159.801 183.5,161.5C 181.865,154.724 180.865,147.724 180.5,140.5C 181.156,139.378 181.489,138.045 181.5,136.5C 180.012,125.054 179.345,113.554 179.5,102C 180.131,79.3848 180.798,56.8848 181.5,34.5C 184.807,33.9492 188.14,33.6159 191.5,33.5C 192.791,33.7373 193.791,33.404 194.5,32.5C 198.577,32.265 202.577,31.5983 206.5,30.5C 208.802,36.4402 211.469,42.1068 214.5,47.5 Z"/></g>
<g><path style="opacity:1" fill="#8db8d1" d="M 149.5,35.5 C 155.833,35.5 162.167,35.5 168.5,35.5C 168.5,44.8333 168.5,54.1667 168.5,63.5C 169.157,71.4809 169.657,79.4809 170,87.5C 170.354,92.3893 171.187,97.056 172.5,101.5C 173.654,108.248 173.154,114.914 171,121.5C 166.32,183.61 160.486,245.61 153.5,307.5C 138.003,310.541 122.336,311.875 106.5,311.5C 99.1272,310.66 91.7939,309.494 84.5,308C 83.9781,307.439 83.6448,306.772 83.5,306C 85.6905,283.88 87.3572,261.713 88.5,239.5C 90.5088,227.731 91.5088,215.731 91.5,203.5C 92.4834,199.702 92.8168,195.702 92.5,191.5C 94.7421,175.722 96.0754,159.722 96.5,143.5C 99.0757,124.39 100.742,105.057 101.5,85.5C 102.338,85.1583 102.672,84.4916 102.5,83.5C 103.167,83.5 103.5,83.1667 103.5,82.5C 113.283,78.3802 121.283,72.0469 127.5,63.5C 130.361,61.9912 132.694,59.8245 134.5,57C 138.646,50.542 142.146,43.7087 145,36.5C 146.356,35.6198 147.856,35.2865 149.5,35.5 Z"/></g>
<g><path style="opacity:1" fill="#5a85a6" d="M 177.5,38.5 C 174.881,38.2317 172.381,38.565 170,39.5C 169.829,47.6772 169.329,55.6772 168.5,63.5C 168.5,54.1667 168.5,44.8333 168.5,35.5C 171.249,35.7261 173.916,35.3928 176.5,34.5C 177.429,35.6888 177.762,37.0222 177.5,38.5 Z"/></g>
<g><path style="opacity:1" fill="#4c789a" d="M 222.5,27.5 C 221.351,27.7911 220.684,28.6244 220.5,30C 222.53,38.9299 226.196,47.0965 231.5,54.5C 229.376,53.9688 227.876,52.6355 227,50.5C 224.014,45.041 221.514,39.3744 219.5,33.5C 216.554,32.6789 213.554,32.6789 210.5,33.5C 211.253,38.337 212.586,43.0037 214.5,47.5C 211.469,42.1068 208.802,36.4402 206.5,30.5C 202.577,31.5983 198.577,32.265 194.5,32.5C 202.423,30.358 211.09,28.358 220.5,26.5C 221.416,26.5427 222.083,26.8761 222.5,27.5 Z"/></g>
<g><path style="opacity:1" fill="#75a0c3" d="M 177.5,38.5 C 178.157,63.1896 177.49,87.5229 175.5,111.5C 175.41,107.786 174.41,104.452 172.5,101.5C 171.187,97.056 170.354,92.3893 170,87.5C 169.657,79.4809 169.157,71.4809 168.5,63.5C 169.329,55.6772 169.829,47.6772 170,39.5C 172.381,38.565 174.881,38.2317 177.5,38.5 Z"/></g>
<g><path style="opacity:1" fill="#6b9bbc" d="M 144.5,34.5 C 146.415,34.2155 148.081,34.5489 149.5,35.5C 147.856,35.2865 146.356,35.6198 145,36.5C 142.146,43.7087 138.646,50.542 134.5,57C 132.694,59.8245 130.361,61.9912 127.5,63.5C 128.73,61.7028 129.396,59.7028 129.5,57.5C 130.497,57.5299 131.164,57.0299 131.5,56C 134.215,49.0235 136.215,41.8569 137.5,34.5C 139.833,34.5 142.167,34.5 144.5,34.5 Z"/></g>
<g><path style="opacity:1" fill="#517d9c" d="M 245.5,63.5 C 244.29,63.0679 243.29,62.4013 242.5,61.5C 243.376,61.6309 244.043,61.2975 244.5,60.5C 242.843,52.8923 241.51,45.2256 240.5,37.5C 241.341,36.9907 241.841,37.6573 242,39.5C 243.711,47.4305 244.878,55.4305 245.5,63.5 Z"/></g>
<g><path style="opacity:0.141" fill="#c8dae8" d="M 247.5,33.5 C 248.785,36.5885 249.451,39.9219 249.5,43.5C 247.989,40.4557 247.322,37.1224 247.5,33.5 Z"/></g>
<g><path style="opacity:1" fill="#3d6a8d" d="M 173.5,16.5 C 175.5,16.5 177.5,16.5 179.5,16.5C 180.202,17.6305 178.868,17.9639 175.5,17.5C 176.275,22.7968 176.608,28.1301 176.5,33.5C 181.659,32.4682 186.659,32.4682 191.5,33.5C 188.14,33.6159 184.807,33.9492 181.5,34.5C 180.5,34.5 179.5,34.5 178.5,34.5C 178.5,60.5 178.5,86.5 178.5,112.5C 177.209,112.737 176.209,112.404 175.5,111.5C 177.49,87.5229 178.157,63.1896 177.5,38.5C 177.762,37.0222 177.429,35.6888 176.5,34.5C 173.916,35.3928 171.249,35.7261 168.5,35.5C 170.5,34.8333 172.5,34.1667 174.5,33.5C 173.37,27.7754 173.037,22.1087 173.5,16.5 Z"/></g>
<g><path style="opacity:0.725" fill="#bacddb" d="M 100.5,29.5 C 98.6642,60.2074 96.3308,90.874 93.5,121.5C 92.8333,119.5 92.1667,117.5 91.5,115.5C 93.2741,87.3052 95.6074,59.3052 98.5,31.5C 98.3379,33.5273 98.5045,35.5273 99,37.5C 99.1829,34.6353 99.6829,31.9686 100.5,29.5 Z"/></g>
<g><path style="opacity:1" fill="#48779b" d="M 104.5,64.5 C 104.5,64.8333 104.5,65.1667 104.5,65.5C 103.278,71.091 102.612,77.091 102.5,83.5C 102.131,68.9566 102.965,54.2899 105,39.5C 105.458,47.8429 105.291,56.1763 104.5,64.5 Z"/></g>
<g><path style="opacity:1" fill="#91b9d3" d="M 111.5,30.5 C 116.107,31.5544 120.773,32.221 125.5,32.5C 125.007,34.8056 124.674,37.139 124.5,39.5C 122.912,41.5273 122.412,43.8606 123,46.5C 123.333,45.5 123.667,44.5 124,43.5C 123.027,53.7715 118.193,61.7715 109.5,67.5C 109.167,66.8333 108.833,66.1667 108.5,65.5C 107.5,66.1667 106.5,66.8333 105.5,67.5C 105.213,66.7997 104.88,66.1331 104.5,65.5C 104.5,65.1667 104.5,64.8333 104.5,64.5C 107.324,53.3838 109.657,42.0504 111.5,30.5 Z"/></g>
<g><path style="opacity:1" fill="#729dc1" d="M 231.5,54.5 C 235.377,56.5993 239.044,58.9326 242.5,61.5C 243.29,62.4013 244.29,63.0679 245.5,63.5C 245.423,67.2148 245.756,70.8815 246.5,74.5C 243.763,73.969 241.096,73.1356 238.5,72C 233.005,68.0004 227.671,63.8337 222.5,59.5C 218.664,56.3217 215.998,52.3217 214.5,47.5C 212.586,43.0037 211.253,38.337 210.5,33.5C 213.554,32.6789 216.554,32.6789 219.5,33.5C 221.514,39.3744 224.014,45.041 227,50.5C 227.876,52.6355 229.376,53.9688 231.5,54.5 Z"/></g>
<g><path style="opacity:1" fill="#749ec2" d="M 129.5,57.5 C 126.946,61.5729 123.946,65.4063 120.5,69C 118.924,68.8481 117.591,68.0148 116.5,66.5C 112.661,67.7213 112.661,68.3879 116.5,68.5C 116.33,69.8221 116.663,70.9887 117.5,72C 112.671,75.3348 108.005,78.8348 103.5,82.5C 103.5,83.1667 103.167,83.5 102.5,83.5C 102.612,77.091 103.278,71.091 104.5,65.5C 104.88,66.1331 105.213,66.7997 105.5,67.5C 106.5,66.8333 107.5,66.1667 108.5,65.5C 108.833,66.1667 109.167,66.8333 109.5,67.5C 118.193,61.7715 123.027,53.7715 124,43.5C 123.667,44.5 123.333,45.5 123,46.5C 122.412,43.8606 122.912,41.5273 124.5,39.5C 125.158,38.6016 125.824,37.6016 126.5,36.5C 129.503,37.0851 132.503,37.7518 135.5,38.5C 133.897,44.9743 131.897,51.3077 129.5,57.5 Z"/></g>
<g><path style="opacity:1" fill="#7e9fb9" d="M 249.5,45.5 C 253.678,63.2192 257.011,81.2192 259.5,99.5C 258.71,98.3915 258.21,97.0581 258,95.5C 258.341,102.218 259.341,108.885 261,115.5C 261.49,114.207 261.657,112.873 261.5,111.5C 262.785,114.589 263.451,117.922 263.5,121.5C 262.566,120.432 262.232,119.099 262.5,117.5C 261.178,117.67 260.011,117.337 259,116.5C 256.849,104.229 255.182,91.8961 254,79.5C 253.333,78.8333 252.667,78.1667 252,77.5C 251.522,70.1593 251.022,62.8259 250.5,55.5C 248.891,55.9059 247.557,55.9059 246.5,55.5C 247.08,52.6894 247.746,50.0227 248.5,47.5C 248.369,48.2389 248.536,48.9056 249,49.5C 249.49,48.2068 249.657,46.8734 249.5,45.5 Z"/></g>
<g><path style="opacity:1" fill="#5886a8" d="M 222.5,59.5 C 227.671,63.8337 233.005,68.0004 238.5,72C 241.096,73.1356 243.763,73.969 246.5,74.5C 245.756,70.8815 245.423,67.2148 245.5,63.5C 248.374,73.8752 250.374,84.5419 251.5,95.5C 250.307,90.9156 248.973,86.249 247.5,81.5C 243.925,79.9296 240.592,77.9296 237.5,75.5C 236.289,74.7261 236.289,73.8928 237.5,73C 233.553,70.7202 229.887,68.0535 226.5,65C 224.536,63.549 223.203,61.7157 222.5,59.5 Z"/></g>
<g><path style="opacity:1" fill="#5581a3" d="M 129.5,57.5 C 129.396,59.7028 128.73,61.7028 127.5,63.5C 121.283,72.0469 113.283,78.3802 103.5,82.5C 108.005,78.8348 112.671,75.3348 117.5,72C 116.663,70.9887 116.33,69.8221 116.5,68.5C 112.661,68.3879 112.661,67.7213 116.5,66.5C 117.591,68.0148 118.924,68.8481 120.5,69C 123.946,65.4063 126.946,61.5729 129.5,57.5 Z"/></g>
<g><path style="opacity:0.851" fill="#748ca1" d="M 259.5,99.5 C 260.795,103.267 261.461,107.267 261.5,111.5C 261.657,112.873 261.49,114.207 261,115.5C 259.341,108.885 258.341,102.218 258,95.5C 258.21,97.0581 258.71,98.3915 259.5,99.5 Z"/></g>
<g><path style="opacity:1" fill="#4d799b" d="M 101.5,85.5 C 100.742,105.057 99.0757,124.39 96.5,143.5C 97.2825,123.371 98.9492,104.038 101.5,85.5 Z"/></g>
<g><path style="opacity:1" fill="#4e7b9f" d="M 254.5,111.5 C 257.129,121.927 259.129,132.594 260.5,143.5C 257.44,133.158 255.44,122.491 254.5,111.5 Z"/></g>
<g><path style="opacity:1" fill="#507ea1" d="M 96.5,143.5 C 96.0754,159.722 94.7421,175.722 92.5,191.5C 92.7357,175.261 94.069,159.261 96.5,143.5 Z"/></g>
<g><path style="opacity:0.961" fill="#aac0d2" d="M 91.5,115.5 C 92.1667,117.5 92.8333,119.5 93.5,121.5C 91.5908,144.153 89.7574,166.82 88,189.5C 87.9504,191.744 87.1171,193.411 85.5,194.5C 86.906,168.11 88.906,141.777 91.5,115.5 Z"/></g>
<g><path style="opacity:0.753" fill="#7f99a9" d="M 184.5,170.5 C 183.597,167.609 183.264,164.609 183.5,161.5C 183.34,159.801 183.506,158.134 184,156.5C 184.5,160 185,163.5 185.5,167C 185.486,168.385 185.152,169.551 184.5,170.5 Z"/></g>
<g><path style="opacity:0.858" fill="#6f8ea3" d="M 174.5,166.5 C 174.805,175.917 174.472,185.25 173.5,194.5C 172.421,177.656 172.588,160.656 174,143.5C 174.5,151.159 174.666,158.826 174.5,166.5 Z"/></g>
<g><path style="opacity:1" fill="#7997b2" d="M 263.5,122.5 C 267.678,140.892 271.011,159.558 273.5,178.5C 273.587,181.598 273.087,181.932 272,179.5C 270.844,175.582 270.344,171.582 270.5,167.5C 268.897,167.688 267.563,167.188 266.5,166C 267.046,153.411 265.713,140.911 262.5,128.5C 263.156,126.547 263.489,124.547 263.5,122.5 Z"/></g>
<g><path style="opacity:1" fill="#739cc0" d="M 100.5,27.5 C 101.234,28.8775 101.901,30.3775 102.5,32C 103.448,32.4828 104.448,32.6495 105.5,32.5C 105.343,33.8734 105.51,35.2068 106,36.5C 105.408,32.1019 107.241,30.1019 111.5,30.5C 109.657,42.0504 107.324,53.3838 104.5,64.5C 105.291,56.1763 105.458,47.8429 105,39.5C 102.965,54.2899 102.131,68.9566 102.5,83.5C 102.672,84.4916 102.338,85.1583 101.5,85.5C 98.9492,104.038 97.2825,123.371 96.5,143.5C 94.069,159.261 92.7357,175.261 92.5,191.5C 92.8168,195.702 92.4834,199.702 91.5,203.5C 89.7924,215.295 88.7924,227.295 88.5,239.5C 86.178,260.485 84.178,281.652 82.5,303C 82.1667,304.5 81.8333,306 81.5,307.5C 80.2638,306.754 78.9305,306.421 77.5,306.5C 78.4171,303.995 78.4171,301.662 77.5,299.5C 77.5,297.833 77.5,296.167 77.5,294.5C 77.3375,289.453 77.6708,284.453 78.5,279.5C 79.2216,279.918 79.7216,280.584 80,281.5C 81.9066,264.881 83.0733,248.214 83.5,231.5C 85.4973,223.55 85.8306,215.55 84.5,207.5C 84.2307,203.069 84.564,198.735 85.5,194.5C 87.1171,193.411 87.9504,191.744 88,189.5C 89.7574,166.82 91.5908,144.153 93.5,121.5C 96.3308,90.874 98.6642,60.2074 100.5,29.5C 100.5,28.8333 100.5,28.1667 100.5,27.5 Z"/></g>
<g><path style="opacity:1" fill="#739fc6" d="M 248.5,47.5 C 247.746,50.0227 247.08,52.6894 246.5,55.5C 247.557,55.9059 248.891,55.9059 250.5,55.5C 251.022,62.8259 251.522,70.1593 252,77.5C 252.667,78.1667 253.333,78.8333 254,79.5C 255.182,91.8961 256.849,104.229 259,116.5C 260.011,117.337 261.178,117.67 262.5,117.5C 262.232,119.099 262.566,120.432 263.5,121.5C 263.5,121.833 263.5,122.167 263.5,122.5C 263.489,124.547 263.156,126.547 262.5,128.5C 265.713,140.911 267.046,153.411 266.5,166C 267.563,167.188 268.897,167.688 270.5,167.5C 270.344,171.582 270.844,175.582 272,179.5C 273.087,181.932 273.587,181.598 273.5,178.5C 274.451,179.919 274.784,181.585 274.5,183.5C 273.861,184.097 273.528,184.93 273.5,186C 276.002,197.847 277.668,209.847 278.5,222C 278.664,224.544 277.997,226.71 276.5,228.5C 271.687,199.938 266.354,171.605 260.5,143.5C 259.129,132.594 257.129,121.927 254.5,111.5C 252.754,106.428 251.754,101.095 251.5,95.5C 250.374,84.5419 248.374,73.8752 245.5,63.5C 244.878,55.4305 243.711,47.4305 242,39.5C 241.841,37.6573 241.341,36.9907 240.5,37.5C 239.662,37.1583 239.328,36.4916 239.5,35.5C 240.29,34.3915 240.79,33.0581 241,31.5C 241.333,31.8333 241.667,32.1667 242,32.5C 244,37.6361 246.167,42.6361 248.5,47.5 Z"/></g>
<g><path style="opacity:1" fill="#4c7a9c" d="M 260.5,143.5 C 266.354,171.605 271.687,199.938 276.5,228.5C 277.675,232.042 278.341,235.709 278.5,239.5C 280.298,247.417 281.631,255.417 282.5,263.5C 274.29,223.773 266.956,183.773 260.5,143.5 Z"/></g>
<g><path style="opacity:1" fill="#487598" d="M 91.5,203.5 C 91.5088,215.731 90.5088,227.731 88.5,239.5C 88.7924,227.295 89.7924,215.295 91.5,203.5 Z"/></g>
<g><path style="opacity:0.937" fill="#608197" d="M 172.5,220.5 C 172.5,224.167 172.5,227.833 172.5,231.5C 171.673,236.651 171.173,241.984 171,247.5C 170.199,231.474 170.532,215.474 172,199.5C 172.5,206.492 172.666,213.492 172.5,220.5 Z"/></g>
<g><path style="opacity:0.871" fill="#7e9aaf" d="M 84.5,207.5 C 85.8306,215.55 85.4973,223.55 83.5,231.5C 83.1667,231.5 82.8333,231.5 82.5,231.5C 82.6164,223.307 83.2831,215.307 84.5,207.5 Z"/></g>
<g><path style="opacity:1" fill="#6d9bb9" d="M 181.5,34.5 C 180.798,56.8848 180.131,79.3848 179.5,102C 179.345,113.554 180.012,125.054 181.5,136.5C 181.489,138.045 181.156,139.378 180.5,140.5C 179.279,135.614 178.612,130.614 178.5,125.5C 178.001,121.51 177.501,117.51 177,113.5C 176.502,116.482 176.335,119.482 176.5,122.5C 176.382,137.347 175.715,152.014 174.5,166.5C 174.666,158.826 174.5,151.159 174,143.5C 172.588,160.656 172.421,177.656 173.5,194.5C 173.826,203.349 173.493,212.016 172.5,220.5C 172.666,213.492 172.5,206.492 172,199.5C 170.532,215.474 170.199,231.474 171,247.5C 171.173,241.984 171.673,236.651 172.5,231.5C 172.038,250.175 171.371,268.842 170.5,287.5C 169.683,285.031 169.183,282.365 169,279.5C 167.46,290.518 166.293,301.518 165.5,312.5C 163.586,313.185 161.586,313.685 159.5,314C 146.171,314.5 132.837,314.667 119.5,314.5C 119.158,313.662 118.492,313.328 117.5,313.5C 113.575,313.57 109.909,312.903 106.5,311.5C 122.336,311.875 138.003,310.541 153.5,307.5C 160.486,245.61 166.32,183.61 171,121.5C 173.154,114.914 173.654,108.248 172.5,101.5C 174.41,104.452 175.41,107.786 175.5,111.5C 176.209,112.404 177.209,112.737 178.5,112.5C 178.5,86.5 178.5,60.5 178.5,34.5C 179.5,34.5 180.5,34.5 181.5,34.5 Z"/></g>
<g><path style="opacity:0.008" fill="#e5f9fc" d="M 178.5,125.5 C 177.833,124.5 177.167,123.5 176.5,122.5C 176.335,119.482 176.502,116.482 177,113.5C 177.501,117.51 178.001,121.51 178.5,125.5 Z"/></g>
<g><path style="opacity:0.051" fill="#deedf3" d="M 193.5,237.5 C 194.889,242.269 195.556,247.269 195.5,252.5C 194.111,247.731 193.444,242.731 193.5,237.5 Z"/></g>
<g><path style="opacity:0.878" fill="#809cb3" d="M 82.5,231.5 C 82.8333,231.5 83.1667,231.5 83.5,231.5C 83.0733,248.214 81.9066,264.881 80,281.5C 79.7216,280.584 79.2216,279.918 78.5,279.5C 79.4392,263.445 80.7726,247.445 82.5,231.5 Z"/></g>
<g><path style="opacity:0.947" fill="#7b9ab4" d="M 274.5,183.5 C 281.164,217.997 287.664,252.664 294,287.5C 296.277,288.117 298.444,288.784 300.5,289.5C 297.523,289.316 294.856,289.316 292.5,289.5C 290.669,279.954 288.502,270.287 286,260.5C 284.287,252.964 283.287,245.298 283,237.5C 282.692,236.692 282.192,236.025 281.5,235.5C 280.479,236.901 279.479,238.235 278.5,239.5C 278.341,235.709 277.675,232.042 276.5,228.5C 277.997,226.71 278.664,224.544 278.5,222C 277.668,209.847 276.002,197.847 273.5,186C 273.528,184.93 273.861,184.097 274.5,183.5 Z"/></g>
<g><path style="opacity:0.137" fill="#d4e6ef" d="M 195.5,252.5 C 197.322,259.251 198.322,266.251 198.5,273.5C 196.865,266.724 195.865,259.724 195.5,252.5 Z"/></g>
<g><path style="opacity:1" fill="#4c799a" d="M 282.5,263.5 C 284.526,271.123 286.193,278.956 287.5,287C 287.472,288.07 287.139,288.903 286.5,289.5C 284.734,280.905 283.401,272.238 282.5,263.5 Z"/></g>
<g><path style="opacity:1" fill="#74a0c4" d="M 292.5,289.5 C 293.833,291.833 293.833,294.167 292.5,296.5C 291.5,296.5 290.5,296.5 289.5,296.5C 289.464,293.872 288.797,292.205 287.5,291.5C 286.662,291.158 286.328,290.492 286.5,289.5C 287.139,288.903 287.472,288.07 287.5,287C 286.193,278.956 284.526,271.123 282.5,263.5C 281.631,255.417 280.298,247.417 278.5,239.5C 279.479,238.235 280.479,236.901 281.5,235.5C 282.192,236.025 282.692,236.692 283,237.5C 283.287,245.298 284.287,252.964 286,260.5C 288.502,270.287 290.669,279.954 292.5,289.5 Z"/></g>
<g><path style="opacity:1" fill="#799aaf" d="M 208.5,310.5 C 207.833,310.5 207.167,310.5 206.5,310.5C 205.196,304.212 204.029,297.879 203,291.5C 202.667,292.833 202.333,294.167 202,295.5C 201.32,290.664 200.486,285.997 199.5,281.5C 198.612,278.946 198.279,276.279 198.5,273.5C 198.322,266.251 197.322,259.251 195.5,252.5C 195.556,247.269 194.889,242.269 193.5,237.5C 192.194,232.384 191.527,227.051 191.5,221.5C 191.338,219.473 191.505,217.473 192,215.5C 194.333,231.498 196.666,247.498 199,263.5C 202.871,279.024 206.038,294.69 208.5,310.5 Z"/></g>
<g><path style="opacity:1" fill="#3c6789" d="M 300.5,289.5 C 301.167,289.5 301.5,289.833 301.5,290.5C 299.839,294.186 296.839,296.186 292.5,296.5C 293.833,294.167 293.833,291.833 292.5,289.5C 294.856,289.316 297.523,289.316 300.5,289.5 Z"/></g>
<g><path style="opacity:0.333" fill="#c6dce7" d="M 199.5,281.5 C 200.486,285.997 201.32,290.664 202,295.5C 202.333,294.167 202.667,292.833 203,291.5C 204.029,297.879 205.196,304.212 206.5,310.5C 204.952,310.179 204.285,309.179 204.5,307.5C 203.5,307.5 202.5,307.5 201.5,307.5C 200.927,298.825 200.261,290.159 199.5,281.5 Z"/></g>
<g><path style="opacity:0.345" fill="#b7c0c4" d="M 302.5,293.5 C 306.384,302.328 307.051,311.328 304.5,320.5C 304.597,312.429 303.93,304.429 302.5,296.5C 302.5,295.5 302.5,294.5 302.5,293.5 Z"/></g>
<g><path style="opacity:1" fill="#447091" d="M 88.5,239.5 C 87.3572,261.713 85.6905,283.88 83.5,306C 83.6448,306.772 83.9781,307.439 84.5,308C 91.7939,309.494 99.1272,310.66 106.5,311.5C 109.909,312.903 113.575,313.57 117.5,313.5C 101.939,313.239 86.6057,310.572 71.5,305.5C 70.9717,304.153 70.805,302.819 71,301.5C 73.277,300.883 75.4437,300.216 77.5,299.5C 78.4171,301.662 78.4171,303.995 77.5,306.5C 78.9305,306.421 80.2638,306.754 81.5,307.5C 81.8333,306 82.1667,304.5 82.5,303C 84.178,281.652 86.178,260.485 88.5,239.5 Z"/></g>
<g><path style="opacity:0.997" fill="#def3f8" d="M 170.5,287.5 C 169.924,295.111 170.59,302.444 172.5,309.5C 171.5,309.5 170.5,309.5 169.5,309.5C 169.666,303.491 169.499,297.491 169,291.5C 168.5,298.492 168.334,305.492 168.5,312.5C 167.5,312.5 166.5,312.5 165.5,312.5C 166.293,301.518 167.46,290.518 169,279.5C 169.183,282.365 169.683,285.031 170.5,287.5 Z"/></g>
<g><path style="opacity:1" fill="#7698ad" d="M 300.5,297.5 C 301.345,305.378 302.679,313.044 304.5,320.5C 303.409,323.428 301.409,325.594 298.5,327C 295.029,329.072 291.362,330.572 287.5,331.5C 286.262,331.19 286.262,330.69 287.5,330C 290.547,329.484 292.88,327.984 294.5,325.5C 302.912,323.888 304.579,319.721 299.5,313C 298.655,308.539 298.322,304.039 298.5,299.5C 298.5,298.167 299.167,297.5 300.5,297.5 Z"/></g>
<g><path style="opacity:0.982" fill="#eafbfd" d="M 302.5,296.5 C 303.93,304.429 304.597,312.429 304.5,320.5C 302.679,313.044 301.345,305.378 300.5,297.5C 300.842,296.662 301.508,296.328 302.5,296.5 Z"/></g>
<g><path style="opacity:0.694" fill="#a7bac8" d="M 77.5,294.5 C 77.5,296.167 77.5,297.833 77.5,299.5C 75.4437,300.216 73.277,300.883 71,301.5C 70.805,302.819 70.9717,304.153 71.5,305.5C 70.8902,306.391 70.5569,307.391 70.5,308.5C 68.7993,314.919 68.1326,321.585 68.5,328.5C 67.1486,319.955 67.3153,311.289 69,302.5C 70.3246,300.007 72.4913,298.84 75.5,299C 76.0989,297.378 76.7656,295.878 77.5,294.5 Z"/></g>
<g><path style="opacity:1" fill="#6999b9" d="M 298.5,299.5 C 298.322,304.039 298.655,308.539 299.5,313C 304.579,319.721 302.912,323.888 294.5,325.5C 295.655,319.305 293.322,315.139 287.5,313C 272.786,312.255 258.119,312.755 243.5,314.5C 262.061,310.608 280.394,305.608 298.5,299.5 Z"/></g>
<g><path style="opacity:1" fill="#4d7a9c" d="M 292.5,296.5 C 296.839,296.186 299.839,294.186 301.5,290.5C 302.404,291.209 302.737,292.209 302.5,293.5C 302.5,294.5 302.5,295.5 302.5,296.5C 301.508,296.328 300.842,296.662 300.5,297.5C 299.167,297.5 298.5,298.167 298.5,299.5C 280.394,305.608 262.061,310.608 243.5,314.5C 238.178,314.98 232.845,315.313 227.5,315.5C 219.295,316.787 210.962,316.787 202.5,315.5C 200.852,313.544 200.185,311.211 200.5,308.5C 200.5,307.833 200.833,307.5 201.5,307.5C 202.5,307.5 203.5,307.5 204.5,307.5C 204.285,309.179 204.952,310.179 206.5,310.5C 207.167,310.5 207.833,310.5 208.5,310.5C 220.144,311.394 231.811,310.894 243.5,309C 258.352,306.215 273.018,302.715 287.5,298.5C 287.5,296.167 287.5,293.833 287.5,291.5C 288.797,292.205 289.464,293.872 289.5,296.5C 290.5,296.5 291.5,296.5 292.5,296.5 Z"/></g>
<g><path style="opacity:1" fill="#78a4cb" d="M 227.5,315.5 C 220.825,315.666 214.158,315.5 207.5,315C 204.992,314.885 202.992,313.885 201.5,312C 201.833,311.5 202.167,311 202.5,310.5C 203.795,311.098 205.128,311.598 206.5,312C 215.504,312.619 224.504,313.286 233.5,314C 231.292,314.191 229.292,314.691 227.5,315.5 Z"/></g>
<g><path style="opacity:1" fill="#8db7d1" d="M 294.5,325.5 C 292.88,327.984 290.547,329.484 287.5,330C 286.262,330.69 286.262,331.19 287.5,331.5C 283.201,333.935 278.535,335.602 273.5,336.5C 273.083,335.876 272.416,335.543 271.5,335.5C 249.726,341.727 227.726,343.06 205.5,339.5C 204.703,334.197 204.036,328.864 203.5,323.5C 203.167,320.833 202.833,318.167 202.5,315.5C 210.962,316.787 219.295,316.787 227.5,315.5C 232.845,315.313 238.178,314.98 243.5,314.5C 258.119,312.755 272.786,312.255 287.5,313C 293.322,315.139 295.655,319.305 294.5,325.5 Z"/></g>
<g><path style="opacity:1" fill="#5885a9" d="M 71.5,305.5 C 86.6057,310.572 101.939,313.239 117.5,313.5C 118.492,313.328 119.158,313.662 119.5,314.5C 120.609,315.29 121.942,315.79 123.5,316C 134.225,316.097 144.891,316.763 155.5,318C 140.282,318.913 125.115,318.413 110,316.5C 108.615,316.514 107.449,316.848 106.5,317.5C 105.609,316.89 104.609,316.557 103.5,316.5C 92.0178,315.606 81.0178,312.939 70.5,308.5C 70.5569,307.391 70.8902,306.391 71.5,305.5 Z"/></g>
<g><path style="opacity:0.239" fill="#bbcbd6" d="M 200.5,308.5 C 200.185,311.211 200.852,313.544 202.5,315.5C 202.833,318.167 203.167,320.833 203.5,323.5C 202.662,323.842 202.328,324.508 202.5,325.5C 201.523,328.287 201.19,331.287 201.5,334.5C 200.714,327.162 200.047,319.662 199.5,312C 199.514,310.615 199.848,309.449 200.5,308.5 Z"/></g>
<g><path style="opacity:1" fill="#8db6d0" d="M 70.5,308.5 C 81.0178,312.939 92.0178,315.606 103.5,316.5C 103.577,317.75 104.244,318.583 105.5,319C 124.147,322.625 142.814,325.959 161.5,329C 163.333,330.5 165.167,332 167,333.5C 166.917,337.311 167.75,340.645 169.5,343.5C 167.786,344.738 165.786,345.405 163.5,345.5C 163.083,344.876 162.416,344.543 161.5,344.5C 147.389,345.956 133.389,346.956 119.5,347.5C 103.053,346.638 87.3864,342.805 72.5,336C 70.5359,334.549 69.2026,332.716 68.5,330.5C 69.1174,330.611 69.6174,330.944 70,331.5C 70.4997,323.841 70.6664,316.174 70.5,308.5 Z"/></g>
<g><path style="opacity:1" fill="#4a7496" d="M 172.5,309.5 C 172.5,309.833 172.5,310.167 172.5,310.5C 173.021,313.636 172.021,315.97 169.5,317.5C 161.186,319.628 152.686,320.628 144,320.5C 131.457,319.951 118.957,318.951 106.5,317.5C 107.449,316.848 108.615,316.514 110,316.5C 125.115,318.413 140.282,318.913 155.5,318C 144.891,316.763 134.225,316.097 123.5,316C 121.942,315.79 120.609,315.29 119.5,314.5C 132.837,314.667 146.171,314.5 159.5,314C 161.586,313.685 163.586,313.185 165.5,312.5C 166.5,312.5 167.5,312.5 168.5,312.5C 168.334,305.492 168.5,298.492 169,291.5C 169.499,297.491 169.666,303.491 169.5,309.5C 170.5,309.5 171.5,309.5 172.5,309.5 Z"/></g>
<g><path style="opacity:1" fill="#6998b7" d="M 103.5,316.5 C 104.609,316.557 105.609,316.89 106.5,317.5C 118.957,318.951 131.457,319.951 144,320.5C 152.686,320.628 161.186,319.628 169.5,317.5C 169.5,325.5 169.5,333.5 169.5,341.5C 169.5,342.167 169.5,342.833 169.5,343.5C 167.75,340.645 166.917,337.311 167,333.5C 165.167,332 163.333,330.5 161.5,329C 142.814,325.959 124.147,322.625 105.5,319C 104.244,318.583 103.577,317.75 103.5,316.5 Z"/></g>
<g><path style="opacity:0.724" fill="#edfcfe" d="M 70.5,308.5 C 70.6664,316.174 70.4997,323.841 70,331.5C 69.6174,330.944 69.1174,330.611 68.5,330.5C 68.5,329.833 68.5,329.167 68.5,328.5C 68.1326,321.585 68.7993,314.919 70.5,308.5 Z"/></g>
<g><path style="opacity:0.202" fill="#e7f3f8" d="M 172.5,310.5 C 173.468,312.607 173.802,314.941 173.5,317.5C 172.671,324.989 172.171,332.656 172,340.5C 171.329,341.252 170.496,341.586 169.5,341.5C 169.5,333.5 169.5,325.5 169.5,317.5C 172.021,315.97 173.021,313.636 172.5,310.5 Z"/></g>
<g><path style="opacity:0.213" fill="#8695a1" d="M 173.5,317.5 C 173.666,325.507 173.5,333.507 173,341.5C 171.887,342.305 170.721,342.972 169.5,343.5C 169.5,342.833 169.5,342.167 169.5,341.5C 170.496,341.586 171.329,341.252 172,340.5C 172.171,332.656 172.671,324.989 173.5,317.5 Z"/></g>
<g><path style="opacity:0.987" fill="#e1f6fb" d="M 203.5,323.5 C 204.036,328.864 204.703,334.197 205.5,339.5C 204.25,339.423 203.417,338.756 203,337.5C 202.501,333.514 202.334,329.514 202.5,325.5C 202.328,324.508 202.662,323.842 203.5,323.5 Z"/></g>
<g><path style="opacity:0.257" fill="#8fa8b7" d="M 202.5,325.5 C 202.334,329.514 202.501,333.514 203,337.5C 203.417,338.756 204.25,339.423 205.5,339.5C 227.726,343.06 249.726,341.727 271.5,335.5C 272.416,335.543 273.083,335.876 273.5,336.5C 257.847,341.109 241.847,343.775 225.5,344.5C 218.317,344.314 211.317,343.147 204.5,341C 202.085,339.535 201.085,337.368 201.5,334.5C 201.19,331.287 201.523,328.287 202.5,325.5 Z"/></g>
<g><path style="opacity:0.286" fill="#7c96a8" d="M 163.5,345.5 C 148.968,348.51 134.301,349.177 119.5,347.5C 133.389,346.956 147.389,345.956 161.5,344.5C 162.416,344.543 163.083,344.876 163.5,345.5 Z"/></g>
</svg>
