<?xml version="1.0" encoding="UTF-8"?>
<!DOCTYPE svg PUBLIC "-//W3C//DTD SVG 1.1//EN" "http://www.w3.org/Graphics/SVG/1.1/DTD/svg11.dtd">
<svg xmlns="http://www.w3.org/2000/svg" version="1.1" width="360px" height="360px" style="shape-rendering:geometricPrecision; text-rendering:geometricPrecision; image-rendering:optimizeQuality; fill-rule:evenodd; clip-rule:evenodd" xmlns:xlink="http://www.w3.org/1999/xlink">
<g><path style="opacity:0.842" fill="#b1c2d4" d="M 235.5,100.5 C 234.305,100.134 233.639,99.301 233.5,98C 236.763,88.174 233.763,81.3407 224.5,77.5C 223.883,75.7708 222.883,74.2708 221.5,73C 217.702,69.7678 213.369,67.6012 208.5,66.5C 198.427,64.5389 187.927,63.5389 177,63.5C 167.026,63.2195 157.192,64.2195 147.5,66.5C 146.151,66.1543 144.817,65.821 143.5,65.5C 146.282,64.067 149.282,62.9003 152.5,62C 172.125,57.9222 191.458,58.9222 210.5,65C 219.164,69.3327 226.997,74.8327 234,81.5C 236.746,87.6339 237.246,93.9672 235.5,100.5 Z"/></g>
<g><path style="opacity:1" fill="#829cc9" d="M 208.5,66.5 C 209.356,70.4689 209.189,74.4689 208,78.5C 206.667,83.1667 205.333,87.8333 204,92.5C 203.284,94.8791 202.117,96.8791 200.5,98.5C 201.053,96.0607 201.053,93.7273 200.5,91.5C 200.846,90.3044 201.346,90.3044 202,91.5C 204.229,84.7968 202.729,79.1301 197.5,74.5C 198.167,73.1667 199.167,72.1667 200.5,71.5C 203.39,74.472 205.724,74.1386 207.5,70.5C 205.55,68.2472 203.216,67.9139 200.5,69.5C 197.989,68.2187 195.322,67.5521 192.5,67.5C 178.396,70.6096 164.396,70.6096 150.5,67.5C 148.161,67.6692 145.994,68.3358 144,69.5C 143.333,74.1667 143.333,78.8333 144,83.5C 145.224,87.8675 147.224,92.2008 150,96.5C 151.5,98.6667 153.333,100.5 155.5,102C 154.748,102.671 154.414,103.504 154.5,104.5C 154.5,104.833 154.5,105.167 154.5,105.5C 143.477,96.7694 139.144,85.4361 141.5,71.5C 142.738,69.7857 143.405,67.7857 143.5,65.5C 144.817,65.821 146.151,66.1543 147.5,66.5C 157.192,64.2195 167.026,63.2195 177,63.5C 187.927,63.5389 198.427,64.5389 208.5,66.5 Z"/></g>
<g><path style="opacity:1" fill="#86a0d3" d="M 200.5,98.5 C 198.082,101.23 195.082,103.23 191.5,104.5C 181.773,103.894 171.94,102.894 162,101.5C 161.167,101.667 160.333,101.833 159.5,102C 161.717,103.275 164.051,104.275 166.5,105C 162.446,105.694 158.446,105.527 154.5,104.5C 154.414,103.504 154.748,102.671 155.5,102C 153.333,100.5 151.5,98.6667 150,96.5C 147.224,92.2008 145.224,87.8675 144,83.5C 143.333,78.8333 143.333,74.1667 144,69.5C 145.994,68.3358 148.161,67.6692 150.5,67.5C 164.396,70.6096 178.396,70.6096 192.5,67.5C 195.322,67.5521 197.989,68.2187 200.5,69.5C 203.216,67.9139 205.55,68.2472 207.5,70.5C 205.724,74.1386 203.39,74.472 200.5,71.5C 199.167,72.1667 198.167,73.1667 197.5,74.5C 202.729,79.1301 204.229,84.7968 202,91.5C 201.346,90.3044 200.846,90.3044 200.5,91.5C 201.053,93.7273 201.053,96.0607 200.5,98.5 Z"/></g>
<g><path style="opacity:0.984" fill="#b1c4d5" d="M 143.5,65.5 C 143.405,67.7857 142.738,69.7857 141.5,71.5C 140.833,71.5 140.167,71.5 139.5,71.5C 138.833,72.1667 138.167,72.8333 137.5,73.5C 133.996,74.4275 130.829,76.4275 128,79.5C 124.117,84.9176 122.284,90.9176 122.5,97.5C 121.5,98.1667 120.5,98.8333 119.5,99.5C 120.623,83.6526 128.623,72.3192 143.5,65.5 Z"/></g>
<g><path style="opacity:1" fill="#a7cced" d="M 223.5,78.5 C 223.5,79.5 223.5,80.5 223.5,81.5C 224.5,81.5 225.5,81.5 226.5,81.5C 226.5,82.5 226.5,83.5 226.5,84.5C 229.595,84.6263 231.428,86.293 232,89.5C 233.022,94.1289 232.522,98.4623 230.5,102.5C 229.375,104.129 228.041,105.629 226.5,107C 223.183,107.498 219.85,107.665 216.5,107.5C 216.662,105.473 216.495,103.473 216,101.5C 213.969,104.355 211.803,107.022 209.5,109.5C 204.722,111.648 199.722,112.981 194.5,113.5C 201.905,104.694 207.239,94.6939 210.5,83.5C 213.199,85.322 213.032,86.6553 210,87.5C 209.474,92.6292 210.14,92.6292 212,87.5C 212.333,88.8333 212.667,90.1667 213,91.5C 213.576,87.0364 213.076,82.703 211.5,78.5C 211.837,75.8236 212.17,73.157 212.5,70.5C 213.552,70.3505 214.552,70.5172 215.5,71C 217.432,74.4373 220.099,76.9373 223.5,78.5 Z"/></g>
<g><path style="opacity:1" fill="#8badcd" d="M 139.5,71.5 C 137.507,79.4095 138.507,86.9095 142.5,94C 142.167,94.5 141.833,95 141.5,95.5C 140.052,93.3333 138.885,91 138,88.5C 137.501,83.5111 137.334,78.5111 137.5,73.5C 138.167,72.8333 138.833,72.1667 139.5,71.5 Z"/></g>
<g><path style="opacity:1" fill="#9fbbde" d="M 208.5,66.5 C 213.369,67.6012 217.702,69.7678 221.5,73C 222.883,74.2708 223.883,75.7708 224.5,77.5C 224.5,78.1667 224.167,78.5 223.5,78.5C 220.099,76.9373 217.432,74.4373 215.5,71C 214.552,70.5172 213.552,70.3505 212.5,70.5C 212.17,73.157 211.837,75.8236 211.5,78.5C 213.076,82.703 213.576,87.0364 213,91.5C 212.667,90.1667 212.333,88.8333 212,87.5C 210.14,92.6292 209.474,92.6292 210,87.5C 213.032,86.6553 213.199,85.322 210.5,83.5C 207.239,94.6939 201.905,104.694 194.5,113.5C 193.427,114.251 193.26,115.251 194,116.5C 194.414,116.043 194.914,115.709 195.5,115.5C 196.711,116.274 196.711,117.107 195.5,118C 196.094,118.464 196.761,118.631 197.5,118.5C 195.946,122.34 193.78,123.007 191,120.5C 190.722,121.416 190.222,122.082 189.5,122.5C 190.5,119.833 191.5,117.167 192.5,114.5C 191.209,114.737 190.209,114.404 189.5,113.5C 192.975,111.588 195.808,108.922 198,105.5C 199.411,103.35 200.245,101.016 200.5,98.5C 202.117,96.8791 203.284,94.8791 204,92.5C 205.333,87.8333 206.667,83.1667 208,78.5C 209.189,74.4689 209.356,70.4689 208.5,66.5 Z"/></g>
<g><path style="opacity:1" fill="#a7c9ea" d="M 139.5,71.5 C 140.167,71.5 140.833,71.5 141.5,71.5C 139.144,85.4361 143.477,96.7694 154.5,105.5C 156.954,107.06 159.62,108.06 162.5,108.5C 163.9,109.1 164.9,110.1 165.5,111.5C 162.999,111.511 162.832,112.178 165,113.5C 165.667,114.833 165.667,116.167 165,117.5C 162.618,116.446 160.118,115.779 157.5,115.5C 157.631,114.624 157.298,113.957 156.5,113.5C 151.346,111.532 147.346,108.865 144.5,105.5C 142.415,107.64 142.415,109.474 144.5,111C 141.518,111.498 138.518,111.665 135.5,111.5C 132.632,110.36 129.632,109.36 126.5,108.5C 124.492,107.164 122.492,105.83 120.5,104.5C 119.167,103.5 119.167,102.5 120.5,101.5C 120.897,100.475 121.563,100.308 122.5,101C 124.182,103.218 126.182,105.051 128.5,106.5C 128.833,106.167 129.167,105.833 129.5,105.5C 126.687,103.176 124.354,100.51 122.5,97.5C 122.284,90.9176 124.117,84.9176 128,79.5C 130.829,76.4275 133.996,74.4275 137.5,73.5C 137.334,78.5111 137.501,83.5111 138,88.5C 138.885,91 140.052,93.3333 141.5,95.5C 141.833,95 142.167,94.5 142.5,94C 138.507,86.9095 137.507,79.4095 139.5,71.5 Z"/></g>
<g><path style="opacity:1" fill="#829cbc" d="M 122.5,97.5 C 124.354,100.51 126.687,103.176 129.5,105.5C 129.167,105.833 128.833,106.167 128.5,106.5C 126.182,105.051 124.182,103.218 122.5,101C 121.563,100.308 120.897,100.475 120.5,101.5C 119.662,101.158 119.328,100.492 119.5,99.5C 120.5,98.8333 121.5,98.1667 122.5,97.5 Z"/></g>
<g><path style="opacity:1" fill="#636998" d="M 191.5,104.5 C 181.679,105.699 172.012,107.032 162.5,108.5C 159.62,108.06 156.954,107.06 154.5,105.5C 154.5,105.167 154.5,104.833 154.5,104.5C 158.446,105.527 162.446,105.694 166.5,105C 164.051,104.275 161.717,103.275 159.5,102C 160.333,101.833 161.167,101.667 162,101.5C 171.94,102.894 181.773,103.894 191.5,104.5 Z"/></g>
<g><path style="opacity:1" fill="#82a1c9" d="M 230.5,102.5 C 231.465,103.721 231.298,105.054 230,106.5C 224.271,110.924 217.771,112.591 210.5,111.5C 212.031,110.075 211.698,109.409 209.5,109.5C 211.803,107.022 213.969,104.355 216,101.5C 216.495,103.473 216.662,105.473 216.5,107.5C 219.85,107.665 223.183,107.498 226.5,107C 228.041,105.629 229.375,104.129 230.5,102.5 Z"/></g>
<g><path style="opacity:1" fill="#5f7597" d="M 120.5,104.5 C 122.492,105.83 124.492,107.164 126.5,108.5C 126.265,109.097 125.765,109.43 125,109.5C 123.374,108.711 121.874,107.711 120.5,106.5C 119.145,107.188 118.145,108.188 117.5,109.5C 116.5,109.5 115.5,109.5 114.5,109.5C 115.845,107.164 117.845,105.497 120.5,104.5 Z"/></g>
<g><path style="opacity:1" fill="#83a2c6" d="M 126.5,108.5 C 129.632,109.36 132.632,110.36 135.5,111.5C 129.431,111.051 123.431,110.384 117.5,109.5C 118.145,108.188 119.145,107.188 120.5,106.5C 121.874,107.711 123.374,108.711 125,109.5C 125.765,109.43 126.265,109.097 126.5,108.5 Z"/></g>
<g><path style="opacity:1" fill="#7a94be" d="M 157.5,115.5 C 149.694,115.989 142.36,114.656 135.5,111.5C 138.518,111.665 141.518,111.498 144.5,111C 142.415,109.474 142.415,107.64 144.5,105.5C 147.346,108.865 151.346,111.532 156.5,113.5C 157.298,113.957 157.631,114.624 157.5,115.5 Z"/></g>
<g><path style="opacity:1" fill="#7791bc" d="M 189.5,113.5 C 190.209,114.404 191.209,114.737 192.5,114.5C 191.5,117.167 190.5,119.833 189.5,122.5C 189.328,123.492 189.662,124.158 190.5,124.5C 191.791,124.263 192.791,124.596 193.5,125.5C 191.833,125.5 190.167,125.5 188.5,125.5C 188.889,128.553 188.223,131.22 186.5,133.5C 186.672,132.508 186.338,131.842 185.5,131.5C 184.876,131.083 184.543,130.416 184.5,129.5C 185.834,123.827 187.168,118.16 188.5,112.5C 189.107,112.624 189.44,112.957 189.5,113.5 Z"/></g>
<g><path style="opacity:1" fill="#637599" d="M 209.5,109.5 C 211.698,109.409 212.031,110.075 210.5,111.5C 205.116,112.023 200.782,114.357 197.5,118.5C 196.761,118.631 196.094,118.464 195.5,118C 196.711,117.107 196.711,116.274 195.5,115.5C 194.914,115.709 194.414,116.043 194,116.5C 193.26,115.251 193.427,114.251 194.5,113.5C 199.722,112.981 204.722,111.648 209.5,109.5 Z"/></g>
<g><path style="opacity:1" fill="#86a0d1" d="M 200.5,98.5 C 200.245,101.016 199.411,103.35 198,105.5C 195.808,108.922 192.975,111.588 189.5,113.5C 189.44,112.957 189.107,112.624 188.5,112.5C 187.168,118.16 185.834,123.827 184.5,129.5C 184.543,130.416 184.876,131.083 185.5,131.5C 185.5,133.167 185.5,134.833 185.5,136.5C 184.71,135.391 184.21,134.058 184,132.5C 183.101,135.95 181.101,136.95 178,135.5C 176.965,133.109 176.798,130.776 177.5,128.5C 177.154,127.304 176.654,127.304 176,128.5C 174.642,123.428 172.309,118.428 169,113.5C 168.667,112.167 168.333,110.833 168,109.5C 167.751,110.624 167.251,111.624 166.5,112.5C 165.893,112.376 165.56,112.043 165.5,111.5C 164.9,110.1 163.9,109.1 162.5,108.5C 172.012,107.032 181.679,105.699 191.5,104.5C 195.082,103.23 198.082,101.23 200.5,98.5 Z"/></g>
<g><path style="opacity:1" fill="#7a90bc" d="M 185.5,136.5 C 184.723,141.084 184.223,145.75 184,150.5C 183.374,148.009 182.541,148.009 181.5,150.5C 181.167,150 180.833,149.5 180.5,149C 182.192,146.065 182.858,142.898 182.5,139.5C 180.891,139.094 179.557,139.094 178.5,139.5C 179.393,142.084 179.726,144.751 179.5,147.5C 178.509,143.899 177.342,140.232 176,136.5C 175.601,136.728 175.435,137.062 175.5,137.5C 174.13,134.381 173.13,131.048 172.5,127.5C 172.34,125.847 171.674,124.514 170.5,123.5C 166.265,120.555 161.932,117.889 157.5,115.5C 160.118,115.779 162.618,116.446 165,117.5C 165.667,116.167 165.667,114.833 165,113.5C 162.832,112.178 162.999,111.511 165.5,111.5C 165.56,112.043 165.893,112.376 166.5,112.5C 167.251,111.624 167.751,110.624 168,109.5C 168.333,110.833 168.667,112.167 169,113.5C 172.309,118.428 174.642,123.428 176,128.5C 176.654,127.304 177.154,127.304 177.5,128.5C 176.798,130.776 176.965,133.109 178,135.5C 181.101,136.95 183.101,135.95 184,132.5C 184.21,134.058 184.71,135.391 185.5,136.5 Z"/></g>
<g><path style="opacity:1" fill="#a8cbea" d="M 224.5,77.5 C 233.763,81.3407 236.763,88.174 233.5,98C 233.639,99.301 234.305,100.134 235.5,100.5C 239.472,104.807 243.472,109.141 247.5,113.5C 246.325,113.281 245.325,113.614 244.5,114.5C 246.191,117.345 245.857,119.679 243.5,121.5C 225.702,121.957 208.036,122.957 190.5,124.5C 189.662,124.158 189.328,123.492 189.5,122.5C 190.222,122.082 190.722,121.416 191,120.5C 193.78,123.007 195.946,122.34 197.5,118.5C 200.782,114.357 205.116,112.023 210.5,111.5C 217.771,112.591 224.271,110.924 230,106.5C 231.298,105.054 231.465,103.721 230.5,102.5C 232.522,98.4623 233.022,94.1289 232,89.5C 231.428,86.293 229.595,84.6263 226.5,84.5C 226.5,83.5 226.5,82.5 226.5,81.5C 225.5,81.5 224.5,81.5 223.5,81.5C 223.5,80.5 223.5,79.5 223.5,78.5C 224.167,78.5 224.5,78.1667 224.5,77.5 Z"/></g>
<g><path style="opacity:1" fill="#a7cced" d="M 114.5,109.5 C 115.5,109.5 116.5,109.5 117.5,109.5C 123.431,110.384 129.431,111.051 135.5,111.5C 142.36,114.656 149.694,115.989 157.5,115.5C 161.932,117.889 166.265,120.555 170.5,123.5C 170.64,125.124 169.973,126.29 168.5,127C 152.141,127.806 135.808,127.473 119.5,126C 113.93,125.248 109.93,122.414 107.5,117.5C 109.124,114.21 111.457,111.543 114.5,109.5 Z"/></g>
<g><path style="opacity:1" fill="#7b9ebe" d="M 243.5,121.5 C 242.895,123.026 241.729,124.026 240,124.5C 237.063,123.183 234.23,123.183 231.5,124.5C 218.732,122.918 206.066,123.251 193.5,125.5C 192.791,124.596 191.791,124.263 190.5,124.5C 208.036,122.957 225.702,121.957 243.5,121.5 Z"/></g>
<g><path style="opacity:1" fill="#708bb0" d="M 247.5,113.5 C 247.833,114.167 248.167,114.833 248.5,115.5C 248.181,119.136 247.015,122.469 245,125.5C 243.925,129.77 243.425,134.103 243.5,138.5C 243.167,138.5 242.833,138.5 242.5,138.5C 242.167,138.5 241.833,138.5 241.5,138.5C 242.275,134.186 242.941,129.853 243.5,125.5C 242.167,125.5 240.833,125.5 239.5,125.5C 236.794,125.425 234.127,125.092 231.5,124.5C 234.23,123.183 237.063,123.183 240,124.5C 241.729,124.026 242.895,123.026 243.5,121.5C 245.857,119.679 246.191,117.345 244.5,114.5C 245.325,113.614 246.325,113.281 247.5,113.5 Z"/></g>
<g><path style="opacity:0.816" fill="#a5b4c3" d="M 119.5,99.5 C 119.328,100.492 119.662,101.158 120.5,101.5C 119.167,102.5 119.167,103.5 120.5,104.5C 117.845,105.497 115.845,107.164 114.5,109.5C 111.457,111.543 109.124,114.21 107.5,117.5C 107.167,117.5 106.833,117.5 106.5,117.5C 105.504,117.414 104.671,117.748 104,118.5C 101.667,122.5 99.3333,126.5 97,130.5C 95.7475,133.014 95.2475,135.68 95.5,138.5C 94.1667,138.5 93.5,139.167 93.5,140.5C 92.3599,142.78 91.1932,145.114 90,147.5C 89.5357,146.906 89.369,146.239 89.5,145.5C 92.8025,130.215 100.636,117.882 113,108.5C 114.699,105.079 116.865,102.079 119.5,99.5 Z"/></g>
<g><path style="opacity:1" fill="#a7cdec" d="M 231.5,124.5 C 234.127,125.092 236.794,125.425 239.5,125.5C 240.435,128.113 240.602,130.779 240,133.5C 238.167,135.833 236.333,138.167 234.5,140.5C 230.79,142 227.124,143.334 223.5,144.5C 210.833,144.5 198.167,144.5 185.5,144.5C 185.724,140.821 186.058,137.154 186.5,133.5C 188.223,131.22 188.889,128.553 188.5,125.5C 190.167,125.5 191.833,125.5 193.5,125.5C 206.066,123.251 218.732,122.918 231.5,124.5 Z"/></g>
<g><path style="opacity:1" fill="#7c98be" d="M 106.5,117.5 C 106.833,117.5 107.167,117.5 107.5,117.5C 109.93,122.414 113.93,125.248 119.5,126C 135.808,127.473 152.141,127.806 168.5,127C 169.973,126.29 170.64,125.124 170.5,123.5C 171.674,124.514 172.34,125.847 172.5,127.5C 171.25,127.577 170.417,128.244 170,129.5C 152.574,128.342 135.074,128.175 117.5,129C 116.28,130.525 115.613,132.359 115.5,134.5C 115.667,136.167 115.833,137.833 116,139.5C 117.709,141.936 119.543,144.269 121.5,146.5C 119.597,146.204 117.93,145.537 116.5,144.5C 114.349,139.072 113.349,133.406 113.5,127.5C 114.552,127.649 115.552,127.483 116.5,127C 113.993,126.907 111.826,126.074 110,124.5C 109.536,125.094 109.369,125.761 109.5,126.5C 108.833,125.5 108.167,124.5 107.5,123.5C 106.659,121.621 106.325,119.621 106.5,117.5 Z"/></g>
<g><path style="opacity:1" fill="#a8c8e8" d="M 248.5,115.5 C 251.399,118.952 254.066,122.618 256.5,126.5C 254.38,132.298 250.38,136.631 244.5,139.5C 243.893,139.376 243.56,139.043 243.5,138.5C 243.425,134.103 243.925,129.77 245,125.5C 247.015,122.469 248.181,119.136 248.5,115.5 Z"/></g>
<g><path style="opacity:1" fill="#a8cdea" d="M 106.5,117.5 C 106.325,119.621 106.659,121.621 107.5,123.5C 107.304,126.461 106.971,129.461 106.5,132.5C 107.167,133.833 107.833,135.167 108.5,136.5C 106.988,137.862 105.488,138.196 104,137.5C 103.374,139.991 102.541,139.991 101.5,137.5C 100.261,137.942 99.2613,138.609 98.5,139.5C 97.209,139.737 96.209,139.404 95.5,138.5C 95.2475,135.68 95.7475,133.014 97,130.5C 99.3333,126.5 101.667,122.5 104,118.5C 104.671,117.748 105.504,117.414 106.5,117.5 Z"/></g>
<g><path style="opacity:1" fill="#a2c3e7" d="M 107.5,123.5 C 108.167,124.5 108.833,125.5 109.5,126.5C 110.687,127.534 111.52,128.867 112,130.5C 112.417,134.925 113.251,139.258 114.5,143.5C 112.56,144.528 110.56,144.528 108.5,143.5C 105.046,142.288 101.712,140.955 98.5,139.5C 99.2613,138.609 100.261,137.942 101.5,137.5C 102.541,139.991 103.374,139.991 104,137.5C 105.488,138.196 106.988,137.862 108.5,136.5C 107.833,135.167 107.167,133.833 106.5,132.5C 106.971,129.461 107.304,126.461 107.5,123.5 Z"/></g>
<g><path style="opacity:1" fill="#6c82a9" d="M 116.5,144.5 C 116.238,147.252 116.238,150.252 116.5,153.5C 116.167,153.5 115.833,153.5 115.5,153.5C 115.731,150.215 114.397,147.715 111.5,146C 105.441,144.257 99.4405,142.424 93.5,140.5C 93.5,139.167 94.1667,138.5 95.5,138.5C 96.209,139.404 97.209,139.737 98.5,139.5C 101.712,140.955 105.046,142.288 108.5,143.5C 110.56,144.528 112.56,144.528 114.5,143.5C 113.251,139.258 112.417,134.925 112,130.5C 111.52,128.867 110.687,127.534 109.5,126.5C 109.369,125.761 109.536,125.094 110,124.5C 111.826,126.074 113.993,126.907 116.5,127C 115.552,127.483 114.552,127.649 113.5,127.5C 113.349,133.406 114.349,139.072 116.5,144.5 Z"/></g>
<g><path style="opacity:1" fill="#a7c8e9" d="M 172.5,127.5 C 173.13,131.048 174.13,134.381 175.5,137.5C 176.34,140.174 176.84,142.841 177,145.5C 173.943,146.451 170.777,146.784 167.5,146.5C 163.167,146.5 158.833,146.5 154.5,146.5C 157.028,145.834 159.694,145.168 162.5,144.5C 161.675,143.614 160.675,143.281 159.5,143.5C 159.201,141.396 159.534,139.396 160.5,137.5C 162.676,139.177 164.676,141.011 166.5,143C 170.432,143.318 172.266,141.485 172,137.5C 170.491,134.994 168.991,132.494 167.5,130C 165.098,129.186 162.765,129.353 160.5,130.5C 161.46,131.812 161.294,133.146 160,134.5C 150.563,133.737 141.063,133.07 131.5,132.5C 126.944,134.72 123.277,133.72 120.5,129.5C 117.849,131.415 118.183,132.915 121.5,134C 120.333,134.5 119.5,135.333 119,136.5C 118.667,136.167 118.333,135.833 118,135.5C 117.721,138.757 119.054,139.757 122,138.5C 123.961,141.793 126.628,143.127 130,142.5C 133.51,144.219 137.344,145.052 141.5,145C 137.975,145.179 134.641,145.679 131.5,146.5C 130.167,146.5 128.833,146.5 127.5,146.5C 125.5,146.5 123.5,146.5 121.5,146.5C 119.543,144.269 117.709,141.936 116,139.5C 115.833,137.833 115.667,136.167 115.5,134.5C 115.613,132.359 116.28,130.525 117.5,129C 135.074,128.175 152.574,128.342 170,129.5C 170.417,128.244 171.25,127.577 172.5,127.5 Z"/></g>
<g><path style="opacity:1" fill="#a7cded" d="M 154.5,146.5 C 146.833,146.5 139.167,146.5 131.5,146.5C 134.641,145.679 137.975,145.179 141.5,145C 137.344,145.052 133.51,144.219 130,142.5C 126.628,143.127 123.961,141.793 122,138.5C 119.054,139.757 117.721,138.757 118,135.5C 118.333,135.833 118.667,136.167 119,136.5C 119.5,135.333 120.333,134.5 121.5,134C 118.183,132.915 117.849,131.415 120.5,129.5C 123.277,133.72 126.944,134.72 131.5,132.5C 141.063,133.07 150.563,133.737 160,134.5C 161.294,133.146 161.46,131.812 160.5,130.5C 162.765,129.353 165.098,129.186 167.5,130C 168.991,132.494 170.491,134.994 172,137.5C 172.266,141.485 170.432,143.318 166.5,143C 164.676,141.011 162.676,139.177 160.5,137.5C 159.534,139.396 159.201,141.396 159.5,143.5C 160.675,143.281 161.675,143.614 162.5,144.5C 159.694,145.168 157.028,145.834 154.5,146.5 Z"/></g>
<g><path style="opacity:1" fill="#a9cbeb" d="M 93.5,140.5 C 99.4405,142.424 105.441,144.257 111.5,146C 114.397,147.715 115.731,150.215 115.5,153.5C 115.5,156.833 115.5,160.167 115.5,163.5C 110.117,164.192 104.783,164.192 99.5,163.5C 96.9568,161.427 93.9568,160.094 90.5,159.5C 89.7918,157.255 88.7918,155.255 87.5,153.5C 87.2938,150.505 87.9605,147.838 89.5,145.5C 89.369,146.239 89.5357,146.906 90,147.5C 91.1932,145.114 92.3599,142.78 93.5,140.5 Z"/></g>
<g><path style="opacity:1" fill="#6780a4" d="M 179.5,147.5 C 179.5,148.167 179.167,148.5 178.5,148.5C 178.167,148.5 177.833,148.5 177.5,148.5C 175.833,148.5 174.167,148.5 172.5,148.5C 170.833,147.833 169.167,147.167 167.5,146.5C 170.777,146.784 173.943,146.451 177,145.5C 176.84,142.841 176.34,140.174 175.5,137.5C 175.435,137.062 175.601,136.728 176,136.5C 177.342,140.232 178.509,143.899 179.5,147.5 Z"/></g>
<g><path style="opacity:1" fill="#8baecc" d="M 127.5,146.5 C 128.833,146.5 130.167,146.5 131.5,146.5C 139.167,146.5 146.833,146.5 154.5,146.5C 158.833,146.5 163.167,146.5 167.5,146.5C 169.167,147.167 170.833,147.833 172.5,148.5C 157.324,148.829 142.324,148.496 127.5,147.5C 127.5,147.167 127.5,146.833 127.5,146.5 Z"/></g>
<g><path style="opacity:1" fill="#87a0cb" d="M 239.5,125.5 C 240.833,125.5 242.167,125.5 243.5,125.5C 242.941,129.853 242.275,134.186 241.5,138.5C 241.229,140.312 240.562,141.978 239.5,143.5C 226.265,144.819 226.265,145.486 239.5,145.5C 239.671,156.146 240.171,156.146 241,145.5C 241.645,144.354 242.478,143.354 243.5,142.5C 242.754,141.264 242.421,139.93 242.5,138.5C 242.833,138.5 243.167,138.5 243.5,138.5C 243.56,139.043 243.893,139.376 244.5,139.5C 250.38,136.631 254.38,132.298 256.5,126.5C 257.773,128.713 258.773,131.046 259.5,133.5C 259.631,134.239 259.464,134.906 259,135.5C 257.612,134.446 256.112,134.28 254.5,135C 244.402,140.45 240.736,148.784 243.5,160C 248.165,160.943 252.165,159.777 255.5,156.5C 255.5,157.167 255.833,157.5 256.5,157.5C 255.426,158.885 254.093,160.051 252.5,161C 249.488,161.78 246.655,162.947 244,164.5C 241.07,171.963 240.903,179.296 243.5,186.5C 242.359,187.339 241.026,188.006 239.5,188.5C 238.679,185.553 238.179,182.553 238,179.5C 237.772,183.883 235.605,186.55 231.5,187.5C 229.5,187.5 227.5,187.5 225.5,187.5C 227.34,185.331 229.674,183.998 232.5,183.5C 232.666,179.154 232.499,174.821 232,170.5C 229.379,169.009 226.545,168.342 223.5,168.5C 221.473,168.662 219.473,168.495 217.5,168C 218.416,167.722 219.082,167.222 219.5,166.5C 232.074,166.38 237.407,160.047 235.5,147.5C 231.958,147.813 228.625,147.479 225.5,146.5C 226.552,146.649 227.552,146.483 228.5,146C 226.618,145.802 224.952,145.302 223.5,144.5C 227.124,143.334 230.79,142 234.5,140.5C 236.333,138.167 238.167,135.833 240,133.5C 240.602,130.779 240.435,128.113 239.5,125.5 Z"/></g>
<g><path style="opacity:1" fill="#61709e" d="M 241.5,138.5 C 241.833,138.5 242.167,138.5 242.5,138.5C 242.421,139.93 242.754,141.264 243.5,142.5C 242.478,143.354 241.645,144.354 241,145.5C 240.171,156.146 239.671,156.146 239.5,145.5C 226.265,145.486 226.265,144.819 239.5,143.5C 240.562,141.978 241.229,140.312 241.5,138.5 Z"/></g>
<g><path style="opacity:1" fill="#a7ccec" d="M 225.5,146.5 C 228.625,147.479 231.958,147.813 235.5,147.5C 237.407,160.047 232.074,166.38 219.5,166.5C 210.114,166.78 200.78,166.447 191.5,165.5C 188.918,165.975 186.918,165.308 185.5,163.5C 185.5,160.167 185.5,156.833 185.5,153.5C 185.5,151.167 185.5,148.833 185.5,146.5C 198.82,145.23 212.153,145.23 225.5,146.5 Z"/></g>
<g><path style="opacity:1" fill="#8aa1ca" d="M 122.5,147.5 C 120.459,151.829 120.126,156.162 121.5,160.5C 121.527,162.199 122.194,163.533 123.5,164.5C 121.876,164.64 120.71,163.973 120,162.5C 118.281,157.88 117.781,153.213 118.5,148.5C 119.689,147.571 121.022,147.238 122.5,147.5 Z"/></g>
<g><path style="opacity:1" fill="#a7cded" d="M 122.5,147.5 C 124.167,147.5 125.833,147.5 127.5,147.5C 142.324,148.496 157.324,148.829 172.5,148.5C 174.167,148.5 175.833,148.5 177.5,148.5C 177.5,152.167 177.5,155.833 177.5,159.5C 171.665,160.694 166.165,162.694 161,165.5C 160,164.5 159,163.5 158,162.5C 150.199,162.899 141.533,162.899 132,162.5C 131.692,163.308 131.192,163.975 130.5,164.5C 127.31,163.401 124.31,162.068 121.5,160.5C 120.126,156.162 120.459,151.829 122.5,147.5 Z"/></g>
<g><path style="opacity:1" fill="#a8caea" d="M 259.5,133.5 C 262.843,137.51 264.843,142.176 265.5,147.5C 264.03,152.285 260.696,155.285 255.5,156.5C 252.165,159.777 248.165,160.943 243.5,160C 240.736,148.784 244.402,140.45 254.5,135C 256.112,134.28 257.612,134.446 259,135.5C 259.464,134.906 259.631,134.239 259.5,133.5 Z"/></g>
<g><path style="opacity:1" fill="#738bac" d="M 265.5,147.5 C 265.274,150.249 265.607,152.916 266.5,155.5C 263.179,156.33 259.846,156.997 256.5,157.5C 255.833,157.5 255.5,157.167 255.5,156.5C 260.696,155.285 264.03,152.285 265.5,147.5 Z"/></g>
<g><path style="opacity:1" fill="#8195c0" d="M 185.5,153.5 C 185.5,156.833 185.5,160.167 185.5,163.5C 184.883,163.389 184.383,163.056 184,162.5C 183.667,163.833 183.333,165.167 183,166.5C 182.171,161.467 182.338,156.467 183.5,151.5C 184.182,152.243 184.849,152.909 185.5,153.5 Z"/></g>
<g><path style="opacity:1" fill="#a8cceb" d="M 265.5,147.5 C 266.627,151.683 267.627,156.017 268.5,160.5C 267.778,160.082 267.278,159.416 267,158.5C 266.833,159.167 266.667,159.833 266.5,160.5C 267.327,163.783 267.66,167.116 267.5,170.5C 265.086,175.729 261.086,179.229 255.5,181C 257.545,181.49 259.545,181.323 261.5,180.5C 264.702,179.3 267.869,179.3 271,180.5C 271.483,179.552 271.649,178.552 271.5,177.5C 272.434,178.568 272.768,179.901 272.5,181.5C 271.778,185.12 270.778,188.787 269.5,192.5C 267.252,195.328 265.252,198.328 263.5,201.5C 261.413,203.666 259.079,205.333 256.5,206.5C 244.611,209.521 240.277,204.854 243.5,192.5C 246.007,189.587 248.674,186.754 251.5,184C 248.606,184.132 245.939,184.965 243.5,186.5C 240.903,179.296 241.07,171.963 244,164.5C 246.655,162.947 249.488,161.78 252.5,161C 254.093,160.051 255.426,158.885 256.5,157.5C 259.846,156.997 263.179,156.33 266.5,155.5C 265.607,152.916 265.274,150.249 265.5,147.5 Z"/></g>
<g><path style="opacity:0.898" fill="#8899b6" d="M 87.5,153.5 C 88.7918,155.255 89.7918,157.255 90.5,159.5C 93.9568,160.094 96.9568,161.427 99.5,163.5C 96.9339,163.656 94.4339,163.322 92,162.5C 90.2367,162.975 88.57,163.642 87,164.5C 86.51,163.207 86.3433,161.873 86.5,160.5C 86.1984,157.941 86.5318,155.607 87.5,153.5 Z"/></g>
<g><path style="opacity:1" fill="#8fa8d0" d="M 115.5,153.5 C 115.833,153.5 116.167,153.5 116.5,153.5C 117.336,157.519 117.836,161.519 118,165.5C 113.891,166.556 109.725,166.556 105.5,165.5C 103.102,165.741 101.102,165.074 99.5,163.5C 104.783,164.192 110.117,164.192 115.5,163.5C 115.5,160.167 115.5,156.833 115.5,153.5 Z"/></g>
<g><path style="opacity:1" fill="#5a6a94" d="M 116.5,144.5 C 117.93,145.537 119.597,146.204 121.5,146.5C 123.5,146.5 125.5,146.5 127.5,146.5C 127.5,146.833 127.5,147.167 127.5,147.5C 125.833,147.5 124.167,147.5 122.5,147.5C 121.022,147.238 119.689,147.571 118.5,148.5C 117.781,153.213 118.281,157.88 120,162.5C 120.71,163.973 121.876,164.64 123.5,164.5C 123.5,165.167 123.833,165.5 124.5,165.5C 121.561,166.309 119.727,168.309 119,171.5C 118.517,170.552 118.351,169.552 118.5,168.5C 115.545,167.841 112.545,167.508 109.5,167.5C 108.005,167.011 106.671,166.345 105.5,165.5C 109.725,166.556 113.891,166.556 118,165.5C 117.836,161.519 117.336,157.519 116.5,153.5C 116.238,150.252 116.238,147.252 116.5,144.5 Z"/></g>
<g><path style="opacity:1" fill="#5a6390" d="M 238.5,159.5 C 240.961,162.719 240.794,166.053 238,169.5C 236.902,168.033 235.402,167.199 233.5,167C 234.729,165.471 236.229,164.304 238,163.5C 238.49,162.207 238.657,160.873 238.5,159.5 Z"/></g>
<g><path style="opacity:1" fill="#9bbdde" d="M 191.5,165.5 C 200.78,166.447 210.114,166.78 219.5,166.5C 219.082,167.222 218.416,167.722 217.5,168C 219.473,168.495 221.473,168.662 223.5,168.5C 210.927,169.382 198.26,169.716 185.5,169.5C 185.5,175.5 185.5,181.5 185.5,187.5C 190.167,187.5 194.833,187.5 199.5,187.5C 199.5,187.833 199.5,188.167 199.5,188.5C 197.735,189.461 195.735,189.795 193.5,189.5C 190.713,188.523 187.713,188.19 184.5,188.5C 184.334,181.825 184.5,175.158 185,168.5C 187.415,167.868 189.582,166.868 191.5,165.5 Z"/></g>
<g><path style="opacity:1" fill="#7e9bc0" d="M 173.5,166.5 C 174.919,167.451 176.585,167.784 178.5,167.5C 178.823,173.69 178.49,179.69 177.5,185.5C 177.676,180.12 177.342,174.787 176.5,169.5C 165.495,169.667 154.495,169.5 143.5,169C 153.614,168.997 163.614,168.164 173.5,166.5 Z"/></g>
<g><path style="opacity:1" fill="#a7cded" d="M 223.5,168.5 C 226.545,168.342 229.379,169.009 232,170.5C 232.499,174.821 232.666,179.154 232.5,183.5C 229.674,183.998 227.34,185.331 225.5,187.5C 216.833,187.5 208.167,187.5 199.5,187.5C 194.833,187.5 190.167,187.5 185.5,187.5C 185.5,181.5 185.5,175.5 185.5,169.5C 198.26,169.716 210.927,169.382 223.5,168.5 Z"/></g>
<g><path style="opacity:1" fill="#a7cded" d="M 164.5,190.5 C 152.122,190.38 139.788,189.713 127.5,188.5C 126.85,186.565 126.517,184.565 126.5,182.5C 127.171,179.242 128.004,175.909 129,172.5C 131.88,172.134 135.38,172.134 139.5,172.5C 139.595,175.272 140.929,177.272 143.5,178.5C 146,178.833 148.5,179.167 151,179.5C 156.083,179.68 160.916,178.846 165.5,177C 158.037,176.22 150.703,175.22 143.5,174C 149.272,175.071 154.938,174.571 160.5,172.5C 161.935,174.401 163.602,174.734 165.5,173.5C 161.743,172.052 161.743,171.052 165.5,170.5C 167.543,172.107 170.543,172.94 174.5,173C 173.655,174.558 174.321,175.558 176.5,176C 175.166,178.66 174.332,181.494 174,184.5C 170.416,185.932 167.25,187.932 164.5,190.5 Z"/></g>
<g><path style="opacity:1" fill="#a7caec" d="M 177.5,148.5 C 177.833,148.5 178.167,148.5 178.5,148.5C 178.5,154.167 178.5,159.833 178.5,165.5C 176.784,165.629 175.117,165.962 173.5,166.5C 163.614,168.164 153.614,168.997 143.5,169C 154.495,169.5 165.495,169.667 176.5,169.5C 177.342,174.787 177.676,180.12 177.5,185.5C 176.728,186.694 175.728,187.694 174.5,188.5C 171.302,189.787 167.969,190.453 164.5,190.5C 167.25,187.932 170.416,185.932 174,184.5C 174.332,181.494 175.166,178.66 176.5,176C 174.321,175.558 173.655,174.558 174.5,173C 170.543,172.94 167.543,172.107 165.5,170.5C 161.743,171.052 161.743,172.052 165.5,173.5C 163.602,174.734 161.935,174.401 160.5,172.5C 154.938,174.571 149.272,175.071 143.5,174C 150.703,175.22 158.037,176.22 165.5,177C 160.916,178.846 156.083,179.68 151,179.5C 148.5,179.167 146,178.833 143.5,178.5C 140.929,177.272 139.595,175.272 139.5,172.5C 135.38,172.134 131.88,172.134 129,172.5C 128.004,175.909 127.171,179.242 126.5,182.5C 125.387,178.493 125.387,174.493 126.5,170.5C 130.682,168.978 135.015,168.145 139.5,168C 134.455,167.357 129.455,166.524 124.5,165.5C 123.833,165.5 123.5,165.167 123.5,164.5C 122.194,163.533 121.527,162.199 121.5,160.5C 124.31,162.068 127.31,163.401 130.5,164.5C 131.192,163.975 131.692,163.308 132,162.5C 141.533,162.899 150.199,162.899 158,162.5C 159,163.5 160,164.5 161,165.5C 166.165,162.694 171.665,160.694 177.5,159.5C 177.5,155.833 177.5,152.167 177.5,148.5 Z"/></g>
<g><path style="opacity:1" fill="#718eb3" d="M 267.5,170.5 C 268.478,170.811 269.145,171.478 269.5,172.5C 267.841,173.817 266.674,175.483 266,177.5C 264.122,178.053 262.622,179.053 261.5,180.5C 259.545,181.323 257.545,181.49 255.5,181C 261.086,179.229 265.086,175.729 267.5,170.5 Z"/></g>
<g><path style="opacity:0.818" fill="#95a5be" d="M 268.5,160.5 C 269.627,166.136 270.627,171.802 271.5,177.5C 271.649,178.552 271.483,179.552 271,180.5C 267.869,179.3 264.702,179.3 261.5,180.5C 262.622,179.053 264.122,178.053 266,177.5C 266.674,175.483 267.841,173.817 269.5,172.5C 269.145,171.478 268.478,170.811 267.5,170.5C 267.66,167.116 267.327,163.783 266.5,160.5C 266.667,159.833 266.833,159.167 267,158.5C 267.278,159.416 267.778,160.082 268.5,160.5 Z"/></g>
<g><path style="opacity:0.814" fill="#637492" d="M 89.5,181.5 C 90.1667,182.167 90.8333,182.833 91.5,183.5C 89.7411,183.954 87.7411,183.954 85.5,183.5C 85.3367,181.143 85.5034,178.81 86,176.5C 86.3333,177.833 86.6667,179.167 87,180.5C 87.6708,181.252 88.5041,181.586 89.5,181.5 Z"/></g>
<g><path style="opacity:1" fill="#a7cbec" d="M 86.5,160.5 C 86.3433,161.873 86.51,163.207 87,164.5C 88.57,163.642 90.2367,162.975 92,162.5C 94.4339,163.322 96.9339,163.656 99.5,163.5C 101.102,165.074 103.102,165.741 105.5,165.5C 106.671,166.345 108.005,167.011 109.5,167.5C 111.891,169.362 114.558,170.696 117.5,171.5C 117.816,175.525 117.983,179.525 118,183.5C 116.563,186.708 114.063,188.375 110.5,188.5C 104.288,188.766 104.621,189.433 111.5,190.5C 112.67,192.279 114.336,193.279 116.5,193.5C 116.878,195.646 117.212,197.813 117.5,200C 117.646,202.034 116.98,203.701 115.5,205C 108.908,206.329 102.241,206.829 95.5,206.5C 93.2259,205.263 90.8926,203.929 88.5,202.5C 86.585,200.929 85.585,198.929 85.5,196.5C 86.5388,192.794 86.5388,189.127 85.5,185.5C 88.2492,185.274 90.9159,185.607 93.5,186.5C 94.3118,184.917 93.6452,183.917 91.5,183.5C 90.8333,182.833 90.1667,182.167 89.5,181.5C 87.2595,176.302 85.9262,170.968 85.5,165.5C 85.2155,163.585 85.5489,161.919 86.5,160.5 Z"/></g>
<g><path style="opacity:1" fill="#a6cbec" d="M 199.5,188.5 C 210.359,188.654 221.025,190.154 231.5,193C 236.11,196.833 236.777,201.333 233.5,206.5C 217.78,210.872 201.78,212.205 185.5,210.5C 184.596,209.791 184.263,208.791 184.5,207.5C 184.5,201.5 184.5,195.5 184.5,189.5C 187.5,189.5 190.5,189.5 193.5,189.5C 195.735,189.795 197.735,189.461 199.5,188.5 Z"/></g>
<g><path style="opacity:0.851" fill="#abbbcf" d="M 85.5,165.5 C 85.9262,170.968 87.2595,176.302 89.5,181.5C 88.5041,181.586 87.6708,181.252 87,180.5C 86.6667,179.167 86.3333,177.833 86,176.5C 85.5034,178.81 85.3367,181.143 85.5,183.5C 87.7411,183.954 89.7411,183.954 91.5,183.5C 93.6452,183.917 94.3118,184.917 93.5,186.5C 90.9159,185.607 88.2492,185.274 85.5,185.5C 86.5388,189.127 86.5388,192.794 85.5,196.5C 84.1001,197.1 83.1001,198.1 82.5,199.5C 83.3211,188.103 84.3211,176.77 85.5,165.5 Z"/></g>
<g><path style="opacity:1" fill="#566591" d="M 243.5,186.5 C 244.239,186.369 244.906,186.536 245.5,187C 244.335,188.084 243.002,188.917 241.5,189.5C 240.671,194.802 240.171,200.136 240,205.5C 238.897,199.929 237.897,194.263 237,188.5C 235.301,187.594 233.467,187.261 231.5,187.5C 235.605,186.55 237.772,183.883 238,179.5C 238.179,182.553 238.679,185.553 239.5,188.5C 241.026,188.006 242.359,187.339 243.5,186.5 Z"/></g>
<g><path style="opacity:1" fill="#809ec0" d="M 127.5,188.5 C 139.788,189.713 152.122,190.38 164.5,190.5C 167.969,190.453 171.302,189.787 174.5,188.5C 175.313,189.653 176.313,189.653 177.5,188.5C 178.664,195.476 178.831,202.476 178,209.5C 177.329,210.252 176.496,210.586 175.5,210.5C 177.365,204.382 178.032,198.048 177.5,191.5C 160.818,191.764 144.151,191.764 127.5,191.5C 127.5,190.5 127.5,189.5 127.5,188.5 Z"/></g>
<g><path style="opacity:1" fill="#586895" d="M 111.5,190.5 C 104.621,189.433 104.288,188.766 110.5,188.5C 112.831,189.317 115.331,189.984 118,190.5C 119.765,189.768 120.932,188.435 121.5,186.5C 121.833,187 122.167,187.5 122.5,188C 119.665,193.476 118.831,199.309 120,205.5C 120.5,207.333 121.667,208.5 123.5,209C 121.899,209.273 120.399,209.773 119,210.5C 118.71,212.952 118.044,215.285 117,217.5C 116.853,214.89 116.019,212.556 114.5,210.5C 115.934,209.77 117.1,208.77 118,207.5C 118.499,202.177 118.666,196.844 118.5,191.5C 116.139,191.326 113.806,190.993 111.5,190.5 Z"/></g>
<g><path style="opacity:1" fill="#a7cded" d="M 175.5,210.5 C 159.752,214.385 144.085,213.885 128.5,209C 126.556,207.278 125.556,205.111 125.5,202.5C 126.062,198.794 126.729,195.127 127.5,191.5C 144.151,191.764 160.818,191.764 177.5,191.5C 178.032,198.048 177.365,204.382 175.5,210.5 Z"/></g>
<g><path style="opacity:1" fill="#8395b3" d="M 85.5,196.5 C 85.585,198.929 86.585,200.929 88.5,202.5C 90.8926,203.929 93.2259,205.263 95.5,206.5C 91.8026,205.992 88.1359,205.326 84.5,204.5C 82.6945,212.59 85.0279,219.09 91.5,224C 89.6575,223.421 87.6575,222.921 85.5,222.5C 84.1055,222.621 82.7722,222.954 81.5,223.5C 80.272,228.519 80.272,233.519 81.5,238.5C 80.8333,239.167 80.1667,239.833 79.5,240.5C 77.9011,232.707 78.2344,225.04 80.5,217.5C 81.2216,217.082 81.7216,216.416 82,215.5C 82.4992,210.845 82.6658,206.179 82.5,201.5C 82.5,200.833 82.5,200.167 82.5,199.5C 83.1001,198.1 84.1001,197.1 85.5,196.5 Z"/></g>
<g><path style="opacity:1" fill="#7292b4" d="M 233.5,206.5 C 234.043,206.56 234.376,206.893 234.5,207.5C 233.398,208.176 232.398,208.842 231.5,209.5C 226.661,210.266 221.994,211.266 217.5,212.5C 212.493,212.751 207.493,213.084 202.5,213.5C 197.684,212.35 192.684,212.184 187.5,213C 186.219,214.409 185.219,215.909 184.5,217.5C 184.448,215.097 184.781,212.764 185.5,210.5C 201.78,212.205 217.78,210.872 233.5,206.5 Z"/></g>
<g><path style="opacity:1" fill="#849eca" d="M 256.5,206.5 C 257.239,206.369 257.906,206.536 258.5,207C 257.619,207.708 256.953,208.542 256.5,209.5C 253.888,210.371 251.221,211.037 248.5,211.5C 247.145,217.103 246.645,222.77 247,228.5C 249.126,230.377 251.626,231.377 254.5,231.5C 252.075,234.497 249.908,237.83 248,241.5C 247.501,245.486 247.334,249.486 247.5,253.5C 246.719,248.16 246.052,242.66 245.5,237C 245.755,235.674 246.422,234.674 247.5,234C 246.552,233.517 245.552,233.351 244.5,233.5C 243.359,226.611 243.359,219.777 244.5,213C 243.333,212.5 242.5,211.667 242,210.5C 242.457,214.784 242.457,219.118 242,223.5C 240.52,226.663 238.02,228.496 234.5,229C 236.769,229.758 238.936,229.591 241,228.5C 243.733,233.078 245.233,238.078 245.5,243.5C 245.499,248.19 243.499,251.523 239.5,253.5C 232.596,255.147 225.596,256.147 218.5,256.5C 223.306,253.996 228.306,251.663 233.5,249.5C 236.11,244.195 237.11,238.528 236.5,232.5C 230.155,232.653 223.822,232.986 217.5,233.5C 219.292,232.691 221.292,232.191 223.5,232C 220.854,231.503 218.187,231.336 215.5,231.5C 222.277,229.571 229.111,227.571 236,225.5C 236.609,220.139 236.442,214.805 235.5,209.5C 234.167,209.5 232.833,209.5 231.5,209.5C 232.398,208.842 233.398,208.176 234.5,207.5C 234.376,206.893 234.043,206.56 233.5,206.5C 236.777,201.333 236.11,196.833 231.5,193C 221.025,190.154 210.359,188.654 199.5,188.5C 199.5,188.167 199.5,187.833 199.5,187.5C 208.167,187.5 216.833,187.5 225.5,187.5C 227.5,187.5 229.5,187.5 231.5,187.5C 233.467,187.261 235.301,187.594 237,188.5C 237.897,194.263 238.897,199.929 240,205.5C 240.171,200.136 240.671,194.802 241.5,189.5C 243.002,188.917 244.335,188.084 245.5,187C 244.906,186.536 244.239,186.369 243.5,186.5C 245.939,184.965 248.606,184.132 251.5,184C 248.674,186.754 246.007,189.587 243.5,192.5C 240.277,204.854 244.611,209.521 256.5,206.5 Z"/></g>
<g><path style="opacity:0.204" fill="#d0d8e0" d="M 82.5,201.5 C 82.6658,206.179 82.4992,210.845 82,215.5C 81.7216,216.416 81.2216,217.082 80.5,217.5C 81.0182,212.014 81.6849,206.681 82.5,201.5 Z"/></g>
<g><path style="opacity:1" fill="#a6cbed" d="M 254.5,231.5 C 251.626,231.377 249.126,230.377 247,228.5C 246.645,222.77 247.145,217.103 248.5,211.5C 251.221,211.037 253.888,210.371 256.5,209.5C 259.006,208.25 261.673,207.584 264.5,207.5C 265.005,203.988 267.005,201.655 270.5,200.5C 272.695,202.059 273.695,204.226 273.5,207C 273.054,210.175 272.554,213.342 272,216.5C 268.956,219.375 266.123,222.375 263.5,225.5C 260.272,227.272 257.272,229.272 254.5,231.5 Z"/></g>
<g><path style="opacity:1" fill="#849dc8" d="M 124.5,165.5 C 129.455,166.524 134.455,167.357 139.5,168C 135.015,168.145 130.682,168.978 126.5,170.5C 125.387,174.493 125.387,178.493 126.5,182.5C 126.517,184.565 126.85,186.565 127.5,188.5C 127.5,189.5 127.5,190.5 127.5,191.5C 126.729,195.127 126.062,198.794 125.5,202.5C 125.556,205.111 126.556,207.278 128.5,209C 144.085,213.885 159.752,214.385 175.5,210.5C 176.209,211.404 177.209,211.737 178.5,211.5C 178.666,218.175 178.5,224.842 178,231.5C 177.329,232.252 176.496,232.586 175.5,232.5C 175.5,232.167 175.5,231.833 175.5,231.5C 176.117,231.389 176.617,231.056 177,230.5C 177.499,224.843 177.666,219.176 177.5,213.5C 171.854,214.027 166.187,214.36 160.5,214.5C 149.127,213.875 137.794,212.875 126.5,211.5C 125.417,211.461 124.417,211.127 123.5,210.5C 121.622,216.031 121.122,221.698 122,227.5C 122.98,228.981 124.147,230.315 125.5,231.5C 133.503,232.574 139.503,233.574 143.5,234.5C 136.465,234.326 129.465,234.659 122.5,235.5C 121.226,241.492 121.226,247.492 122.5,253.5C 127.052,254.057 131.385,255.057 135.5,256.5C 130.864,257.149 126.198,257.649 121.5,258C 112.397,260.443 110.064,265.943 114.5,274.5C 113.298,275.405 111.964,275.405 110.5,274.5C 109.737,273.732 108.737,273.232 107.5,273C 108.696,272.346 108.696,271.846 107.5,271.5C 106.205,272.098 104.872,272.598 103.5,273C 104.056,273.383 104.389,273.883 104.5,274.5C 100.781,274.998 97.4473,274.164 94.5,272C 94.9981,270.842 95.8315,270.009 97,269.5C 100.478,272.007 103.978,272.007 107.5,269.5C 108.61,264.889 108.777,260.222 108,255.5C 107.583,254.244 106.75,253.577 105.5,253.5C 105.158,252.662 104.492,252.328 103.5,252.5C 100.295,250.536 96.962,248.869 93.5,247.5C 98.8857,248.913 104.219,248.746 109.5,247C 110.066,246.005 110.733,245.172 111.5,244.5C 112.056,247.895 110.723,250.062 107.5,251C 108.025,251.692 108.692,252.192 109.5,252.5C 110.331,258.807 110.831,265.141 111,271.5C 111.227,266.103 111.894,260.769 113,255.5C 114.098,254.033 115.598,253.199 117.5,253C 116.234,252.691 115.067,252.191 114,251.5C 112.913,244.841 113.746,238.508 116.5,232.5C 117.729,231.719 119.062,231.219 120.5,231C 118.714,230.215 117.214,229.049 116,227.5C 115.691,228.766 115.191,229.933 114.5,231C 111.631,231.009 108.964,231.176 106.5,231.5C 102.739,230.454 99.0727,229.121 95.5,227.5C 95.5,227.167 95.5,226.833 95.5,226.5C 98.3113,226.826 100.978,227.659 103.5,229C 106.554,229.821 109.554,229.655 112.5,228.5C 115.433,222.684 115.1,217.184 111.5,212C 105.937,210.454 100.604,208.62 95.5,206.5C 102.241,206.829 108.908,206.329 115.5,205C 116.98,203.701 117.646,202.034 117.5,200C 117.212,197.813 116.878,195.646 116.5,193.5C 114.336,193.279 112.67,192.279 111.5,190.5C 113.806,190.993 116.139,191.326 118.5,191.5C 118.666,196.844 118.499,202.177 118,207.5C 117.1,208.77 115.934,209.77 114.5,210.5C 116.019,212.556 116.853,214.89 117,217.5C 118.044,215.285 118.71,212.952 119,210.5C 120.399,209.773 121.899,209.273 123.5,209C 121.667,208.5 120.5,207.333 120,205.5C 118.831,199.309 119.665,193.476 122.5,188C 122.167,187.5 121.833,187 121.5,186.5C 120.932,188.435 119.765,189.768 118,190.5C 115.331,189.984 112.831,189.317 110.5,188.5C 114.063,188.375 116.563,186.708 118,183.5C 117.983,179.525 117.816,175.525 117.5,171.5C 114.558,170.696 111.891,169.362 109.5,167.5C 112.545,167.508 115.545,167.841 118.5,168.5C 118.351,169.552 118.517,170.552 119,171.5C 119.727,168.309 121.561,166.309 124.5,165.5 Z"/></g>
<g><path style="opacity:1" fill="#a6ccec" d="M 126.5,211.5 C 137.794,212.875 149.127,213.875 160.5,214.5C 166.187,214.36 171.854,214.027 177.5,213.5C 177.666,219.176 177.499,224.843 177,230.5C 176.617,231.056 176.117,231.389 175.5,231.5C 167.15,231.803 158.983,231.136 151,229.5C 143.507,230.333 136.007,230.5 128.5,230C 123.57,224.973 123.237,219.64 127.5,214C 126.748,213.329 126.414,212.496 126.5,211.5 Z"/></g>
<g><path style="opacity:1" fill="#859ac4" d="M 183.5,207.5 C 183.5,218.833 183.5,230.167 183.5,241.5C 183.824,245.555 183.491,249.555 182.5,253.5C 179.897,246.074 178.897,238.408 179.5,230.5C 180.5,230.5 181.5,230.5 182.5,230.5C 182.663,228.143 182.497,225.81 182,223.5C 181.808,225.577 181.308,227.577 180.5,229.5C 179.167,211.833 179.167,194.167 180.5,176.5C 181.466,180.59 182.299,184.59 183,188.5C 182.667,187.833 182.333,187.167 182,186.5C 181.333,198.167 181.333,209.833 182,221.5C 182.333,211.167 182.667,200.833 183,190.5C 183.499,196.157 183.666,201.824 183.5,207.5 Z"/></g>
<g><path style="opacity:1" fill="#556390" d="M 247.5,253.5 C 247.833,253.5 248.167,253.5 248.5,253.5C 248.938,253.435 249.272,253.601 249.5,254C 248.033,255.098 247.199,256.598 247,258.5C 245.98,257.109 245.147,255.609 244.5,254C 242.866,253.506 241.199,253.34 239.5,253.5C 243.499,251.523 245.499,248.19 245.5,243.5C 245.233,238.078 243.733,233.078 241,228.5C 238.936,229.591 236.769,229.758 234.5,229C 238.02,228.496 240.52,226.663 242,223.5C 242.457,219.118 242.457,214.784 242,210.5C 242.5,211.667 243.333,212.5 244.5,213C 243.359,219.777 243.359,226.611 244.5,233.5C 245.552,233.351 246.552,233.517 247.5,234C 246.422,234.674 245.755,235.674 245.5,237C 246.052,242.66 246.719,248.16 247.5,253.5 Z"/></g>
<g><path style="opacity:1" fill="#829bc1" d="M 272.5,181.5 C 272.334,186.179 272.501,190.845 273,195.5C 275.345,204.756 277.178,214.09 278.5,223.5C 278.5,227.833 278.5,232.167 278.5,236.5C 273.975,243.174 267.808,247.84 260,250.5C 259.235,250.43 258.735,250.097 258.5,249.5C 264.936,247.229 270.436,243.562 275,238.5C 276.931,235.386 277.598,232.053 277,228.5C 276.32,226.487 274.987,225.154 273,224.5C 267.257,227.781 261.09,230.115 254.5,231.5C 257.272,229.272 260.272,227.272 263.5,225.5C 266.123,222.375 268.956,219.375 272,216.5C 272.554,213.342 273.054,210.175 273.5,207C 273.695,204.226 272.695,202.059 270.5,200.5C 267.005,201.655 265.005,203.988 264.5,207.5C 261.673,207.584 259.006,208.25 256.5,209.5C 256.953,208.542 257.619,207.708 258.5,207C 257.906,206.536 257.239,206.369 256.5,206.5C 259.079,205.333 261.413,203.666 263.5,201.5C 265.252,198.328 267.252,195.328 269.5,192.5C 270.778,188.787 271.778,185.12 272.5,181.5 Z"/></g>
<g><path style="opacity:1" fill="#4d5e88" d="M 183.5,207.5 C 183.833,207.5 184.167,207.5 184.5,207.5C 184.263,208.791 184.596,209.791 185.5,210.5C 184.781,212.764 184.448,215.097 184.5,217.5C 184.334,222.179 184.501,226.845 185,231.5C 185.71,232.973 186.876,233.64 188.5,233.5C 188.5,233.833 188.5,234.167 188.5,234.5C 187.167,234.5 185.833,234.5 184.5,234.5C 184.5,236.833 184.5,239.167 184.5,241.5C 184.167,241.5 183.833,241.5 183.5,241.5C 183.5,230.167 183.5,218.833 183.5,207.5 Z"/></g>
<g><path style="opacity:1" fill="#a7caeb" d="M 95.5,206.5 C 100.604,208.62 105.937,210.454 111.5,212C 115.1,217.184 115.433,222.684 112.5,228.5C 109.554,229.655 106.554,229.821 103.5,229C 100.978,227.659 98.3113,226.826 95.5,226.5C 91.1074,226.457 90.7741,226.957 94.5,228C 90.2194,229.458 87.0527,228.292 85,224.5C 84.3333,227.167 83.6667,227.167 83,224.5C 81.6335,227.564 81.1335,230.564 81.5,233.5C 83.4372,235.04 84.6039,237.04 85,239.5C 87.1326,237.909 88.7993,235.909 90,233.5C 91.02,234.891 91.8534,236.391 92.5,238C 91.2567,239.154 90.2567,240.488 89.5,242C 92.1732,243.001 94.5065,244.501 96.5,246.5C 98.4134,245.627 100.247,244.627 102,243.5C 102.991,244.939 104.324,245.939 106,246.5C 107.675,244.836 109.175,243.17 110.5,241.5C 110.32,240.446 109.987,239.446 109.5,238.5C 106.444,238.062 103.777,236.895 101.5,235C 101.833,234.667 102.167,234.333 102.5,234C 100.5,233 98.5,232 96.5,231C 95.6634,229.989 95.33,228.822 95.5,227.5C 99.0727,229.121 102.739,230.454 106.5,231.5C 108.441,231.869 110.275,232.536 112,233.5C 112.81,237.358 112.643,241.024 111.5,244.5C 110.733,245.172 110.066,246.005 109.5,247C 104.219,248.746 98.8857,248.913 93.5,247.5C 91.3649,245.929 89.0316,244.596 86.5,243.5C 84.8333,241.833 83.1667,240.167 81.5,238.5C 80.272,233.519 80.272,228.519 81.5,223.5C 82.7722,222.954 84.1055,222.621 85.5,222.5C 87.6575,222.921 89.6575,223.421 91.5,224C 85.0279,219.09 82.6945,212.59 84.5,204.5C 88.1359,205.326 91.8026,205.992 95.5,206.5 Z"/></g>
<g><path style="opacity:1" fill="#a7c7eb" d="M 231.5,209.5 C 232.833,209.5 234.167,209.5 235.5,209.5C 236.442,214.805 236.609,220.139 236,225.5C 229.111,227.571 222.277,229.571 215.5,231.5C 206.727,233.211 197.727,233.877 188.5,233.5C 186.876,233.64 185.71,232.973 185,231.5C 184.501,226.845 184.334,222.179 184.5,217.5C 185.219,215.909 186.219,214.409 187.5,213C 192.684,212.184 197.684,212.35 202.5,213.5C 197.788,213.653 193.122,214.153 188.5,215C 189.394,217.068 190.06,219.235 190.5,221.5C 187.938,229.332 190.772,232.332 199,230.5C 204.466,230.656 209.466,229.323 214,226.5C 215.726,227.576 217.559,227.743 219.5,227C 218.167,226.667 216.833,226.333 215.5,226C 218.23,225.272 220.897,225.438 223.5,226.5C 226.27,225.045 228.937,224.212 231.5,224C 233.045,222.178 233.712,220.011 233.5,217.5C 233.46,215.571 233.127,213.738 232.5,212C 231.833,211.833 231.167,211.667 230.5,211.5C 228.63,212.866 226.63,214.033 224.5,215C 225.711,215.893 225.711,216.726 224.5,217.5C 223.745,213.623 221.412,211.956 217.5,212.5C 221.994,211.266 226.661,210.266 231.5,209.5 Z"/></g>
<g><path style="opacity:1" fill="#a7cdec" d="M 202.5,213.5 C 207.493,213.084 212.493,212.751 217.5,212.5C 221.412,211.956 223.745,213.623 224.5,217.5C 225.711,216.726 225.711,215.893 224.5,215C 226.63,214.033 228.63,212.866 230.5,211.5C 231.167,211.667 231.833,211.833 232.5,212C 233.127,213.738 233.46,215.571 233.5,217.5C 233.712,220.011 233.045,222.178 231.5,224C 228.937,224.212 226.27,225.045 223.5,226.5C 220.897,225.438 218.23,225.272 215.5,226C 216.833,226.333 218.167,226.667 219.5,227C 217.559,227.743 215.726,227.576 214,226.5C 209.466,229.323 204.466,230.656 199,230.5C 190.772,232.332 187.938,229.332 190.5,221.5C 190.06,219.235 189.394,217.068 188.5,215C 193.122,214.153 197.788,213.653 202.5,213.5 Z"/></g>
<g><path style="opacity:1" fill="#a4c6e9" d="M 126.5,211.5 C 126.414,212.496 126.748,213.329 127.5,214C 123.237,219.64 123.57,224.973 128.5,230C 136.007,230.5 143.507,230.333 151,229.5C 158.983,231.136 167.15,231.803 175.5,231.5C 175.5,231.833 175.5,232.167 175.5,232.5C 174.432,233.434 173.099,233.768 171.5,233.5C 166.188,234.109 160.854,234.609 155.5,235C 162.852,235.364 170.185,235.864 177.5,236.5C 177.5,242.833 177.5,249.167 177.5,255.5C 177.586,256.496 177.252,257.329 176.5,258C 167.99,258.171 159.657,258.671 151.5,259.5C 147.824,258.67 144.324,258.67 141,259.5C 140.5,259.667 140,259.833 139.5,260C 140.833,260.667 142.167,261.333 143.5,262C 141.062,262.682 138.895,262.182 137,260.5C 135.238,260.944 135.405,261.444 137.5,262C 132.604,262.06 127.771,261.56 123,260.5C 121.559,261.26 120.059,261.926 118.5,262.5C 117.756,263.991 117.09,265.491 116.5,267C 118.155,268.444 118.822,270.278 118.5,272.5C 118.586,273.496 118.252,274.329 117.5,275C 118.728,277.14 120.395,278.807 122.5,280C 120.934,280.765 119.601,280.598 118.5,279.5C 117.876,277.246 116.543,275.579 114.5,274.5C 110.064,265.943 112.397,260.443 121.5,258C 126.198,257.649 130.864,257.149 135.5,256.5C 148.923,257.339 162.256,256.339 175.5,253.5C 175.621,248.348 175.621,243.015 175.5,237.5C 165.187,236.912 154.854,236.745 144.5,237C 143.748,236.329 143.414,235.496 143.5,234.5C 139.503,233.574 133.503,232.574 125.5,231.5C 124.147,230.315 122.98,228.981 122,227.5C 121.122,221.698 121.622,216.031 123.5,210.5C 124.417,211.127 125.417,211.461 126.5,211.5 Z"/></g>
<g><path style="opacity:1" fill="#a6cfeb" d="M 95.5,226.5 C 95.5,226.833 95.5,227.167 95.5,227.5C 95.33,228.822 95.6634,229.989 96.5,231C 98.5,232 100.5,233 102.5,234C 102.167,234.333 101.833,234.667 101.5,235C 103.777,236.895 106.444,238.062 109.5,238.5C 109.987,239.446 110.32,240.446 110.5,241.5C 109.175,243.17 107.675,244.836 106,246.5C 104.324,245.939 102.991,244.939 102,243.5C 100.247,244.627 98.4134,245.627 96.5,246.5C 94.5065,244.501 92.1732,243.001 89.5,242C 90.2567,240.488 91.2567,239.154 92.5,238C 91.8534,236.391 91.02,234.891 90,233.5C 88.7993,235.909 87.1326,237.909 85,239.5C 84.6039,237.04 83.4372,235.04 81.5,233.5C 81.1335,230.564 81.6335,227.564 83,224.5C 83.6667,227.167 84.3333,227.167 85,224.5C 87.0527,228.292 90.2194,229.458 94.5,228C 90.7741,226.957 91.1074,226.457 95.5,226.5 Z"/></g>
<g><path style="opacity:1" fill="#5b6994" d="M 111.5,244.5 C 112.643,241.024 112.81,237.358 112,233.5C 110.275,232.536 108.441,231.869 106.5,231.5C 108.964,231.176 111.631,231.009 114.5,231C 115.191,229.933 115.691,228.766 116,227.5C 117.214,229.049 118.714,230.215 120.5,231C 119.062,231.219 117.729,231.719 116.5,232.5C 113.746,238.508 112.913,244.841 114,251.5C 115.067,252.191 116.234,252.691 117.5,253C 115.598,253.199 114.098,254.033 113,255.5C 111.894,260.769 111.227,266.103 111,271.5C 110.831,265.141 110.331,258.807 109.5,252.5C 108.692,252.192 108.025,251.692 107.5,251C 110.723,250.062 112.056,247.895 111.5,244.5 Z"/></g>
<g><path style="opacity:1" fill="#6783a6" d="M 215.5,231.5 C 218.187,231.336 220.854,231.503 223.5,232C 221.292,232.191 219.292,232.691 217.5,233.5C 210.178,234.038 202.845,234.371 195.5,234.5C 193.167,234.5 190.833,234.5 188.5,234.5C 188.5,234.167 188.5,233.833 188.5,233.5C 197.727,233.877 206.727,233.211 215.5,231.5 Z"/></g>
<g><path style="opacity:0.114" fill="#c8ccde" d="M 278.5,223.5 C 279.381,228.669 280.048,234.002 280.5,239.5C 279.833,238.5 279.167,237.5 278.5,236.5C 278.5,232.167 278.5,227.833 278.5,223.5 Z"/></g>
<g><path style="opacity:1" fill="#7b96bd" d="M 171.5,233.5 C 173.607,234.468 175.941,234.802 178.5,234.5C 178.825,241.687 178.491,248.687 177.5,255.5C 177.5,249.167 177.5,242.833 177.5,236.5C 170.185,235.864 162.852,235.364 155.5,235C 160.854,234.609 166.188,234.109 171.5,233.5 Z"/></g>
<g><path style="opacity:1" fill="#a7ccec" d="M 218.5,256.5 C 208.188,257.305 197.854,257.638 187.5,257.5C 185.272,251.087 184.938,244.42 186.5,237.5C 189.662,236.635 192.662,235.635 195.5,234.5C 202.845,234.371 210.178,234.038 217.5,233.5C 223.822,232.986 230.155,232.653 236.5,232.5C 237.11,238.528 236.11,244.195 233.5,249.5C 228.306,251.663 223.306,253.996 218.5,256.5 Z"/></g>
<g><path style="opacity:1" fill="#a7cded" d="M 143.5,234.5 C 143.414,235.496 143.748,236.329 144.5,237C 154.854,236.745 165.187,236.912 175.5,237.5C 175.621,243.015 175.621,248.348 175.5,253.5C 162.256,256.339 148.923,257.339 135.5,256.5C 131.385,255.057 127.052,254.057 122.5,253.5C 121.226,247.492 121.226,241.492 122.5,235.5C 129.465,234.659 136.465,234.326 143.5,234.5 Z"/></g>
<g><path style="opacity:1" fill="#677797" d="M 81.5,238.5 C 83.1667,240.167 84.8333,241.833 86.5,243.5C 84.2975,243.965 82.1308,243.965 80,243.5C 79.5357,242.906 79.369,242.239 79.5,241.5C 79.5,241.167 79.5,240.833 79.5,240.5C 80.1667,239.833 80.8333,239.167 81.5,238.5 Z"/></g>
<g><path style="opacity:1" fill="#a7caed" d="M 258.5,249.5 C 254.863,250.263 251.53,251.597 248.5,253.5C 248.167,253.5 247.833,253.5 247.5,253.5C 247.334,249.486 247.501,245.486 248,241.5C 249.908,237.83 252.075,234.497 254.5,231.5C 261.09,230.115 267.257,227.781 273,224.5C 274.987,225.154 276.32,226.487 277,228.5C 277.598,232.053 276.931,235.386 275,238.5C 270.436,243.562 264.936,247.229 258.5,249.5 Z"/></g>
<g><path style="opacity:0.784" fill="#adbacc" d="M 280.5,240.5 C 281.388,243.483 282.054,246.65 282.5,250C 280.994,255.162 279.66,260.328 278.5,265.5C 277.865,262.069 276.865,258.736 275.5,255.5C 275.281,254.325 275.614,253.325 276.5,252.5C 277.243,253.908 278.077,255.241 279,256.5C 279.499,252.179 279.666,247.846 279.5,243.5C 280.404,242.791 280.737,241.791 280.5,240.5 Z"/></g>
<g><path style="opacity:1" fill="#657ca6" d="M 185.5,131.5 C 186.338,131.842 186.672,132.508 186.5,133.5C 186.058,137.154 185.724,140.821 185.5,144.5C 198.167,144.5 210.833,144.5 223.5,144.5C 224.952,145.302 226.618,145.802 228.5,146C 227.552,146.483 226.552,146.649 225.5,146.5C 212.153,145.23 198.82,145.23 185.5,146.5C 185.5,148.833 185.5,151.167 185.5,153.5C 184.849,152.909 184.182,152.243 183.5,151.5C 182.338,156.467 182.171,161.467 183,166.5C 183.333,165.167 183.667,163.833 184,162.5C 184.383,163.056 184.883,163.389 185.5,163.5C 186.918,165.308 188.918,165.975 191.5,165.5C 189.582,166.868 187.415,167.868 185,168.5C 184.5,175.158 184.334,181.825 184.5,188.5C 187.713,188.19 190.713,188.523 193.5,189.5C 190.5,189.5 187.5,189.5 184.5,189.5C 184.5,195.5 184.5,201.5 184.5,207.5C 184.167,207.5 183.833,207.5 183.5,207.5C 183.666,201.824 183.499,196.157 183,190.5C 182.667,200.833 182.333,211.167 182,221.5C 181.333,209.833 181.333,198.167 182,186.5C 182.333,187.167 182.667,187.833 183,188.5C 182.299,184.59 181.466,180.59 180.5,176.5C 179.167,194.167 179.167,211.833 180.5,229.5C 181.308,227.577 181.808,225.577 182,223.5C 182.497,225.81 182.663,228.143 182.5,230.5C 181.5,230.5 180.5,230.5 179.5,230.5C 178.897,238.408 179.897,246.074 182.5,253.5C 183.491,249.555 183.824,245.555 183.5,241.5C 183.833,241.5 184.167,241.5 184.5,241.5C 184.5,246.833 184.5,252.167 184.5,257.5C 185.5,257.5 186.5,257.5 187.5,257.5C 197.854,257.638 208.188,257.305 218.5,256.5C 225.596,256.147 232.596,255.147 239.5,253.5C 237.723,254.6 235.723,255.434 233.5,256C 227.353,256.838 221.353,257.671 215.5,258.5C 205.81,258.168 196.144,258.502 186.5,259.5C 184.958,263.14 184.291,266.973 184.5,271C 184.519,274.252 185.186,277.085 186.5,279.5C 183.024,280.643 179.358,280.81 175.5,280C 177.099,278.214 177.933,276.047 178,273.5C 178.333,275.167 178.667,276.833 179,278.5C 180.19,274.619 180.857,270.619 181,266.5C 181.696,270.666 182.029,274.666 182,278.5C 184.107,273.8 183.941,269.3 181.5,265C 182.72,263.475 183.387,261.641 183.5,259.5C 183.333,257.833 183.167,256.167 183,254.5C 182.196,257.44 180.863,260.107 179,262.5C 178.517,261.552 178.351,260.552 178.5,259.5C 172.833,259.5 167.167,259.5 161.5,259.5C 158.167,259.5 154.833,259.5 151.5,259.5C 159.657,258.671 167.99,258.171 176.5,258C 177.252,257.329 177.586,256.496 177.5,255.5C 178.491,248.687 178.825,241.687 178.5,234.5C 175.941,234.802 173.607,234.468 171.5,233.5C 173.099,233.768 174.432,233.434 175.5,232.5C 176.496,232.586 177.329,232.252 178,231.5C 178.5,224.842 178.666,218.175 178.5,211.5C 177.209,211.737 176.209,211.404 175.5,210.5C 176.496,210.586 177.329,210.252 178,209.5C 178.831,202.476 178.664,195.476 177.5,188.5C 176.313,189.653 175.313,189.653 174.5,188.5C 175.728,187.694 176.728,186.694 177.5,185.5C 178.49,179.69 178.823,173.69 178.5,167.5C 176.585,167.784 174.919,167.451 173.5,166.5C 175.117,165.962 176.784,165.629 178.5,165.5C 178.5,159.833 178.5,154.167 178.5,148.5C 179.167,148.5 179.5,148.167 179.5,147.5C 179.726,144.751 179.393,142.084 178.5,139.5C 179.557,139.094 180.891,139.094 182.5,139.5C 182.858,142.898 182.192,146.065 180.5,149C 180.833,149.5 181.167,150 181.5,150.5C 182.541,148.009 183.374,148.009 184,150.5C 184.223,145.75 184.723,141.084 185.5,136.5C 185.5,134.833 185.5,133.167 185.5,131.5 Z"/></g>
<g><path style="opacity:1" fill="#8a9cc8" d="M 179.5,151.5 C 180.824,155.107 181.491,159.107 181.5,163.5C 181.167,167.5 180.833,171.5 180.5,175.5C 179.502,167.528 179.169,159.528 179.5,151.5 Z"/></g>
<g><path style="opacity:1" fill="#8aa3cb" d="M 188.5,234.5 C 190.833,234.5 193.167,234.5 195.5,234.5C 192.662,235.635 189.662,236.635 186.5,237.5C 184.938,244.42 185.272,251.087 187.5,257.5C 186.5,257.5 185.5,257.5 184.5,257.5C 184.5,252.167 184.5,246.833 184.5,241.5C 184.5,239.167 184.5,236.833 184.5,234.5C 185.833,234.5 187.167,234.5 188.5,234.5 Z"/></g>
<g><path style="opacity:1" fill="#a6ceed" d="M 103.5,252.5 C 104.492,252.328 105.158,252.662 105.5,253.5C 104.574,257.783 104.407,262.116 105,266.5C 104.259,267.641 103.425,267.641 102.5,266.5C 101.719,267.729 101.219,269.062 101,270.5C 98.3848,267.956 95.3848,265.956 92,264.5C 92.2839,261.591 92.1172,258.758 91.5,256C 88.8333,255.667 86.1667,255.333 83.5,255C 86.4467,248.595 89.78,247.762 93.5,252.5C 96.7776,251.797 100.111,251.797 103.5,252.5 Z"/></g>
<g><path style="opacity:1" fill="#869ecb" d="M 278.5,236.5 C 279.167,237.5 279.833,238.5 280.5,239.5C 280.5,239.833 280.5,240.167 280.5,240.5C 280.737,241.791 280.404,242.791 279.5,243.5C 278.749,242.427 277.749,242.26 276.5,243C 270.481,249.011 263.481,253.511 255.5,256.5C 251.517,260.294 249.85,264.794 250.5,270C 249.584,270.278 248.918,270.778 248.5,271.5C 247.222,271.782 246.222,272.449 245.5,273.5C 245.803,267.942 243.803,263.442 239.5,260C 231.571,258.637 223.571,258.137 215.5,258.5C 221.353,257.671 227.353,256.838 233.5,256C 235.723,255.434 237.723,254.6 239.5,253.5C 241.199,253.34 242.866,253.506 244.5,254C 245.147,255.609 245.98,257.109 247,258.5C 247.199,256.598 248.033,255.098 249.5,254C 249.272,253.601 248.938,253.435 248.5,253.5C 251.53,251.597 254.863,250.263 258.5,249.5C 258.735,250.097 259.235,250.43 260,250.5C 267.808,247.84 273.975,243.174 278.5,236.5 Z"/></g>
<g><path style="opacity:1" fill="#a7cbed" d="M 279.5,243.5 C 279.666,247.846 279.499,252.179 279,256.5C 278.077,255.241 277.243,253.908 276.5,252.5C 275.614,253.325 275.281,254.325 275.5,255.5C 274.961,257.505 274.295,259.505 273.5,261.5C 272.808,260.975 272.308,260.308 272,259.5C 271.78,263.385 269.947,266.218 266.5,268C 262.852,268.062 259.185,267.895 255.5,267.5C 255.5,268.5 255.5,269.5 255.5,270.5C 254.448,270.351 253.448,270.517 252.5,271C 253.252,271.671 253.586,272.504 253.5,273.5C 251.833,272.167 250.167,272.167 248.5,273.5C 248.5,272.833 248.5,272.167 248.5,271.5C 248.918,270.778 249.584,270.278 250.5,270C 249.85,264.794 251.517,260.294 255.5,256.5C 263.481,253.511 270.481,249.011 276.5,243C 277.749,242.26 278.749,242.427 279.5,243.5 Z"/></g>
<g><path style="opacity:0.969" fill="#8c9ebb" d="M 79.5,241.5 C 79.369,242.239 79.5357,242.906 80,243.5C 82.1308,243.965 84.2975,243.965 86.5,243.5C 89.0316,244.596 91.3649,245.929 93.5,247.5C 90.4788,246.995 87.4788,246.328 84.5,245.5C 83.5581,245.608 82.7247,245.941 82,246.5C 81.3107,253.266 83.1441,259.266 87.5,264.5C 86.1667,264.5 85.5,265.167 85.5,266.5C 84.8333,266.167 84.1667,265.833 83.5,265.5C 80.9717,263.11 79.4717,260.11 79,256.5C 78.1837,251.316 78.3503,246.316 79.5,241.5 Z"/></g>
<g><path style="opacity:1" fill="#5d6a87" d="M 87.5,264.5 C 87.7329,266.062 88.3995,267.395 89.5,268.5C 89.6106,270.648 88.944,270.981 87.5,269.5C 86.8182,270.243 86.1515,270.909 85.5,271.5C 85.5,269.833 85.5,268.167 85.5,266.5C 85.5,265.167 86.1667,264.5 87.5,264.5 Z"/></g>
<g><path style="opacity:1" fill="#aac9eb" d="M 93.5,247.5 C 96.962,248.869 100.295,250.536 103.5,252.5C 100.111,251.797 96.7776,251.797 93.5,252.5C 89.78,247.762 86.4467,248.595 83.5,255C 86.1667,255.333 88.8333,255.667 91.5,256C 92.1172,258.758 92.2839,261.591 92,264.5C 95.3848,265.956 98.3848,267.956 101,270.5C 101.219,269.062 101.719,267.729 102.5,266.5C 103.425,267.641 104.259,267.641 105,266.5C 104.407,262.116 104.574,257.783 105.5,253.5C 106.75,253.577 107.583,254.244 108,255.5C 108.777,260.222 108.61,264.889 107.5,269.5C 103.978,272.007 100.478,272.007 97,269.5C 95.8315,270.009 94.9981,270.842 94.5,272C 97.4473,274.164 100.781,274.998 104.5,274.5C 104.833,274.5 105.167,274.5 105.5,274.5C 105.461,275.583 105.127,276.583 104.5,277.5C 102.031,278.168 99.6979,278.835 97.5,279.5C 94.5049,279.706 91.8383,279.04 89.5,277.5C 90.5,277.5 91.5,277.5 92.5,277.5C 93.075,273.845 92.075,270.845 89.5,268.5C 88.3995,267.395 87.7329,266.062 87.5,264.5C 83.1441,259.266 81.3107,253.266 82,246.5C 82.7247,245.941 83.5581,245.608 84.5,245.5C 87.4788,246.328 90.4788,246.995 93.5,247.5 Z"/></g>
<g><path style="opacity:0.196" fill="#d4d6e8" d="M 83.5,265.5 C 84.1667,265.833 84.8333,266.167 85.5,266.5C 85.5,268.167 85.5,269.833 85.5,271.5C 85.1667,272.167 84.8333,272.833 84.5,273.5C 84.7057,271.003 84.3723,268.337 83.5,265.5 Z"/></g>
<g><path style="opacity:0.49" fill="#7d8faf" d="M 275.5,255.5 C 276.865,258.736 277.865,262.069 278.5,265.5C 278.672,266.492 278.338,267.158 277.5,267.5C 276.603,268.598 275.77,268.598 275,267.5C 273.961,268.71 272.794,269.71 271.5,270.5C 271.189,269.522 270.522,268.855 269.5,268.5C 264.67,269.02 260.003,270.187 255.5,272C 258.167,272.667 258.167,273.333 255.5,274C 256.793,274.49 258.127,274.657 259.5,274.5C 258.791,275.404 257.791,275.737 256.5,275.5C 254.973,275.573 253.973,274.906 253.5,273.5C 253.586,272.504 253.252,271.671 252.5,271C 253.448,270.517 254.448,270.351 255.5,270.5C 255.5,269.5 255.5,268.5 255.5,267.5C 259.185,267.895 262.852,268.062 266.5,268C 269.947,266.218 271.78,263.385 272,259.5C 272.308,260.308 272.808,260.975 273.5,261.5C 274.295,259.505 274.961,257.505 275.5,255.5 Z"/></g>
<g><path style="opacity:1" fill="#a8c0e1" d="M 271.5,270.5 C 267.481,271.511 263.481,272.845 259.5,274.5C 258.127,274.657 256.793,274.49 255.5,274C 258.167,273.333 258.167,272.667 255.5,272C 260.003,270.187 264.67,269.02 269.5,268.5C 270.522,268.855 271.189,269.522 271.5,270.5 Z"/></g>
<g><path style="opacity:0.741" fill="#909ec0" d="M 89.5,268.5 C 92.075,270.845 93.075,273.845 92.5,277.5C 91.5,277.5 90.5,277.5 89.5,277.5C 87.246,276.876 85.5794,275.543 84.5,273.5C 84.8333,272.833 85.1667,272.167 85.5,271.5C 86.1515,270.909 86.8182,270.243 87.5,269.5C 88.944,270.981 89.6106,270.648 89.5,268.5 Z"/></g>
<g><path style="opacity:1" fill="#a7cded" d="M 151.5,259.5 C 154.833,259.5 158.167,259.5 161.5,259.5C 166.461,260.085 171.461,261.085 176.5,262.5C 177.321,267.803 177.321,273.137 176.5,278.5C 160.515,279.772 144.515,279.772 128.5,278.5C 126.289,276.309 123.623,274.809 120.5,274C 122.929,273.549 123.096,272.715 121,271.5C 120.329,272.252 119.496,272.586 118.5,272.5C 118.822,270.278 118.155,268.444 116.5,267C 117.09,265.491 117.756,263.991 118.5,262.5C 120.059,261.926 121.559,261.26 123,260.5C 127.771,261.56 132.604,262.06 137.5,262C 135.405,261.444 135.238,260.944 137,260.5C 138.895,262.182 141.062,262.682 143.5,262C 142.167,261.333 140.833,260.667 139.5,260C 140,259.833 140.5,259.667 141,259.5C 144.324,258.67 147.824,258.67 151.5,259.5 Z"/></g>
<g><path style="opacity:0.788" fill="#b6c3d3" d="M 277.5,267.5 C 276.746,270.091 275.079,271.924 272.5,273C 267.184,275.373 261.851,276.206 256.5,275.5C 257.791,275.737 258.791,275.404 259.5,274.5C 263.481,272.845 267.481,271.511 271.5,270.5C 272.794,269.71 273.961,268.71 275,267.5C 275.77,268.598 276.603,268.598 277.5,267.5 Z"/></g>
<g><path style="opacity:1" fill="#a8c9ed" d="M 215.5,258.5 C 223.571,258.137 231.571,258.637 239.5,260C 243.803,263.442 245.803,267.942 245.5,273.5C 241.362,276.204 236.695,277.537 231.5,277.5C 229.712,277.785 228.045,277.452 226.5,276.5C 227.981,275.056 227.648,274.389 225.5,274.5C 229.101,270.539 233.767,268.539 239.5,268.5C 238.975,266.012 238.142,263.679 237,261.5C 234.385,261.764 231.385,262.098 228,262.5C 217.221,261.523 206.387,260.523 195.5,259.5C 193.616,259.716 191.949,260.383 190.5,261.5C 189.015,266.046 188.348,270.713 188.5,275.5C 192.844,275.827 196.677,275.494 200,274.5C 200.333,275.167 200.667,275.833 201,276.5C 208.629,273.48 216.129,273.147 223.5,275.5C 221.972,276.309 220.306,276.976 218.5,277.5C 207.922,279.147 197.255,279.814 186.5,279.5C 185.186,277.085 184.519,274.252 184.5,271C 184.291,266.973 184.958,263.14 186.5,259.5C 196.144,258.502 205.81,258.168 215.5,258.5 Z"/></g>
<g><path style="opacity:1" fill="#a6ceed" d="M 225.5,274.5 C 224.833,274.833 224.167,275.167 223.5,275.5C 216.129,273.147 208.629,273.48 201,276.5C 200.667,275.833 200.333,275.167 200,274.5C 196.677,275.494 192.844,275.827 188.5,275.5C 188.348,270.713 189.015,266.046 190.5,261.5C 191.949,260.383 193.616,259.716 195.5,259.5C 206.387,260.523 217.221,261.523 228,262.5C 231.385,262.098 234.385,261.764 237,261.5C 238.142,263.679 238.975,266.012 239.5,268.5C 233.767,268.539 229.101,270.539 225.5,274.5 Z"/></g>
<g><path style="opacity:0.533" fill="#606b89" d="M 110.5,274.5 C 109.596,275.209 109.263,276.209 109.5,277.5C 107.97,276.789 106.637,275.789 105.5,274.5C 105.167,274.5 104.833,274.5 104.5,274.5C 104.389,273.883 104.056,273.383 103.5,273C 104.872,272.598 106.205,272.098 107.5,271.5C 108.696,271.846 108.696,272.346 107.5,273C 108.737,273.232 109.737,273.732 110.5,274.5 Z"/></g>
<g><path style="opacity:1" fill="#a5b1c6" d="M 110.5,274.5 C 111.964,275.405 113.298,275.405 114.5,274.5C 116.543,275.579 117.876,277.246 118.5,279.5C 116.36,281.881 116.027,284.548 117.5,287.5C 116.078,287.25 115.078,286.417 114.5,285C 115.576,283.274 115.743,281.441 115,279.5C 113.667,278.167 112.333,276.833 111,275.5C 110.722,276.416 110.222,277.082 109.5,277.5C 109.263,276.209 109.596,275.209 110.5,274.5 Z"/></g>
<g><path style="opacity:1" fill="#637aa1" d="M 225.5,274.5 C 227.648,274.389 227.981,275.056 226.5,276.5C 228.045,277.452 229.712,277.785 231.5,277.5C 235.028,278.451 238.695,278.618 242.5,278C 243.791,279.292 243.791,280.458 242.5,281.5C 242.389,280.883 242.056,280.383 241.5,280C 233.591,279.976 225.925,279.143 218.5,277.5C 220.306,276.976 221.972,276.309 223.5,275.5C 224.167,275.167 224.833,274.833 225.5,274.5 Z"/></g>
<g><path style="opacity:0.129" fill="#909cb0" d="M 105.5,274.5 C 106.637,275.789 107.97,276.789 109.5,277.5C 105.971,279.423 101.971,280.089 97.5,279.5C 99.6979,278.835 102.031,278.168 104.5,277.5C 105.127,276.583 105.461,275.583 105.5,274.5 Z"/></g>
<g><path style="opacity:1" fill="#859fc8" d="M 186.5,279.5 C 197.255,279.814 207.922,279.147 218.5,277.5C 225.925,279.143 233.591,279.976 241.5,280C 242.056,280.383 242.389,280.883 242.5,281.5C 241.662,281.842 241.328,282.508 241.5,283.5C 240.596,282.791 240.263,281.791 240.5,280.5C 236.452,280.395 232.452,280.728 228.5,281.5C 228.5,282.833 228.5,284.167 228.5,285.5C 223.028,283.405 217.361,281.739 211.5,280.5C 203.182,281.206 194.848,281.706 186.5,282C 185.107,283.363 183.441,284.196 181.5,284.5C 178.203,283.504 174.869,283.337 171.5,284C 169.854,285.821 167.854,286.987 165.5,287.5C 162.167,287.5 158.833,287.5 155.5,287.5C 147.417,283.183 138.751,281.349 129.5,282C 127.099,283.967 124.433,285.467 121.5,286.5C 123.396,287.466 125.396,287.799 127.5,287.5C 125.735,288.461 123.735,288.795 121.5,288.5C 119.901,288.768 118.568,288.434 117.5,287.5C 116.027,284.548 116.36,281.881 118.5,279.5C 119.601,280.598 120.934,280.765 122.5,280C 120.395,278.807 118.728,277.14 117.5,275C 118.252,274.329 118.586,273.496 118.5,272.5C 119.496,272.586 120.329,272.252 121,271.5C 123.096,272.715 122.929,273.549 120.5,274C 123.623,274.809 126.289,276.309 128.5,278.5C 144.515,279.772 160.515,279.772 176.5,278.5C 177.321,273.137 177.321,267.803 176.5,262.5C 171.461,261.085 166.461,260.085 161.5,259.5C 167.167,259.5 172.833,259.5 178.5,259.5C 178.351,260.552 178.517,261.552 179,262.5C 180.863,260.107 182.196,257.44 183,254.5C 183.167,256.167 183.333,257.833 183.5,259.5C 183.387,261.641 182.72,263.475 181.5,265C 183.941,269.3 184.107,273.8 182,278.5C 182.029,274.666 181.696,270.666 181,266.5C 180.857,270.619 180.19,274.619 179,278.5C 178.667,276.833 178.333,275.167 178,273.5C 177.933,276.047 177.099,278.214 175.5,280C 179.358,280.81 183.024,280.643 186.5,279.5 Z"/></g>
<g><path style="opacity:1" fill="#a9caeb" d="M 155.5,287.5 C 155.611,288.117 155.944,288.617 156.5,289C 152.179,289.499 147.846,289.666 143.5,289.5C 138.402,288.043 133.069,287.376 127.5,287.5C 125.396,287.799 123.396,287.466 121.5,286.5C 124.433,285.467 127.099,283.967 129.5,282C 138.751,281.349 147.417,283.183 155.5,287.5 Z"/></g>
<g><path style="opacity:1" fill="#aacbeb" d="M 241.5,283.5 C 241.5,284.5 241.5,285.5 241.5,286.5C 239.143,286.337 236.81,286.503 234.5,287C 237.146,287.497 239.813,287.664 242.5,287.5C 239.713,288.477 236.713,288.81 233.5,288.5C 228.511,287.834 223.344,287.501 218,287.5C 199.511,288.687 181.011,289.187 162.5,289C 163.737,288.768 164.737,288.268 165.5,287.5C 167.854,286.987 169.854,285.821 171.5,284C 174.869,283.337 178.203,283.504 181.5,284.5C 183.441,284.196 185.107,283.363 186.5,282C 194.848,281.706 203.182,281.206 211.5,280.5C 217.361,281.739 223.028,283.405 228.5,285.5C 228.5,284.167 228.5,282.833 228.5,281.5C 232.452,280.728 236.452,280.395 240.5,280.5C 240.263,281.791 240.596,282.791 241.5,283.5 Z"/></g>
<g><path style="opacity:0.576" fill="#909fb4" d="M 248.5,271.5 C 248.5,272.167 248.5,272.833 248.5,273.5C 245.909,277.769 244.909,282.436 245.5,287.5C 244.5,287.5 243.5,287.5 242.5,287.5C 239.813,287.664 237.146,287.497 234.5,287C 236.81,286.503 239.143,286.337 241.5,286.5C 241.5,285.5 241.5,284.5 241.5,283.5C 241.328,282.508 241.662,281.842 242.5,281.5C 243.791,280.458 243.791,279.292 242.5,278C 238.695,278.618 235.028,278.451 231.5,277.5C 236.695,277.537 241.362,276.204 245.5,273.5C 246.222,272.449 247.222,271.782 248.5,271.5 Z"/></g>
<g><path style="opacity:0.616" fill="#b1c3d2" d="M 127.5,287.5 C 133.069,287.376 138.402,288.043 143.5,289.5C 141.901,289.232 140.568,289.566 139.5,290.5C 133.312,290.243 127.312,289.577 121.5,288.5C 123.735,288.795 125.735,288.461 127.5,287.5 Z"/></g>
<g><path style="opacity:0.252" fill="#93a4b5" d="M 155.5,287.5 C 158.833,287.5 162.167,287.5 165.5,287.5C 164.737,288.268 163.737,288.768 162.5,289C 181.011,289.187 199.511,288.687 218,287.5C 223.344,287.501 228.511,287.834 233.5,288.5C 210.159,288.917 186.825,289.584 163.5,290.5C 155.925,290.72 147.925,290.72 139.5,290.5C 140.568,289.566 141.901,289.232 143.5,289.5C 147.846,289.666 152.179,289.499 156.5,289C 155.944,288.617 155.611,288.117 155.5,287.5 Z"/></g>
<g><path style="opacity:0.022" fill="#e0e9f1" d="M 233.5,288.5 C 214.498,289.62 195.332,290.62 176,291.5C 171.653,291.499 167.486,291.166 163.5,290.5C 186.825,289.584 210.159,288.917 233.5,288.5 Z"/></g>
</svg>
