<?xml version="1.0" encoding="UTF-8"?>
<!DOCTYPE svg PUBLIC "-//W3C//DTD SVG 1.1//EN" "http://www.w3.org/Graphics/SVG/1.1/DTD/svg11.dtd">
<svg xmlns="http://www.w3.org/2000/svg" version="1.1" width="360px" height="360px" style="shape-rendering:geometricPrecision; text-rendering:geometricPrecision; image-rendering:optimizeQuality; fill-rule:evenodd; clip-rule:evenodd" xmlns:xlink="http://www.w3.org/1999/xlink">
<g><path style="opacity:0.935" fill="#4e5d79" d="M 220.5,47.5 C 216.205,47.6862 212.205,46.6862 208.5,44.5C 195.76,45.2407 182.927,45.2407 170,44.5C 163.767,46.3463 157.6,46.3463 151.5,44.5C 146.925,45.0914 144.425,47.7581 144,52.5C 143.51,51.2068 143.343,49.8734 143.5,48.5C 141.784,48.3713 140.117,48.038 138.5,47.5C 139.673,45.4959 141.34,43.9959 143.5,43C 147.247,41.7839 151.08,40.9506 155,40.5C 171.333,41.8333 187.667,41.8333 204,40.5C 207.92,40.9506 211.753,41.7839 215.5,43C 217.66,43.9959 219.327,45.4959 220.5,47.5 Z"/></g>
<g><path style="opacity:1" fill="#364e79" d="M 220.5,47.5 C 222.822,48.8021 224.155,50.8021 224.5,53.5C 224.345,56.716 225.345,59.3826 227.5,61.5C 228.89,62.8993 229.89,64.5659 230.5,66.5C 231.371,72.6911 235.038,75.6911 241.5,75.5C 242.492,75.3284 243.158,75.6618 243.5,76.5C 243.238,77.9778 243.571,79.3112 244.5,80.5C 254.67,84.6485 260.67,91.9818 262.5,102.5C 254.745,91.7472 245.078,83.0805 233.5,76.5C 232.537,76.9698 232.537,77.6365 233.5,78.5C 233.083,79.1239 232.416,79.4573 231.5,79.5C 229.128,78.8966 226.961,77.8966 225,76.5C 222.359,77.9335 219.526,78.9335 216.5,79.5C 215.252,78.9598 214.085,78.2931 213,77.5C 211.479,80.0456 209.979,80.0456 208.5,77.5C 210.896,76.6995 213.229,75.6995 215.5,74.5C 212.758,73.7825 210.091,74.2825 207.5,76C 201.861,77.0797 196.195,77.913 190.5,78.5C 190.778,76.6536 190.111,75.3202 188.5,74.5C 186.474,75.3697 185.141,76.8697 184.5,79C 184.309,104.432 184.976,129.932 186.5,155.5C 185.494,152.683 183.828,150.183 181.5,148C 181.004,138.446 181.671,128.946 183.5,119.5C 182.924,108.482 182.257,97.4817 181.5,86.5C 179.876,86.3601 178.71,87.0267 178,88.5C 177.87,110.952 176.37,133.285 173.5,155.5C 172.167,155.5 170.833,155.5 169.5,155.5C 169.5,154.167 169.5,152.833 169.5,151.5C 170.158,152.398 170.824,153.398 171.5,154.5C 174.157,129.52 174.99,104.52 174,79.5C 174.333,80.1667 174.667,80.8333 175,81.5C 177.166,79.8787 179.666,79.0454 182.5,79C 181.062,78.7811 179.729,78.2811 178.5,77.5C 179,77.1667 179.5,76.8333 180,76.5C 190.027,72.16 199.86,67.3266 209.5,62C 214.541,57.9053 215.541,53.072 212.5,47.5C 212.167,47.8333 211.833,48.1667 211.5,48.5C 212.485,50.0983 212.651,51.765 212,53.5C 210.192,51.1568 208.026,50.4901 205.5,51.5C 207.197,52.3636 208.363,53.6969 209,55.5C 209.984,53.2053 210.817,53.5386 211.5,56.5C 210.01,57.8257 208.676,59.3257 207.5,61C 201.288,64.273 194.954,67.273 188.5,70C 177.253,72.21 166.92,70.21 157.5,64C 156.167,63.3333 154.833,63.3333 153.5,64C 159.518,67.5073 165.851,70.3406 172.5,72.5C 173.719,73.6461 175.052,74.6461 176.5,75.5C 175.282,75.109 174.448,75.7756 174,77.5C 173.363,75.6969 172.197,74.3636 170.5,73.5C 167.44,75.91 163.94,77.2434 160,77.5C 150.736,75.466 141.569,73.1326 132.5,70.5C 132.552,68.0971 132.219,65.7638 131.5,63.5C 133.302,60.4258 134.302,57.0924 134.5,53.5C 134.845,50.8021 136.178,48.8021 138.5,47.5C 140.117,48.038 141.784,48.3713 143.5,48.5C 143.343,49.8734 143.51,51.2068 144,52.5C 144.425,47.7581 146.925,45.0914 151.5,44.5C 157.6,46.3463 163.767,46.3463 170,44.5C 182.927,45.2407 195.76,45.2407 208.5,44.5C 212.205,46.6862 216.205,47.6862 220.5,47.5 Z"/></g>
<g><path style="opacity:0.29" fill="#7d8c99" d="M 134.5,53.5 C 134.302,57.0924 133.302,60.4258 131.5,63.5C 131.167,63.5 130.833,63.5 130.5,63.5C 131.658,60.0111 132.991,56.6777 134.5,53.5 Z"/></g>
<g><path style="opacity:0.29" fill="#838fa1" d="M 224.5,53.5 C 225.871,55.936 226.871,58.6027 227.5,61.5C 225.345,59.3826 224.345,56.716 224.5,53.5 Z"/></g>
<g><path style="opacity:0.435" fill="#57667b" d="M 230.5,66.5 C 231.158,67.3984 231.824,68.3984 232.5,69.5C 235.738,71.2753 238.738,73.2753 241.5,75.5C 235.038,75.6911 231.371,72.6911 230.5,66.5 Z"/></g>
<g><path style="opacity:0.235" fill="#838a9d" d="M 117.5,75.5 C 117.027,76.9063 116.027,77.573 114.5,77.5C 114.973,76.0937 115.973,75.427 117.5,75.5 Z"/></g>
<g><path style="opacity:1" fill="#374e7c" d="M 169.5,151.5 C 169.5,152.833 169.5,154.167 169.5,155.5C 170.833,155.5 172.167,155.5 173.5,155.5C 176.37,133.285 177.87,110.952 178,88.5C 178.71,87.0267 179.876,86.3601 181.5,86.5C 182.257,97.4817 182.924,108.482 183.5,119.5C 181.671,128.946 181.004,138.446 181.5,148C 183.828,150.183 185.494,152.683 186.5,155.5C 187.5,155.5 188.5,155.5 189.5,155.5C 189.255,130.174 189.255,104.841 189.5,79.5C 195.918,79.5582 202.252,78.8916 208.5,77.5C 209.979,80.0456 211.479,80.0456 213,77.5C 214.085,78.2931 215.252,78.9598 216.5,79.5C 219.526,78.9335 222.359,77.9335 225,76.5C 226.961,77.8966 229.128,78.8966 231.5,79.5C 232.416,79.4573 233.083,79.1239 233.5,78.5C 234.404,79.209 234.737,80.209 234.5,81.5C 236.288,81.2148 237.955,81.5481 239.5,82.5C 241.573,84.5798 243.907,86.2464 246.5,87.5C 246.679,89.9541 246.013,92.1208 244.5,94C 247.187,95.9402 250.187,97.4402 253.5,98.5C 254.115,101.436 255.282,104.103 257,106.5C 257.818,109.227 257.652,111.894 256.5,114.5C 255.193,113.184 253.693,112.184 252,111.5C 252.083,114.119 252.25,116.786 252.5,119.5C 252.706,122.495 252.04,125.162 250.5,127.5C 248.17,129.542 247.004,132.208 247,135.5C 246.667,164.5 246.333,193.5 246,222.5C 244.989,223.337 243.822,223.67 242.5,223.5C 241.648,199.66 241.315,175.827 241.5,152C 243.791,144.167 243.458,136.334 240.5,128.5C 239.808,129.025 239.308,129.692 239,130.5C 238.833,155.84 238.333,181.173 237.5,206.5C 236.167,207.167 235.167,208.167 234.5,209.5C 237.076,214.529 238.909,219.862 240,225.5C 240.663,228.869 240.496,232.203 239.5,235.5C 239.919,236.672 240.585,237.672 241.5,238.5C 240.675,239.386 239.675,239.719 238.5,239.5C 239.825,243.358 240.325,247.358 240,251.5C 238.032,255.931 235.199,256.931 231.5,254.5C 230.416,254.685 229.416,255.018 228.5,255.5C 224.435,256.422 222.102,254.922 221.5,251C 222.628,241.902 224.628,233.069 227.5,224.5C 227.25,221.133 226.25,218.133 224.5,215.5C 221.072,202.228 218.072,188.895 215.5,175.5C 194.197,173.334 172.864,173.001 151.5,174.5C 146.686,174.22 142.02,174.886 137.5,176.5C 138.84,177.688 139.507,179.188 139.5,181C 138.339,185.156 136.505,188.989 134,192.5C 133.758,198.884 133.092,205.218 132,211.5C 131.395,213.481 130.395,213.815 129,212.5C 128,217.507 126.5,222.341 124.5,227C 124.843,230.565 125.509,234.065 126.5,237.5C 128.069,236.286 128.902,234.619 129,232.5C 130.42,239.001 131.587,245.501 132.5,252C 131.29,253.039 130.29,254.206 129.5,255.5C 126.619,256.683 123.619,257.683 120.5,258.5C 119.976,256.694 119.309,255.028 118.5,253.5C 118.804,252.85 119.137,252.183 119.5,251.5C 117.722,249.055 116.389,246.389 115.5,243.5C 116.01,241.912 117.01,240.745 118.5,240C 117.204,235.227 116.037,230.394 115,225.5C 114.667,226.5 114.333,227.5 114,228.5C 113.667,228.167 113.333,227.833 113,227.5C 111.951,193.849 111.617,160.182 112,126.5C 110.264,121.956 108.93,117.29 108,112.5C 106,111.833 104,111.167 102,110.5C 102.535,107.459 103.035,103.792 103.5,99.5C 107.069,99.8926 109.402,101.893 110.5,105.5C 111.678,100.228 112.345,94.895 112.5,89.5C 114.143,89.4802 115.476,90.1468 116.5,91.5C 120.014,89.0358 122.014,85.7024 122.5,81.5C 123.282,79.5487 124.616,78.0487 126.5,77C 130.411,75.5452 134.411,74.3785 138.5,73.5C 148.416,77.5421 158.75,79.5421 169.5,79.5C 169.898,103.52 169.898,127.52 169.5,151.5 Z"/></g>
<g><path style="opacity:0.125" fill="#a3b0ba" d="M 99.5,89.5 C 99.573,91.0269 98.9063,92.0269 97.5,92.5C 97.427,90.9731 98.0937,89.9731 99.5,89.5 Z"/></g>
<g><path style="opacity:1" fill="#273e66" d="M 262.5,102.5 C 262.954,105.14 264.121,107.473 266,109.5C 267.823,119.115 269.323,128.782 270.5,138.5C 269.883,138.389 269.383,138.056 269,137.5C 268.306,122.465 263.806,108.798 255.5,96.5C 252.118,93.7852 249.118,90.7852 246.5,87.5C 243.907,86.2464 241.573,84.5798 239.5,82.5C 237.955,81.5481 236.288,81.2148 234.5,81.5C 234.737,80.209 234.404,79.209 233.5,78.5C 232.537,77.6365 232.537,76.9698 233.5,76.5C 245.078,83.0805 254.745,91.7472 262.5,102.5 Z"/></g>
<g><path style="opacity:0.114" fill="#9aa6bb" d="M 97.5,92.5 C 97.573,94.0269 96.9063,95.0269 95.5,95.5C 95.427,93.9731 96.0937,92.9731 97.5,92.5 Z"/></g>
<g><path style="opacity:1" fill="#394e75" d="M 219.5,95.5 C 220.833,95.5 222.167,95.5 223.5,95.5C 222.578,99.4825 224.078,101.816 228,102.5C 229.786,104.881 230.953,107.548 231.5,110.5C 232.628,111.262 233.795,111.929 235,112.5C 235.497,114.81 235.663,117.143 235.5,119.5C 236.675,119.281 237.675,119.614 238.5,120.5C 239.374,122.747 239.708,125.08 239.5,127.5C 236.753,127.813 234.086,127.48 231.5,126.5C 233.173,124.477 233.84,122.144 233.5,119.5C 229.498,119.829 225.664,119.496 222,118.5C 212.356,124.026 208.856,121.36 211.5,110.5C 214.55,106.791 217.884,103.291 221.5,100C 219.963,98.8904 219.297,97.3904 219.5,95.5 Z"/></g>
<g><path style="opacity:1" fill="#b8c9e1" d="M 221.5,104.5 C 223.809,105.388 225.476,107.054 226.5,109.5C 224.463,110.602 223.13,109.935 222.5,107.5C 221.89,106.609 221.557,105.609 221.5,104.5 Z"/></g>
<g><path style="opacity:1" fill="#c2cbdb" d="M 221.5,108.5 C 221.833,109.167 222.167,109.833 222.5,110.5C 221.5,110.5 220.5,110.5 219.5,110.5C 219.131,108.007 219.797,107.34 221.5,108.5 Z"/></g>
<g><path style="opacity:1" fill="#6e7c94" d="M 221.5,104.5 C 221.557,105.609 221.89,106.609 222.5,107.5C 221.833,107.5 221.5,107.833 221.5,108.5C 219.797,107.34 219.131,108.007 219.5,110.5C 220.5,110.5 221.5,110.5 222.5,110.5C 221.34,111.265 220.34,112.265 219.5,113.5C 219.833,113.833 220.167,114.167 220.5,114.5C 222.901,111.587 224.234,111.921 224.5,115.5C 221.753,115.813 219.086,115.48 216.5,114.5C 217.859,112.694 217.525,111.194 215.5,110C 216.448,109.517 217.448,109.351 218.5,109.5C 218.721,107.336 219.721,105.67 221.5,104.5 Z"/></g>
<g><path style="opacity:1" fill="#a1b2cf" d="M 213.5,113.5 C 215.337,113.639 215.67,114.306 214.5,115.5C 213.702,115.043 213.369,114.376 213.5,113.5 Z"/></g>
<g><path style="opacity:1" fill="#293e65" d="M 208.5,77.5 C 202.252,78.8916 195.918,79.5582 189.5,79.5C 189.255,104.841 189.255,130.174 189.5,155.5C 188.5,155.5 187.5,155.5 186.5,155.5C 184.976,129.932 184.309,104.432 184.5,79C 185.141,76.8697 186.474,75.3697 188.5,74.5C 190.111,75.3202 190.778,76.6536 190.5,78.5C 196.195,77.913 201.861,77.0797 207.5,76C 210.091,74.2825 212.758,73.7825 215.5,74.5C 213.229,75.6995 210.896,76.6995 208.5,77.5 Z"/></g>
<g><path style="opacity:1" fill="#7183a1" d="M 225.5,112.5 C 227.5,112.5 229.5,112.5 231.5,112.5C 231.328,116.971 230.494,117.304 229,113.5C 228.517,114.448 228.351,115.448 228.5,116.5C 227.5,116.5 226.5,116.5 225.5,116.5C 225.5,115.167 225.5,113.833 225.5,112.5 Z"/></g>
<g><path style="opacity:1" fill="#354d77" d="M 122.5,81.5 C 122.014,85.7024 120.014,89.0358 116.5,91.5C 115.476,90.1468 114.143,89.4802 112.5,89.5C 112.345,94.895 111.678,100.228 110.5,105.5C 109.402,101.893 107.069,99.8926 103.5,99.5C 103.035,103.792 102.535,107.459 102,110.5C 104,111.167 106,111.833 108,112.5C 108.93,117.29 110.264,121.956 112,126.5C 111.617,160.182 111.951,193.849 113,227.5C 113.333,227.833 113.667,228.167 114,228.5C 114.333,227.5 114.667,226.5 115,225.5C 116.037,230.394 117.204,235.227 118.5,240C 117.01,240.745 116.01,241.912 115.5,243.5C 116.389,246.389 117.722,249.055 119.5,251.5C 119.137,252.183 118.804,252.85 118.5,253.5C 117.609,252.89 116.609,252.557 115.5,252.5C 115.737,251.209 115.404,250.209 114.5,249.5C 112.771,248.764 111.771,247.43 111.5,245.5C 111.326,242.126 110.826,238.793 110,235.5C 108.382,235.889 107.215,237.222 106.5,239.5C 103.015,239.311 99.3482,239.311 95.5,239.5C 95.5,237.5 95.5,235.5 95.5,233.5C 98.1441,233.84 100.477,233.173 102.5,231.5C 103.18,227.845 104.18,224.345 105.5,221C 104.518,210.708 103.352,200.541 102,190.5C 101.5,180.172 101.334,169.839 101.5,159.5C 100.178,159.67 99.0113,159.337 98,158.5C 97.6667,150.167 97.3333,141.833 97,133.5C 96.3076,132.975 95.8076,132.308 95.5,131.5C 98.4194,128.342 99.586,124.676 99,120.5C 96.9287,119.636 95.262,118.303 94,116.5C 92.1307,124.64 90.6307,132.806 89.5,141C 90.5,142.667 91.5,144.333 92.5,146C 92.1834,150.41 92.0168,154.91 92,159.5C 91.586,159.957 91.086,160.291 90.5,160.5C 89.8333,165.5 89.1667,170.5 88.5,175.5C 85.7616,180.733 83.2616,186.067 81,191.5C 80.6667,196.833 80.3333,202.167 80,207.5C 78.0183,209.358 76.8516,211.691 76.5,214.5C 78.8033,218.518 79.6367,222.851 79,227.5C 77.9745,224.307 75.8078,222.974 72.5,223.5C 72.5,220.833 72.5,218.167 72.5,215.5C 76.7311,202.564 79.7311,189.231 81.5,175.5C 84.3462,150.557 89.5129,126.223 97,102.5C 100.362,100.178 101.695,97.1778 101,93.5C 104.223,92.2775 105.889,89.9441 106,86.5C 107.953,83.5538 110.453,82.8872 113.5,84.5C 112.909,85.1515 112.243,85.8182 111.5,86.5C 111.833,86.8333 112.167,87.1667 112.5,87.5C 115.264,86.2388 117.597,84.4054 119.5,82C 120.448,81.5172 121.448,81.3505 122.5,81.5 Z"/></g>
<g><path style="opacity:1" fill="#283e65" d="M 169.5,151.5 C 169.898,127.52 169.898,103.52 169.5,79.5C 158.75,79.5421 148.416,77.5421 138.5,73.5C 134.411,74.3785 130.411,75.5452 126.5,77C 124.616,78.0487 123.282,79.5487 122.5,81.5C 121.448,81.3505 120.448,81.5172 119.5,82C 117.597,84.4054 115.264,86.2388 112.5,87.5C 112.167,87.1667 111.833,86.8333 111.5,86.5C 112.243,85.8182 112.909,85.1515 113.5,84.5C 118.75,80.4355 124.417,76.9355 130.5,74C 132.241,72.917 132.907,71.7503 132.5,70.5C 141.569,73.1326 150.736,75.466 160,77.5C 163.94,77.2434 167.44,75.91 170.5,73.5C 172.197,74.3636 173.363,75.6969 174,77.5C 174.448,75.7756 175.282,75.109 176.5,75.5C 175.052,74.6461 173.719,73.6461 172.5,72.5C 165.851,70.3406 159.518,67.5073 153.5,64C 154.833,63.3333 156.167,63.3333 157.5,64C 166.92,70.21 177.253,72.21 188.5,70C 194.954,67.273 201.288,64.273 207.5,61C 208.676,59.3257 210.01,57.8257 211.5,56.5C 210.817,53.5386 209.984,53.2053 209,55.5C 208.363,53.6969 207.197,52.3636 205.5,51.5C 208.026,50.4901 210.192,51.1568 212,53.5C 212.651,51.765 212.485,50.0983 211.5,48.5C 211.833,48.1667 212.167,47.8333 212.5,47.5C 215.541,53.072 214.541,57.9053 209.5,62C 199.86,67.3266 190.027,72.16 180,76.5C 179.5,76.8333 179,77.1667 178.5,77.5C 179.729,78.2811 181.062,78.7811 182.5,79C 179.666,79.0454 177.166,79.8787 175,81.5C 174.667,80.8333 174.333,80.1667 174,79.5C 174.99,104.52 174.157,129.52 171.5,154.5C 170.824,153.398 170.158,152.398 169.5,151.5 Z"/></g>
<g><path style="opacity:1" fill="#364f7c" d="M 111.5,245.5 C 109.912,247.319 108.246,249.153 106.5,251C 106.833,251.333 107.167,251.667 107.5,252C 105.265,263.369 101.432,274.203 96,284.5C 95.6667,284.167 95.3333,283.833 95,283.5C 94.5065,285.134 94.3398,286.801 94.5,288.5C 90.0061,289.159 88.3395,291.825 89.5,296.5C 89.1667,296.5 88.8333,296.5 88.5,296.5C 87.0057,295.601 85.5057,295.935 84,297.5C 83.5045,295.527 83.3379,293.527 83.5,291.5C 82.1779,291.67 81.0113,291.337 80,290.5C 79.221,291.728 78.221,292.728 77,293.5C 75.1712,292.534 73.3379,292.367 71.5,293C 70.8591,288.548 70.1924,284.048 69.5,279.5C 68.8333,283.5 68.1667,287.5 67.5,291.5C 66.0295,290.619 65.1962,289.286 65,287.5C 63.9021,265.624 66.4021,244.29 72.5,223.5C 75.8078,222.974 77.9745,224.307 79,227.5C 79.6367,222.851 78.8033,218.518 76.5,214.5C 76.8516,211.691 78.0183,209.358 80,207.5C 80.3333,202.167 80.6667,196.833 81,191.5C 83.2616,186.067 85.7616,180.733 88.5,175.5C 89.1667,170.5 89.8333,165.5 90.5,160.5C 91.086,160.291 91.586,159.957 92,159.5C 92.0168,154.91 92.1834,150.41 92.5,146C 91.5,144.333 90.5,142.667 89.5,141C 90.6307,132.806 92.1307,124.64 94,116.5C 95.262,118.303 96.9287,119.636 99,120.5C 99.586,124.676 98.4194,128.342 95.5,131.5C 95.8076,132.308 96.3076,132.975 97,133.5C 97.3333,141.833 97.6667,150.167 98,158.5C 99.0113,159.337 100.178,159.67 101.5,159.5C 101.334,169.839 101.5,180.172 102,190.5C 103.352,200.541 104.518,210.708 105.5,221C 104.18,224.345 103.18,227.845 102.5,231.5C 100.477,233.173 98.1441,233.84 95.5,233.5C 95.5,235.5 95.5,237.5 95.5,239.5C 99.3482,239.311 103.015,239.311 106.5,239.5C 107.215,237.222 108.382,235.889 110,235.5C 110.826,238.793 111.326,242.126 111.5,245.5 Z"/></g>
<g><path style="opacity:1" fill="#364f7c" d="M 270.5,143.5 C 271.916,150.504 273.249,157.504 274.5,164.5C 272.376,166.873 271.043,169.706 270.5,173C 273.33,178.615 274.33,184.448 273.5,190.5C 274.328,191.415 275.328,192.081 276.5,192.5C 277.328,197.132 277.828,201.798 278,206.5C 279.356,207.38 280.856,207.714 282.5,207.5C 283.029,212.822 283.529,218.156 284,223.5C 284.414,223.957 284.914,224.291 285.5,224.5C 286.329,229.467 286.829,234.467 287,239.5C 287.5,240 288,240.5 288.5,241C 287.726,244.772 287.06,248.605 286.5,252.5C 286.556,253.737 287.056,254.737 288,255.5C 288.333,263.167 288.667,270.833 289,278.5C 289.333,273.5 289.667,268.5 290,263.5C 290.5,271.493 290.666,279.493 290.5,287.5C 288.955,288.23 288.122,289.563 288,291.5C 287.667,291.167 287.333,290.833 287,290.5C 286.009,291.939 284.676,292.939 283,293.5C 282.508,292.451 282.674,291.451 283.5,290.5C 282.372,289.738 281.205,289.071 280,288.5C 279.399,285.363 278.399,282.363 277,279.5C 276.999,283.184 277.499,286.85 278.5,290.5C 278.715,294.018 277.881,294.351 276,291.5C 274.705,293.565 274.205,295.565 274.5,297.5C 272.31,296.626 271.31,294.959 271.5,292.5C 270.167,292.5 268.833,292.5 267.5,292.5C 268.077,289.45 266.91,287.45 264,286.5C 260.12,277.47 256.286,268.637 252.5,260C 250.767,257.042 249.767,253.875 249.5,250.5C 248.822,246.727 250.156,243.894 253.5,242C 253.273,239.631 253.107,237.131 253,234.5C 251.938,232.792 250.771,232.126 249.5,232.5C 251.999,228.596 253.166,224.263 253,219.5C 253.823,193.476 254.156,167.476 254,141.5C 254.333,140.833 254.667,140.167 255,139.5C 255.49,140.793 255.657,142.127 255.5,143.5C 256.833,143.5 258.167,143.5 259.5,143.5C 258.978,139.244 260.144,135.577 263,132.5C 263.503,137.19 264.17,141.857 265,146.5C 265.414,146.043 265.914,145.709 266.5,145.5C 267.167,147.5 267.833,149.5 268.5,151.5C 269.343,149.769 269.343,147.935 268.5,146C 268.684,144.624 269.351,143.791 270.5,143.5 Z"/></g>
<g><path style="opacity:1" fill="#354e77" d="M 246.5,87.5 C 249.118,90.7852 252.118,93.7852 255.5,96.5C 263.806,108.798 268.306,122.465 269,137.5C 269.383,138.056 269.883,138.389 270.5,138.5C 272.256,139.552 272.923,141.219 272.5,143.5C 271.732,142.737 271.232,141.737 271,140.5C 270.517,141.448 270.351,142.448 270.5,143.5C 269.351,143.791 268.684,144.624 268.5,146C 269.343,147.935 269.343,149.769 268.5,151.5C 267.833,149.5 267.167,147.5 266.5,145.5C 265.914,145.709 265.414,146.043 265,146.5C 264.17,141.857 263.503,137.19 263,132.5C 260.144,135.577 258.978,139.244 259.5,143.5C 258.167,143.5 256.833,143.5 255.5,143.5C 255.657,142.127 255.49,140.793 255,139.5C 254.667,140.167 254.333,140.833 254,141.5C 254.156,167.476 253.823,193.476 253,219.5C 253.166,224.263 251.999,228.596 249.5,232.5C 250.771,232.126 251.938,232.792 253,234.5C 253.107,237.131 253.273,239.631 253.5,242C 250.156,243.894 248.822,246.727 249.5,250.5C 247.49,248.96 245.156,247.96 242.5,247.5C 241.711,250.646 241.045,253.813 240.5,257C 240.164,258.03 239.497,258.53 238.5,258.5C 234.917,257.993 231.583,256.993 228.5,255.5C 229.416,255.018 230.416,254.685 231.5,254.5C 235.199,256.931 238.032,255.931 240,251.5C 240.325,247.358 239.825,243.358 238.5,239.5C 239.675,239.719 240.675,239.386 241.5,238.5C 240.585,237.672 239.919,236.672 239.5,235.5C 240.496,232.203 240.663,228.869 240,225.5C 238.909,219.862 237.076,214.529 234.5,209.5C 235.167,208.167 236.167,207.167 237.5,206.5C 238.333,181.173 238.833,155.84 239,130.5C 239.308,129.692 239.808,129.025 240.5,128.5C 243.458,136.334 243.791,144.167 241.5,152C 241.315,175.827 241.648,199.66 242.5,223.5C 243.822,223.67 244.989,223.337 246,222.5C 246.333,193.5 246.667,164.5 247,135.5C 247.004,132.208 248.17,129.542 250.5,127.5C 249.4,156.821 249.234,186.154 250,215.5C 250.333,214.5 250.667,213.5 251,212.5C 251.333,186.167 251.667,159.833 252,133.5C 252.5,130 253,126.5 253.5,123C 253.486,121.615 253.152,120.449 252.5,119.5C 252.25,116.786 252.083,114.119 252,111.5C 253.693,112.184 255.193,113.184 256.5,114.5C 257.652,111.894 257.818,109.227 257,106.5C 255.282,104.103 254.115,101.436 253.5,98.5C 250.187,97.4402 247.187,95.9402 244.5,94C 246.013,92.1208 246.679,89.9541 246.5,87.5 Z"/></g>
<g><path style="opacity:0.984" fill="#44526e" d="M 243.5,76.5 C 252.452,80.9513 259.285,87.618 264,96.5C 269.369,110.772 273.202,125.439 275.5,140.5C 275.294,143.495 275.96,146.162 277.5,148.5C 280.101,156.913 282.101,165.579 283.5,174.5C 279.324,170.503 277.157,165.503 277,159.5C 276.617,160.056 276.117,160.389 275.5,160.5C 274.594,154.823 273.594,149.157 272.5,143.5C 272.923,141.219 272.256,139.552 270.5,138.5C 269.323,128.782 267.823,119.115 266,109.5C 264.121,107.473 262.954,105.14 262.5,102.5C 260.67,91.9818 254.67,84.6485 244.5,80.5C 243.571,79.3112 243.238,77.9778 243.5,76.5 Z"/></g>
<g><path style="opacity:0.169" fill="#80889a" d="M 275.5,140.5 C 276.768,142.905 277.435,145.572 277.5,148.5C 275.96,146.162 275.294,143.495 275.5,140.5 Z"/></g>
<g><path style="opacity:0.824" fill="#4b576e" d="M 77.5,169.5 C 78.0916,166.873 78.4249,164.206 78.5,161.5C 79.6759,153.939 81.3426,146.605 83.5,139.5C 84.2216,139.082 84.7216,138.416 85,137.5C 85.6667,139.5 85.6667,141.5 85,143.5C 82.8712,152.904 80.3712,161.57 77.5,169.5 Z"/></g>
<g><path style="opacity:1" fill="#405171" d="M 130.5,63.5 C 130.833,63.5 131.167,63.5 131.5,63.5C 132.219,65.7638 132.552,68.0971 132.5,70.5C 132.907,71.7503 132.241,72.917 130.5,74C 124.417,76.9355 118.75,80.4355 113.5,84.5C 110.453,82.8872 107.953,83.5538 106,86.5C 105.889,89.9441 104.223,92.2775 101,93.5C 101.695,97.1778 100.362,100.178 97,102.5C 89.5129,126.223 84.3462,150.557 81.5,175.5C 80.8333,176.833 80.1667,178.167 79.5,179.5C 79.9765,173.71 78.9765,173.21 76.5,178C 73.1498,187.899 71.3164,198.066 71,208.5C 70.0945,211.134 69.2612,213.134 68.5,214.5C 68.2436,212.208 68.5769,210.041 69.5,208C 69.1667,207.833 68.8333,207.667 68.5,207.5C 67.8281,208.949 67.1614,210.282 66.5,211.5C 66.5399,208.012 67.2066,204.679 68.5,201.5C 69.9238,199.485 70.5905,197.152 70.5,194.5C 71.3422,188.603 72.6755,182.936 74.5,177.5C 76.0395,175.162 76.7062,172.495 76.5,169.5C 76.8333,169.5 77.1667,169.5 77.5,169.5C 80.3712,161.57 82.8712,152.904 85,143.5C 85.6667,141.5 85.6667,139.5 85,137.5C 84.7216,138.416 84.2216,139.082 83.5,139.5C 85.9652,124.296 89.9652,109.629 95.5,95.5C 96.9063,95.0269 97.573,94.0269 97.5,92.5C 98.9063,92.0269 99.573,91.0269 99.5,89.5C 103.341,83.9865 108.341,79.9865 114.5,77.5C 116.027,77.573 117.027,76.9063 117.5,75.5C 120.102,73.1904 123.102,71.3571 126.5,70C 127.219,67.3829 128.553,65.2162 130.5,63.5 Z"/></g>
<g><path style="opacity:0.263" fill="#a1a8b6" d="M 78.5,161.5 C 78.4249,164.206 78.0916,166.873 77.5,169.5C 77.1667,169.5 76.8333,169.5 76.5,169.5C 76.5651,166.572 77.2318,163.905 78.5,161.5 Z"/></g>
<g><path style="opacity:1" fill="#374e7c" d="M 207.5,176.5 C 207.5,177.833 207.5,179.167 207.5,180.5C 196.854,180.671 196.854,181.171 207.5,182C 196.854,182.829 196.854,183.329 207.5,183.5C 207.5,185.5 207.5,187.5 207.5,189.5C 208.675,189.281 209.675,189.614 210.5,190.5C 208.871,190.372 207.538,191.372 206.5,193.5C 208.636,194.852 208.97,196.518 207.5,198.5C 209.332,199.248 210.999,200.248 212.5,201.5C 214.024,206.229 215.857,210.895 218,215.5C 217.792,219.791 219.125,223.458 222,226.5C 222.494,228.134 222.66,229.801 222.5,231.5C 220.857,231.52 219.524,230.853 218.5,229.5C 217.066,231.22 216.233,233.22 216,235.5C 215.51,234.207 215.343,232.873 215.5,231.5C 212.833,231.5 210.167,231.5 207.5,231.5C 207.373,233.915 207.207,236.249 207,238.5C 208.734,239.249 210.567,239.749 212.5,240C 215.622,243.003 215.956,246.17 213.5,249.5C 209.374,249.583 205.541,249.916 202,250.5C 199.962,248.928 197.629,247.928 195,247.5C 191.707,247.912 188.207,247.912 184.5,247.5C 181.087,247.517 178.087,248.184 175.5,249.5C 167.174,250.433 158.84,251.433 150.5,252.5C 148.772,252.41 147.106,252.077 145.5,251.5C 143.821,253.104 141.821,253.771 139.5,253.5C 138.886,249.865 138.552,246.198 138.5,242.5C 141.404,243.876 143.071,242.876 143.5,239.5C 142.407,233.847 141.407,228.181 140.5,222.5C 141.98,217.913 143.147,213.246 144,208.5C 149.072,207.529 154.238,207.195 159.5,207.5C 159.827,202.456 159.494,197.456 158.5,192.5C 156.253,191.626 153.92,191.292 151.5,191.5C 152.167,186.833 154.833,184.167 159.5,183.5C 159.5,181.167 159.5,178.833 159.5,176.5C 165.942,175.056 172.608,174.39 179.5,174.5C 188.862,174.837 198.196,175.504 207.5,176.5 Z"/></g>
<g><path style="opacity:0.176" fill="#939eaa" d="M 76.5,169.5 C 76.7062,172.495 76.0395,175.162 74.5,177.5C 74.5651,174.572 75.2318,171.905 76.5,169.5 Z"/></g>
<g><path style="opacity:0.231" fill="#818a9c" d="M 284.5,178.5 C 285.612,180.599 286.279,182.933 286.5,185.5C 284.837,183.562 284.171,181.228 284.5,178.5 Z"/></g>
<g><path style="opacity:1" fill="#233963" d="M 272.5,143.5 C 273.594,149.157 274.594,154.823 275.5,160.5C 277.583,172.242 280.083,183.909 283,195.5C 283.998,199.473 284.331,203.473 284,207.5C 280.39,193.133 277.223,178.799 274.5,164.5C 273.249,157.504 271.916,150.504 270.5,143.5C 270.351,142.448 270.517,141.448 271,140.5C 271.232,141.737 271.732,142.737 272.5,143.5 Z"/></g>
<g><path style="opacity:1" fill="#263c65" d="M 224.5,215.5 C 220.283,204.99 217.116,193.99 215,182.5C 214.02,180.941 213.187,179.274 212.5,177.5C 210.929,176.691 209.262,176.357 207.5,176.5C 198.196,175.504 188.862,174.837 179.5,174.5C 172.608,174.39 165.942,175.056 159.5,176.5C 154.821,176.666 150.155,176.499 145.5,176C 147.708,175.809 149.708,175.309 151.5,174.5C 172.864,173.001 194.197,173.334 215.5,175.5C 218.072,188.895 221.072,202.228 224.5,215.5 Z"/></g>
<g><path style="opacity:1" fill="#364e78" d="M 151.5,174.5 C 149.708,175.309 147.708,175.809 145.5,176C 150.155,176.499 154.821,176.666 159.5,176.5C 159.5,178.833 159.5,181.167 159.5,183.5C 154.833,184.167 152.167,186.833 151.5,191.5C 153.92,191.292 156.253,191.626 158.5,192.5C 159.494,197.456 159.827,202.456 159.5,207.5C 154.238,207.195 149.072,207.529 144,208.5C 143.147,213.246 141.98,217.913 140.5,222.5C 141.407,228.181 142.407,233.847 143.5,239.5C 143.071,242.876 141.404,243.876 138.5,242.5C 134.433,233.901 133.1,224.901 134.5,215.5C 132.421,217.675 131.421,220.342 131.5,223.5C 134.013,232.544 136.013,241.711 137.5,251C 137.167,252.167 136.833,253.333 136.5,254.5C 134.253,255.374 131.92,255.708 129.5,255.5C 130.29,254.206 131.29,253.039 132.5,252C 131.587,245.501 130.42,239.001 129,232.5C 128.902,234.619 128.069,236.286 126.5,237.5C 125.509,234.065 124.843,230.565 124.5,227C 126.5,222.341 128,217.507 129,212.5C 130.395,213.815 131.395,213.481 132,211.5C 133.092,205.218 133.758,198.884 134,192.5C 136.505,188.989 138.339,185.156 139.5,181C 139.507,179.188 138.84,177.688 137.5,176.5C 142.02,174.886 146.686,174.22 151.5,174.5 Z"/></g>
<g><path style="opacity:1" fill="#243b64" d="M 105.5,119.5 C 107.872,125.814 109.039,132.481 109,139.5C 109.141,170.213 109.807,200.88 111,231.5C 109.918,225.181 108.918,218.848 108,212.5C 107.667,186.167 107.333,159.833 107,133.5C 106.171,128.863 105.671,124.196 105.5,119.5 Z"/></g>
<g><path style="opacity:1" fill="#243c5f" d="M 252.5,119.5 C 253.152,120.449 253.486,121.615 253.5,123C 253,126.5 252.5,130 252,133.5C 251.667,159.833 251.333,186.167 251,212.5C 250.667,213.5 250.333,214.5 250,215.5C 249.234,186.154 249.4,156.821 250.5,127.5C 252.04,125.162 252.706,122.495 252.5,119.5 Z"/></g>
<g><path style="opacity:1" fill="#223963" d="M 81.5,175.5 C 79.7311,189.231 76.7311,202.564 72.5,215.5C 74.4066,203.389 76.7399,191.389 79.5,179.5C 80.1667,178.167 80.8333,176.833 81.5,175.5 Z"/></g>
<g><path style="opacity:1" fill="#223960" d="M 134.5,215.5 C 137.192,202.4 140.358,189.4 144,176.5C 142.843,190.124 139.676,203.124 134.5,215.5 Z"/></g>
<g><path style="opacity:0.129" fill="#929ca9" d="M 70.5,194.5 C 70.5905,197.152 69.9238,199.485 68.5,201.5C 68.4095,198.848 69.0762,196.515 70.5,194.5 Z"/></g>
<g><path style="opacity:1" fill="#233a63" d="M 293.5,243.5 C 295.551,258.142 296.217,272.809 295.5,287.5C 295.167,287.5 294.833,287.5 294.5,287.5C 294.789,264.48 292.122,241.813 286.5,219.5C 286.528,215.101 287.028,214.768 288,218.5C 289.519,227.036 291.352,235.369 293.5,243.5 Z"/></g>
<g><path style="opacity:1" fill="#354d76" d="M 207.5,176.5 C 209.262,176.357 210.929,176.691 212.5,177.5C 213.187,179.274 214.02,180.941 215,182.5C 217.116,193.99 220.283,204.99 224.5,215.5C 224.559,218.69 224.893,221.857 225.5,225C 222.394,234.266 220.394,243.766 219.5,253.5C 217.179,253.771 215.179,253.104 213.5,251.5C 211.894,252.077 210.228,252.41 208.5,252.5C 197.584,250.513 186.584,249.513 175.5,249.5C 178.087,248.184 181.087,247.517 184.5,247.5C 188.207,247.912 191.707,247.912 195,247.5C 197.629,247.928 199.962,248.928 202,250.5C 205.541,249.916 209.374,249.583 213.5,249.5C 215.956,246.17 215.622,243.003 212.5,240C 210.567,239.749 208.734,239.249 207,238.5C 207.207,236.249 207.373,233.915 207.5,231.5C 210.167,231.5 212.833,231.5 215.5,231.5C 215.343,232.873 215.51,234.207 216,235.5C 216.233,233.22 217.066,231.22 218.5,229.5C 219.524,230.853 220.857,231.52 222.5,231.5C 222.66,229.801 222.494,228.134 222,226.5C 219.125,223.458 217.792,219.791 218,215.5C 215.857,210.895 214.024,206.229 212.5,201.5C 210.999,200.248 209.332,199.248 207.5,198.5C 208.97,196.518 208.636,194.852 206.5,193.5C 207.538,191.372 208.871,190.372 210.5,190.5C 209.675,189.614 208.675,189.281 207.5,189.5C 207.5,187.5 207.5,185.5 207.5,183.5C 196.854,183.329 196.854,182.829 207.5,182C 196.854,181.171 196.854,180.671 207.5,180.5C 207.5,179.167 207.5,177.833 207.5,176.5 Z"/></g>
<g><path style="opacity:0.906" fill="#5a677c" d="M 68.5,214.5 C 63.3687,237.096 60.3687,260.096 59.5,283.5C 57.2847,274.369 57.118,265.036 59,255.5C 60.9818,240.606 63.4818,225.939 66.5,211.5C 67.1614,210.282 67.8281,208.949 68.5,207.5C 68.8333,207.667 69.1667,207.833 69.5,208C 68.5769,210.041 68.2436,212.208 68.5,214.5 Z"/></g>
<g><path style="opacity:0.98" fill="#40506c" d="M 287.5,190.5 C 292.873,210.062 296.54,230.062 298.5,250.5C 299.249,261.484 299.583,272.484 299.5,283.5C 298.645,287.79 298.645,292.124 299.5,296.5C 299.5,299.5 299.5,302.5 299.5,305.5C 299.158,306.338 298.492,306.672 297.5,306.5C 297.167,306.5 296.833,306.5 296.5,306.5C 296.665,303.15 296.498,299.817 296,296.5C 294.513,295.747 294.346,294.914 295.5,294C 292.833,293 292.833,292 295.5,291C 294.316,289.855 294.316,288.688 295.5,287.5C 296.217,272.809 295.551,258.142 293.5,243.5C 293.666,237.824 293.499,232.157 293,226.5C 290.622,214.565 288.788,202.565 287.5,190.5 Z"/></g>
<g><path style="opacity:1" fill="#3a4f75" d="M 79.5,179.5 C 76.7399,191.389 74.4066,203.389 72.5,215.5C 65.7473,238.941 62.5807,262.941 63,287.5C 61.2685,281.052 60.4351,281.052 60.5,287.5C 59.5655,286.432 59.2322,285.099 59.5,283.5C 60.3687,260.096 63.3687,237.096 68.5,214.5C 69.2612,213.134 70.0945,211.134 71,208.5C 71.3164,198.066 73.1498,187.899 76.5,178C 78.9765,173.21 79.9765,173.71 79.5,179.5 Z"/></g>
<g><path style="opacity:1" fill="#49576e" d="M 249.5,250.5 C 249.767,253.875 250.767,257.042 252.5,260C 256.286,268.637 260.12,277.47 264,286.5C 266.91,287.45 268.077,289.45 267.5,292.5C 268.833,292.5 270.167,292.5 271.5,292.5C 271.31,294.959 272.31,296.626 274.5,297.5C 276.137,301.3 277.137,305.3 277.5,309.5C 280.407,309.425 283.073,308.591 285.5,307C 289.152,306.501 292.818,306.335 296.5,306.5C 296.833,306.5 297.167,306.5 297.5,306.5C 291.389,308.53 285.056,310.196 278.5,311.5C 275.686,311.019 274.352,309.352 274.5,306.5C 274.33,305.178 274.663,304.011 275.5,303C 274.309,302.302 273.309,301.469 272.5,300.5C 272.631,297.633 271.297,295.967 268.5,295.5C 267.167,294.833 266.167,293.833 265.5,292.5C 265.573,290.973 264.906,289.973 263.5,289.5C 262.674,286.515 261.341,283.849 259.5,281.5C 258.326,280.486 257.66,279.153 257.5,277.5C 257.598,275.447 256.931,273.78 255.5,272.5C 255.598,270.447 254.931,268.78 253.5,267.5C 253.771,265.62 253.104,264.287 251.5,263.5C 250.463,262.07 249.796,260.403 249.5,258.5C 249.771,256.62 249.104,255.287 247.5,254.5C 247.771,252.62 247.104,251.287 245.5,250.5C 245.44,249.957 245.107,249.624 244.5,249.5C 243.571,250.689 243.238,252.022 243.5,253.5C 243.405,255.786 242.738,257.786 241.5,259.5C 239.896,260.287 239.229,261.62 239.5,263.5C 239.477,265.927 238.977,268.26 238,270.5C 236.938,271.097 235.772,271.43 234.5,271.5C 225.381,269.705 216.381,268.038 207.5,266.5C 215.945,266.621 224.278,266.955 232.5,267.5C 233.5,267.167 234.5,266.833 235.5,266.5C 236.172,263.656 237.172,260.99 238.5,258.5C 239.497,258.53 240.164,258.03 240.5,257C 241.045,253.813 241.711,250.646 242.5,247.5C 245.156,247.96 247.49,248.96 249.5,250.5 Z"/></g>
<g><path style="opacity:0.349" fill="#98a4b8" d="M 113.5,250.5 C 113.5,249.833 113.833,249.5 114.5,249.5C 115.404,250.209 115.737,251.209 115.5,252.5C 116.301,254.042 116.634,255.708 116.5,257.5C 115.349,255.221 114.349,252.888 113.5,250.5 Z"/></g>
<g><path style="opacity:0.184" fill="#95a3af" d="M 245.5,250.5 C 244.833,251.5 244.167,252.5 243.5,253.5C 243.238,252.022 243.571,250.689 244.5,249.5C 245.107,249.624 245.44,249.957 245.5,250.5 Z"/></g>
<g><path style="opacity:1" fill="#52607c" d="M 111.5,245.5 C 111.771,247.43 112.771,248.764 114.5,249.5C 113.833,249.5 113.5,249.833 113.5,250.5C 107.777,263.483 101.944,276.483 96,289.5C 94.2814,292.288 92.1148,294.621 89.5,296.5C 88.3395,291.825 90.0061,289.159 94.5,288.5C 94.3398,286.801 94.5065,285.134 95,283.5C 95.3333,283.833 95.6667,284.167 96,284.5C 101.432,274.203 105.265,263.369 107.5,252C 107.167,251.667 106.833,251.333 106.5,251C 108.246,249.153 109.912,247.319 111.5,245.5 Z"/></g>
<g><path style="opacity:0.122" fill="#aab5bf" d="M 245.5,250.5 C 247.104,251.287 247.771,252.62 247.5,254.5C 246.326,253.486 245.66,252.153 245.5,250.5 Z"/></g>
<g><path style="opacity:1" fill="#374e77" d="M 283.5,174.5 C 284.434,175.568 284.768,176.901 284.5,178.5C 284.171,181.228 284.837,183.562 286.5,185.5C 287.301,187.042 287.634,188.708 287.5,190.5C 288.788,202.565 290.622,214.565 293,226.5C 293.499,232.157 293.666,237.824 293.5,243.5C 291.352,235.369 289.519,227.036 288,218.5C 287.028,214.768 286.528,215.101 286.5,219.5C 292.122,241.813 294.789,264.48 294.5,287.5C 293.15,288.483 292.15,289.816 291.5,291.5C 290.571,290.311 290.238,288.978 290.5,287.5C 290.666,279.493 290.5,271.493 290,263.5C 289.667,268.5 289.333,273.5 289,278.5C 288.667,270.833 288.333,263.167 288,255.5C 287.056,254.737 286.556,253.737 286.5,252.5C 287.06,248.605 287.726,244.772 288.5,241C 288,240.5 287.5,240 287,239.5C 286.829,234.467 286.329,229.467 285.5,224.5C 284.914,224.291 284.414,223.957 284,223.5C 283.529,218.156 283.029,212.822 282.5,207.5C 280.856,207.714 279.356,207.38 278,206.5C 277.828,201.798 277.328,197.132 276.5,192.5C 275.328,192.081 274.328,191.415 273.5,190.5C 274.33,184.448 273.33,178.615 270.5,173C 271.043,169.706 272.376,166.873 274.5,164.5C 277.223,178.799 280.39,193.133 284,207.5C 284.331,203.473 283.998,199.473 283,195.5C 280.083,183.909 277.583,172.242 275.5,160.5C 276.117,160.389 276.617,160.056 277,159.5C 277.157,165.503 279.324,170.503 283.5,174.5 Z"/></g>
<g><path style="opacity:1" fill="#2d4368" d="M 134.5,215.5 C 133.1,224.901 134.433,233.901 138.5,242.5C 138.552,246.198 138.886,249.865 139.5,253.5C 141.821,253.771 143.821,253.104 145.5,251.5C 147.106,252.077 148.772,252.41 150.5,252.5C 158.84,251.433 167.174,250.433 175.5,249.5C 186.584,249.513 197.584,250.513 208.5,252.5C 210.228,252.41 211.894,252.077 213.5,251.5C 215.179,253.104 217.179,253.771 219.5,253.5C 220.394,243.766 222.394,234.266 225.5,225C 224.893,221.857 224.559,218.69 224.5,215.5C 226.25,218.133 227.25,221.133 227.5,224.5C 224.628,233.069 222.628,241.902 221.5,251C 222.102,254.922 224.435,256.422 228.5,255.5C 231.583,256.993 234.917,257.993 238.5,258.5C 237.172,260.99 236.172,263.656 235.5,266.5C 234.5,266.833 233.5,267.167 232.5,267.5C 224.278,266.955 215.945,266.621 207.5,266.5C 202.114,264.727 196.447,263.06 190.5,261.5C 178.098,261.283 165.765,261.949 153.5,263.5C 153.167,259.5 152.833,259.5 152.5,263.5C 149.813,263.336 147.146,263.503 144.5,264C 141.734,266.646 138.567,267.146 135,265.5C 131.2,266.199 127.367,266.865 123.5,267.5C 121.456,265.932 121.122,264.098 122.5,262C 121.728,260.779 120.728,259.779 119.5,259C 119.728,258.601 120.062,258.435 120.5,258.5C 123.619,257.683 126.619,256.683 129.5,255.5C 131.92,255.708 134.253,255.374 136.5,254.5C 136.833,253.333 137.167,252.167 137.5,251C 136.013,241.711 134.013,232.544 131.5,223.5C 131.421,220.342 132.421,217.675 134.5,215.5 Z"/></g>
<g><path style="opacity:0.129" fill="#b2b7c2" d="M 247.5,254.5 C 249.104,255.287 249.771,256.62 249.5,258.5C 248.326,257.486 247.66,256.153 247.5,254.5 Z"/></g>
<g><path style="opacity:0.165" fill="#abb5c2" d="M 117.5,259.5 C 119.655,261.617 120.655,264.284 120.5,267.5C 119.129,265.064 118.129,262.397 117.5,259.5 Z"/></g>
<g><path style="opacity:0.157" fill="#acb1bd" d="M 241.5,259.5 C 241.34,261.153 240.674,262.486 239.5,263.5C 239.229,261.62 239.896,260.287 241.5,259.5 Z"/></g>
<g><path style="opacity:0.153" fill="#becad7" d="M 251.5,263.5 C 253.104,264.287 253.771,265.62 253.5,267.5C 252.326,266.486 251.66,265.153 251.5,263.5 Z"/></g>
<g><path style="opacity:0.945" fill="#4a5871" d="M 115.5,252.5 C 116.609,252.557 117.609,252.89 118.5,253.5C 119.309,255.028 119.976,256.694 120.5,258.5C 120.062,258.435 119.728,258.601 119.5,259C 120.728,259.779 121.728,260.779 122.5,262C 121.122,264.098 121.456,265.932 123.5,267.5C 127.367,266.865 131.2,266.199 135,265.5C 138.567,267.146 141.734,266.646 144.5,264C 147.146,263.503 149.813,263.336 152.5,263.5C 152.833,259.5 153.167,259.5 153.5,263.5C 165.765,261.949 178.098,261.283 190.5,261.5C 196.447,263.06 202.114,264.727 207.5,266.5C 198.165,265.928 188.832,265.262 179.5,264.5C 167.476,265.311 155.476,266.311 143.5,267.5C 139.575,267.43 135.909,268.097 132.5,269.5C 129.083,271.067 125.417,271.567 121.5,271C 120.663,269.989 120.33,268.822 120.5,267.5C 120.655,264.284 119.655,261.617 117.5,259.5C 116.662,259.158 116.328,258.492 116.5,257.5C 116.634,255.708 116.301,254.042 115.5,252.5 Z"/></g>
<g><path style="opacity:0.224" fill="#778293" d="M 298.5,250.5 C 299.879,257.481 300.879,264.648 301.5,272C 300.928,275.985 300.261,279.818 299.5,283.5C 299.583,272.484 299.249,261.484 298.5,250.5 Z"/></g>
<g><path style="opacity:0.047" fill="#aab2be" d="M 143.5,267.5 C 140.091,268.903 136.425,269.57 132.5,269.5C 135.909,268.097 139.575,267.43 143.5,267.5 Z"/></g>
<g><path style="opacity:0.141" fill="#c3c8d2" d="M 253.5,267.5 C 254.931,268.78 255.598,270.447 255.5,272.5C 254.069,271.22 253.402,269.553 253.5,267.5 Z"/></g>
<g><path style="opacity:0.141" fill="#b9c5ce" d="M 255.5,272.5 C 256.931,273.78 257.598,275.447 257.5,277.5C 256.069,276.22 255.402,274.553 255.5,272.5 Z"/></g>
<g><path style="opacity:0.106" fill="#c0ccd3" d="M 259.5,281.5 C 261.341,283.849 262.674,286.515 263.5,289.5C 261.127,287.421 259.794,284.754 259.5,281.5 Z"/></g>
<g><path style="opacity:0.071" fill="#c6cbda" d="M 263.5,289.5 C 264.906,289.973 265.573,290.973 265.5,292.5C 264.094,292.027 263.427,291.027 263.5,289.5 Z"/></g>
<g><path style="opacity:0.129" fill="#9399aa" d="M 60.5,287.5 C 61.4345,288.568 61.7678,289.901 61.5,291.5C 60.8333,292.833 60.1667,294.167 59.5,295.5C 59.5751,292.794 59.9084,290.127 60.5,287.5 Z"/></g>
<g><path style="opacity:1" fill="#3d4b64" d="M 61.5,291.5 C 62.8967,291.795 64.3967,292.129 66,292.5C 66.4935,294.134 66.6602,295.801 66.5,297.5C 65.5,297.5 64.5,297.5 63.5,297.5C 62.6669,299.752 62.6669,301.919 63.5,304C 67.7574,305.992 72.2574,307.159 77,307.5C 78.7106,307.561 80.044,306.894 81,305.5C 81.3333,305.833 81.6667,306.167 82,306.5C 82.9385,303.879 83.7719,301.212 84.5,298.5C 85.1835,298.137 85.8501,297.804 86.5,297.5C 86.5,298.167 86.5,298.833 86.5,299.5C 86.5,299.833 86.5,300.167 86.5,300.5C 84.7202,301.99 84.0535,303.99 84.5,306.5C 84.2941,309.042 82.9608,310.709 80.5,311.5C 74.1626,310.065 67.8293,308.565 61.5,307C 59.487,306.32 58.1536,304.987 57.5,303C 58.1083,300.447 58.775,297.947 59.5,295.5C 60.1667,294.167 60.8333,292.833 61.5,291.5 Z"/></g>
<g><path style="opacity:0.18" fill="#b1bac6" d="M 268.5,295.5 C 271.297,295.967 272.631,297.633 272.5,300.5C 271.197,298.858 269.864,297.191 268.5,295.5 Z"/></g>
<g><path style="opacity:0.094" fill="#b4c0d2" d="M 88.5,296.5 C 88.8333,296.5 89.1667,296.5 89.5,296.5C 88.8333,297.833 87.8333,298.833 86.5,299.5C 86.5,298.833 86.5,298.167 86.5,297.5C 87.1667,297.167 87.8333,296.833 88.5,296.5 Z"/></g>
<g><path style="opacity:1" fill="#2c4268" d="M 72.5,215.5 C 72.5,218.167 72.5,220.833 72.5,223.5C 66.4021,244.29 63.9021,265.624 65,287.5C 65.1962,289.286 66.0295,290.619 67.5,291.5C 68.1667,287.5 68.8333,283.5 69.5,279.5C 70.1924,284.048 70.8591,288.548 71.5,293C 73.3379,292.367 75.1712,292.534 77,293.5C 78.221,292.728 79.221,291.728 80,290.5C 81.0113,291.337 82.1779,291.67 83.5,291.5C 83.3379,293.527 83.5045,295.527 84,297.5C 85.5057,295.935 87.0057,295.601 88.5,296.5C 87.8333,296.833 87.1667,297.167 86.5,297.5C 85.8501,297.804 85.1835,298.137 84.5,298.5C 83.7719,301.212 82.9385,303.879 82,306.5C 81.6667,306.167 81.3333,305.833 81,305.5C 80.044,306.894 78.7106,307.561 77,307.5C 72.2574,307.159 67.7574,305.992 63.5,304C 62.6669,301.919 62.6669,299.752 63.5,297.5C 64.5,297.5 65.5,297.5 66.5,297.5C 66.6602,295.801 66.4935,294.134 66,292.5C 64.3967,292.129 62.8967,291.795 61.5,291.5C 61.7678,289.901 61.4345,288.568 60.5,287.5C 60.4351,281.052 61.2685,281.052 63,287.5C 62.5807,262.941 65.7473,238.941 72.5,215.5 Z"/></g>
<g><path style="opacity:0.357" fill="#727d8b" d="M 86.5,300.5 C 86.405,302.786 85.7384,304.786 84.5,306.5C 84.0535,303.99 84.7202,301.99 86.5,300.5 Z"/></g>
<g><path style="opacity:0.894" fill="#717e8a" d="M 272.5,300.5 C 273.309,301.469 274.309,302.302 275.5,303C 274.663,304.011 274.33,305.178 274.5,306.5C 273.262,304.786 272.595,302.786 272.5,300.5 Z"/></g>
<g><path style="opacity:1" fill="#2f456c" d="M 290.5,287.5 C 290.238,288.978 290.571,290.311 291.5,291.5C 292.15,289.816 293.15,288.483 294.5,287.5C 294.833,287.5 295.167,287.5 295.5,287.5C 294.316,288.688 294.316,289.855 295.5,291C 292.833,292 292.833,293 295.5,294C 294.346,294.914 294.513,295.747 296,296.5C 296.498,299.817 296.665,303.15 296.5,306.5C 292.818,306.335 289.152,306.501 285.5,307C 283.073,308.591 280.407,309.425 277.5,309.5C 277.137,305.3 276.137,301.3 274.5,297.5C 274.205,295.565 274.705,293.565 276,291.5C 277.881,294.351 278.715,294.018 278.5,290.5C 277.499,286.85 276.999,283.184 277,279.5C 278.399,282.363 279.399,285.363 280,288.5C 281.205,289.071 282.372,289.738 283.5,290.5C 282.674,291.451 282.508,292.451 283,293.5C 284.676,292.939 286.009,291.939 287,290.5C 287.333,290.833 287.667,291.167 288,291.5C 288.122,289.563 288.955,288.23 290.5,287.5 Z"/></g>
<g><path style="opacity:0.337" fill="#727b85" d="M 299.5,296.5 C 300.343,298.487 301.01,300.654 301.5,303C 301.361,304.301 300.695,305.134 299.5,305.5C 299.5,302.5 299.5,299.5 299.5,296.5 Z"/></g>
</svg>
