<?xml version="1.0" encoding="UTF-8"?>
<!DOCTYPE svg PUBLIC "-//W3C//DTD SVG 1.1//EN" "http://www.w3.org/Graphics/SVG/1.1/DTD/svg11.dtd">
<svg xmlns="http://www.w3.org/2000/svg" version="1.1" width="360px" height="360px" style="shape-rendering:geometricPrecision; text-rendering:geometricPrecision; image-rendering:optimizeQuality; fill-rule:evenodd; clip-rule:evenodd" xmlns:xlink="http://www.w3.org/1999/xlink">
<g><path style="opacity:0.937" fill="#2b454b" d="M 192.5,12.5 C 194.607,11.5318 196.941,11.1984 199.5,11.5C 200.209,12.404 201.209,12.7373 202.5,12.5C 202.5,15.8333 202.5,19.1667 202.5,22.5C 201.5,22.5 200.5,22.5 199.5,22.5C 199.665,19.4816 199.498,16.4816 199,13.5C 198.502,16.8168 198.335,20.1501 198.5,23.5C 195.167,23.5 191.833,23.5 188.5,23.5C 188.335,20.4816 188.502,17.4816 189,14.5C 191.405,13.7256 193.905,13.2256 196.5,13C 195.207,12.51 193.873,12.3433 192.5,12.5 Z"/></g>
<g><path style="opacity:1" fill="#13262a" d="M 199.5,11.5 C 200.167,11.5 200.833,11.5 201.5,11.5C 202.552,11.3505 203.552,11.5172 204.5,12C 202.97,16.0517 203.303,19.885 205.5,23.5C 195.558,24.9131 185.558,25.5797 175.5,25.5C 176.919,24.5489 178.585,24.2155 180.5,24.5C 180.5,20.8333 180.5,17.1667 180.5,13.5C 183.059,13.8016 185.393,13.4682 187.5,12.5C 189.167,12.5 190.833,12.5 192.5,12.5C 193.873,12.3433 195.207,12.51 196.5,13C 193.905,13.2256 191.405,13.7256 189,14.5C 188.502,17.4816 188.335,20.4816 188.5,23.5C 191.833,23.5 195.167,23.5 198.5,23.5C 198.335,20.1501 198.502,16.8168 199,13.5C 199.498,16.4816 199.665,19.4816 199.5,22.5C 200.5,22.5 201.5,22.5 202.5,22.5C 202.5,19.1667 202.5,15.8333 202.5,12.5C 201.209,12.7373 200.209,12.404 199.5,11.5 Z"/></g>
<g><path style="opacity:1" fill="#1d2724" d="M 141.5,7.5 C 143.522,8.50702 144.855,10.1737 145.5,12.5C 146.192,11.9747 146.692,11.3081 147,10.5C 147.498,13.4816 147.665,16.4816 147.5,19.5C 150.216,19.3862 152.216,20.3862 153.5,22.5C 152.167,22.1667 150.833,21.8333 149.5,21.5C 148.425,20.4376 147.425,20.4376 146.5,21.5C 148.333,25.1667 150.167,28.8333 152,32.5C 159,40.8333 166.667,48.5 175,55.5C 177.617,58.7685 179.283,62.4352 180,66.5C 181.796,65.233 183.629,65.233 185.5,66.5C 186.228,63.7875 187.061,61.1209 188,58.5C 194.07,51.9262 200.57,45.9262 207.5,40.5C 207.5,41.1667 207.5,41.8333 207.5,42.5C 206.128,43.5116 204.795,44.5116 203.5,45.5C 202.662,45.8417 202.328,46.5084 202.5,47.5C 198.995,48.8643 197.162,51.531 197,55.5C 196.333,54.8333 195.667,54.1667 195,53.5C 190.076,57.3517 187.242,62.3517 186.5,68.5C 186.5,69.5 186.5,70.5 186.5,71.5C 185.833,71.5 185.5,71.1667 185.5,70.5C 182.829,64.9953 181.162,65.3287 180.5,71.5C 181.833,71.5 183.167,71.5 184.5,71.5C 184.784,73.4147 184.451,75.0813 183.5,76.5C 183.719,75.325 183.386,74.325 182.5,73.5C 181.167,77.5 181.167,81.5 182.5,85.5C 183.298,85.0431 183.631,84.3764 183.5,83.5C 184.309,81.7078 184.809,79.7078 185,77.5C 185.634,80.5547 185.468,83.5547 184.5,86.5C 183.833,86.5 183.5,86.8333 183.5,87.5C 181.983,87.4894 180.816,86.8228 180,85.5C 179.601,85.7284 179.435,86.0618 179.5,86.5C 179.167,86.5 178.833,86.5 178.5,86.5C 178.5,84.1667 178.5,81.8333 178.5,79.5C 178.5,76.1667 178.5,72.8333 178.5,69.5C 176.446,68.2879 176.446,66.6212 178.5,64.5C 174.878,57.5492 169.878,51.8825 163.5,47.5C 162.849,46.9094 162.182,46.2427 161.5,45.5C 159.541,47.5541 158.041,49.8874 157,52.5C 157.052,49.5283 157.886,46.6949 159.5,44C 158.296,42.3007 156.962,40.8007 155.5,39.5C 153.866,38.0451 152.532,36.3784 151.5,34.5C 150.525,32.2048 149.192,30.2048 147.5,28.5C 147.408,26.1523 146.408,24.4856 144.5,23.5C 146.164,21.3209 145.83,19.4875 143.5,18C 145.63,15.2967 145.13,12.7967 142,10.5C 139.385,14.7829 136.385,18.7829 133,22.5C 132.601,22.2716 132.435,21.9382 132.5,21.5C 135.474,16.8509 138.474,12.1843 141.5,7.5 Z"/></g>
<g><path style="opacity:1" fill="#32565a" d="M 184.5,14.5 C 185.5,14.5 186.5,14.5 187.5,14.5C 187.5,17.8333 187.5,21.1667 187.5,24.5C 186.5,24.5 185.5,24.5 184.5,24.5C 184.5,21.1667 184.5,17.8333 184.5,14.5 Z"/></g>
<g><path style="opacity:1" fill="#273c41" d="M 141.5,7.5 C 141.917,6.87605 142.584,6.54272 143.5,6.5C 157.88,10.6163 172.547,12.6163 187.5,12.5C 185.393,13.4682 183.059,13.8016 180.5,13.5C 180.5,17.1667 180.5,20.8333 180.5,24.5C 178.585,24.2155 176.919,24.5489 175.5,25.5C 168.091,24.9906 160.758,23.9906 153.5,22.5C 152.216,20.3862 150.216,19.3862 147.5,19.5C 147.665,16.4816 147.498,13.4816 147,10.5C 146.692,11.3081 146.192,11.9747 145.5,12.5C 144.855,10.1737 143.522,8.50702 141.5,7.5 Z"/></g>
<g><path style="opacity:1" fill="#fbfae9" d="M 218.5,20.5 C 218.672,21.4916 218.338,22.1583 217.5,22.5C 216.504,22.4142 215.671,22.7476 215,23.5C 209.754,32.0816 203.087,39.415 195,45.5C 191.833,49.3333 188.667,53.1667 185.5,57C 183.167,57.6667 180.833,57.6667 178.5,57C 173.366,50.8647 167.866,45.0313 162,39.5C 157.072,33.9602 152.906,27.9602 149.5,21.5C 150.833,21.8333 152.167,22.1667 153.5,22.5C 160.758,23.9906 168.091,24.9906 175.5,25.5C 185.558,25.5797 195.558,24.9131 205.5,23.5C 209.863,22.6274 214.196,21.6274 218.5,20.5 Z"/></g>
<g><path style="opacity:1" fill="#294147" d="M 227.5,13.5 C 225.895,12.0313 225.395,12.3646 226,14.5C 228.978,17.4264 230.978,20.7597 232,24.5C 229.294,22.1294 226.961,19.4628 225,16.5C 224.833,16.8333 224.667,17.1667 224.5,17.5C 226.473,20.6397 228.64,23.6397 231,26.5C 231.624,28.4645 231.124,30.1311 229.5,31.5C 224.64,27.4702 221.14,22.4702 219,16.5C 218.51,17.7932 218.343,19.1266 218.5,20.5C 214.196,21.6274 209.863,22.6274 205.5,23.5C 203.303,19.885 202.97,16.0517 204.5,12C 203.552,11.5172 202.552,11.3505 201.5,11.5C 207.897,9.94156 214.397,8.2749 221,6.5C 224.079,7.99336 226.245,10.3267 227.5,13.5 Z"/></g>
<g><path style="opacity:1" fill="#385860" d="M 144.5,23.5 C 146.408,24.4856 147.408,26.1523 147.5,28.5C 146.548,32.3958 144.548,35.7291 141.5,38.5C 140.604,39.5063 139.938,39.5063 139.5,38.5C 141.473,35.3603 143.64,32.3603 146,29.5C 146.667,28.8333 146.667,28.1667 146,27.5C 142.639,29.8949 139.972,32.8949 138,36.5C 136.77,35.7248 136.437,34.7248 137,33.5C 139.752,30.3158 142.252,26.9825 144.5,23.5 Z"/></g>
<g><path style="opacity:1" fill="#3d7582" d="M 122.5,28.5 C 129.875,44.0435 141.208,55.8768 156.5,64C 163.824,66.2193 171.158,68.0526 178.5,69.5C 178.5,72.8333 178.5,76.1667 178.5,79.5C 177.501,150.998 177.167,222.665 177.5,294.5C 159.167,294.5 140.833,294.5 122.5,294.5C 130.561,283.048 137.061,270.714 142,257.5C 145.786,243.261 146.286,228.928 143.5,214.5C 142.866,233.221 139.033,251.221 132,268.5C 126.833,276.833 121.667,285.167 116.5,293.5C 113.914,294.48 111.247,294.813 108.5,294.5C 103.129,279.626 99.462,264.293 97.5,248.5C 98.5007,233.159 99.6673,217.826 101,202.5C 102.701,185.641 99.2013,169.975 90.5,155.5C 89.6674,143.514 89.1674,131.514 89,119.5C 88.646,114.611 87.8127,109.944 86.5,105.5C 84.3171,94.7506 81.8171,84.084 79,73.5C 77.3684,67.1373 75.2017,60.9707 72.5,55C 72.7432,54.0979 73.0766,53.2646 73.5,52.5C 73.9731,51.0937 74.9731,50.427 76.5,50.5C 91.5593,42.6374 106.893,35.304 122.5,28.5 Z"/></g>
<g><path style="opacity:0.102" fill="#1d2b30" d="M 237.5,24.5 C 256.394,31.44 274.061,40.44 290.5,51.5C 273.623,42.4184 256.29,34.0851 238.5,26.5C 238.082,25.7784 237.416,25.2784 236.5,25C 236.728,24.6012 237.062,24.4346 237.5,24.5 Z"/></g>
<g><path style="opacity:0.82" fill="#1d292d" d="M 127.5,24.5 C 129.379,24.3932 129.712,24.8932 128.5,26C 126.148,26.2401 124.148,27.0735 122.5,28.5C 106.893,35.304 91.5593,42.6374 76.5,50.5C 84.6071,44.6043 93.2738,39.4376 102.5,35C 110.625,30.9358 118.958,27.4358 127.5,24.5 Z"/></g>
<g><path style="opacity:1" fill="#c7c8ac" d="M 149.5,21.5 C 152.906,27.9602 157.072,33.9602 162,39.5C 167.866,45.0313 173.366,50.8647 178.5,57C 180.833,57.6667 183.167,57.6667 185.5,57C 188.667,53.1667 191.833,49.3333 195,45.5C 203.087,39.415 209.754,32.0816 215,23.5C 215.671,22.7476 216.504,22.4142 217.5,22.5C 216.908,25.6907 215.741,28.6907 214,31.5C 211.59,34.3968 209.423,37.3968 207.5,40.5C 200.57,45.9262 194.07,51.9262 188,58.5C 187.061,61.1209 186.228,63.7875 185.5,66.5C 183.629,65.233 181.796,65.233 180,66.5C 179.283,62.4352 177.617,58.7685 175,55.5C 166.667,48.5 159,40.8333 152,32.5C 150.167,28.8333 148.333,25.1667 146.5,21.5C 147.425,20.4376 148.425,20.4376 149.5,21.5 Z"/></g>
<g><path style="opacity:1" fill="#3d7582" d="M 238.5,26.5 C 256.29,34.0851 273.623,42.4184 290.5,51.5C 292.027,51.427 293.027,52.0937 293.5,53.5C 281.454,82.3499 276.788,112.35 279.5,143.5C 276.422,152.334 272.755,161 268.5,169.5C 263.951,181.785 262.451,194.451 264,207.5C 265.911,222.449 267.077,237.449 267.5,252.5C 265.056,266.719 261.723,280.719 257.5,294.5C 245.268,295.234 233.268,294.068 221.5,291C 211.523,285.88 206.523,277.713 206.5,266.5C 205.5,266.5 204.5,266.5 203.5,266.5C 203.538,278.503 208.538,287.67 218.5,294C 208.172,294.5 197.839,294.666 187.5,294.5C 187.5,254.833 187.5,215.167 187.5,175.5C 187.5,140.167 187.5,104.833 187.5,69.5C 197.497,70.7189 206.83,68.8856 215.5,64C 227.575,54.1155 235.241,41.6155 238.5,26.5 Z"/></g>
<g><path style="opacity:1" fill="#2f545c" d="M 151.5,34.5 C 152.532,36.3784 153.866,38.0451 155.5,39.5C 152.853,42.7637 150.186,46.097 147.5,49.5C 147.167,49.1667 146.833,48.8333 146.5,48.5C 147.963,46.2707 148.797,43.9373 149,41.5C 147.907,43.3492 146.574,45.0158 145,46.5C 144.667,46.1667 144.333,45.8333 144,45.5C 144.044,43.7215 144.711,42.0548 146,40.5C 148.068,38.6038 149.901,36.6038 151.5,34.5 Z"/></g>
<g><path style="opacity:1" fill="#172e32" d="M 227.5,13.5 C 230.167,16.8333 232.833,20.1667 235.5,23.5C 229.976,39.5334 220.31,52.5334 206.5,62.5C 206.082,61.7784 205.416,61.2784 204.5,61C 205.428,60.6121 206.095,59.9454 206.5,59C 204.86,55.2441 203.526,51.4108 202.5,47.5C 202.328,46.5084 202.662,45.8417 203.5,45.5C 204.323,50.1484 205.99,54.4817 208.5,58.5C 208.833,58 209.167,57.5 209.5,57C 208.162,53.8674 207.329,50.7008 207,47.5C 208.7,50.52 210.366,53.52 212,56.5C 212.5,56 213,55.5 213.5,55C 211.237,50.9205 209.237,46.7538 207.5,42.5C 207.5,41.8333 207.5,41.1667 207.5,40.5C 209.423,37.3968 211.59,34.3968 214,31.5C 215.741,28.6907 216.908,25.6907 217.5,22.5C 218.338,22.1583 218.672,21.4916 218.5,20.5C 218.343,19.1266 218.51,17.7932 219,16.5C 221.14,22.4702 224.64,27.4702 229.5,31.5C 231.124,30.1311 231.624,28.4645 231,26.5C 228.64,23.6397 226.473,20.6397 224.5,17.5C 224.667,17.1667 224.833,16.8333 225,16.5C 226.961,19.4628 229.294,22.1294 232,24.5C 230.978,20.7597 228.978,17.4264 226,14.5C 225.395,12.3646 225.895,12.0313 227.5,13.5 Z"/></g>
<g><path style="opacity:1" fill="#395c61" d="M 212.5,43.5 C 212.08,41.9064 211.414,40.4064 210.5,39C 210.85,37.7425 211.517,37.4092 212.5,38C 214.444,41.6099 216.777,44.9432 219.5,48C 218.975,48.6924 218.308,49.1924 217.5,49.5C 216.291,47.0592 214.624,45.0592 212.5,43.5 Z"/></g>
<g><path style="opacity:1" fill="#355159" d="M 217.5,28.5 C 218.496,28.4142 219.329,28.7476 220,29.5C 221.586,32.9191 223.752,35.9191 226.5,38.5C 225.965,40.2705 225.131,40.6039 224,39.5C 224.077,40.7376 223.911,41.7376 223.5,42.5C 220.364,39.571 217.697,36.2377 215.5,32.5C 216.853,31.4763 217.52,30.143 217.5,28.5 Z"/></g>
<g><path style="opacity:1" fill="#37565e" d="M 219.5,23.5 C 222.101,26.6043 224.934,29.6043 228,32.5C 228.699,34.0738 228.365,35.4071 227,36.5C 224.333,33.1667 221.667,29.8333 219,26.5C 218.53,25.4232 218.697,24.4232 219.5,23.5 Z"/></g>
<g><path style="opacity:1" fill="#37555c" d="M 213.5,34.5 C 216.301,37.3515 219.134,40.3515 222,43.5C 221.75,46.9427 220.416,47.276 218,44.5C 215.78,41.46 214.28,38.1267 213.5,34.5 Z"/></g>
<g><path style="opacity:1" fill="#274d56" d="M 144.5,23.5 C 141.245,25.9263 138.412,28.9263 136,32.5C 135.751,31.376 135.251,30.376 134.5,29.5C 134.167,29.8333 133.833,30.1667 133.5,30.5C 138.918,44.6961 148.085,55.6961 161,63.5C 160.848,61.9239 160.015,60.5905 158.5,59.5C 160.563,55.6381 162.23,51.6381 163.5,47.5C 169.878,51.8825 174.878,57.5492 178.5,64.5C 176.446,66.6212 176.446,68.2879 178.5,69.5C 171.158,68.0526 163.824,66.2193 156.5,64C 141.208,55.8768 129.875,44.0435 122.5,28.5C 124.148,27.0735 126.148,26.2401 128.5,26C 129.712,24.8932 129.379,24.3932 127.5,24.5C 129.22,23.6923 130.887,22.6923 132.5,21.5C 132.435,21.9382 132.601,22.2716 133,22.5C 136.385,18.7829 139.385,14.7829 142,10.5C 145.13,12.7967 145.63,15.2967 143.5,18C 145.83,19.4875 146.164,21.3209 144.5,23.5 Z"/></g>
<g><path style="opacity:1" fill="#38585e" d="M 212.5,43.5 C 213.37,46.378 214.703,49.0447 216.5,51.5C 216.192,52.3081 215.692,52.9747 215,53.5C 212.634,49.9636 210.467,46.297 208.5,42.5C 208.833,42.1667 209.167,41.8333 209.5,41.5C 210.518,42.1925 211.518,42.8592 212.5,43.5 Z"/></g>
<g><path style="opacity:1" fill="#29535c" d="M 235.5,23.5 C 236.492,23.3284 237.158,23.6618 237.5,24.5C 237.062,24.4346 236.728,24.6012 236.5,25C 237.416,25.2784 238.082,25.7784 238.5,26.5C 235.241,41.6155 227.575,54.1155 215.5,64C 206.83,68.8856 197.497,70.7189 187.5,69.5C 187.5,104.833 187.5,140.167 187.5,175.5C 187.167,175.5 186.833,175.5 186.5,175.5C 186.5,140.833 186.5,106.167 186.5,71.5C 186.5,70.5 186.5,69.5 186.5,68.5C 193.85,68.8277 200.516,66.8277 206.5,62.5C 220.31,52.5334 229.976,39.5334 235.5,23.5 Z"/></g>
<g><path style="opacity:1" fill="#213b43" d="M 144.5,23.5 C 142.252,26.9825 139.752,30.3158 137,33.5C 136.437,34.7248 136.77,35.7248 138,36.5C 139.972,32.8949 142.639,29.8949 146,27.5C 146.667,28.1667 146.667,28.8333 146,29.5C 143.64,32.3603 141.473,35.3603 139.5,38.5C 139.938,39.5063 140.604,39.5063 141.5,38.5C 144.548,35.7291 146.548,32.3958 147.5,28.5C 149.192,30.2048 150.525,32.2048 151.5,34.5C 149.901,36.6038 148.068,38.6038 146,40.5C 144.711,42.0548 144.044,43.7215 144,45.5C 144.333,45.8333 144.667,46.1667 145,46.5C 146.574,45.0158 147.907,43.3492 149,41.5C 148.797,43.9373 147.963,46.2707 146.5,48.5C 146.833,48.8333 147.167,49.1667 147.5,49.5C 150.186,46.097 152.853,42.7637 155.5,39.5C 156.962,40.8007 158.296,42.3007 159.5,44C 157.886,46.6949 157.052,49.5283 157,52.5C 158.041,49.8874 159.541,47.5541 161.5,45.5C 162.182,46.2427 162.849,46.9094 163.5,47.5C 162.23,51.6381 160.563,55.6381 158.5,59.5C 160.015,60.5905 160.848,61.9239 161,63.5C 148.085,55.6961 138.918,44.6961 133.5,30.5C 133.833,30.1667 134.167,29.8333 134.5,29.5C 135.251,30.376 135.751,31.376 136,32.5C 138.412,28.9263 141.245,25.9263 144.5,23.5 Z"/></g>
<g><path style="opacity:1" fill="#38565d" d="M 207.5,42.5 C 209.237,46.7538 211.237,50.9205 213.5,55C 213,55.5 212.5,56 212,56.5C 210.366,53.52 208.7,50.52 207,47.5C 207.329,50.7008 208.162,53.8674 209.5,57C 209.167,57.5 208.833,58 208.5,58.5C 205.99,54.4817 204.323,50.1484 203.5,45.5C 204.795,44.5116 206.128,43.5116 207.5,42.5 Z"/></g>
<g><path style="opacity:1" fill="#fcfbe9" d="M 83.5,133.5 C 80.1076,127.72 76.9409,121.72 74,115.5C 72.0729,112.65 69.9062,109.983 67.5,107.5C 66.6043,106.494 65.9377,106.494 65.5,107.5C 69.3641,121.885 74.8641,135.552 82,148.5C 82.1862,151.036 82.6862,153.369 83.5,155.5C 86.0262,203.392 93.6928,250.392 106.5,296.5C 106.232,298.099 106.566,299.432 107.5,300.5C 107.46,303.881 107.793,307.214 108.5,310.5C 98.8333,310.5 89.1667,310.5 79.5,310.5C 78.6236,310.631 77.9569,310.298 77.5,309.5C 76.199,306.573 75.199,303.573 74.5,300.5C 74.8071,284.738 76.1404,269.072 78.5,253.5C 78.435,242.439 76.435,231.773 72.5,221.5C 72.1667,222.5 71.8333,223.5 71.5,224.5C 74.146,237.376 74.9794,250.376 74,263.5C 72.3435,272.619 70.8435,281.619 69.5,290.5C 69.5,290.167 69.5,289.833 69.5,289.5C 69.5,283.5 69.5,277.5 69.5,271.5C 68.1667,271.5 66.8333,271.5 65.5,271.5C 65.494,266.785 64.994,262.118 64,257.5C 63.6667,258.167 63.3333,258.833 63,259.5C 62.6824,257.939 61.8491,256.772 60.5,256C 61.1136,254.87 61.1136,253.537 60.5,252C 60.8443,250.635 61.5109,249.468 62.5,248.5C 60.2755,244.361 59.6088,240.028 60.5,235.5C 60.1822,234.353 59.5156,233.519 58.5,233C 58.2016,226.07 58.2016,219.07 58.5,212C 57.1578,205.191 55.9911,198.357 55,191.5C 54.8614,166.355 54.6947,141.355 54.5,116.5C 54.3842,113.729 55.5509,111.729 58,110.5C 57.4184,104.162 57.5851,97.829 58.5,91.5C 59.9471,88.095 61.2805,84.595 62.5,81C 62.3552,80.228 62.0219,79.5613 61.5,79C 62.2489,77.2663 62.7489,75.433 63,73.5C 64.965,71.7276 66.7983,70.5609 68.5,70C 67.8333,68.3333 67.1667,66.6667 66.5,65C 66.8333,64.5 67.1667,64 67.5,63.5C 68.7164,64.0016 69.8831,64.3349 71,64.5C 71.5611,66.7254 72.5611,68.7254 74,70.5C 74.1466,73.5706 74.9799,76.4039 76.5,79C 75.7471,80.487 74.9138,80.6537 74,79.5C 71.8973,81.7369 72.0639,83.7369 74.5,85.5C 75.1924,84.9747 75.6924,84.3081 76,83.5C 76.49,84.7932 76.6567,86.1266 76.5,87.5C 77.5,87.5 78.5,87.5 79.5,87.5C 80.8302,96.7777 81.6635,106.111 82,115.5C 82.6377,116.609 83.1377,117.775 83.5,119C 83.2682,123.725 83.2682,128.559 83.5,133.5 Z"/></g>
<g><path style="opacity:1" fill="#254349" d="M 202.5,47.5 C 203.526,51.4108 204.86,55.2441 206.5,59C 206.095,59.9454 205.428,60.6121 204.5,61C 205.416,61.2784 206.082,61.7784 206.5,62.5C 200.516,66.8277 193.85,68.8277 186.5,68.5C 187.242,62.3517 190.076,57.3517 195,53.5C 195.667,54.1667 196.333,54.8333 197,55.5C 197.162,51.531 198.995,48.8643 202.5,47.5 Z"/></g>
<g><path style="opacity:1" fill="#111b1d" d="M 73.5,52.5 C 73.0766,53.2646 72.7432,54.0979 72.5,55C 75.2017,60.9707 77.3684,67.1373 79,73.5C 81.8171,84.084 84.3171,94.7506 86.5,105.5C 86.8775,118.546 86.3775,131.546 85,144.5C 84.51,143.207 84.3433,141.873 84.5,140.5C 84.5,138.833 84.5,137.167 84.5,135.5C 86.1457,108.359 81.8123,82.0253 71.5,56.5C 71.1583,55.6618 70.4916,55.3284 69.5,55.5C 70.2623,53.7376 71.5956,52.7376 73.5,52.5 Z"/></g>
<g><path style="opacity:1" fill="#e3e2d4" d="M 185.5,70.5 C 184.833,70.5 184.5,70.8333 184.5,71.5C 183.167,71.5 181.833,71.5 180.5,71.5C 181.162,65.3287 182.829,64.9953 185.5,70.5 Z"/></g>
<g><path style="opacity:1" fill="#fbfaea" d="M 296.5,56.5 C 302.853,64.0285 307.02,72.6951 309,82.5C 311.688,98.8869 313.522,115.22 314.5,131.5C 314.831,160.883 313.831,190.216 311.5,219.5C 310.532,221.607 310.198,223.941 310.5,226.5C 309.744,249.188 304.744,270.854 295.5,291.5C 293.481,277.518 291.815,263.351 290.5,249C 290.697,239.985 292.03,231.152 294.5,222.5C 294.167,222.167 293.833,221.833 293.5,221.5C 290.227,227.006 288.394,233.006 288,239.5C 287.833,244 287.667,248.5 287.5,253C 288.383,267.901 289.717,282.734 291.5,297.5C 290.691,299.071 290.357,300.738 290.5,302.5C 290.167,303.833 289.833,305.167 289.5,306.5C 288.732,307.263 288.232,308.263 288,309.5C 287.329,310.252 286.496,310.586 285.5,310.5C 276.167,310.5 266.833,310.5 257.5,310.5C 257.5,309.5 257.5,308.5 257.5,307.5C 257.485,303.44 257.985,299.44 259,295.5C 266.836,269.987 272.503,243.987 276,217.5C 278.738,195.217 280.904,172.884 282.5,150.5C 289.364,136.919 295.031,122.753 299.5,108C 299.333,107.5 299.167,107 299,106.5C 296.991,108.543 294.991,110.543 293,112.5C 288.76,120.327 284.593,127.994 280.5,135.5C 279.393,108.204 283.893,81.8706 294,56.5C 294.77,55.4019 295.603,55.4019 296.5,56.5 Z"/></g>
<g><path style="opacity:0.631" fill="#42423f" d="M 69.5,55.5 C 70.4916,55.3284 71.1583,55.6618 71.5,56.5C 67.1826,58.6528 64.0159,61.9861 62,66.5C 58.5847,73.8256 56.2514,81.4923 55,89.5C 51.8538,116.403 50.6871,143.403 51.5,170.5C 50.8333,157.833 50.1667,145.167 49.5,132.5C 49.5589,113.909 51.7256,95.5757 56,77.5C 57.3776,71.6837 59.7109,66.3504 63,61.5C 64.8725,59.153 67.0392,57.153 69.5,55.5 Z"/></g>
<g><path style="opacity:1" fill="#ecf1e6" d="M 183.5,76.5 C 183.5,78.8333 183.5,81.1667 183.5,83.5C 183.631,84.3764 183.298,85.0431 182.5,85.5C 181.167,81.5 181.167,77.5 182.5,73.5C 183.386,74.325 183.719,75.325 183.5,76.5 Z"/></g>
<g><path style="opacity:0.602" fill="#2f2f2c" d="M 296.5,55.5 C 302.681,61.1775 306.847,68.1775 309,76.5C 312.808,91.938 314.975,107.605 315.5,123.5C 314.527,125.948 314.194,128.615 314.5,131.5C 313.522,115.22 311.688,98.8869 309,82.5C 307.02,72.6951 302.853,64.0285 296.5,56.5C 296.5,56.1667 296.5,55.8333 296.5,55.5 Z"/></g>
<g><path style="opacity:1" fill="#c7c6a4" d="M 282.5,150.5 C 282.205,145.436 281.538,140.436 280.5,135.5C 284.593,127.994 288.76,120.327 293,112.5C 294.991,110.543 296.991,108.543 299,106.5C 299.167,107 299.333,107.5 299.5,108C 295.031,122.753 289.364,136.919 282.5,150.5 Z"/></g>
<g><path style="opacity:1" fill="#1b2e37" d="M 185.5,70.5 C 185.5,71.1667 185.833,71.5 186.5,71.5C 186.5,106.167 186.5,140.833 186.5,175.5C 186.821,181.026 186.488,186.36 185.5,191.5C 185.832,156.329 185.498,121.329 184.5,86.5C 185.468,83.5547 185.634,80.5547 185,77.5C 184.809,79.7078 184.309,81.7078 183.5,83.5C 183.5,81.1667 183.5,78.8333 183.5,76.5C 184.451,75.0813 184.784,73.4147 184.5,71.5C 184.5,70.8333 184.833,70.5 185.5,70.5 Z"/></g>
<g><path style="opacity:1" fill="#c6c5a2" d="M 83.5,133.5 C 83.3284,134.492 83.6618,135.158 84.5,135.5C 84.5,137.167 84.5,138.833 84.5,140.5C 83.5489,141.919 83.2155,143.585 83.5,145.5C 83.5,148.833 83.5,152.167 83.5,155.5C 82.6862,153.369 82.1862,151.036 82,148.5C 74.8641,135.552 69.3641,121.885 65.5,107.5C 65.9377,106.494 66.6043,106.494 67.5,107.5C 69.9062,109.983 72.0729,112.65 74,115.5C 76.9409,121.72 80.1076,127.72 83.5,133.5 Z"/></g>
<g><path style="opacity:1" fill="#215561" d="M 252.5,79.5 C 253.497,79.4701 254.164,79.9701 254.5,81C 248.945,93.1663 245.778,106 245,119.5C 244.382,135.603 245.049,151.603 247,167.5C 242.812,160.087 240.478,152.087 240,143.5C 237.416,120.639 241.582,99.3061 252.5,79.5 Z"/></g>
<g><path style="opacity:1" fill="#295a60" d="M 183.5,87.5 C 183.667,137.834 183.5,188.168 183,238.5C 182.586,238.957 182.086,239.291 181.5,239.5C 181.167,247.5 180.833,255.5 180.5,263.5C 182.764,281.863 184.097,300.53 184.5,319.5C 183.5,319.5 182.5,319.5 181.5,319.5C 182.113,313.729 181.446,308.396 179.5,303.5C 179.5,231.167 179.5,158.833 179.5,86.5C 179.435,86.0618 179.601,85.7284 180,85.5C 180.816,86.8228 181.983,87.4894 183.5,87.5 Z"/></g>
<g><path style="opacity:0.814" fill="#333332" d="M 49.5,132.5 C 50.1667,145.167 50.8333,157.833 51.5,170.5C 51.5,175.833 51.5,181.167 51.5,186.5C 51.815,190.371 51.4816,194.038 50.5,197.5C 48.6968,175.877 48.3635,154.21 49.5,132.5 Z"/></g>
<g><path style="opacity:1" fill="#255660" d="M 86.5,105.5 C 87.8127,109.944 88.646,114.611 89,119.5C 89.1674,131.514 89.6674,143.514 90.5,155.5C 99.2013,169.975 102.701,185.641 101,202.5C 99.6673,217.826 98.5007,233.159 97.5,248.5C 93.9833,232.426 91.1499,216.093 89,199.5C 87.5514,181.309 85.7181,163.309 83.5,145.5C 83.2155,143.585 83.5489,141.919 84.5,140.5C 84.3433,141.873 84.51,143.207 85,144.5C 86.3775,131.546 86.8775,118.546 86.5,105.5 Z"/></g>
<g><path style="opacity:1" fill="#f5f4eb" d="M 71.5,56.5 C 81.8123,82.0253 86.1457,108.359 84.5,135.5C 83.6618,135.158 83.3284,134.492 83.5,133.5C 83.2682,128.559 83.2682,123.725 83.5,119C 83.1377,117.775 82.6377,116.609 82,115.5C 81.6635,106.111 80.8302,96.7777 79.5,87.5C 78.5,87.5 77.5,87.5 76.5,87.5C 76.6567,86.1266 76.49,84.7932 76,83.5C 75.6924,84.3081 75.1924,84.9747 74.5,85.5C 72.0639,83.7369 71.8973,81.7369 74,79.5C 74.9138,80.6537 75.7471,80.487 76.5,79C 74.9799,76.4039 74.1466,73.5706 74,70.5C 72.5611,68.7254 71.5611,66.7254 71,64.5C 69.8831,64.3349 68.7164,64.0016 67.5,63.5C 67.1667,64 66.8333,64.5 66.5,65C 67.1667,66.6667 67.8333,68.3333 68.5,70C 66.7983,70.5609 64.965,71.7276 63,73.5C 62.7489,75.433 62.2489,77.2663 61.5,79C 62.0219,79.5613 62.3552,80.228 62.5,81C 61.2805,84.595 59.9471,88.095 58.5,91.5C 57.5851,97.829 57.4184,104.162 58,110.5C 55.5509,111.729 54.3842,113.729 54.5,116.5C 54.6947,141.355 54.8614,166.355 55,191.5C 55.9911,198.357 57.1578,205.191 58.5,212C 58.2016,219.07 58.2016,226.07 58.5,233C 59.5156,233.519 60.1822,234.353 60.5,235.5C 59.6088,240.028 60.2755,244.361 62.5,248.5C 61.5109,249.468 60.8443,250.635 60.5,252C 61.1136,253.537 61.1136,254.87 60.5,256C 61.8491,256.772 62.6824,257.939 63,259.5C 63.3333,258.833 63.6667,258.167 64,257.5C 64.994,262.118 65.494,266.785 65.5,271.5C 66.8333,271.5 68.1667,271.5 69.5,271.5C 69.5,277.5 69.5,283.5 69.5,289.5C 64.736,279.71 61.236,269.376 59,258.5C 55.3636,234.463 52.8636,210.463 51.5,186.5C 51.5,181.167 51.5,175.833 51.5,170.5C 50.6871,143.403 51.8538,116.403 55,89.5C 56.2514,81.4923 58.5847,73.8256 62,66.5C 64.0159,61.9861 67.1826,58.6528 71.5,56.5 Z"/></g>
<g><path style="opacity:1" fill="#436166" d="M 178.5,79.5 C 178.5,81.8333 178.5,84.1667 178.5,86.5C 178.833,156.335 178.499,226.002 177.5,295.5C 176.833,295.5 176.167,295.5 175.5,295.5C 157.5,295.5 139.5,295.5 121.5,295.5C 121.5,294.833 121.833,294.5 122.5,294.5C 140.833,294.5 159.167,294.5 177.5,294.5C 177.167,222.665 177.501,150.998 178.5,79.5 Z"/></g>
<g><path style="opacity:1" fill="#132727" d="M 242.5,197.5 C 240.585,197.216 238.919,197.549 237.5,198.5C 235.744,199.552 235.077,201.219 235.5,203.5C 234.594,202.644 233.927,200.977 233.5,198.5C 236.47,196.497 239.47,196.163 242.5,197.5 Z"/></g>
<g><path style="opacity:1" fill="#cfcdb0" d="M 237.5,198.5 C 242.197,224.201 246.53,249.201 250.5,273.5C 249.791,274.404 248.791,274.737 247.5,274.5C 244.592,251.388 240.926,228.388 236.5,205.5C 236.672,204.508 236.338,203.842 235.5,203.5C 235.077,201.219 235.744,199.552 237.5,198.5 Z"/></g>
<g><path style="opacity:1" fill="#141d1e" d="M 293.5,53.5 C 295.027,53.427 296.027,54.0937 296.5,55.5C 296.5,55.8333 296.5,56.1667 296.5,56.5C 295.603,55.4019 294.77,55.4019 294,56.5C 283.893,81.8706 279.393,108.204 280.5,135.5C 281.538,140.436 282.205,145.436 282.5,150.5C 280.904,172.884 278.738,195.217 276,217.5C 272.503,243.987 266.836,269.987 259,295.5C 257.985,299.44 257.485,303.44 257.5,307.5C 256.539,305.735 256.205,303.735 256.5,301.5C 256.993,299.194 257.326,296.861 257.5,294.5C 261.723,280.719 265.056,266.719 267.5,252.5C 275.526,216.573 279.526,180.239 279.5,143.5C 276.788,112.35 281.454,82.3499 293.5,53.5 Z"/></g>
<g><path style="opacity:0.82" fill="#31312f" d="M 315.5,123.5 C 317.305,157.731 316.305,191.731 312.5,225.5C 311.539,223.735 311.205,221.735 311.5,219.5C 313.831,190.216 314.831,160.883 314.5,131.5C 314.194,128.615 314.527,125.948 315.5,123.5 Z"/></g>
<g><path style="opacity:1" fill="#f7f7e9" d="M 242.5,197.5 C 243.167,198.167 243.833,198.833 244.5,199.5C 245.362,210.425 247.028,221.092 249.5,231.5C 250.282,240.191 251.282,248.857 252.5,257.5C 252.263,258.791 252.596,259.791 253.5,260.5C 253.739,264.842 254.073,269.176 254.5,273.5C 253.167,273.5 251.833,273.5 250.5,273.5C 246.53,249.201 242.197,224.201 237.5,198.5C 238.919,197.549 240.585,197.216 242.5,197.5 Z"/></g>
<g><path style="opacity:1" fill="#1b3237" d="M 249.5,215.5 C 248.789,220.657 248.789,225.99 249.5,231.5C 247.028,221.092 245.362,210.425 244.5,199.5C 244.369,198.761 244.536,198.094 245,197.5C 247.013,203.371 248.513,209.371 249.5,215.5 Z"/></g>
<g><path style="opacity:1" fill="#265660" d="M 279.5,143.5 C 279.526,180.239 275.526,216.573 267.5,252.5C 267.077,237.449 265.911,222.449 264,207.5C 262.451,194.451 263.951,181.785 268.5,169.5C 272.755,161 276.422,152.334 279.5,143.5 Z"/></g>
<g><path style="opacity:1" fill="#242f29" d="M 236.5,205.5 C 240.926,228.388 244.592,251.388 247.5,274.5C 243.162,256.498 239.662,238.164 237,219.5C 236.5,216 236,212.5 235.5,209C 235.514,207.615 235.848,206.449 236.5,205.5 Z"/></g>
<g><path style="opacity:0.58" fill="#5c5a59" d="M 311.5,219.5 C 311.205,221.735 311.539,223.735 312.5,225.5C 312.81,228.713 312.477,231.713 311.5,234.5C 311.806,231.615 311.473,228.948 310.5,226.5C 310.198,223.941 310.532,221.607 311.5,219.5 Z"/></g>
<g><path style="opacity:1" fill="#28545f" d="M 249.5,215.5 C 255.046,232.579 257.38,250.246 256.5,268.5C 255.726,265.173 254.726,262.506 253.5,260.5C 252.596,259.791 252.263,258.791 252.5,257.5C 253.156,256.378 253.489,255.045 253.5,253.5C 252.802,245.911 251.469,238.578 249.5,231.5C 248.789,225.99 248.789,220.657 249.5,215.5 Z"/></g>
<g><path style="opacity:1" fill="#111e1d" d="M 249.5,231.5 C 251.469,238.578 252.802,245.911 253.5,253.5C 253.489,255.045 253.156,256.378 252.5,257.5C 251.282,248.857 250.282,240.191 249.5,231.5 Z"/></g>
<g><path style="opacity:1" fill="#2e5a69" d="M 184.5,86.5 C 185.498,121.329 185.832,156.329 185.5,191.5C 185.5,228.833 185.5,266.167 185.5,303.5C 185.5,309.5 185.5,315.5 185.5,321.5C 183.5,321.5 181.5,321.5 179.5,321.5C 179.5,315.5 179.5,309.5 179.5,303.5C 181.446,308.396 182.113,313.729 181.5,319.5C 182.5,319.5 183.5,319.5 184.5,319.5C 184.097,300.53 182.764,281.863 180.5,263.5C 180.833,255.5 181.167,247.5 181.5,239.5C 182.086,239.291 182.586,238.957 183,238.5C 183.5,188.168 183.667,137.834 183.5,87.5C 183.5,86.8333 183.833,86.5 184.5,86.5 Z"/></g>
<g><path style="opacity:1" fill="#1e3633" d="M 186.5,175.5 C 186.833,175.5 187.167,175.5 187.5,175.5C 187.5,215.167 187.5,254.833 187.5,294.5C 187.842,295.338 188.508,295.672 189.5,295.5C 188.323,298.352 186.989,301.018 185.5,303.5C 185.5,266.167 185.5,228.833 185.5,191.5C 186.488,186.36 186.821,181.026 186.5,175.5 Z"/></g>
<g><path style="opacity:1" fill="#152321" d="M 256.5,268.5 C 257.326,273.51 255.159,275.843 250,275.5C 248.93,275.472 248.097,275.139 247.5,274.5C 248.791,274.737 249.791,274.404 250.5,273.5C 251.833,273.5 253.167,273.5 254.5,273.5C 254.073,269.176 253.739,264.842 253.5,260.5C 254.726,262.506 255.726,265.173 256.5,268.5 Z"/></g>
<g><path style="opacity:0.91" fill="#353431" d="M 310.5,226.5 C 311.473,228.948 311.806,231.615 311.5,234.5C 309.477,260.594 302.477,285.261 290.5,308.5C 289.662,308.158 289.328,307.492 289.5,306.5C 289.833,305.167 290.167,303.833 290.5,302.5C 292.406,299.017 294.072,295.35 295.5,291.5C 304.744,270.854 309.744,249.188 310.5,226.5 Z"/></g>
<g><path style="opacity:1" fill="#c4c3a4" d="M 295.5,291.5 C 294.072,295.35 292.406,299.017 290.5,302.5C 290.357,300.738 290.691,299.071 291.5,297.5C 289.717,282.734 288.383,267.901 287.5,253C 287.667,248.5 287.833,244 288,239.5C 288.394,233.006 290.227,227.006 293.5,221.5C 293.833,221.833 294.167,222.167 294.5,222.5C 292.03,231.152 290.697,239.985 290.5,249C 291.815,263.351 293.481,277.518 295.5,291.5 Z"/></g>
<g><path style="opacity:1" fill="#c4c4a3" d="M 74.5,300.5 C 72.3256,297.485 70.6589,294.151 69.5,290.5C 70.8435,281.619 72.3435,272.619 74,263.5C 74.9794,250.376 74.146,237.376 71.5,224.5C 71.8333,223.5 72.1667,222.5 72.5,221.5C 76.435,231.773 78.435,242.439 78.5,253.5C 76.1404,269.072 74.8071,284.738 74.5,300.5 Z"/></g>
<g><path style="opacity:0.925" fill="#323330" d="M 51.5,186.5 C 52.8636,210.463 55.3636,234.463 59,258.5C 61.236,269.376 64.736,279.71 69.5,289.5C 69.5,289.833 69.5,290.167 69.5,290.5C 70.6589,294.151 72.3256,297.485 74.5,300.5C 75.199,303.573 76.199,306.573 77.5,309.5C 77.9569,310.298 78.6236,310.631 79.5,310.5C 79.8333,311.167 80.1667,311.833 80.5,312.5C 79.4138,312.62 78.7472,313.287 78.5,314.5C 79.7188,318.32 79.7188,321.987 78.5,325.5C 77.589,320.561 76.7557,315.561 76,310.5C 58.2108,275.003 49.7108,237.336 50.5,197.5C 51.4816,194.038 51.815,190.371 51.5,186.5 Z"/></g>
<g><path style="opacity:1" fill="#335860" d="M 106.5,296.5 C 108.467,296.261 110.301,296.594 112,297.5C 112.985,305.138 113.485,312.804 113.5,320.5C 113.631,321.376 113.298,322.043 112.5,322.5C 111.49,317.701 110.49,313.034 109.5,308.5C 109.574,304.257 108.907,301.59 107.5,300.5C 106.566,299.432 106.232,298.099 106.5,296.5 Z"/></g>
<g><path style="opacity:1" fill="#2c545c" d="M 257.5,294.5 C 257.326,296.861 256.993,299.194 256.5,301.5C 255.482,306.475 254.815,311.642 254.5,317C 255.333,322.49 255.5,327.99 255,333.5C 253.847,330.289 253.18,326.956 253,323.5C 252.667,326.833 252.333,330.167 252,333.5C 251.501,329.848 251.335,326.182 251.5,322.5C 251.837,313.806 252.503,305.139 253.5,296.5C 234.201,295.498 212.868,295.164 189.5,295.5C 188.508,295.672 187.842,295.338 187.5,294.5C 197.839,294.666 208.172,294.5 218.5,294C 208.538,287.67 203.538,278.503 203.5,266.5C 204.5,266.5 205.5,266.5 206.5,266.5C 206.523,277.713 211.523,285.88 221.5,291C 233.268,294.068 245.268,295.234 257.5,294.5 Z"/></g>
<g><path style="opacity:1" fill="#284348" d="M 81.5,335.5 C 79.2878,332.679 78.2878,329.345 78.5,325.5C 79.7188,321.987 79.7188,318.32 78.5,314.5C 78.7472,313.287 79.4138,312.62 80.5,312.5C 86.7357,312.085 92.7357,311.751 98.5,311.5C 98.4035,319.191 98.7368,326.858 99.5,334.5C 93.31,334.177 87.31,334.51 81.5,335.5 Z"/></g>
<g><path style="opacity:0.992" fill="#1d2f35" d="M 189.5,295.5 C 212.868,295.164 234.201,295.498 253.5,296.5C 252.503,305.139 251.837,313.806 251.5,322.5C 250.833,322.5 250.167,322.5 249.5,322.5C 250.233,314.172 250.899,305.839 251.5,297.5C 250.5,297.5 249.5,297.5 248.5,297.5C 248.825,305.019 248.492,312.352 247.5,319.5C 247.806,316.615 247.473,313.948 246.5,311.5C 246.998,306.848 247.331,302.181 247.5,297.5C 246.5,297.5 245.5,297.5 244.5,297.5C 244.309,305.84 243.976,314.174 243.5,322.5C 242.833,322.5 242.167,322.5 241.5,322.5C 242.407,314.208 242.74,305.875 242.5,297.5C 241.5,297.5 240.5,297.5 239.5,297.5C 239.5,305.833 239.5,314.167 239.5,322.5C 238.833,322.5 238.167,322.5 237.5,322.5C 237.295,314.133 237.629,305.8 238.5,297.5C 236.167,297.5 233.833,297.5 231.5,297.5C 231.5,305.833 231.5,314.167 231.5,322.5C 228.833,322.5 226.167,322.5 223.5,322.5C 223.5,320.167 223.5,317.833 223.5,315.5C 224.165,317.369 224.831,319.369 225.5,321.5C 226.331,314.858 226.831,308.191 227,301.5C 227.943,308.147 228.777,314.814 229.5,321.5C 229.833,321.167 230.167,320.833 230.5,320.5C 229.533,312.89 229.2,305.223 229.5,297.5C 227.167,297.5 224.833,297.5 222.5,297.5C 223.292,303.13 223.625,308.797 223.5,314.5C 222.527,316.948 222.194,319.615 222.5,322.5C 220.901,322.768 219.568,322.434 218.5,321.5C 219.5,321.5 220.5,321.5 221.5,321.5C 221.5,313.5 221.5,305.5 221.5,297.5C 220.167,297.5 218.833,297.5 217.5,297.5C 218.134,303.145 218.468,308.811 218.5,314.5C 217.549,315.919 217.216,317.585 217.5,319.5C 216.689,312.322 216.022,304.988 215.5,297.5C 214.5,297.5 213.5,297.5 212.5,297.5C 213.083,304.821 213.583,312.154 214,319.5C 214.71,320.973 215.876,321.64 217.5,321.5C 204.833,322.833 192.167,322.833 179.5,321.5C 181.5,321.5 183.5,321.5 185.5,321.5C 185.5,315.5 185.5,309.5 185.5,303.5C 186.989,301.018 188.323,298.352 189.5,295.5 Z"/></g>
<g><path style="opacity:1" fill="#34595e" d="M 190.5,297.5 C 191.5,297.5 192.5,297.5 193.5,297.5C 194.023,305.49 194.356,313.49 194.5,321.5C 193.167,321.5 191.833,321.5 190.5,321.5C 190.5,313.5 190.5,305.5 190.5,297.5 Z"/></g>
<g><path style="opacity:1" fill="#345a61" d="M 206.5,297.5 C 207.833,297.5 209.167,297.5 210.5,297.5C 210.935,305.495 211.269,313.495 211.5,321.5C 210.5,321.5 209.5,321.5 208.5,321.5C 208.685,313.419 208.018,305.419 206.5,297.5 Z"/></g>
<g><path style="opacity:1" fill="#395b60" d="M 249.5,322.5 C 247.952,322.179 247.285,321.179 247.5,319.5C 248.492,312.352 248.825,305.019 248.5,297.5C 249.5,297.5 250.5,297.5 251.5,297.5C 250.899,305.839 250.233,314.172 249.5,322.5 Z"/></g>
<g><path style="opacity:1" fill="#315157" d="M 237.5,322.5 C 235.702,316.579 234.869,310.246 235,303.5C 234.5,309.825 234.334,316.158 234.5,322.5C 233.5,322.5 232.5,322.5 231.5,322.5C 231.5,314.167 231.5,305.833 231.5,297.5C 233.833,297.5 236.167,297.5 238.5,297.5C 237.629,305.8 237.295,314.133 237.5,322.5 Z"/></g>
<g><path style="opacity:1" fill="#325c60" d="M 218.5,321.5 C 218.5,319.167 218.5,316.833 218.5,314.5C 218.468,308.811 218.134,303.145 217.5,297.5C 218.833,297.5 220.167,297.5 221.5,297.5C 221.5,305.5 221.5,313.5 221.5,321.5C 220.5,321.5 219.5,321.5 218.5,321.5 Z"/></g>
<g><path style="opacity:1" fill="#315b60" d="M 195.5,297.5 C 197.26,300.701 198.094,304.367 198,308.5C 198.828,312.871 198.661,317.205 197.5,321.5C 195.78,313.603 195.114,305.603 195.5,297.5 Z"/></g>
<g><path style="opacity:1" fill="#395962" d="M 198.5,297.5 C 199.5,297.5 200.5,297.5 201.5,297.5C 202.475,329.414 201.475,329.414 198.5,297.5 Z"/></g>
<g><path style="opacity:1" fill="#33585e" d="M 241.5,322.5 C 240.833,322.5 240.167,322.5 239.5,322.5C 239.5,314.167 239.5,305.833 239.5,297.5C 240.5,297.5 241.5,297.5 242.5,297.5C 242.74,305.875 242.407,314.208 241.5,322.5 Z"/></g>
<g><path style="opacity:1" fill="#36595e" d="M 223.5,315.5 C 223.5,315.167 223.5,314.833 223.5,314.5C 223.625,308.797 223.292,303.13 222.5,297.5C 224.833,297.5 227.167,297.5 229.5,297.5C 229.2,305.223 229.533,312.89 230.5,320.5C 230.167,320.833 229.833,321.167 229.5,321.5C 228.777,314.814 227.943,308.147 227,301.5C 226.831,308.191 226.331,314.858 225.5,321.5C 224.831,319.369 224.165,317.369 223.5,315.5 Z"/></g>
<g><path style="opacity:1" fill="#35565b" d="M 246.5,311.5 C 246.5,315.167 246.5,318.833 246.5,322.5C 245.5,322.5 244.5,322.5 243.5,322.5C 243.976,314.174 244.309,305.84 244.5,297.5C 245.5,297.5 246.5,297.5 247.5,297.5C 247.331,302.181 246.998,306.848 246.5,311.5 Z"/></g>
<g><path style="opacity:1" fill="#305c5e" d="M 217.5,319.5 C 217.5,320.167 217.5,320.833 217.5,321.5C 215.876,321.64 214.71,320.973 214,319.5C 213.583,312.154 213.083,304.821 212.5,297.5C 213.5,297.5 214.5,297.5 215.5,297.5C 216.022,304.988 216.689,312.322 217.5,319.5 Z"/></g>
<g><path style="opacity:1" fill="#325b5f" d="M 203.5,297.5 C 204.777,298.694 205.444,300.36 205.5,302.5C 205.948,308.548 206.614,314.548 207.5,320.5C 205.993,321.739 204.826,321.405 204,319.5C 203.5,312.174 203.334,304.841 203.5,297.5 Z"/></g>
<g><path style="opacity:0.898" fill="#1c2a2e" d="M 178.5,86.5 C 178.833,86.5 179.167,86.5 179.5,86.5C 179.5,158.833 179.5,231.167 179.5,303.5C 179.5,309.5 179.5,315.5 179.5,321.5C 192.167,322.833 204.833,322.833 217.5,321.5C 217.5,320.833 217.5,320.167 217.5,319.5C 217.216,317.585 217.549,315.919 218.5,314.5C 218.5,316.833 218.5,319.167 218.5,321.5C 219.568,322.434 220.901,322.768 222.5,322.5C 222.194,319.615 222.527,316.948 223.5,314.5C 223.5,314.833 223.5,315.167 223.5,315.5C 223.5,317.833 223.5,320.167 223.5,322.5C 226.167,322.5 228.833,322.5 231.5,322.5C 232.5,322.5 233.5,322.5 234.5,322.5C 234.334,316.158 234.5,309.825 235,303.5C 234.869,310.246 235.702,316.579 237.5,322.5C 238.167,322.5 238.833,322.5 239.5,322.5C 240.167,322.5 240.833,322.5 241.5,322.5C 242.167,322.5 242.833,322.5 243.5,322.5C 244.5,322.5 245.5,322.5 246.5,322.5C 246.5,318.833 246.5,315.167 246.5,311.5C 247.473,313.948 247.806,316.615 247.5,319.5C 247.285,321.179 247.952,322.179 249.5,322.5C 250.167,322.5 250.833,322.5 251.5,322.5C 251.335,326.182 251.501,329.848 252,333.5C 252.333,330.167 252.667,326.833 253,323.5C 253.18,326.956 253.847,330.289 255,333.5C 255.5,327.99 255.333,322.49 254.5,317C 254.815,311.642 255.482,306.475 256.5,301.5C 256.205,303.735 256.539,305.735 257.5,307.5C 257.5,308.5 257.5,309.5 257.5,310.5C 266.833,310.5 276.167,310.5 285.5,310.5C 285.225,312.758 284.225,313.092 282.5,311.5C 280.44,319.096 279.773,326.762 280.5,334.5C 281.308,332.577 281.808,330.577 282,328.5C 282.002,331.051 282.836,333.051 284.5,334.5C 283.737,335.268 282.737,335.768 281.5,336C 271.127,336.804 260.793,336.471 250.5,335C 249.544,331.606 249.211,328.106 249.5,324.5C 204.833,324.5 160.167,324.5 115.5,324.5C 115.789,328.106 115.456,331.606 114.5,335C 103.505,336.757 92.5049,336.923 81.5,335.5C 87.31,334.51 93.31,334.177 99.5,334.5C 98.7368,326.858 98.4035,319.191 98.5,311.5C 92.7357,311.751 86.7357,312.085 80.5,312.5C 80.1667,311.833 79.8333,311.167 79.5,310.5C 89.1667,310.5 98.8333,310.5 108.5,310.5C 107.793,307.214 107.46,303.881 107.5,300.5C 108.907,301.59 109.574,304.257 109.5,308.5C 109.5,309.5 109.5,310.5 109.5,311.5C 108.5,311.5 107.5,311.5 106.5,311.5C 106.5,319.167 106.5,326.833 106.5,334.5C 108.167,334.5 109.833,334.5 111.5,334.5C 111.335,331.482 111.502,328.482 112,325.5C 112.333,328.167 112.667,330.833 113,333.5C 113.784,330.24 113.617,327.073 112.5,324C 114.495,323.076 114.828,321.91 113.5,320.5C 113.485,312.804 112.985,305.138 112,297.5C 110.301,296.594 108.467,296.261 106.5,296.5C 93.6928,250.392 86.0262,203.392 83.5,155.5C 83.5,152.167 83.5,148.833 83.5,145.5C 85.7181,163.309 87.5514,181.309 89,199.5C 91.1499,216.093 93.9833,232.426 97.5,248.5C 99.462,264.293 103.129,279.626 108.5,294.5C 112.634,295.485 116.968,295.818 121.5,295.5C 139.5,295.5 157.5,295.5 175.5,295.5C 174.167,296.167 172.833,296.833 171.5,297.5C 170.5,297.5 169.5,297.5 168.5,297.5C 167.713,305.822 167.046,314.156 166.5,322.5C 170.167,322.5 173.833,322.5 177.5,322.5C 177.5,313.5 177.5,304.5 177.5,295.5C 178.499,226.002 178.833,156.335 178.5,86.5 Z"/></g>
<g><path style="opacity:1" fill="#39565b" d="M 271.5,311.5 C 273.117,312.038 274.784,312.371 276.5,312.5C 276.714,319.656 275.881,326.656 274,333.5C 273.833,332.167 273.667,330.833 273.5,329.5C 274.443,324.184 274.61,318.851 274,313.5C 273.061,320.544 271.895,327.544 270.5,334.5C 270.167,333.667 269.833,332.833 269.5,332C 270.53,325.2 271.197,318.366 271.5,311.5 Z"/></g>
<g><path style="opacity:1" fill="#283c41" d="M 109.5,308.5 C 110.49,313.034 111.49,317.701 112.5,322.5C 113.298,322.043 113.631,321.376 113.5,320.5C 114.828,321.91 114.495,323.076 112.5,324C 113.617,327.073 113.784,330.24 113,333.5C 112.667,330.833 112.333,328.167 112,325.5C 111.502,328.482 111.335,331.482 111.5,334.5C 109.833,334.5 108.167,334.5 106.5,334.5C 106.5,326.833 106.5,319.167 106.5,311.5C 107.5,311.5 108.5,311.5 109.5,311.5C 109.5,310.5 109.5,309.5 109.5,308.5 Z"/></g>
<g><path style="opacity:1" fill="#38585c" d="M 99.5,311.5 C 100.812,313.743 101.478,316.41 101.5,319.5C 102.132,324.554 102.132,329.554 101.5,334.5C 100.116,326.896 99.4497,319.23 99.5,311.5 Z"/></g>
<g><path style="opacity:1" fill="#345c61" d="M 113.5,297.5 C 114.5,297.5 115.5,297.5 116.5,297.5C 117.484,330.765 116.484,330.765 113.5,297.5 Z"/></g>
<g><path style="opacity:1" fill="#335968" d="M 149.5,297.5 C 150.833,297.5 152.167,297.5 153.5,297.5C 151.729,305.353 151.062,313.353 151.5,321.5C 150.5,321.5 149.5,321.5 148.5,321.5C 148.568,313.486 148.901,305.486 149.5,297.5 Z"/></g>
<g><path style="opacity:1" fill="#33575f" d="M 154.5,297.5 C 155.833,297.5 157.167,297.5 158.5,297.5C 157.437,305.461 156.771,313.461 156.5,321.5C 155.5,321.5 154.5,321.5 153.5,321.5C 153.731,313.495 154.065,305.495 154.5,297.5 Z"/></g>
<g><path style="opacity:1" fill="#335961" d="M 135.5,297.5 C 136.825,301.276 137.491,305.443 137.5,310C 137.167,314.167 136.833,318.333 136.5,322.5C 135.502,314.193 135.169,305.86 135.5,297.5 Z"/></g>
<g><path style="opacity:1" fill="#365a5c" d="M 122.5,297.5 C 123.5,297.5 124.5,297.5 125.5,297.5C 125.155,330.774 124.155,330.774 122.5,297.5 Z"/></g>
<g><path style="opacity:1" fill="#335c63" d="M 164.5,297.5 C 165.675,297.281 166.675,297.614 167.5,298.5C 166.388,306.198 165.221,313.864 164,321.5C 163.302,313.472 163.468,305.472 164.5,297.5 Z"/></g>
<g><path style="opacity:1" fill="#36595e" d="M 160.5,297.5 C 161.693,297.97 162.36,298.97 162.5,300.5C 161.793,306.813 161.293,313.147 161,319.5C 160.692,320.308 160.192,320.975 159.5,321.5C 158.503,313.466 158.836,305.466 160.5,297.5 Z"/></g>
<g><path style="opacity:1" fill="#305861" d="M 117.5,297.5 C 118.833,297.5 120.167,297.5 121.5,297.5C 121.461,330.695 120.128,330.695 117.5,297.5 Z"/></g>
<g><path style="opacity:1" fill="#355e60" d="M 139.5,297.5 C 140.5,297.5 141.5,297.5 142.5,297.5C 140.84,329.454 139.84,329.454 139.5,297.5 Z"/></g>
<g><path style="opacity:1" fill="#315e61" d="M 144.5,297.5 C 145.5,297.5 146.5,297.5 147.5,297.5C 146.977,305.49 146.644,313.49 146.5,321.5C 145.5,321.5 144.5,321.5 143.5,321.5C 143.833,313.5 144.167,305.5 144.5,297.5 Z"/></g>
<g><path style="opacity:1" fill="#345c63" d="M 131.5,297.5 C 132.5,297.5 133.5,297.5 134.5,297.5C 132.84,330.791 131.84,330.791 131.5,297.5 Z"/></g>
<g><path style="opacity:1" fill="#325d60" d="M 127.5,297.5 C 128.5,297.5 129.5,297.5 130.5,297.5C 128.84,330.78 127.84,330.78 127.5,297.5 Z"/></g>
<g><path style="opacity:1" fill="#264149" d="M 175.5,295.5 C 176.167,295.5 176.833,295.5 177.5,295.5C 177.5,304.5 177.5,313.5 177.5,322.5C 173.833,322.5 170.167,322.5 166.5,322.5C 167.046,314.156 167.713,305.822 168.5,297.5C 169.5,297.5 170.5,297.5 171.5,297.5C 172.833,296.833 174.167,296.167 175.5,295.5 Z"/></g>
<g><path style="opacity:1" fill="#305c61" d="M 171.5,297.5 C 172.833,297.5 174.167,297.5 175.5,297.5C 174.635,305.466 174.302,313.466 174.5,321.5C 173.167,321.5 171.833,321.5 170.5,321.5C 171.276,313.525 171.61,305.525 171.5,297.5 Z"/></g>
<g><path style="opacity:1" fill="#235661" d="M 122.5,294.5 C 121.833,294.5 121.5,294.833 121.5,295.5C 116.968,295.818 112.634,295.485 108.5,294.5C 111.247,294.813 113.914,294.48 116.5,293.5C 121.667,285.167 126.833,276.833 132,268.5C 139.033,251.221 142.866,233.221 143.5,214.5C 146.286,228.928 145.786,243.261 142,257.5C 137.061,270.714 130.561,283.048 122.5,294.5 Z"/></g>
<g><path style="opacity:1" fill="#1f2b2a" d="M 122.5,197.5 C 124.628,196.371 126.961,196.204 129.5,197C 130.578,197.674 131.245,198.674 131.5,200C 127.496,224.858 123.329,249.691 119,274.5C 116.263,275.61 113.429,275.777 110.5,275C 109.944,274.617 109.611,274.117 109.5,273.5C 110.227,260.321 112.061,247.321 115,234.5C 115.464,235.094 115.631,235.761 115.5,236.5C 114.148,248.414 112.482,260.248 110.5,272C 111.563,273.188 112.897,273.688 114.5,273.5C 115.209,274.404 116.209,274.737 117.5,274.5C 121.066,250.44 125.066,226.44 129.5,202.5C 129.5,201.167 129.5,199.833 129.5,198.5C 127.139,198.326 124.806,197.993 122.5,197.5 Z"/></g>
<g><path style="opacity:1" fill="#28555e" d="M 119.5,199.5 C 118.413,209.199 117.079,218.866 115.5,228.5C 115.507,230.369 115.84,232.036 116.5,233.5C 116.737,234.791 116.404,235.791 115.5,236.5C 115.631,235.761 115.464,235.094 115,234.5C 112.061,247.321 110.227,260.321 109.5,273.5C 108.418,253.484 109.918,233.484 114,213.5C 115.583,208.677 117.417,204.011 119.5,199.5 Z"/></g>
<g><path style="opacity:1" fill="#ccc8ae" d="M 129.5,202.5 C 125.066,226.44 121.066,250.44 117.5,274.5C 116.209,274.737 115.209,274.404 114.5,273.5C 116.379,273.607 116.712,273.107 115.5,272C 119.445,249.951 122.945,227.784 126,205.5C 126.36,203.392 127.027,201.392 128,199.5C 128.232,200.737 128.732,201.737 129.5,202.5 Z"/></g>
<g><path style="opacity:1" fill="#122121" d="M 119.5,199.5 C 120.338,199.842 120.672,200.508 120.5,201.5C 119.384,212.195 118.051,222.862 116.5,233.5C 115.84,232.036 115.507,230.369 115.5,228.5C 117.079,218.866 118.413,209.199 119.5,199.5 Z"/></g>
<g><path style="opacity:1" fill="#f7f8eb" d="M 122.5,197.5 C 124.806,197.993 127.139,198.326 129.5,198.5C 129.5,199.833 129.5,201.167 129.5,202.5C 128.732,201.737 128.232,200.737 128,199.5C 127.027,201.392 126.36,203.392 126,205.5C 122.945,227.784 119.445,249.951 115.5,272C 116.712,273.107 116.379,273.607 114.5,273.5C 112.897,273.688 111.563,273.188 110.5,272C 112.482,260.248 114.148,248.414 115.5,236.5C 116.404,235.791 116.737,234.791 116.5,233.5C 118.051,222.862 119.384,212.195 120.5,201.5C 121.167,200.167 121.833,198.833 122.5,197.5 Z"/></g>
<g><path style="opacity:1" fill="#2d5a5d" d="M 103.5,312.5 C 104.822,315.768 105.489,319.435 105.5,323.5C 105.167,327.167 104.833,330.833 104.5,334.5C 103.503,327.197 103.169,319.863 103.5,312.5 Z"/></g>
<g><path style="opacity:1" fill="#315a5a" d="M 263.5,311.5 C 264.816,314.087 265.483,317.087 265.5,320.5C 265.479,325.223 264.979,329.889 264,334.5C 263.5,326.841 263.334,319.174 263.5,311.5 Z"/></g>
<g><path style="opacity:1" fill="#375b5e" d="M 267.5,312.5 C 268.809,314.571 269.475,317.071 269.5,320C 269.353,324.87 268.853,329.703 268,334.5C 266.923,332.884 266.423,331.051 266.5,329C 267.248,323.523 267.581,318.023 267.5,312.5 Z"/></g>
<g><path style="opacity:1" fill="#2a4b4c" d="M 256.5,312.5 C 258.095,314.111 259.261,316.111 260,318.5C 260.333,316.5 260.667,314.5 261,312.5C 261.5,319.826 261.666,327.159 261.5,334.5C 259.833,334.5 258.167,334.5 256.5,334.5C 256.5,327.167 256.5,319.833 256.5,312.5 Z"/></g>
<g><path style="opacity:0.396" fill="#2d4143" d="M 289.5,306.5 C 289.328,307.492 289.662,308.158 290.5,308.5C 288.495,316.35 286.995,324.35 286,332.5C 285.722,333.416 285.222,334.082 284.5,334.5C 282.836,333.051 282.002,331.051 282,328.5C 281.808,330.577 281.308,332.577 280.5,334.5C 279.773,326.762 280.44,319.096 282.5,311.5C 284.225,313.092 285.225,312.758 285.5,310.5C 286.496,310.586 287.329,310.252 288,309.5C 288.232,308.263 288.732,307.263 289.5,306.5 Z"/></g>
</svg>
