<?xml version="1.0" encoding="UTF-8"?>
<!DOCTYPE svg PUBLIC "-//W3C//DTD SVG 1.1//EN" "http://www.w3.org/Graphics/SVG/1.1/DTD/svg11.dtd">
<svg xmlns="http://www.w3.org/2000/svg" version="1.1" width="360px" height="360px" style="shape-rendering:geometricPrecision; text-rendering:geometricPrecision; image-rendering:optimizeQuality; fill-rule:evenodd; clip-rule:evenodd" xmlns:xlink="http://www.w3.org/1999/xlink">
<g><path style="opacity:0.412" fill="#d7a1b5" d="M 195.5,83.5 C 193.562,85.1628 191.228,85.8294 188.5,85.5C 190.599,84.3882 192.933,83.7215 195.5,83.5 Z"/></g>
<g><path style="opacity:0.263" fill="#d4acbd" d="M 207.5,83.5 C 215.871,84.9219 223.871,87.2553 231.5,90.5C 223.915,88.5209 216.248,86.6876 208.5,85C 207.944,84.6174 207.611,84.1174 207.5,83.5 Z"/></g>
<g><path style="opacity:0.278" fill="#c699ab" d="M 188.5,85.5 C 185.146,87.2576 181.479,88.2576 177.5,88.5C 180.854,86.7424 184.521,85.7424 188.5,85.5 Z"/></g>
<g><path style="opacity:0.298" fill="#cda2b6" d="M 173.5,89.5 C 170.781,90.913 167.781,91.5797 164.5,91.5C 167.219,90.087 170.219,89.4203 173.5,89.5 Z"/></g>
<g><path style="opacity:1" fill="#fdbfd7" d="M 317.5,162.5 C 315.4,165.104 313.067,167.604 310.5,170C 309.184,170.528 308.517,170.028 308.5,168.5C 308.631,167.624 308.298,166.957 307.5,166.5C 305.273,168.435 302.939,170.268 300.5,172C 297.833,172.667 295.167,172.667 292.5,172C 280.594,167.382 269.594,161.215 259.5,153.5C 253.519,141.869 248.352,129.869 244,117.5C 241.919,112.331 239.086,107.664 235.5,103.5C 234.628,105.466 234.795,107.466 236,109.5C 245.65,131.47 255.316,153.47 265,175.5C 268.696,183.22 271.53,191.22 273.5,199.5C 273.323,206.438 273.156,213.438 273,220.5C 271.905,221.693 271.072,223.027 270.5,224.5C 259.513,226.771 248.68,229.771 238,233.5C 237.5,233.833 237,234.167 236.5,234.5C 237.325,235.386 238.325,235.719 239.5,235.5C 239.903,238.406 241.569,240.239 244.5,241C 241.812,241.392 239.145,241.892 236.5,242.5C 235.328,242.081 234.328,241.415 233.5,240.5C 231.403,242.11 229.07,243.277 226.5,244C 228.207,244.195 229.874,244.195 231.5,244C 231.5,245 231.5,246 231.5,247C 227.942,247.075 224.275,247.075 220.5,247C 219.182,246.306 218.349,245.473 218,244.5C 216.234,245.233 214.401,245.567 212.5,245.5C 216.559,243.972 220.559,242.139 224.5,240C 223.833,239.833 223.167,239.667 222.5,239.5C 210.159,243.516 197.826,247.516 185.5,251.5C 184.737,250.732 183.737,250.232 182.5,250C 182.833,249.667 183.167,249.333 183.5,249C 180.199,248.003 176.866,247.67 173.5,248C 174.833,248.333 176.167,248.667 177.5,249C 171.959,247.993 168.959,250.16 168.5,255.5C 161.011,255.987 154.177,255.987 148,255.5C 146.629,256.581 145.129,257.415 143.5,258C 144.5,258.333 145.5,258.667 146.5,259C 144.228,260.126 142.895,261.626 142.5,263.5C 140.054,261.236 137.387,259.069 134.5,257C 135.28,255.927 135.113,254.76 134,253.5C 133.667,254.167 133.333,254.833 133,255.5C 132.871,252.777 132.037,250.11 130.5,247.5C 132.932,243.257 132.099,239.591 128,236.5C 127.201,228.474 126.201,220.474 125,212.5C 124.667,213.5 124.333,214.5 124,215.5C 123.178,212.883 122.678,210.216 122.5,207.5C 123.5,207.5 124.5,207.5 125.5,207.5C 125.888,212.686 126.221,212.519 126.5,207C 126.435,204.409 125.935,201.909 125,199.5C 124.259,198.359 123.425,198.359 122.5,199.5C 121.509,203.445 121.176,207.445 121.5,211.5C 118.198,194.696 115.198,177.696 112.5,160.5C 111.67,166.138 111.17,171.804 111,177.5C 105.673,188.971 100.173,200.305 94.5,211.5C 89.3272,221.367 83.6605,231.034 77.5,240.5C 71.788,241.072 66.4546,239.739 61.5,236.5C 61.1667,236.833 60.8333,237.167 60.5,237.5C 62.5592,240.193 65.2259,241.86 68.5,242.5C 68.5,244.167 68.5,245.833 68.5,247.5C 61.834,244.834 55.1673,242.167 48.5,239.5C 45.9624,237.019 46.2957,234.686 49.5,232.5C 47.8333,230.167 45.8333,228.167 43.5,226.5C 42.3526,224.235 42.1859,221.902 43,219.5C 59.9445,177.245 84.7779,140.411 117.5,109C 120.392,106.443 123.559,104.276 127,102.5C 128.376,103.705 129.542,105.038 130.5,106.5C 141.962,116.37 155.295,119.87 170.5,117C 183.309,114.679 191.976,107.512 196.5,95.5C 198.004,92.3405 199.337,89.0072 200.5,85.5C 236.083,94.9566 270.416,107.79 303.5,124C 317.568,131.849 320.568,143.016 312.5,157.5C 313.868,158.594 315.035,158.26 316,156.5C 317.197,153.911 318.197,151.244 319,148.5C 320.011,147.663 321.178,147.33 322.5,147.5C 321.82,152.873 320.153,157.873 317.5,162.5 Z"/></g>
<g><path style="opacity:0.133" fill="#e2c3d1" d="M 231.5,90.5 C 240.278,92.5347 248.611,95.5347 256.5,99.5C 247.864,97.0681 239.531,94.0681 231.5,90.5 Z"/></g>
<g><path style="opacity:0.034" fill="#f2d2e1" d="M 126.5,98.5 C 128.607,97.5318 130.941,97.1984 133.5,97.5C 131.383,99.3162 129.049,99.6496 126.5,98.5 Z"/></g>
<g><path style="opacity:0.11" fill="#ddb1c0" d="M 126.5,98.5 C 125.341,100.25 123.674,101.25 121.5,101.5C 122.659,99.7497 124.326,98.7497 126.5,98.5 Z"/></g>
<g><path style="opacity:0.118" fill="#ebc7d8" d="M 259.5,100.5 C 263.137,101.263 266.47,102.597 269.5,104.5C 265.703,104.128 262.37,102.794 259.5,100.5 Z"/></g>
<g><path style="opacity:0.278" fill="#cba4b4" d="M 121.5,101.5 C 121.027,102.906 120.027,103.573 118.5,103.5C 118.973,102.094 119.973,101.427 121.5,101.5 Z"/></g>
<g><path style="opacity:1" fill="#813852" d="M 207.5,83.5 C 207.611,84.1174 207.944,84.6174 208.5,85C 216.248,86.6876 223.915,88.5209 231.5,90.5C 239.531,94.0681 247.864,97.0681 256.5,99.5C 257.791,99.2627 258.791,99.596 259.5,100.5C 262.37,102.794 265.703,104.128 269.5,104.5C 270.78,105.931 272.447,106.598 274.5,106.5C 277.157,106.935 279.491,107.935 281.5,109.5C 281.987,110.473 282.487,111.473 283,112.5C 284.011,111.663 285.178,111.33 286.5,111.5C 287.492,111.328 288.158,111.662 288.5,112.5C 290.229,114.727 292.562,115.727 295.5,115.5C 298.485,116.326 301.151,117.659 303.5,119.5C 303.973,120.906 304.973,121.573 306.5,121.5C 306.973,122.906 307.973,123.573 309.5,123.5C 310.492,123.328 311.158,123.662 311.5,124.5C 312.422,126.816 314.089,128.483 316.5,129.5C 318.539,130.911 319.539,132.911 319.5,135.5C 318.231,140.728 319.898,144.395 324.5,146.5C 326.743,148.838 327.076,151.504 325.5,154.5C 323.461,155.911 322.461,157.911 322.5,160.5C 320.75,161.659 319.75,163.326 319.5,165.5C 316.313,166.837 315.646,165.837 317.5,162.5C 320.153,157.873 321.82,152.873 322.5,147.5C 321.178,147.33 320.011,147.663 319,148.5C 318.197,151.244 317.197,153.911 316,156.5C 315.035,158.26 313.868,158.594 312.5,157.5C 320.568,143.016 317.568,131.849 303.5,124C 270.416,107.79 236.083,94.9566 200.5,85.5C 199.337,89.0072 198.004,92.3405 196.5,95.5C 196.869,93.0065 196.203,92.3398 194.5,93.5C 195.15,91.5648 195.483,89.5648 195.5,87.5C 173.881,91.9874 152.214,96.3207 130.5,100.5C 130.615,102.947 131.615,104.947 133.5,106.5C 132.5,106.5 131.5,106.5 130.5,106.5C 129.542,105.038 128.376,103.705 127,102.5C 123.559,104.276 120.392,106.443 117.5,109C 84.7779,140.411 59.9445,177.245 43,219.5C 42.1859,221.902 42.3526,224.235 43.5,226.5C 45.8333,228.167 47.8333,230.167 49.5,232.5C 46.2957,234.686 45.9624,237.019 48.5,239.5C 47.8333,239.5 47.1667,239.5 46.5,239.5C 45.8333,239.5 45.1667,239.5 44.5,239.5C 43.1667,237.833 43.1667,236.167 44.5,234.5C 45.8852,233.053 45.5518,232.053 43.5,231.5C 38.7728,229.634 37.1061,226.301 38.5,221.5C 40.0739,219.898 40.7406,217.898 40.5,215.5C 43.8429,211.49 45.8429,206.824 46.5,201.5C 46.6596,199.847 47.3263,198.514 48.5,197.5C 51.9652,193.969 54.2985,189.636 55.5,184.5C 55.9925,182.181 56.9925,180.181 58.5,178.5C 59.9063,178.027 60.573,177.027 60.5,175.5C 62.4077,174.514 63.4077,172.848 63.5,170.5C 65.4077,169.514 66.4077,167.848 66.5,165.5C 67.9063,165.027 68.573,164.027 68.5,162.5C 69.9063,162.027 70.573,161.027 70.5,159.5C 72.3264,157.853 73.6597,155.853 74.5,153.5C 75.9063,153.027 76.573,152.027 76.5,150.5C 78.8218,149.198 80.1551,147.198 80.5,144.5C 82.5869,143.415 83.9202,141.749 84.5,139.5C 86.2624,138.738 87.2624,137.404 87.5,135.5C 87.5,134.833 87.8333,134.5 88.5,134.5C 91.2427,132.761 93.2427,130.427 94.5,127.5C 102.167,119.167 110.167,111.167 118.5,103.5C 120.027,103.573 121.027,102.906 121.5,101.5C 123.674,101.25 125.341,100.25 126.5,98.5C 129.049,99.6496 131.383,99.3162 133.5,97.5C 143.567,94.7539 153.901,92.7539 164.5,91.5C 167.781,91.5797 170.781,90.913 173.5,89.5C 174.568,88.5655 175.901,88.2322 177.5,88.5C 181.479,88.2576 185.146,87.2576 188.5,85.5C 191.228,85.8294 193.562,85.1628 195.5,83.5C 199.367,82.2737 203.367,82.2737 207.5,83.5 Z"/></g>
<g><path style="opacity:1" fill="#fa88b2" d="M 194.5,93.5 C 190.353,104.754 182.353,111.587 170.5,114C 164.167,114.667 157.833,114.667 151.5,114C 145.159,112.095 139.159,109.595 133.5,106.5C 131.615,104.947 130.615,102.947 130.5,100.5C 152.214,96.3207 173.881,91.9874 195.5,87.5C 195.483,89.5648 195.15,91.5648 194.5,93.5 Z"/></g>
<g><path style="opacity:0.094" fill="#ecc2d2" d="M 269.5,104.5 C 271.553,104.402 273.22,105.069 274.5,106.5C 272.447,106.598 270.78,105.931 269.5,104.5 Z"/></g>
<g><path style="opacity:0.882" fill="#b38695" d="M 281.5,109.5 C 283.553,109.402 285.22,110.069 286.5,111.5C 285.178,111.33 284.011,111.663 283,112.5C 282.487,111.473 281.987,110.473 281.5,109.5 Z"/></g>
<g><path style="opacity:0.169" fill="#e9c9d8" d="M 118.5,103.5 C 110.167,111.167 102.167,119.167 94.5,127.5C 100.833,117.833 108.833,109.833 118.5,103.5 Z"/></g>
<g><path style="opacity:0.776" fill="#b88799" d="M 288.5,112.5 C 291.241,112.707 293.574,113.707 295.5,115.5C 292.562,115.727 290.229,114.727 288.5,112.5 Z"/></g>
<g><path style="opacity:1" fill="#883051" d="M 196.5,95.5 C 191.976,107.512 183.309,114.679 170.5,117C 155.295,119.87 141.962,116.37 130.5,106.5C 131.5,106.5 132.5,106.5 133.5,106.5C 139.159,109.595 145.159,112.095 151.5,114C 157.833,114.667 164.167,114.667 170.5,114C 182.353,111.587 190.353,104.754 194.5,93.5C 196.203,92.3398 196.869,93.0065 196.5,95.5 Z"/></g>
<g><path style="opacity:0.055" fill="#f1cadb" d="M 303.5,119.5 C 305.027,119.427 306.027,120.094 306.5,121.5C 304.973,121.573 303.973,120.906 303.5,119.5 Z"/></g>
<g><path style="opacity:0.031" fill="#e6c5d6" d="M 306.5,121.5 C 308.027,121.427 309.027,122.094 309.5,123.5C 307.973,123.573 306.973,122.906 306.5,121.5 Z"/></g>
<g><path style="opacity:0.008" fill="#eac3d5" d="M 311.5,124.5 C 313.911,125.517 315.578,127.184 316.5,129.5C 314.089,128.483 312.422,126.816 311.5,124.5 Z"/></g>
<g><path style="opacity:0.278" fill="#cfa1b5" d="M 94.5,127.5 C 93.2427,130.427 91.2427,132.761 88.5,134.5C 89.7573,131.573 91.7573,129.239 94.5,127.5 Z"/></g>
<g><path style="opacity:0.278" fill="#daa9bc" d="M 87.5,135.5 C 87.2624,137.404 86.2624,138.738 84.5,139.5C 84.7376,137.596 85.7376,136.262 87.5,135.5 Z"/></g>
<g><path style="opacity:0.249" fill="#c8a3b1" d="M 319.5,135.5 C 320.314,137.631 320.814,139.964 321,142.5C 322.627,143.532 323.793,144.866 324.5,146.5C 319.898,144.395 318.231,140.728 319.5,135.5 Z"/></g>
<g><path style="opacity:0.098" fill="#e6b6c8" d="M 84.5,139.5 C 83.9202,141.749 82.5869,143.415 80.5,144.5C 81.0798,142.251 82.4131,140.585 84.5,139.5 Z"/></g>
<g><path style="opacity:0.145" fill="#d0a0b5" d="M 80.5,144.5 C 80.1551,147.198 78.8218,149.198 76.5,150.5C 77.3403,148.147 78.6736,146.147 80.5,144.5 Z"/></g>
<g><path style="opacity:0.137" fill="#c19aac" d="M 76.5,150.5 C 76.573,152.027 75.9063,153.027 74.5,153.5C 74.427,151.973 75.0937,150.973 76.5,150.5 Z"/></g>
<g><path style="opacity:0.145" fill="#c998ac" d="M 74.5,153.5 C 73.6597,155.853 72.3264,157.853 70.5,159.5C 70.8449,156.802 72.1782,154.802 74.5,153.5 Z"/></g>
<g><path style="opacity:1" fill="#803853" d="M 308.5,168.5 C 307.596,169.209 307.263,170.209 307.5,171.5C 308.5,171.5 309.5,171.5 310.5,171.5C 310.5,172.5 310.5,173.5 310.5,174.5C 309.5,174.5 308.5,174.5 307.5,174.5C 306.167,171.833 304.833,171.833 303.5,174.5C 299.382,176.939 295.048,177.106 290.5,175C 283.045,172.775 276.378,169.275 270.5,164.5C 269.738,162.738 268.404,161.738 266.5,161.5C 265.508,161.672 264.842,161.338 264.5,160.5C 263.542,159.038 262.376,157.705 261,156.5C 260.638,158.979 261.471,160.979 263.5,162.5C 267.933,171.453 271.6,180.787 274.5,190.5C 274.69,193.855 275.69,196.855 277.5,199.5C 277.723,203.162 278.723,206.495 280.5,209.5C 280.728,213.39 280.394,217.224 279.5,221C 280.077,222.9 280.744,224.733 281.5,226.5C 281.158,227.338 280.492,227.672 279.5,227.5C 278.751,226.469 278.085,225.302 277.5,224C 276.258,223.689 275.258,224.189 274.5,225.5C 273.852,222.868 274.685,220.535 277,218.5C 277.877,211.696 276.71,205.363 273.5,199.5C 271.53,191.22 268.696,183.22 265,175.5C 255.316,153.47 245.65,131.47 236,109.5C 234.795,107.466 234.628,105.466 235.5,103.5C 239.086,107.664 241.919,112.331 244,117.5C 248.352,129.869 253.519,141.869 259.5,153.5C 269.594,161.215 280.594,167.382 292.5,172C 295.167,172.667 297.833,172.667 300.5,172C 302.939,170.268 305.273,168.435 307.5,166.5C 308.298,166.957 308.631,167.624 308.5,168.5 Z"/></g>
<g><path style="opacity:0.114" fill="#c399ac" d="M 325.5,154.5 C 325.008,156.819 324.008,158.819 322.5,160.5C 322.461,157.911 323.461,155.911 325.5,154.5 Z"/></g>
<g><path style="opacity:0.018" fill="#f7c8df" d="M 264.5,160.5 C 263.662,160.842 263.328,161.508 263.5,162.5C 261.471,160.979 260.638,158.979 261,156.5C 262.376,157.705 263.542,159.038 264.5,160.5 Z"/></g>
<g><path style="opacity:0.129" fill="#cd99ac" d="M 70.5,159.5 C 70.573,161.027 69.9063,162.027 68.5,162.5C 68.427,160.973 69.0937,159.973 70.5,159.5 Z"/></g>
<g><path style="opacity:0.243" fill="#c292a4" d="M 266.5,161.5 C 268.404,161.738 269.738,162.738 270.5,164.5C 268.596,164.262 267.262,163.262 266.5,161.5 Z"/></g>
<g><path style="opacity:0.129" fill="#d6a2b4" d="M 322.5,160.5 C 322.25,162.674 321.25,164.341 319.5,165.5C 319.75,163.326 320.75,161.659 322.5,160.5 Z"/></g>
<g><path style="opacity:0.129" fill="#cc98ac" d="M 68.5,162.5 C 68.573,164.027 67.9063,165.027 66.5,165.5C 66.427,163.973 67.0937,162.973 68.5,162.5 Z"/></g>
<g><path style="opacity:0.686" fill="#ad7e92" d="M 66.5,165.5 C 66.4077,167.848 65.4077,169.514 63.5,170.5C 63.7497,168.326 64.7497,166.659 66.5,165.5 Z"/></g>
<g><path style="opacity:0.941" fill="#95516a" d="M 317.5,162.5 C 315.646,165.837 316.313,166.837 319.5,165.5C 317.42,169.086 314.754,172.253 311.5,175C 309.934,175.765 308.601,175.598 307.5,174.5C 308.5,174.5 309.5,174.5 310.5,174.5C 310.5,173.5 310.5,172.5 310.5,171.5C 309.5,171.5 308.5,171.5 307.5,171.5C 307.263,170.209 307.596,169.209 308.5,168.5C 308.517,170.028 309.184,170.528 310.5,170C 313.067,167.604 315.4,165.104 317.5,162.5 Z"/></g>
<g><path style="opacity:0.027" fill="#fcdbed" d="M 307.5,174.5 C 306.167,174.5 304.833,174.5 303.5,174.5C 304.833,171.833 306.167,171.833 307.5,174.5 Z"/></g>
<g><path style="opacity:0.678" fill="#b17f8f" d="M 63.5,170.5 C 63.4077,172.848 62.4077,174.514 60.5,175.5C 60.7497,173.326 61.7497,171.659 63.5,170.5 Z"/></g>
<g><path style="opacity:0.106" fill="#ebc3d4" d="M 60.5,175.5 C 60.573,177.027 59.9063,178.027 58.5,178.5C 58.427,176.973 59.0937,175.973 60.5,175.5 Z"/></g>
<g><path style="opacity:0.235" fill="#b47c93" d="M 274.5,190.5 C 276.472,193.084 277.472,196.084 277.5,199.5C 275.69,196.855 274.69,193.855 274.5,190.5 Z"/></g>
<g><path style="opacity:0.616" fill="#b68799" d="M 55.5,184.5 C 54.2985,189.636 51.9652,193.969 48.5,197.5C 50.4728,192.89 52.8062,188.557 55.5,184.5 Z"/></g>
<g><path style="opacity:0.322" fill="#b9879a" d="M 277.5,199.5 C 279.277,202.505 280.277,205.838 280.5,209.5C 278.723,206.495 277.723,203.162 277.5,199.5 Z"/></g>
<g><path style="opacity:0.948" fill="#843b55" d="M 121.5,211.5 C 124.345,227.209 127.345,242.876 130.5,258.5C 130.167,259.5 129.5,260.167 128.5,260.5C 127.945,256.603 126.945,252.937 125.5,249.5C 125.706,246.505 125.04,243.838 123.5,241.5C 121.542,235.665 120.209,229.665 119.5,223.5C 119.246,217.905 118.246,212.572 116.5,207.5C 115.539,205.735 115.205,203.735 115.5,201.5C 115.486,194.887 114.32,188.553 112,182.5C 111.536,183.094 111.369,183.761 111.5,184.5C 111.672,185.492 111.338,186.158 110.5,186.5C 109.069,187.78 108.402,189.447 108.5,191.5C 106.461,192.911 105.461,194.911 105.5,197.5C 104.008,201.818 102.008,205.818 99.5,209.5C 98.5,209.833 97.8333,210.5 97.5,211.5C 96.5,211.5 95.5,211.5 94.5,211.5C 100.173,200.305 105.673,188.971 111,177.5C 111.17,171.804 111.67,166.138 112.5,160.5C 115.198,177.696 118.198,194.696 121.5,211.5 Z"/></g>
<g><path style="opacity:0.122" fill="#d5a7b9" d="M 115.5,201.5 C 114.248,195.813 112.914,190.147 111.5,184.5C 111.369,183.761 111.536,183.094 112,182.5C 114.32,188.553 115.486,194.887 115.5,201.5 Z"/></g>
<g><path style="opacity:0.133" fill="#d2b1be" d="M 108.5,191.5 C 108.008,193.819 107.008,195.819 105.5,197.5C 105.461,194.911 106.461,192.911 108.5,191.5 Z"/></g>
<g><path style="opacity:0.11" fill="#e0bccb" d="M 110.5,186.5 C 110.598,188.553 109.931,190.22 108.5,191.5C 108.402,189.447 109.069,187.78 110.5,186.5 Z"/></g>
<g><path style="opacity:0.086" fill="#eac5d5" d="M 116.5,207.5 C 118.246,212.572 119.246,217.905 119.5,223.5C 117.754,218.428 116.754,213.095 116.5,207.5 Z"/></g>
<g><path style="opacity:0.549" fill="#bc8ea0" d="M 46.5,201.5 C 45.8429,206.824 43.8429,211.49 40.5,215.5C 41.9884,210.533 43.9884,205.866 46.5,201.5 Z"/></g>
<g><path style="opacity:0.11" fill="#d7a9b8" d="M 99.5,209.5 C 99.3404,211.153 98.6737,212.486 97.5,213.5C 97.5,212.833 97.5,212.167 97.5,211.5C 97.8333,210.5 98.5,209.833 99.5,209.5 Z"/></g>
<g><path style="opacity:0.329" fill="#caa0b0" d="M 40.5,215.5 C 40.7406,217.898 40.0739,219.898 38.5,221.5C 38.595,219.214 39.2616,217.214 40.5,215.5 Z"/></g>
<g><path style="opacity:0.145" fill="#e1b7ca" d="M 280.5,209.5 C 281.821,213.233 281.821,217.066 280.5,221C 281.464,222.725 282.131,224.559 282.5,226.5C 282.167,226.5 281.833,226.5 281.5,226.5C 280.744,224.733 280.077,222.9 279.5,221C 280.394,217.224 280.728,213.39 280.5,209.5 Z"/></g>
<g><path style="opacity:0.18" fill="#e9b2c9" d="M 43.5,231.5 C 45.5518,232.053 45.8852,233.053 44.5,234.5C 44.4431,233.391 44.1098,232.391 43.5,231.5 Z"/></g>
<g><path style="opacity:0.196" fill="#b2919c" d="M 44.5,239.5 C 45.1667,239.5 45.8333,239.5 46.5,239.5C 46.8333,240.167 47.1667,240.833 47.5,241.5C 45.9731,241.573 44.9731,240.906 44.5,239.5 Z"/></g>
<g><path style="opacity:0.698" fill="#87465d" d="M 281.5,226.5 C 281.833,226.5 282.167,226.5 282.5,226.5C 284.048,229.258 283.715,231.758 281.5,234C 267.169,239.276 252.836,244.443 238.5,249.5C 236.102,249.259 234.102,249.926 232.5,251.5C 230.447,251.402 228.78,252.069 227.5,253.5C 200.387,263.87 172.72,272.87 144.5,280.5C 142.626,280.61 141.126,279.944 140,278.5C 138.5,275.5 137,272.5 135.5,269.5C 132.074,267.08 129.408,264.08 127.5,260.5C 127.833,260.5 128.167,260.5 128.5,260.5C 129.5,260.167 130.167,259.5 130.5,258.5C 131.224,260.218 131.891,262.052 132.5,264C 135.787,265.304 138.787,266.97 141.5,269C 140.978,269.95 140.311,270.784 139.5,271.5C 140.752,273.001 141.752,274.668 142.5,276.5C 144.074,277.631 145.741,277.798 147.5,277C 192.199,262.656 236.532,247.156 280.5,230.5C 279.873,229.583 279.539,228.583 279.5,227.5C 280.492,227.672 281.158,227.338 281.5,226.5 Z"/></g>
<g><path style="opacity:0.969" fill="#824058" d="M 94.5,211.5 C 95.5,211.5 96.5,211.5 97.5,211.5C 97.5,212.167 97.5,212.833 97.5,213.5C 93.2774,221.607 88.7774,229.607 84,237.5C 82.6181,240.043 80.7848,242.043 78.5,243.5C 72.1737,241.841 69.1737,244.174 69.5,250.5C 67.6575,251.075 65.6575,250.909 63.5,250C 57.9466,247.392 52.6132,244.559 47.5,241.5C 47.1667,240.833 46.8333,240.167 46.5,239.5C 47.1667,239.5 47.8333,239.5 48.5,239.5C 55.1673,242.167 61.834,244.834 68.5,247.5C 68.5,245.833 68.5,244.167 68.5,242.5C 65.2259,241.86 62.5592,240.193 60.5,237.5C 60.8333,237.167 61.1667,236.833 61.5,236.5C 66.4546,239.739 71.788,241.072 77.5,240.5C 83.6605,231.034 89.3272,221.367 94.5,211.5 Z"/></g>
<g><path style="opacity:0.012" fill="#e3c5d1" d="M 123.5,241.5 C 125.04,243.838 125.706,246.505 125.5,249.5C 124.232,247.095 123.565,244.428 123.5,241.5 Z"/></g>
<g><path style="opacity:0.663" fill="#a47184" d="M 78.5,243.5 C 77.0484,244.302 75.3817,244.802 73.5,245C 72.2509,246.98 70.9176,248.813 69.5,250.5C 69.1737,244.174 72.1737,241.841 78.5,243.5 Z"/></g>
<g><path style="opacity:0.11" fill="#c293a5" d="M 238.5,249.5 C 236.786,250.738 234.786,251.405 232.5,251.5C 234.102,249.926 236.102,249.259 238.5,249.5 Z"/></g>
<g><path style="opacity:0.067" fill="#e0b2c4" d="M 125.5,249.5 C 126.945,252.937 127.945,256.603 128.5,260.5C 128.167,260.5 127.833,260.5 127.5,260.5C 126.358,256.929 125.691,253.262 125.5,249.5 Z"/></g>
<g><path style="opacity:0.051" fill="#e3bbcc" d="M 232.5,251.5 C 231.22,252.931 229.553,253.598 227.5,253.5C 228.78,252.069 230.447,251.402 232.5,251.5 Z"/></g>
<g><path style="opacity:1" fill="#f9bfd9" d="M 185.5,251.5 C 171.305,255.717 157.305,260.55 143.5,266C 144.167,266.167 144.833,266.333 145.5,266.5C 168.05,260.094 190.383,253.094 212.5,245.5C 214.401,245.567 216.234,245.233 218,244.5C 218.349,245.473 219.182,246.306 220.5,247C 224.275,247.075 227.942,247.075 231.5,247C 231.5,246 231.5,245 231.5,244C 229.874,244.195 228.207,244.195 226.5,244C 229.07,243.277 231.403,242.11 233.5,240.5C 234.328,241.415 235.328,242.081 236.5,242.5C 239.145,241.892 241.812,241.392 244.5,241C 241.569,240.239 239.903,238.406 239.5,235.5C 247.493,233.449 255.493,231.282 263.5,229C 266.272,227.943 268.605,226.443 270.5,224.5C 271.072,223.027 271.905,221.693 273,220.5C 273.156,213.438 273.323,206.438 273.5,199.5C 276.71,205.363 277.877,211.696 277,218.5C 274.685,220.535 273.852,222.868 274.5,225.5C 275.258,224.189 276.258,223.689 277.5,224C 278.085,225.302 278.751,226.469 279.5,227.5C 279.539,228.583 279.873,229.583 280.5,230.5C 236.532,247.156 192.199,262.656 147.5,277C 145.741,277.798 144.074,277.631 142.5,276.5C 141.752,274.668 140.752,273.001 139.5,271.5C 140.311,270.784 140.978,269.95 141.5,269C 138.787,266.97 135.787,265.304 132.5,264C 131.891,262.052 131.224,260.218 130.5,258.5C 127.345,242.876 124.345,227.209 121.5,211.5C 121.176,207.445 121.509,203.445 122.5,199.5C 123.425,198.359 124.259,198.359 125,199.5C 125.935,201.909 126.435,204.409 126.5,207C 126.221,212.519 125.888,212.686 125.5,207.5C 124.5,207.5 123.5,207.5 122.5,207.5C 122.678,210.216 123.178,212.883 124,215.5C 124.333,214.5 124.667,213.5 125,212.5C 126.201,220.474 127.201,228.474 128,236.5C 132.099,239.591 132.932,243.257 130.5,247.5C 132.037,250.11 132.871,252.777 133,255.5C 133.333,254.833 133.667,254.167 134,253.5C 135.113,254.76 135.28,255.927 134.5,257C 137.387,259.069 140.054,261.236 142.5,263.5C 142.895,261.626 144.228,260.126 146.5,259C 145.5,258.667 144.5,258.333 143.5,258C 145.129,257.415 146.629,256.581 148,255.5C 154.177,255.987 161.011,255.987 168.5,255.5C 168.959,250.16 171.959,247.993 177.5,249C 176.167,248.667 174.833,248.333 173.5,248C 176.866,247.67 180.199,248.003 183.5,249C 183.167,249.333 182.833,249.667 182.5,250C 183.737,250.232 184.737,250.732 185.5,251.5 Z"/></g>
<g><path style="opacity:1" fill="#782f4b" d="M 212.5,245.5 C 190.383,253.094 168.05,260.094 145.5,266.5C 144.833,266.333 144.167,266.167 143.5,266C 157.305,260.55 171.305,255.717 185.5,251.5C 197.826,247.516 210.159,243.516 222.5,239.5C 223.167,239.667 223.833,239.833 224.5,240C 220.559,242.139 216.559,243.972 212.5,245.5 Z"/></g>
<g><path style="opacity:1" fill="#7d3350" d="M 270.5,224.5 C 268.605,226.443 266.272,227.943 263.5,229C 255.493,231.282 247.493,233.449 239.5,235.5C 238.325,235.719 237.325,235.386 236.5,234.5C 237,234.167 237.5,233.833 238,233.5C 248.68,229.771 259.513,226.771 270.5,224.5 Z"/></g>
</svg>
