<?xml version="1.0" encoding="UTF-8"?>
<!DOCTYPE svg PUBLIC "-//W3C//DTD SVG 1.1//EN" "http://www.w3.org/Graphics/SVG/1.1/DTD/svg11.dtd">
<svg xmlns="http://www.w3.org/2000/svg" version="1.1" width="360px" height="360px" style="shape-rendering:geometricPrecision; text-rendering:geometricPrecision; image-rendering:optimizeQuality; fill-rule:evenodd; clip-rule:evenodd" xmlns:xlink="http://www.w3.org/1999/xlink">
<g><path style="opacity:0.604" fill="#776266" d="M 216.5,48.5 C 216.784,50.4147 216.451,52.0813 215.5,53.5C 215.167,52.5 214.5,51.8333 213.5,51.5C 213.7,48.3704 214.366,45.3704 215.5,42.5C 216.738,40.7857 217.405,38.7857 217.5,36.5C 218.65,35.1498 219.317,35.3164 219.5,37C 217.982,40.7175 216.982,44.5508 216.5,48.5 Z"/></g>
<g><path style="opacity:0.022" fill="#f7e9ed" d="M 217.5,36.5 C 217.405,38.7857 216.738,40.7857 215.5,42.5C 215.259,40.1016 215.926,38.1016 217.5,36.5 Z"/></g>
<g><path style="opacity:0.033" fill="#e8dade" d="M 216.5,48.5 C 216.982,44.5508 217.982,40.7175 219.5,37C 219.317,35.3164 218.65,35.1498 217.5,36.5C 217.821,34.9519 218.821,34.2852 220.5,34.5C 220.15,39.5395 218.816,44.2062 216.5,48.5 Z"/></g>
<g><path style="opacity:0.675" fill="#ad999d" d="M 156.5,57.5 C 155.542,57.0472 154.708,56.3805 154,55.5C 153.333,52.8333 152.667,50.1667 152,47.5C 151.506,49.1341 151.34,50.8008 151.5,52.5C 149.932,47.4285 148.265,42.2619 146.5,37C 147.254,33.9122 148.42,33.7455 150,36.5C 152.026,43.6222 154.193,50.6222 156.5,57.5 Z"/></g>
<g><path style="opacity:0.396" fill="#dcbcc2" d="M 213.5,51.5 C 213.843,53.4832 213.176,54.8166 211.5,55.5C 211.989,54.0048 212.655,52.6715 213.5,51.5 Z"/></g>
<g><path style="opacity:0.392" fill="#b17481" d="M 156.5,57.5 C 158.587,58.5846 159.92,60.2512 160.5,62.5C 158.413,61.4154 157.08,59.7488 156.5,57.5 Z"/></g>
<g><path style="opacity:0.153" fill="#d5b0ba" d="M 207.5,60.5 C 207.573,62.0269 206.906,63.0269 205.5,63.5C 205.427,61.9731 206.094,60.9731 207.5,60.5 Z"/></g>
<g><path style="opacity:0.204" fill="#c7999f" d="M 205.5,63.5 C 205.262,65.4044 204.262,66.7377 202.5,67.5C 202.738,65.5956 203.738,64.2623 205.5,63.5 Z"/></g>
<g><path style="opacity:0.149" fill="#d2a1a9" d="M 160.5,62.5 C 162.587,63.5846 163.92,65.2512 164.5,67.5C 162.413,66.4154 161.08,64.7488 160.5,62.5 Z"/></g>
<g><path style="opacity:1" fill="#630316" d="M 188.5,111.5 C 187.833,111.5 187.5,111.833 187.5,112.5C 183.742,117.435 179.742,122.268 175.5,127C 174.668,127.688 174.002,127.521 173.5,126.5C 179.221,121.272 184.055,115.272 188,108.5C 195.576,91.6819 203.41,75.0152 211.5,58.5C 212.365,57.4173 213.365,57.2506 214.5,58C 204.637,75.227 195.97,93.0604 188.5,111.5 Z"/></g>
<g><path style="opacity:0.659" fill="#b26b7c" d="M 149.5,66.5 C 149.498,70.1645 148.165,73.1645 145.5,75.5C 146.075,72.0884 147.408,69.0884 149.5,66.5 Z"/></g>
<g><path style="opacity:0.176" fill="#d5a4b0" d="M 164.5,67.5 C 165.906,67.9731 166.573,68.9731 166.5,70.5C 165.094,70.0269 164.427,69.0269 164.5,67.5 Z"/></g>
<g><path style="opacity:0.188" fill="#dbabb6" d="M 202.5,67.5 C 202.262,69.4044 201.262,70.7377 199.5,71.5C 199.738,69.5956 200.738,68.2623 202.5,67.5 Z"/></g>
<g><path style="opacity:1" fill="#992941" d="M 223.5,79.5 C 223.339,82.5279 224.006,85.3612 225.5,88C 223.894,92.0122 223.228,96.1789 223.5,100.5C 220.897,111.36 220.063,122.36 221,133.5C 228.729,149.62 235.895,165.954 242.5,182.5C 241.5,181.167 240.5,181.167 239.5,182.5C 239.005,180.518 238.505,178.518 238,176.5C 237.333,179.167 236.667,179.167 236,176.5C 233.31,177.459 232.976,176.792 235,174.5C 235.718,175.451 236.551,175.617 237.5,175C 236.114,172.254 234.447,169.754 232.5,167.5C 231.808,168.025 231.308,168.692 231,169.5C 230.5,168.333 229.667,167.5 228.5,167C 230.487,164.53 230.987,161.697 230,158.5C 229.333,159.167 228.667,159.833 228,160.5C 228.179,155.038 226.846,150.038 224,145.5C 223.667,145.833 223.333,146.167 223,146.5C 223.01,142.003 221.343,138.336 218,135.5C 216.389,127.917 215.389,120.251 215,112.5C 214.667,112.167 214.333,111.833 214,111.5C 213.333,116.833 213.333,122.167 214,127.5C 216.97,128.59 217.303,130.256 215,132.5C 214.601,132.272 214.435,131.938 214.5,131.5C 210.167,130.833 205.833,130.167 201.5,129.5C 205.514,129.666 209.514,129.499 213.5,129C 212.5,128.667 211.5,128.333 210.5,128C 211.696,127.346 211.696,126.846 210.5,126.5C 207.451,128.466 204.118,128.966 200.5,128C 201.888,127.111 201.722,126.611 200,126.5C 196.762,128.427 193.262,128.927 189.5,128C 192.661,126.587 195.661,124.92 198.5,123C 194.647,123.963 190.647,124.963 186.5,126C 185.328,128.055 183.661,128.722 181.5,128C 183.017,126.315 184.684,124.815 186.5,123.5C 186.376,122.893 186.043,122.56 185.5,122.5C 187.059,120.392 188.392,118.059 189.5,115.5C 189.058,114.261 188.391,113.261 187.5,112.5C 187.5,111.833 187.833,111.5 188.5,111.5C 189.496,111.586 190.329,111.252 191,110.5C 191.931,108.541 192.764,106.541 193.5,104.5C 194.689,103.571 196.022,103.238 197.5,103.5C 197.693,99.551 198.193,99.551 199,103.5C 199.483,102.552 199.649,101.552 199.5,100.5C 202.167,100.5 204.833,100.5 207.5,100.5C 206.793,95.1441 204.793,90.3108 201.5,86C 202.569,81.9985 205.069,79.4985 209,78.5C 208.562,75.8014 208.728,73.1347 209.5,70.5C 211.658,73.1485 212.992,76.1485 213.5,79.5C 214.552,79.3505 215.552,79.5172 216.5,80C 217.305,81.9717 218.639,83.4717 220.5,84.5C 222.645,83.3175 222.645,81.8175 220.5,80C 221.448,79.5172 222.448,79.3505 223.5,79.5 Z"/></g>
<g><path style="opacity:0.22" fill="#dbb2bb" d="M 166.5,70.5 C 168.262,71.2623 169.262,72.5956 169.5,74.5C 167.738,73.7377 166.738,72.4044 166.5,70.5 Z"/></g>
<g><path style="opacity:0.133" fill="#ebcad0" d="M 199.5,71.5 C 199.573,73.0269 198.906,74.0269 197.5,74.5C 197.427,72.9731 198.094,71.9731 199.5,71.5 Z"/></g>
<g><path style="opacity:0.133" fill="#ecbecb" d="M 169.5,74.5 C 170.906,74.9731 171.573,75.9731 171.5,77.5C 170.094,77.0269 169.427,76.0269 169.5,74.5 Z"/></g>
<g><path style="opacity:1" fill="#97233d" d="M 156.5,57.5 C 157.08,59.7488 158.413,61.4154 160.5,62.5C 161.08,64.7488 162.413,66.4154 164.5,67.5C 164.427,69.0269 165.094,70.0269 166.5,70.5C 166.738,72.4044 167.738,73.7377 169.5,74.5C 169.427,76.0269 170.094,77.0269 171.5,77.5C 171.427,79.0269 172.094,80.0269 173.5,80.5C 173.241,82.9893 174.241,84.656 176.5,85.5C 176.427,87.0269 177.094,88.0269 178.5,88.5C 180.145,91.3139 181.478,94.3139 182.5,97.5C 181.066,100.047 179.4,102.381 177.5,104.5C 174.726,99.7053 172.226,94.7053 170,89.5C 171.142,95.6352 173.309,101.469 176.5,107C 173.319,112.331 169.986,117.498 166.5,122.5C 165.238,119.929 163.905,119.929 162.5,122.5C 161.614,121.675 161.281,120.675 161.5,119.5C 160.5,119.5 159.5,119.5 158.5,119.5C 158.906,117.891 158.906,116.557 158.5,115.5C 156.183,117.316 154.016,119.316 152,121.5C 151.871,113.106 151.204,104.772 150,96.5C 148.817,95.269 147.651,95.269 146.5,96.5C 145.902,97.7946 145.402,99.1279 145,100.5C 144.768,99.2625 144.268,98.2625 143.5,97.5C 143.599,94.3273 142.932,91.3273 141.5,88.5C 142.637,84.893 144.304,81.5596 146.5,78.5C 145.873,77.5832 145.539,76.5832 145.5,75.5C 148.165,73.1645 149.498,70.1645 149.5,66.5C 150.984,61.9673 151.65,57.3007 151.5,52.5C 151.34,50.8008 151.506,49.1341 152,47.5C 152.667,50.1667 153.333,52.8333 154,55.5C 154.708,56.3805 155.542,57.0472 156.5,57.5 Z"/></g>
<g><path style="opacity:0.106" fill="#f1c3ce" d="M 171.5,77.5 C 172.906,77.9731 173.573,78.9731 173.5,80.5C 172.094,80.0269 171.427,79.0269 171.5,77.5 Z"/></g>
<g><path style="opacity:0.898" fill="#ba6e79" d="M 197.5,74.5 C 196.978,77.2529 196.144,79.9196 195,82.5C 194.23,81.4019 193.397,81.4019 192.5,82.5C 193.383,79.2957 195.05,76.6291 197.5,74.5 Z"/></g>
<g><path style="opacity:0.82" fill="#b37981" d="M 173.5,80.5 C 174.89,81.8993 175.89,83.5659 176.5,85.5C 174.241,84.656 173.241,82.9893 173.5,80.5 Z"/></g>
<g><path style="opacity:0.176" fill="#d8adb9" d="M 192.5,82.5 C 192.573,84.0269 191.906,85.0269 190.5,85.5C 190.427,83.9731 191.094,82.9731 192.5,82.5 Z"/></g>
<g><path style="opacity:0.976" fill="#9d4958" d="M 145.5,75.5 C 145.539,76.5832 145.873,77.5832 146.5,78.5C 144.304,81.5596 142.637,84.893 141.5,88.5C 142.932,91.3273 143.599,94.3273 143.5,97.5C 143.5,98.5 143.5,99.5 143.5,100.5C 140.601,95.6148 139.434,90.2815 140,84.5C 141.859,81.4362 143.692,78.4362 145.5,75.5 Z"/></g>
<g><path style="opacity:0.039" fill="#f8d5db" d="M 176.5,85.5 C 181.167,88.1667 185.833,88.1667 190.5,85.5C 190.573,87.0269 189.906,88.0269 188.5,88.5C 185.167,88.5 181.833,88.5 178.5,88.5C 177.094,88.0269 176.427,87.0269 176.5,85.5 Z"/></g>
<g><path style="opacity:1" fill="#95263f" d="M 213.5,51.5 C 214.5,51.8333 215.167,52.5 215.5,53.5C 216.351,62.7191 219.017,71.3858 223.5,79.5C 222.448,79.3505 221.448,79.5172 220.5,80C 222.645,81.8175 222.645,83.3175 220.5,84.5C 218.639,83.4717 217.305,81.9717 216.5,80C 215.552,79.5172 214.552,79.3505 213.5,79.5C 212.992,76.1485 211.658,73.1485 209.5,70.5C 208.728,73.1347 208.562,75.8014 209,78.5C 205.069,79.4985 202.569,81.9985 201.5,86C 204.793,90.3108 206.793,95.1441 207.5,100.5C 204.833,100.5 202.167,100.5 199.5,100.5C 199.649,101.552 199.483,102.552 199,103.5C 198.193,99.551 197.693,99.551 197.5,103.5C 196.022,103.238 194.689,103.571 193.5,104.5C 192.764,106.541 191.931,108.541 191,110.5C 190.329,111.252 189.496,111.586 188.5,111.5C 195.97,93.0604 204.637,75.227 214.5,58C 213.365,57.2506 212.365,57.4173 211.5,58.5C 203.41,75.0152 195.576,91.6819 188,108.5C 184.055,115.272 179.221,121.272 173.5,126.5C 174.002,127.521 174.668,127.688 175.5,127C 179.742,122.268 183.742,117.435 187.5,112.5C 188.391,113.261 189.058,114.261 189.5,115.5C 188.392,118.059 187.059,120.392 185.5,122.5C 182.834,123.842 180.501,125.675 178.5,128C 174.129,128.828 169.795,128.661 165.5,127.5C 170.804,119.031 176.304,110.698 182,102.5C 183.897,97.6121 186.063,92.9454 188.5,88.5C 189.906,88.0269 190.573,87.0269 190.5,85.5C 191.906,85.0269 192.573,84.0269 192.5,82.5C 193.397,81.4019 194.23,81.4019 195,82.5C 196.144,79.9196 196.978,77.2529 197.5,74.5C 198.906,74.0269 199.573,73.0269 199.5,71.5C 201.262,70.7377 202.262,69.4044 202.5,67.5C 204.262,66.7377 205.262,65.4044 205.5,63.5C 206.906,63.0269 207.573,62.0269 207.5,60.5C 208.604,58.6115 209.937,56.9448 211.5,55.5C 213.176,54.8166 213.843,53.4832 213.5,51.5 Z"/></g>
<g><path style="opacity:0.847" fill="#9e5563" d="M 223.5,79.5 C 225.618,82.076 226.951,85.076 227.5,88.5C 226.673,92.7862 225.34,96.7862 223.5,100.5C 223.228,96.1789 223.894,92.0122 225.5,88C 224.006,85.3612 223.339,82.5279 223.5,79.5 Z"/></g>
<g><path style="opacity:0.345" fill="#cf98a3" d="M 143.5,101.5 C 145.755,105.766 146.755,110.432 146.5,115.5C 145.266,111.006 144.266,106.339 143.5,101.5 Z"/></g>
<g><path style="opacity:1" fill="#650619" d="M 178.5,88.5 C 181.833,88.5 185.167,88.5 188.5,88.5C 186.063,92.9454 183.897,97.6121 182,102.5C 176.304,110.698 170.804,119.031 165.5,127.5C 169.795,128.661 174.129,128.828 178.5,128C 180.501,125.675 182.834,123.842 185.5,122.5C 186.043,122.56 186.376,122.893 186.5,123.5C 184.684,124.815 183.017,126.315 181.5,128C 183.661,128.722 185.328,128.055 186.5,126C 190.647,124.963 194.647,123.963 198.5,123C 195.661,124.92 192.661,126.587 189.5,128C 193.262,128.927 196.762,128.427 200,126.5C 201.722,126.611 201.888,127.111 200.5,128C 204.118,128.966 207.451,128.466 210.5,126.5C 211.696,126.846 211.696,127.346 210.5,128C 211.5,128.333 212.5,128.667 213.5,129C 209.514,129.499 205.514,129.666 201.5,129.5C 183.868,130.806 166.201,130.806 148.5,129.5C 153.5,128.833 158.5,128.167 163.5,127.5C 164.763,125.971 165.763,124.305 166.5,122.5C 169.986,117.498 173.319,112.331 176.5,107C 173.309,101.469 171.142,95.6352 170,89.5C 172.226,94.7053 174.726,99.7053 177.5,104.5C 179.4,102.381 181.066,100.047 182.5,97.5C 181.478,94.3139 180.145,91.3139 178.5,88.5 Z"/></g>
<g><path style="opacity:1" fill="#941e39" d="M 239.5,182.5 C 239.698,184.575 239.865,186.575 240,188.5C 238.956,187.377 238.29,186.044 238,184.5C 237.667,186.5 237.333,188.5 237,190.5C 235.644,191.38 234.144,191.714 232.5,191.5C 232.489,189.453 232.156,187.453 231.5,185.5C 229.664,181.881 227.664,178.547 225.5,175.5C 222.959,166.028 219.793,156.695 216,147.5C 217.965,157.575 220.465,167.575 223.5,177.5C 222.911,181.869 222.078,186.202 221,190.5C 220.231,187.901 220.398,185.401 221.5,183C 220.809,181.933 220.309,180.766 220,179.5C 218.209,181.513 216.875,181.513 216,179.5C 214.589,170.685 212.589,162.018 210,153.5C 210.616,161.538 211.783,169.538 213.5,177.5C 213.588,179.712 213.088,181.712 212,183.5C 212.329,179.133 211.663,174.799 210,170.5C 209.727,173.393 208.893,176.06 207.5,178.5C 208.793,184.433 209.627,190.433 210,196.5C 212.501,198.318 213.667,200.818 213.5,204C 212.697,209.137 212.364,214.303 212.5,219.5C 210.241,205.536 207.575,191.536 204.5,177.5C 204.167,178.167 203.833,178.833 203.5,179.5C 207.094,200.468 210.427,221.468 213.5,242.5C 210.805,239.421 209.472,235.755 209.5,231.5C 207.821,231.285 206.821,231.952 206.5,233.5C 204.616,223.365 203.116,213.032 202,202.5C 201.577,209.509 201.744,216.509 202.5,223.5C 200.715,218.933 199.882,213.933 200,208.5C 199.586,208.043 199.086,207.709 198.5,207.5C 197.505,212.792 197.172,218.125 197.5,223.5C 195.983,218.414 195.15,213.081 195,207.5C 194.992,215.644 193.992,223.644 192,231.5C 191.667,230.833 191.333,230.167 191,229.5C 190.077,230.759 189.243,232.092 188.5,233.5C 187.833,230.5 187.167,227.5 186.5,224.5C 185.822,240.343 184.822,256.01 183.5,271.5C 184.161,228.487 183.495,185.82 181.5,143.5C 181.4,140.333 182.067,137.333 183.5,134.5C 188.845,132.674 194.345,131.674 200,131.5C 204.941,132.02 209.775,132.02 214.5,131.5C 214.435,131.938 214.601,132.272 215,132.5C 217.303,130.256 216.97,128.59 214,127.5C 213.333,122.167 213.333,116.833 214,111.5C 214.333,111.833 214.667,112.167 215,112.5C 215.389,120.251 216.389,127.917 218,135.5C 221.343,138.336 223.01,142.003 223,146.5C 223.333,146.167 223.667,145.833 224,145.5C 226.846,150.038 228.179,155.038 228,160.5C 228.667,159.833 229.333,159.167 230,158.5C 230.987,161.697 230.487,164.53 228.5,167C 229.667,167.5 230.5,168.333 231,169.5C 231.308,168.692 231.808,168.025 232.5,167.5C 234.447,169.754 236.114,172.254 237.5,175C 236.551,175.617 235.718,175.451 235,174.5C 232.976,176.792 233.31,177.459 236,176.5C 236.667,179.167 237.333,179.167 238,176.5C 238.505,178.518 239.005,180.518 239.5,182.5 Z"/></g>
<g><path style="opacity:1" fill="#94283f" d="M 166.5,122.5 C 165.763,124.305 164.763,125.971 163.5,127.5C 158.5,128.167 153.5,128.833 148.5,129.5C 166.201,130.806 183.868,130.806 201.5,129.5C 205.833,130.167 210.167,130.833 214.5,131.5C 209.775,132.02 204.941,132.02 200,131.5C 194.345,131.674 188.845,132.674 183.5,134.5C 182.067,137.333 181.4,140.333 181.5,143.5C 181.5,170.167 181.5,196.833 181.5,223.5C 180.506,213.013 180.172,202.346 180.5,191.5C 180.833,172.488 180.5,153.488 179.5,134.5C 178.604,137.144 177.771,139.81 177,142.5C 176.5,142 176,141.5 175.5,141C 175.977,138.101 176.977,135.434 178.5,133C 169.198,131.228 159.864,131.395 150.5,133.5C 151.325,134.386 152.325,134.719 153.5,134.5C 153.666,140.176 153.499,145.843 153,151.5C 151.09,154.35 149.924,157.517 149.5,161C 150.072,163.074 151.405,164.24 153.5,164.5C 152.777,167.822 151.943,171.155 151,174.5C 150.667,172.5 150.333,170.5 150,168.5C 148.933,169.191 147.766,169.691 146.5,170C 144.86,173.998 143.693,178.164 143,182.5C 142.617,183.056 142.117,183.389 141.5,183.5C 144.757,170.728 148.423,158.061 152.5,145.5C 152.333,144.833 152.167,144.167 152,143.5C 149.519,148.815 147.353,154.148 145.5,159.5C 145.336,156.813 145.503,154.146 146,151.5C 148.123,147.234 149.623,142.734 150.5,138C 150.167,137.833 149.833,137.667 149.5,137.5C 148.449,138.885 147.116,139.885 145.5,140.5C 144.679,143.447 144.179,146.447 144,149.5C 143,152.167 142,152.167 141,149.5C 139.772,153.059 138.106,156.392 136,159.5C 135.506,161.134 135.34,162.801 135.5,164.5C 134.5,164.5 133.5,164.5 132.5,164.5C 136.508,153.984 141.008,143.651 146,133.5C 146.499,127.509 146.666,121.509 146.5,115.5C 146.755,110.432 145.755,105.766 143.5,101.5C 143.5,101.167 143.5,100.833 143.5,100.5C 143.5,99.5 143.5,98.5 143.5,97.5C 144.268,98.2625 144.768,99.2625 145,100.5C 145.402,99.1279 145.902,97.7946 146.5,96.5C 147.651,95.269 148.817,95.269 150,96.5C 151.204,104.772 151.871,113.106 152,121.5C 154.016,119.316 156.183,117.316 158.5,115.5C 158.906,116.557 158.906,117.891 158.5,119.5C 159.5,119.5 160.5,119.5 161.5,119.5C 161.281,120.675 161.614,121.675 162.5,122.5C 163.905,119.929 165.238,119.929 166.5,122.5 Z"/></g>
<g><path style="opacity:1" fill="#951f39" d="M 180.5,191.5 C 179.5,191.5 178.5,191.5 177.5,191.5C 177.5,196.833 177.5,202.167 177.5,207.5C 176.167,207.5 174.833,207.5 173.5,207.5C 173.544,203.314 173.877,199.147 174.5,195C 174.506,192.7 174.006,190.534 173,188.5C 172.26,194.158 171.594,199.825 171,205.5C 170.667,203.5 170.333,201.5 170,199.5C 169,201.167 168,202.833 167,204.5C 166.94,197.497 166.94,190.497 167,183.5C 166.472,189.568 165.639,195.568 164.5,201.5C 163.442,200.4 162.608,199.066 162,197.5C 161.608,200.188 161.108,202.855 160.5,205.5C 160.253,206.713 159.586,207.38 158.5,207.5C 159.066,200.773 160.066,194.106 161.5,187.5C 161.472,183.101 160.972,182.768 160,186.5C 157.482,198.908 155.315,211.241 153.5,223.5C 153.953,214.495 154.12,205.495 154,196.5C 153.667,198.833 153.333,201.167 153,203.5C 152.667,199.5 152.333,195.5 152,191.5C 151.244,195.758 150.077,199.758 148.5,203.5C 147.751,202.469 147.085,201.302 146.5,200C 147.045,196.112 148.545,192.612 151,189.5C 152.2,177.962 154.367,166.628 157.5,155.5C 157.518,153.627 157.018,153.294 156,154.5C 154.974,157.802 154.14,161.135 153.5,164.5C 151.405,164.24 150.072,163.074 149.5,161C 149.924,157.517 151.09,154.35 153,151.5C 153.499,145.843 153.666,140.176 153.5,134.5C 152.325,134.719 151.325,134.386 150.5,133.5C 159.864,131.395 169.198,131.228 178.5,133C 176.977,135.434 175.977,138.101 175.5,141C 176,141.5 176.5,142 177,142.5C 177.771,139.81 178.604,137.144 179.5,134.5C 180.5,153.488 180.833,172.488 180.5,191.5 Z"/></g>
<g><path style="opacity:1" fill="#610315" d="M 225.5,175.5 C 227.091,180.753 227.924,186.087 228,191.5C 227.053,186.53 225.553,181.863 223.5,177.5C 220.465,167.575 217.965,157.575 216,147.5C 219.793,156.695 222.959,166.028 225.5,175.5 Z"/></g>
<g><path style="opacity:1" fill="#630417" d="M 141.5,183.5 C 140.257,185.964 139.257,188.63 138.5,191.5C 138.167,190.833 137.833,190.167 137.5,189.5C 140.169,179.469 142.836,169.469 145.5,159.5C 147.353,154.148 149.519,148.815 152,143.5C 152.167,144.167 152.333,144.833 152.5,145.5C 148.423,158.061 144.757,170.728 141.5,183.5 Z"/></g>
<g><path style="opacity:1" fill="#8f1932" d="M 145.5,159.5 C 142.836,169.469 140.169,179.469 137.5,189.5C 137.833,190.167 138.167,190.833 138.5,191.5C 139.257,188.63 140.257,185.964 141.5,183.5C 142.117,183.389 142.617,183.056 143,182.5C 143.693,178.164 144.86,173.998 146.5,170C 147.766,169.691 148.933,169.191 150,168.5C 150.333,170.5 150.667,172.5 151,174.5C 151.943,171.155 152.777,167.822 153.5,164.5C 154.14,161.135 154.974,157.802 156,154.5C 157.018,153.294 157.518,153.627 157.5,155.5C 154.367,166.628 152.2,177.962 151,189.5C 148.545,192.612 147.045,196.112 146.5,200C 147.085,201.302 147.751,202.469 148.5,203.5C 148.539,204.583 148.873,205.583 149.5,206.5C 148.273,209.381 146.773,212.047 145,214.5C 144.667,217.167 144.333,219.833 144,222.5C 143.51,221.207 143.343,219.873 143.5,218.5C 140.833,218.5 138.167,218.5 135.5,218.5C 135.5,216.833 135.5,215.167 135.5,213.5C 132.212,213.927 129.212,213.26 126.5,211.5C 125.194,212.912 124.36,214.579 124,216.5C 120.078,217.73 116.411,217.064 113,214.5C 111.731,215.905 111.231,217.571 111.5,219.5C 110.391,219.557 109.391,219.89 108.5,220.5C 115.553,201.312 123.553,182.645 132.5,164.5C 133.5,164.5 134.5,164.5 135.5,164.5C 135.34,162.801 135.506,161.134 136,159.5C 138.106,156.392 139.772,153.059 141,149.5C 142,152.167 143,152.167 144,149.5C 144.179,146.447 144.679,143.447 145.5,140.5C 147.116,139.885 148.449,138.885 149.5,137.5C 149.833,137.667 150.167,137.833 150.5,138C 149.623,142.734 148.123,147.234 146,151.5C 145.503,154.146 145.336,156.813 145.5,159.5 Z"/></g>
<g><path style="opacity:1" fill="#911733" d="M 223.5,177.5 C 225.553,181.863 227.053,186.53 228,191.5C 227.924,186.087 227.091,180.753 225.5,175.5C 227.664,178.547 229.664,181.881 231.5,185.5C 232.156,187.453 232.489,189.453 232.5,191.5C 234.144,191.714 235.644,191.38 237,190.5C 237.333,188.5 237.667,186.5 238,184.5C 238.29,186.044 238.956,187.377 240,188.5C 239.865,186.575 239.698,184.575 239.5,182.5C 240.5,181.167 241.5,181.167 242.5,182.5C 245.107,188.048 247.44,193.715 249.5,199.5C 248.406,202.668 248.406,206.001 249.5,209.5C 248.68,214.649 247.347,214.649 245.5,209.5C 247.447,207.724 247.78,205.724 246.5,203.5C 245.738,204.628 245.071,205.795 244.5,207C 242.744,207.202 241.078,207.702 239.5,208.5C 241.184,211.612 241.85,214.946 241.5,218.5C 234.436,218.434 227.769,219.934 221.5,223C 221.688,228.388 221.354,233.888 220.5,239.5C 218.187,229.003 216.854,218.337 216.5,207.5C 214.812,212.99 213.812,218.324 213.5,223.5C 212.566,222.432 212.232,221.099 212.5,219.5C 212.364,214.303 212.697,209.137 213.5,204C 213.667,200.818 212.501,198.318 210,196.5C 209.627,190.433 208.793,184.433 207.5,178.5C 208.893,176.06 209.727,173.393 210,170.5C 211.663,174.799 212.329,179.133 212,183.5C 213.088,181.712 213.588,179.712 213.5,177.5C 211.783,169.538 210.616,161.538 210,153.5C 212.589,162.018 214.589,170.685 216,179.5C 216.875,181.513 218.209,181.513 220,179.5C 220.309,180.766 220.809,181.933 221.5,183C 220.398,185.401 220.231,187.901 221,190.5C 222.078,186.202 222.911,181.869 223.5,177.5 Z"/></g>
<g><path style="opacity:1" fill="#8c112d" d="M 153.5,223.5 C 153.336,226.187 153.503,228.854 154,231.5C 155.363,223.455 156.863,215.455 158.5,207.5C 159.586,207.38 160.253,206.713 160.5,205.5C 161.108,202.855 161.608,200.188 162,197.5C 162.608,199.066 163.442,200.4 164.5,201.5C 164.39,205 163.557,208.334 162,211.5C 162.125,223.688 160.792,235.688 158,247.5C 157.667,246.5 157.333,245.5 157,244.5C 156.294,248.252 155.127,251.085 153.5,253C 154.513,257.471 154.679,261.971 154,266.5C 153.667,265.167 153.333,263.833 153,262.5C 151.688,265.777 150.188,268.777 148.5,271.5C 150.288,260.366 151.955,249.199 153.5,238C 153.333,236.5 153.167,235 153,233.5C 151.286,240.904 149.786,248.237 148.5,255.5C 147.5,255.5 146.5,255.5 145.5,255.5C 145.438,247.123 145.438,238.957 145.5,231C 145.167,230.833 144.833,230.667 144.5,230.5C 143.571,231.689 143.238,233.022 143.5,234.5C 140.833,234.5 138.167,234.5 135.5,234.5C 135.5,232.833 135.5,231.167 135.5,229.5C 132.833,229.5 130.167,229.5 127.5,229.5C 127.5,228.5 127.5,227.5 127.5,226.5C 122.167,226.5 116.833,226.5 111.5,226.5C 110.167,224.167 110.167,221.833 111.5,219.5C 111.231,217.571 111.731,215.905 113,214.5C 116.411,217.064 120.078,217.73 124,216.5C 124.36,214.579 125.194,212.912 126.5,211.5C 129.212,213.26 132.212,213.927 135.5,213.5C 135.5,215.167 135.5,216.833 135.5,218.5C 138.167,218.5 140.833,218.5 143.5,218.5C 143.343,219.873 143.51,221.207 144,222.5C 144.333,219.833 144.667,217.167 145,214.5C 146.773,212.047 148.273,209.381 149.5,206.5C 148.873,205.583 148.539,204.583 148.5,203.5C 150.077,199.758 151.244,195.758 152,191.5C 152.333,195.5 152.667,199.5 153,203.5C 153.333,201.167 153.667,198.833 154,196.5C 154.12,205.495 153.953,214.495 153.5,223.5 Z"/></g>
<g><path style="opacity:1" fill="#8a102b" d="M 111.5,219.5 C 110.167,221.833 110.167,224.167 111.5,226.5C 116.833,226.5 122.167,226.5 127.5,226.5C 127.5,227.5 127.5,228.5 127.5,229.5C 130.167,229.5 132.833,229.5 135.5,229.5C 135.5,231.167 135.5,232.833 135.5,234.5C 138.167,234.5 140.833,234.5 143.5,234.5C 143.238,233.022 143.571,231.689 144.5,230.5C 144.833,230.667 145.167,230.833 145.5,231C 145.438,238.957 145.438,247.123 145.5,255.5C 146.5,255.5 147.5,255.5 148.5,255.5C 148.664,258.187 148.497,260.854 148,263.5C 146.826,267.942 145.659,272.275 144.5,276.5C 143.492,271.8 143.492,267.133 144.5,262.5C 142.615,261.803 142.282,260.803 143.5,259.5C 140.914,258.52 138.247,258.187 135.5,258.5C 135.5,257.5 135.5,256.5 135.5,255.5C 127.14,255.831 118.807,255.498 110.5,254.5C 111.265,252.705 111.932,250.872 112.5,249C 112.619,244.143 111.953,239.31 110.5,234.5C 108.263,233.551 105.929,232.884 103.5,232.5C 104.648,228.213 106.315,224.213 108.5,220.5C 109.391,219.89 110.391,219.557 111.5,219.5 Z"/></g>
<g><path style="opacity:1" fill="#53020d" d="M 158.5,207.5 C 156.863,215.455 155.363,223.455 154,231.5C 153.503,228.854 153.336,226.187 153.5,223.5C 155.315,211.241 157.482,198.908 160,186.5C 160.972,182.768 161.472,183.101 161.5,187.5C 160.066,194.106 159.066,200.773 158.5,207.5 Z"/></g>
<g><path style="opacity:0.859" fill="#8e3842" d="M 249.5,199.5 C 254.204,209.258 258.537,219.258 262.5,229.5C 257.868,225.659 255.034,220.659 254,214.5C 253.667,214.833 253.333,215.167 253,215.5C 251.643,210.195 250.476,204.862 249.5,199.5 Z"/></g>
<g><path style="opacity:1" fill="#8b122c" d="M 249.5,199.5 C 250.476,204.862 251.643,210.195 253,215.5C 253.333,215.167 253.667,214.833 254,214.5C 255.034,220.659 257.868,225.659 262.5,229.5C 267.717,240.601 272.383,251.934 276.5,263.5C 273.669,260.801 270.669,258.134 267.5,255.5C 267.05,252.273 267.05,249.607 267.5,247.5C 266.667,248.5 265.833,249.5 265,250.5C 264.667,250.167 264.333,249.833 264,249.5C 263.674,246.015 264.174,242.682 265.5,239.5C 264.167,239.5 262.833,239.5 261.5,239.5C 261.739,242.915 261.072,246.081 259.5,249C 261.635,250.993 262.635,253.493 262.5,256.5C 260.194,256.993 257.861,257.326 255.5,257.5C 255.5,258.5 255.5,259.5 255.5,260.5C 246.081,261.187 236.747,262.521 227.5,264.5C 225.9,264.449 224.4,264.116 223,263.5C 221.773,268.467 221.939,273.467 223.5,278.5C 222.833,278.167 222.167,277.833 221.5,277.5C 219.776,267.49 217.943,257.49 216,247.5C 214.619,239.55 213.786,231.55 213.5,223.5C 213.812,218.324 214.812,212.99 216.5,207.5C 216.854,218.337 218.187,229.003 220.5,239.5C 221.354,233.888 221.688,228.388 221.5,223C 227.769,219.934 234.436,218.434 241.5,218.5C 241.85,214.946 241.184,211.612 239.5,208.5C 241.078,207.702 242.744,207.202 244.5,207C 245.071,205.795 245.738,204.628 246.5,203.5C 247.78,205.724 247.447,207.724 245.5,209.5C 247.347,214.649 248.68,214.649 249.5,209.5C 248.406,206.001 248.406,202.668 249.5,199.5 Z"/></g>
<g><path style="opacity:1" fill="#690619" d="M 206.5,233.5 C 207.665,243.477 208.165,253.477 208,263.5C 205.823,250.069 203.99,236.736 202.5,223.5C 201.744,216.509 201.577,209.509 202,202.5C 203.116,213.032 204.616,223.365 206.5,233.5 Z"/></g>
<g><path style="opacity:1" fill="#880b27" d="M 103.5,232.5 C 105.929,232.884 108.263,233.551 110.5,234.5C 111.953,239.31 112.619,244.143 112.5,249C 111.932,250.872 111.265,252.705 110.5,254.5C 118.807,255.498 127.14,255.831 135.5,255.5C 135.5,256.5 135.5,257.5 135.5,258.5C 138.247,258.187 140.914,258.52 143.5,259.5C 142.282,260.803 142.615,261.803 144.5,262.5C 143.492,267.133 143.492,271.8 144.5,276.5C 144.341,280.291 143.675,283.958 142.5,287.5C 141.5,287.5 140.5,287.5 139.5,287.5C 139.666,293.509 139.499,299.509 139,305.5C 137.982,307.564 136.649,307.898 135,306.5C 131.903,308.315 132.403,309.315 136.5,309.5C 138.833,308.833 141.167,308.167 143.5,307.5C 147.344,307.455 148.011,308.621 145.5,311C 145.833,311.333 146.167,311.667 146.5,312C 143.943,314.867 144.276,316.867 147.5,318C 145.527,318.495 143.527,318.662 141.5,318.5C 142.167,316.5 142.833,314.5 143.5,312.5C 141.263,313.449 138.929,314.116 136.5,314.5C 131.635,312.959 126.635,312.292 121.5,312.5C 121.5,310.5 120.5,309.5 118.5,309.5C 118.082,308.778 117.416,308.278 116.5,308C 117.5,307.667 118.5,307.333 119.5,307C 117.913,306.138 116.246,305.471 114.5,305C 115.5,304.667 116.5,304.333 117.5,304C 117.5,303 117.5,302 117.5,301C 107.711,298.022 98.378,294.188 89.5,289.5C 88.2652,289.721 87.2652,290.388 86.5,291.5C 85.8076,290.975 85.3076,290.308 85,289.5C 82.7039,294.649 82.2039,294.316 83.5,288.5C 84.7362,287.754 86.0695,287.421 87.5,287.5C 86.2741,283.178 86.2741,278.845 87.5,274.5C 89.8743,271.314 90.8743,267.647 90.5,263.5C 94.2674,252.846 98.6007,242.513 103.5,232.5 Z"/></g>
<g><path style="opacity:1" fill="#55010d" d="M 148.5,271.5 C 146.723,279.437 144.723,287.437 142.5,295.5C 141.551,292.874 141.551,290.208 142.5,287.5C 143.675,283.958 144.341,280.291 144.5,276.5C 145.659,272.275 146.826,267.942 148,263.5C 148.497,260.854 148.664,258.187 148.5,255.5C 149.786,248.237 151.286,240.904 153,233.5C 153.167,235 153.333,236.5 153.5,238C 151.955,249.199 150.288,260.366 148.5,271.5 Z"/></g>
<g><path style="opacity:1" fill="#890c29" d="M 202.5,223.5 C 203.99,236.736 205.823,250.069 208,263.5C 208.165,253.477 207.665,243.477 206.5,233.5C 206.821,231.952 207.821,231.285 209.5,231.5C 209.472,235.755 210.805,239.421 213.5,242.5C 215.268,252.073 216.602,261.739 217.5,271.5C 217.725,276.048 217.059,280.382 215.5,284.5C 216.286,288.156 216.453,291.823 216,295.5C 214.246,293.75 212.079,293.083 209.5,293.5C 209.349,296.718 208.516,297.051 207,294.5C 206.586,294.957 206.086,295.291 205.5,295.5C 204.719,294.271 204.219,292.938 204,291.5C 201.831,268.821 199.665,246.155 197.5,223.5C 197.172,218.125 197.505,212.792 198.5,207.5C 199.086,207.709 199.586,208.043 200,208.5C 199.882,213.933 200.715,218.933 202.5,223.5 Z"/></g>
<g><path style="opacity:1" fill="#570210" d="M 212.5,219.5 C 212.232,221.099 212.566,222.432 213.5,223.5C 213.786,231.55 214.619,239.55 216,247.5C 217.943,257.49 219.776,267.49 221.5,277.5C 221.631,278.239 221.464,278.906 221,279.5C 220.125,276.599 218.958,273.932 217.5,271.5C 216.602,261.739 215.268,252.073 213.5,242.5C 210.427,221.468 207.094,200.468 203.5,179.5C 203.833,178.833 204.167,178.167 204.5,177.5C 207.575,191.536 210.241,205.536 212.5,219.5 Z"/></g>
<g><path style="opacity:1" fill="#890a27" d="M 276.5,263.5 C 276.945,269.957 278.611,275.957 281.5,281.5C 281.464,284.821 282.131,287.988 283.5,291C 282.379,295.628 281.379,295.461 280.5,290.5C 279.833,290.167 279.167,289.833 278.5,289.5C 270.33,293.224 261.997,296.557 253.5,299.5C 250.063,299.552 247.063,300.719 244.5,303C 247.903,304.817 251.57,305.983 255.5,306.5C 255.291,307.086 254.957,307.586 254.5,308C 247.721,310.384 240.721,311.55 233.5,311.5C 233.5,310.5 233.5,309.5 233.5,308.5C 230.167,309.167 226.833,309.833 223.5,310.5C 224.099,313.168 225.766,315.002 228.5,316C 228.043,316.414 227.709,316.914 227.5,317.5C 223.213,317.973 219.213,318.973 215.5,320.5C 210.156,320.666 204.823,320.499 199.5,320C 201.473,319.505 203.473,319.338 205.5,319.5C 205.279,316.721 205.612,314.054 206.5,311.5C 212.028,309.741 217.694,308.574 223.5,308C 224.579,307.044 225.745,306.211 227,305.5C 226.259,301.883 226.425,298.216 227.5,294.5C 225.229,289.435 223.896,284.102 223.5,278.5C 221.939,273.467 221.773,268.467 223,263.5C 224.4,264.116 225.9,264.449 227.5,264.5C 236.747,262.521 246.081,261.187 255.5,260.5C 255.5,259.5 255.5,258.5 255.5,257.5C 257.861,257.326 260.194,256.993 262.5,256.5C 262.635,253.493 261.635,250.993 259.5,249C 261.072,246.081 261.739,242.915 261.5,239.5C 262.833,239.5 264.167,239.5 265.5,239.5C 264.174,242.682 263.674,246.015 264,249.5C 264.333,249.833 264.667,250.167 265,250.5C 265.833,249.5 266.667,248.5 267.5,247.5C 267.05,249.607 267.05,252.273 267.5,255.5C 270.669,258.134 273.669,260.801 276.5,263.5 Z"/></g>
<g><path style="opacity:1" fill="#850a26" d="M 197.5,223.5 C 199.665,246.155 201.831,268.821 204,291.5C 204.219,292.938 204.719,294.271 205.5,295.5C 206.086,295.291 206.586,294.957 207,294.5C 208.516,297.051 209.349,296.718 209.5,293.5C 212.079,293.083 214.246,293.75 216,295.5C 216.453,291.823 216.286,288.156 215.5,284.5C 217.059,280.382 217.725,276.048 217.5,271.5C 218.958,273.932 220.125,276.599 221,279.5C 221.464,278.906 221.631,278.239 221.5,277.5C 222.167,277.833 222.833,278.167 223.5,278.5C 223.896,284.102 225.229,289.435 227.5,294.5C 226.425,298.216 226.259,301.883 227,305.5C 225.745,306.211 224.579,307.044 223.5,308C 217.694,308.574 212.028,309.741 206.5,311.5C 198.167,311.5 189.833,311.5 181.5,311.5C 181.5,308.833 181.5,306.167 181.5,303.5C 183.476,293.219 184.143,282.552 183.5,271.5C 184.822,256.01 185.822,240.343 186.5,224.5C 187.167,227.5 187.833,230.5 188.5,233.5C 189.243,232.092 190.077,230.759 191,229.5C 191.333,230.167 191.667,230.833 192,231.5C 193.992,223.644 194.992,215.644 195,207.5C 195.15,213.081 195.983,218.414 197.5,223.5 Z"/></g>
<g><path style="opacity:0.761" fill="#955057" d="M 90.5,263.5 C 90.8743,267.647 89.8743,271.314 87.5,274.5C 87.5,273.833 87.1667,273.5 86.5,273.5C 87.3208,269.873 88.6541,266.54 90.5,263.5 Z"/></g>
<g><path style="opacity:1" fill="#880d28" d="M 180.5,191.5 C 180.172,202.346 180.506,213.013 181.5,223.5C 181.5,250.167 181.5,276.833 181.5,303.5C 181.5,306.167 181.5,308.833 181.5,311.5C 174.492,311.334 167.492,311.5 160.5,312C 159.556,314.719 159.223,317.552 159.5,320.5C 155.167,320.5 150.833,320.5 146.5,320.5C 144.379,320.675 142.379,320.341 140.5,319.5C 139.766,318.292 139.433,316.959 139.5,315.5C 138.209,315.737 137.209,315.404 136.5,314.5C 138.929,314.116 141.263,313.449 143.5,312.5C 142.833,314.5 142.167,316.5 141.5,318.5C 143.527,318.662 145.527,318.495 147.5,318C 144.276,316.867 143.943,314.867 146.5,312C 146.167,311.667 145.833,311.333 145.5,311C 148.011,308.621 147.344,307.455 143.5,307.5C 141.167,308.167 138.833,308.833 136.5,309.5C 132.403,309.315 131.903,308.315 135,306.5C 136.649,307.898 137.982,307.564 139,305.5C 139.499,299.509 139.666,293.509 139.5,287.5C 140.5,287.5 141.5,287.5 142.5,287.5C 141.551,290.208 141.551,292.874 142.5,295.5C 144.723,287.437 146.723,279.437 148.5,271.5C 150.188,268.777 151.688,265.777 153,262.5C 153.333,263.833 153.667,265.167 154,266.5C 154.679,261.971 154.513,257.471 153.5,253C 155.127,251.085 156.294,248.252 157,244.5C 157.333,245.5 157.667,246.5 158,247.5C 160.792,235.688 162.125,223.688 162,211.5C 163.557,208.334 164.39,205 164.5,201.5C 165.639,195.568 166.472,189.568 167,183.5C 166.94,190.497 166.94,197.497 167,204.5C 168,202.833 169,201.167 170,199.5C 170.333,201.5 170.667,203.5 171,205.5C 171.594,199.825 172.26,194.158 173,188.5C 174.006,190.534 174.506,192.7 174.5,195C 173.877,199.147 173.544,203.314 173.5,207.5C 174.833,207.5 176.167,207.5 177.5,207.5C 177.5,202.167 177.5,196.833 177.5,191.5C 178.5,191.5 179.5,191.5 180.5,191.5 Z"/></g>
<g><path style="opacity:1" fill="#680316" d="M 170.5,215.5 C 171.647,219.646 171.814,223.98 171,228.5C 169.248,245.519 167.248,262.519 165,279.5C 164.333,274.167 164.333,268.833 165,263.5C 166.833,247.495 168.667,231.495 170.5,215.5 Z"/></g>
<g><path style="opacity:0.976" fill="#9a505c" d="M 276.5,263.5 C 279.538,270.269 282.204,277.269 284.5,284.5C 283.272,283.694 282.272,282.694 281.5,281.5C 278.611,275.957 276.945,269.957 276.5,263.5 Z"/></g>
<g><path style="opacity:1" fill="#540412" d="M 181.5,143.5 C 183.495,185.82 184.161,228.487 183.5,271.5C 184.143,282.552 183.476,293.219 181.5,303.5C 181.5,276.833 181.5,250.167 181.5,223.5C 181.5,196.833 181.5,170.167 181.5,143.5 Z"/></g>
<g><path style="opacity:0.847" fill="#a45d6a" d="M 86.5,273.5 C 86.196,276.522 85.696,279.522 85,282.5C 84.2917,283.381 83.4584,284.047 82.5,284.5C 83.4624,280.605 84.7957,276.939 86.5,273.5 Z"/></g>
<g><path style="opacity:1" fill="#892535" d="M 86.5,273.5 C 87.1667,273.5 87.5,273.833 87.5,274.5C 86.2741,278.845 86.2741,283.178 87.5,287.5C 86.0695,287.421 84.7362,287.754 83.5,288.5C 82.2039,294.316 82.7039,294.649 85,289.5C 85.3076,290.308 85.8076,290.975 86.5,291.5C 87.2652,290.388 88.2652,289.721 89.5,289.5C 89.3433,290.873 89.51,292.207 90,293.5C 90.6543,292.304 91.1543,292.304 91.5,293.5C 89.9951,294.842 89.3285,296.508 89.5,298.5C 90.8333,298.5 92.1667,298.5 93.5,298.5C 93.2865,300.144 93.6198,301.644 94.5,303C 99.947,304.546 105.28,306.38 110.5,308.5C 113.086,309.48 115.753,309.813 118.5,309.5C 120.5,309.5 121.5,310.5 121.5,312.5C 108.624,310.783 96.6244,306.617 85.5,300C 83.1255,297.961 81.1255,295.628 79.5,293C 80.4241,290.135 81.4241,287.302 82.5,284.5C 83.4584,284.047 84.2917,283.381 85,282.5C 85.696,279.522 86.196,276.522 86.5,273.5 Z"/></g>
<g><path style="opacity:1" fill="#941f38" d="M 281.5,281.5 C 282.272,282.694 283.272,283.694 284.5,284.5C 288.574,290.226 287.907,295.06 282.5,299C 279.941,300.777 277.274,302.277 274.5,303.5C 274.44,302.957 274.107,302.624 273.5,302.5C 269.685,304.296 265.685,305.63 261.5,306.5C 258.941,304.141 255.941,302.308 252.5,301C 253.056,300.617 253.389,300.117 253.5,299.5C 261.997,296.557 270.33,293.224 278.5,289.5C 279.167,289.833 279.833,290.167 280.5,290.5C 281.379,295.461 282.379,295.628 283.5,291C 282.131,287.988 281.464,284.821 281.5,281.5 Z"/></g>
<g><path style="opacity:1" fill="#98203c" d="M 89.5,289.5 C 98.378,294.188 107.711,298.022 117.5,301C 117.5,302 117.5,303 117.5,304C 116.5,304.333 115.5,304.667 114.5,305C 116.246,305.471 117.913,306.138 119.5,307C 118.5,307.333 117.5,307.667 116.5,308C 117.416,308.278 118.082,308.778 118.5,309.5C 115.753,309.813 113.086,309.48 110.5,308.5C 105.28,306.38 99.947,304.546 94.5,303C 93.6198,301.644 93.2865,300.144 93.5,298.5C 92.1667,298.5 90.8333,298.5 89.5,298.5C 89.3285,296.508 89.9951,294.842 91.5,293.5C 91.1543,292.304 90.6543,292.304 90,293.5C 89.51,292.207 89.3433,290.873 89.5,289.5 Z"/></g>
<g><path style="opacity:1" fill="#861e30" d="M 253.5,299.5 C 253.389,300.117 253.056,300.617 252.5,301C 255.941,302.308 258.941,304.141 261.5,306.5C 265.685,305.63 269.685,304.296 273.5,302.5C 274.107,302.624 274.44,302.957 274.5,303.5C 261.962,308.72 248.962,312.553 235.5,315C 232.929,315.901 230.596,317.234 228.5,319C 225.937,320.079 223.271,320.579 220.5,320.5C 218.833,320.5 217.167,320.5 215.5,320.5C 219.213,318.973 223.213,317.973 227.5,317.5C 227.709,316.914 228.043,316.414 228.5,316C 225.766,315.002 224.099,313.168 223.5,310.5C 226.833,309.833 230.167,309.167 233.5,308.5C 233.5,309.5 233.5,310.5 233.5,311.5C 240.721,311.55 247.721,310.384 254.5,308C 254.957,307.586 255.291,307.086 255.5,306.5C 251.57,305.983 247.903,304.817 244.5,303C 247.063,300.719 250.063,299.552 253.5,299.5 Z"/></g>
<g><path style="opacity:0.831" fill="#8b3a46" d="M 121.5,312.5 C 126.635,312.292 131.635,312.959 136.5,314.5C 137.209,315.404 138.209,315.737 139.5,315.5C 139.433,316.959 139.766,318.292 140.5,319.5C 138.063,319.114 136.063,317.947 134.5,316C 130.001,314.961 125.668,313.794 121.5,312.5 Z"/></g>
<g><path style="opacity:1" fill="#9f2e48" d="M 181.5,311.5 C 189.833,311.5 198.167,311.5 206.5,311.5C 205.612,314.054 205.279,316.721 205.5,319.5C 203.473,319.338 201.473,319.505 199.5,320C 204.823,320.499 210.156,320.666 215.5,320.5C 217.167,320.5 218.833,320.5 220.5,320.5C 195.833,321.833 171.167,321.833 146.5,320.5C 150.833,320.5 155.167,320.5 159.5,320.5C 159.223,317.552 159.556,314.719 160.5,312C 167.492,311.5 174.492,311.334 181.5,311.5 Z"/></g>
</svg>
