<?xml version="1.0" encoding="UTF-8"?>
<!DOCTYPE svg PUBLIC "-//W3C//DTD SVG 1.1//EN" "http://www.w3.org/Graphics/SVG/1.1/DTD/svg11.dtd">
<svg xmlns="http://www.w3.org/2000/svg" version="1.1" width="360px" height="360px" style="shape-rendering:geometricPrecision; text-rendering:geometricPrecision; image-rendering:optimizeQuality; fill-rule:evenodd; clip-rule:evenodd" xmlns:xlink="http://www.w3.org/1999/xlink">
<g><path style="opacity:0.041" fill="#fef1d6" d="M 150.5,1.5 C 157.492,0.833664 164.659,0.500331 172,0.5C 184.033,0.383212 195.866,1.04988 207.5,2.5C 188.843,1.76691 170.176,1.43358 151.5,1.5C 151.167,1.5 150.833,1.5 150.5,1.5 Z"/></g>
<g><path style="opacity:0.29" fill="#f0d9a8" d="M 150.5,1.5 C 150.833,1.5 151.167,1.5 151.5,1.5C 142.393,3.22527 133.06,3.89193 123.5,3.5C 132.299,2.13293 141.299,1.46627 150.5,1.5 Z"/></g>
<g><path style="opacity:0.122" fill="#f9e3c6" d="M 207.5,2.5 C 217.09,2.39853 226.423,3.39853 235.5,5.5C 225.937,5.34258 216.604,4.34258 207.5,2.5 Z"/></g>
<g><path style="opacity:0.22" fill="#fae2c6" d="M 235.5,5.5 C 239.425,5.42993 243.091,6.09659 246.5,7.5C 242.542,7.74892 238.876,7.08226 235.5,5.5 Z"/></g>
<g><path style="opacity:0.745" fill="#efd2a1" d="M 123.5,3.5 C 110.398,6.13027 97.0646,8.29694 83.5,10C 76.8856,12.1477 70.2189,13.981 63.5,15.5C 70.7068,11.9405 78.3735,9.44046 86.5,8C 98.707,5.44601 111.04,3.94601 123.5,3.5 Z"/></g>
<g><path style="opacity:0.118" fill="#fde4c8" d="M 247.5,7.5 C 252.391,8.0099 257.058,9.0099 261.5,10.5C 256.5,10.5017 251.833,9.50167 247.5,7.5 Z"/></g>
<g><path style="opacity:1" fill="#cb5801" d="M 226.5,14.5 C 230.798,16.2103 235.798,17.877 241.5,19.5C 248.385,21.3615 254.552,24.6949 260,29.5C 261.203,37.2959 258.37,43.1292 251.5,47C 228.839,46.6743 206.172,46.6743 183.5,47C 181.109,47.2868 178.776,47.7868 176.5,48.5C 175.614,49.325 175.281,50.325 175.5,51.5C 195.853,50.0469 216.187,50.2136 236.5,52C 237.672,52.4186 238.672,53.0853 239.5,54C 231.739,53.5974 224.406,54.9307 217.5,58C 214.173,58.6103 210.839,59.1103 207.5,59.5C 207.5,60.5 207.5,61.5 207.5,62.5C 201.681,63.3276 195.681,63.8276 189.5,64C 184.388,64.9761 179.722,66.8094 175.5,69.5C 173.202,71.4607 170.535,72.4607 167.5,72.5C 150.14,72.7994 132.807,72.2994 115.5,71C 99.253,67.3196 93.0864,57.4862 97,41.5C 99.884,38.315 103.051,35.4816 106.5,33C 122.481,30.5979 138.481,28.4312 154.5,26.5C 153.624,25.7492 152.624,25.2492 151.5,25C 148.167,24.8333 144.833,24.6667 141.5,24.5C 126.908,26.6575 112.241,27.8242 97.5,28C 95.6368,26.5822 95.1368,24.7489 96,22.5C 98.3047,20.8661 100.138,18.8661 101.5,16.5C 102.922,16.2914 104.255,15.7914 105.5,15C 104.906,14.5357 104.239,14.369 103.5,14.5C 124.558,11.1927 145.891,9.8594 167.5,10.5C 187.459,9.77788 207.126,11.1112 226.5,14.5 Z"/></g>
<g><path style="opacity:0.635" fill="#f1d8b1" d="M 261.5,10.5 C 267.487,11.4093 273.153,13.076 278.5,15.5C 273.793,14.9904 269.127,14.1571 264.5,13C 263.429,12.1482 262.429,11.3149 261.5,10.5 Z"/></g>
<g><path style="opacity:1" fill="#f7bb65" d="M 151.5,1.5 C 170.176,1.43358 188.843,1.76691 207.5,2.5C 216.604,4.34258 225.937,5.34258 235.5,5.5C 238.876,7.08226 242.542,7.74892 246.5,7.5C 246.833,7.5 247.167,7.5 247.5,7.5C 251.833,9.50167 256.5,10.5017 261.5,10.5C 262.429,11.3149 263.429,12.1482 264.5,13C 269.127,14.1571 273.793,14.9904 278.5,15.5C 278.804,16.1499 279.137,16.8165 279.5,17.5C 284.85,19.8426 290.183,22.176 295.5,24.5C 296.585,26.5869 298.251,27.9202 300.5,28.5C 302.587,29.5846 303.92,31.2512 304.5,33.5C 304.738,35.4044 305.738,36.7377 307.5,37.5C 308.674,38.5137 309.34,39.847 309.5,41.5C 307.583,40.0907 305.75,38.424 304,36.5C 303.21,41.7652 301.544,46.7652 299,51.5C 294.303,54.6961 290.136,58.5294 286.5,63C 285.552,63.4828 284.552,63.6495 283.5,63.5C 298.037,49.3754 296.704,36.8754 279.5,26C 262.443,19.4217 244.776,15.5883 226.5,14.5C 207.126,11.1112 187.459,9.77788 167.5,10.5C 145.891,9.8594 124.558,11.1927 103.5,14.5C 90.0398,15.6956 77.3732,19.3622 65.5,25.5C 57.5669,30.1991 55.4002,36.8657 59,45.5C 61.6692,52.5021 66.1692,58.0021 72.5,62C 83.846,70.171 96.5127,74.671 110.5,75.5C 115.931,77.2928 121.597,78.6261 127.5,79.5C 107.285,79.9119 88.2851,75.4119 70.5,66C 63.0274,61.194 56.8607,55.0274 52,47.5C 51.0438,44.6229 49.7105,41.9562 48,39.5C 47.628,35.2017 47.4613,31.2017 47.5,27.5C 51.6477,22.4253 56.981,19.4253 63.5,18.5C 63.5,17.5 63.5,16.5 63.5,15.5C 70.2189,13.981 76.8856,12.1477 83.5,10C 97.0646,8.29694 110.398,6.13027 123.5,3.5C 133.06,3.89193 142.393,3.22527 151.5,1.5 Z"/></g>
<g><path style="opacity:0.694" fill="#f4d7ac" d="M 278.5,15.5 C 284.935,17.2156 290.602,20.2156 295.5,24.5C 290.183,22.176 284.85,19.8426 279.5,17.5C 279.137,16.8165 278.804,16.1499 278.5,15.5 Z"/></g>
<g><path style="opacity:0.204" fill="#f7dab0" d="M 63.5,15.5 C 63.5,16.5 63.5,17.5 63.5,18.5C 56.981,19.4253 51.6477,22.4253 47.5,27.5C 45.8333,28.8333 44.1667,30.1667 42.5,31.5C 47.7209,23.9596 54.7209,18.6263 63.5,15.5 Z"/></g>
<g><path style="opacity:1" fill="#b74902" d="M 101.5,16.5 C 100.138,18.8661 98.3047,20.8661 96,22.5C 95.1368,24.7489 95.6368,26.5822 97.5,28C 112.241,27.8242 126.908,26.6575 141.5,24.5C 144.833,24.6667 148.167,24.8333 151.5,25C 152.624,25.2492 153.624,25.7492 154.5,26.5C 138.481,28.4312 122.481,30.5979 106.5,33C 103.051,35.4816 99.884,38.315 97,41.5C 93.0864,57.4862 99.253,67.3196 115.5,71C 132.807,72.2994 150.14,72.7994 167.5,72.5C 167.5,72.8333 167.5,73.1667 167.5,73.5C 159.5,73.5 151.5,73.5 143.5,73.5C 133.959,73.3449 124.626,74.0116 115.5,75.5C 113.833,75.5 112.167,75.5 110.5,75.5C 96.5127,74.671 83.846,70.171 72.5,62C 66.1692,58.0021 61.6692,52.5021 59,45.5C 55.4002,36.8657 57.5669,30.1991 65.5,25.5C 65.56,26.0431 65.8933,26.3764 66.5,26.5C 77.6689,21.1471 89.3356,17.8138 101.5,16.5 Z"/></g>
<g><path style="opacity:1" fill="#a64b06" d="M 103.5,14.5 C 104.239,14.369 104.906,14.5357 105.5,15C 104.255,15.7914 102.922,16.2914 101.5,16.5C 89.3356,17.8138 77.6689,21.1471 66.5,26.5C 65.8933,26.3764 65.56,26.0431 65.5,25.5C 77.3732,19.3622 90.0398,15.6956 103.5,14.5 Z"/></g>
<g><path style="opacity:1" fill="#ab4803" d="M 226.5,14.5 C 244.776,15.5883 262.443,19.4217 279.5,26C 296.704,36.8754 298.037,49.3754 283.5,63.5C 278.466,66.052 273.466,68.3853 268.5,70.5C 266.784,70.6287 265.117,70.962 263.5,71.5C 261.145,67.1452 257.812,63.8119 253.5,61.5C 249.25,58.5278 244.584,56.5278 239.5,55.5C 249.207,55.5182 256.873,59.5182 262.5,67.5C 265.845,68.5591 269.178,68.3924 272.5,67C 271.833,66.6667 271.167,66.3333 270.5,66C 272.165,64.1599 274.165,63.4932 276.5,64C 272.672,66.5985 273.005,66.9319 277.5,65C 278.833,63 280.167,61 281.5,59C 283.765,57.8822 286.099,57.0488 288.5,56.5C 293.873,44.0811 290.706,34.4144 279,27.5C 278.586,27.9574 278.086,28.2907 277.5,28.5C 266.397,21.797 254.397,18.797 241.5,19.5C 235.798,17.877 230.798,16.2103 226.5,14.5 Z"/></g>
<g><path style="opacity:0.059" fill="#fdebc3" d="M 295.5,24.5 C 297.749,25.0798 299.415,26.4131 300.5,28.5C 298.251,27.9202 296.585,26.5869 295.5,24.5 Z"/></g>
<g><path style="opacity:1" fill="#b84901" d="M 239.5,55.5 C 236.15,55.335 232.817,55.5017 229.5,56C 222.04,57.9057 214.707,60.0724 207.5,62.5C 207.5,61.5 207.5,60.5 207.5,59.5C 210.839,59.1103 214.173,58.6103 217.5,58C 224.406,54.9307 231.739,53.5974 239.5,54C 238.672,53.0853 237.672,52.4186 236.5,52C 216.187,50.2136 195.853,50.0469 175.5,51.5C 175.281,50.325 175.614,49.325 176.5,48.5C 178.776,47.7868 181.109,47.2868 183.5,47C 206.172,46.6743 228.839,46.6743 251.5,47C 258.37,43.1292 261.203,37.2959 260,29.5C 254.552,24.6949 248.385,21.3615 241.5,19.5C 254.397,18.797 266.397,21.797 277.5,28.5C 278.086,28.2907 278.586,27.9574 279,27.5C 290.706,34.4144 293.873,44.0811 288.5,56.5C 286.099,57.0488 283.765,57.8822 281.5,59C 280.167,61 278.833,63 277.5,65C 273.005,66.9319 272.672,66.5985 276.5,64C 274.165,63.4932 272.165,64.1599 270.5,66C 271.167,66.3333 271.833,66.6667 272.5,67C 269.178,68.3924 265.845,68.5591 262.5,67.5C 256.873,59.5182 249.207,55.5182 239.5,55.5 Z"/></g>
<g><path style="opacity:0.588" fill="#e8b77f" d="M 42.5,31.5 C 41.962,33.1172 41.6287,34.7839 41.5,36.5C 40.8333,36.5 40.1667,36.5 39.5,36.5C 39.7497,34.326 40.7497,32.6594 42.5,31.5 Z"/></g>
<g><path style="opacity:0.192" fill="#f6db9e" d="M 304.5,33.5 C 306.262,34.2623 307.262,35.5956 307.5,37.5C 305.738,36.7377 304.738,35.4044 304.5,33.5 Z"/></g>
<g><path style="opacity:0.255" fill="#eab580" d="M 39.5,36.5 C 38.4822,43.9584 36.8155,51.2917 34.5,58.5C 34.0431,59.2975 33.3764,59.6309 32.5,59.5C 34.9431,51.7621 37.2765,44.0954 39.5,36.5 Z"/></g>
<g><path style="opacity:0.157" fill="#efbe90" d="M 32.5,59.5 C 30.8218,62.7017 29.3218,66.035 28,69.5C 27.5034,71.8098 27.3367,74.1432 27.5,76.5C 25.6944,69.9075 27.3611,64.2409 32.5,59.5 Z"/></g>
<g><path style="opacity:0.176" fill="#e8b785" d="M 309.5,41.5 C 310.793,42.842 311.626,44.5087 312,46.5C 313.755,53.4629 313.921,60.4629 312.5,67.5C 311.566,66.4324 311.232,65.099 311.5,63.5C 311.666,58.1563 311.499,52.8229 311,47.5C 310.722,46.5842 310.222,45.9175 309.5,45.5C 309.5,44.1667 309.5,42.8333 309.5,41.5 Z"/></g>
<g><path style="opacity:1" fill="#e87703" d="M 39.5,36.5 C 40.1667,36.5 40.8333,36.5 41.5,36.5C 37.4809,62.9615 46.4809,83.7948 68.5,99C 85.3256,108.041 103.326,113.041 122.5,114C 125.772,114.437 127.439,116.27 127.5,119.5C 117.488,120.833 107.488,120.667 97.5,119C 84.4187,115.626 71.4187,111.96 58.5,108C 35.3494,100.483 27.8494,107.983 36,130.5C 38.8633,134.688 41.6966,138.854 44.5,143C 44.2716,143.399 43.9382,143.565 43.5,143.5C 41.4268,141.42 39.0934,139.754 36.5,138.5C 35.1182,136.451 33.4516,134.785 31.5,133.5C 30.5849,131.246 29.2516,129.246 27.5,127.5C 26.3909,123.506 25.0576,119.506 23.5,115.5C 22.5159,112.572 22.1826,109.572 22.5,106.5C 24.2927,103.366 25.626,100.033 26.5,96.5C 30.0515,89.9128 30.3848,83.2461 27.5,76.5C 27.3367,74.1432 27.5034,71.8098 28,69.5C 29.3218,66.035 30.8218,62.7017 32.5,59.5C 33.3764,59.6309 34.0431,59.2975 34.5,58.5C 36.8155,51.2917 38.4822,43.9584 39.5,36.5 Z"/></g>
<g><path style="opacity:1" fill="#fabb63" d="M 239.5,55.5 C 244.584,56.5278 249.25,58.5278 253.5,61.5C 253.44,62.0431 253.107,62.3764 252.5,62.5C 245.441,59.8263 238.108,58.8263 230.5,59.5C 227.805,59.933 225.638,61.2663 224,63.5C 223.598,69.9068 220.265,72.5735 214,71.5C 201.279,68.5223 188.445,67.8556 175.5,69.5C 179.722,66.8094 184.388,64.9761 189.5,64C 195.681,63.8276 201.681,63.3276 207.5,62.5C 214.707,60.0724 222.04,57.9057 229.5,56C 232.817,55.5017 236.15,55.335 239.5,55.5 Z"/></g>
<g><path style="opacity:1" fill="#f39504" d="M 309.5,41.5 C 309.5,42.8333 309.5,44.1667 309.5,45.5C 309.538,53.5864 308.204,61.2531 305.5,68.5C 305.385,71.388 306.052,74.0547 307.5,76.5C 319.517,81.7486 321.684,89.7486 314,100.5C 311.044,104.3 307.544,107.467 303.5,110C 309.988,111.458 316.655,111.958 323.5,111.5C 323.833,111.5 324.167,111.5 324.5,111.5C 324.5,116.167 324.5,120.833 324.5,125.5C 322.92,129.04 321.587,132.707 320.5,136.5C 319.833,136.833 319.167,137.167 318.5,137.5C 315.198,138.819 312.198,140.652 309.5,143C 308.177,143.816 307.511,144.983 307.5,146.5C 303.015,147.624 299.015,149.624 295.5,152.5C 294.439,150.468 292.772,149.134 290.5,148.5C 291.167,147.833 291.833,147.167 292.5,146.5C 289.584,141.214 287.418,135.548 286,129.5C 283.021,116.192 280.021,102.859 277,89.5C 273.591,83.3548 270.758,77.0214 268.5,70.5C 273.466,68.3853 278.466,66.052 283.5,63.5C 284.552,63.6495 285.552,63.4828 286.5,63C 290.136,58.5294 294.303,54.6961 299,51.5C 301.544,46.7652 303.21,41.7652 304,36.5C 305.75,38.424 307.583,40.0907 309.5,41.5 Z"/></g>
<g><path style="opacity:0.537" fill="#d48a3f" d="M 311.5,63.5 C 311.232,65.099 311.566,66.4324 312.5,67.5C 313.319,69.7722 313.985,72.1055 314.5,74.5C 314.833,75.1667 315.167,75.8333 315.5,76.5C 314.504,76.5858 313.671,76.2524 313,75.5C 312.166,72.331 311.332,69.1643 310.5,66C 310.528,64.9302 310.861,64.0968 311.5,63.5 Z"/></g>
<g><path style="opacity:1" fill="#ed9c18" d="M 230.5,59.5 C 229.162,61.6698 227.328,63.3365 225,64.5C 224.73,67.2241 224.23,69.8908 223.5,72.5C 221.376,73.1494 219.376,73.9827 217.5,75C 208.82,73.5653 200.153,72.2319 191.5,71C 186.191,70.6552 181.025,70.4885 176,70.5C 174.745,71.2106 173.579,72.044 172.5,73C 176.5,73.3333 180.5,73.6667 184.5,74C 187.119,74.1515 189.453,74.9848 191.5,76.5C 186.208,77.4948 180.875,77.8282 175.5,77.5C 175.822,81.439 174.489,82.2723 171.5,80C 172.5,78.3333 173.833,77 175.5,76C 172.739,75.2782 170.073,75.4448 167.5,76.5C 168.116,75.2022 168.116,74.2022 167.5,73.5C 167.5,73.1667 167.5,72.8333 167.5,72.5C 170.535,72.4607 173.202,71.4607 175.5,69.5C 188.445,67.8556 201.279,68.5223 214,71.5C 220.265,72.5735 223.598,69.9068 224,63.5C 225.638,61.2663 227.805,59.933 230.5,59.5 Z"/></g>
<g><path style="opacity:1" fill="#e77605" d="M 309.5,45.5 C 310.222,45.9175 310.722,46.5842 311,47.5C 311.499,52.8229 311.666,58.1563 311.5,63.5C 310.861,64.0968 310.528,64.9302 310.5,66C 311.332,69.1643 312.166,72.331 313,75.5C 313.671,76.2524 314.504,76.5858 315.5,76.5C 317.5,78.1667 319.5,79.8333 321.5,81.5C 321.175,89.0191 321.508,96.3524 322.5,103.5C 322.5,103.833 322.5,104.167 322.5,104.5C 322.674,106.861 323.007,109.194 323.5,111.5C 316.655,111.958 309.988,111.458 303.5,110C 307.544,107.467 311.044,104.3 314,100.5C 321.684,89.7486 319.517,81.7486 307.5,76.5C 306.052,74.0547 305.385,71.388 305.5,68.5C 308.204,61.2531 309.538,53.5864 309.5,45.5 Z"/></g>
<g><path style="opacity:0.09" fill="#e6af8f" d="M 143.5,73.5 C 143.5,73.8333 143.5,74.1667 143.5,74.5C 135.495,74.7312 127.495,75.0645 119.5,75.5C 118.167,75.5 116.833,75.5 115.5,75.5C 124.626,74.0116 133.959,73.3449 143.5,73.5 Z"/></g>
<g><path style="opacity:0.004" fill="#f9d7a8" d="M 314.5,74.5 C 317.833,75.8333 320.167,78.1667 321.5,81.5C 319.5,79.8333 317.5,78.1667 315.5,76.5C 315.167,75.8333 314.833,75.1667 314.5,74.5 Z"/></g>
<g><path style="opacity:0.094" fill="#faeacd" d="M 110.5,75.5 C 112.167,75.5 113.833,75.5 115.5,75.5C 116.833,75.5 118.167,75.5 119.5,75.5C 127.029,77.643 134.695,78.9763 142.5,79.5C 137.5,79.5 132.5,79.5 127.5,79.5C 121.597,78.6261 115.931,77.2928 110.5,75.5 Z"/></g>
<g><path style="opacity:0.084" fill="#fee3b2" d="M 143.5,74.5 C 143.5,74.1667 143.5,73.8333 143.5,73.5C 151.5,73.5 159.5,73.5 167.5,73.5C 168.116,74.2022 168.116,75.2022 167.5,76.5C 165.833,77.8333 164.167,79.1667 162.5,80.5C 150.655,80.8283 138.988,80.4949 127.5,79.5C 132.5,79.5 137.5,79.5 142.5,79.5C 149.175,79.6663 155.842,79.4996 162.5,79C 163.833,77.6667 165.167,76.3333 166.5,75C 158.841,74.5003 151.174,74.3336 143.5,74.5 Z"/></g>
<g><path style="opacity:1" fill="#f39a0d" d="M 230.5,59.5 C 238.108,58.8263 245.441,59.8263 252.5,62.5C 253.107,62.3764 253.44,62.0431 253.5,61.5C 257.812,63.8119 261.145,67.1452 263.5,71.5C 268.136,78.2995 271.636,85.6328 274,93.5C 279.218,114.908 283.052,136.575 285.5,158.5C 284.448,158.351 283.448,158.517 282.5,159C 284.835,163.233 285.168,167.733 283.5,172.5C 284.355,173.293 285.189,172.96 286,171.5C 286.481,175.531 287.147,179.531 288,183.5C 288.799,188.087 288.632,192.587 287.5,197C 288.126,197.75 288.626,198.584 289,199.5C 289.77,198.402 290.603,198.402 291.5,199.5C 291.796,201.403 292.463,203.07 293.5,204.5C 294.341,206.379 294.675,208.379 294.5,210.5C 294.41,213.152 295.076,215.485 296.5,217.5C 296.89,220.839 297.39,224.173 298,227.5C 298.708,228.381 299.542,229.047 300.5,229.5C 300.336,232.187 300.503,234.854 301,237.5C 301.333,237.167 301.667,236.833 302,236.5C 304.138,243.442 307.304,249.775 311.5,255.5C 312.674,256.514 313.34,257.847 313.5,259.5C 313.75,261.674 314.75,263.341 316.5,264.5C 316.427,266.027 317.094,267.027 318.5,267.5C 318.845,270.198 320.178,272.198 322.5,273.5C 322.557,274.609 322.89,275.609 323.5,276.5C 322.5,277.833 321.5,279.167 320.5,280.5C 320.5,281.167 320.167,281.5 319.5,281.5C 317.12,282.253 315.12,283.587 313.5,285.5C 311.973,285.427 310.973,286.094 310.5,287.5C 306.765,288.301 303.099,289.301 299.5,290.5C 299.649,291.552 299.483,292.552 299,293.5C 297.384,292.199 295.884,292.199 294.5,293.5C 290.816,294.609 287.149,295.609 283.5,296.5C 281.901,296.232 280.568,296.566 279.5,297.5C 278.609,298.11 277.609,298.443 276.5,298.5C 274.585,298.216 272.919,298.549 271.5,299.5C 270.5,299.5 269.5,299.5 268.5,299.5C 267.508,299.328 266.842,299.662 266.5,300.5C 264.585,300.216 262.919,300.549 261.5,301.5C 260.167,301.5 258.833,301.5 257.5,301.5C 258.81,308.082 260.643,314.416 263,320.5C 259.026,315.068 256.526,309.068 255.5,302.5C 252.086,302.736 248.753,303.402 245.5,304.5C 247.695,310.39 250.028,316.223 252.5,322C 252.167,322.5 251.833,323 251.5,323.5C 248.649,317.628 245.983,311.628 243.5,305.5C 240.911,304.795 238.244,304.795 235.5,305.5C 236.47,311.743 238.47,317.743 241.5,323.5C 241.167,323.833 240.833,324.167 240.5,324.5C 236.801,318.512 234.135,312.178 232.5,305.5C 229.167,305.5 225.833,305.5 222.5,305.5C 224.709,312.076 227.042,318.576 229.5,325C 228.99,326.826 228.156,326.993 227,325.5C 218.436,306.707 213.103,287.04 211,266.5C 209.251,236.031 208.084,205.698 207.5,175.5C 207.837,153.378 206.337,131.378 203,109.5C 200.964,104.536 198.464,99.8698 195.5,95.5C 187.09,87.4651 177.09,82.4651 165.5,80.5C 166.63,79.3777 167.297,78.0443 167.5,76.5C 170.073,75.4448 172.739,75.2782 175.5,76C 173.833,77 172.5,78.3333 171.5,80C 174.489,82.2723 175.822,81.439 175.5,77.5C 180.875,77.8282 186.208,77.4948 191.5,76.5C 189.453,74.9848 187.119,74.1515 184.5,74C 180.5,73.6667 176.5,73.3333 172.5,73C 173.579,72.044 174.745,71.2106 176,70.5C 181.025,70.4885 186.191,70.6552 191.5,71C 200.153,72.2319 208.82,73.5653 217.5,75C 219.376,73.9827 221.376,73.1494 223.5,72.5C 224.23,69.8908 224.73,67.2241 225,64.5C 227.328,63.3365 229.162,61.6698 230.5,59.5 Z"/></g>
<g><path style="opacity:0.129" fill="#f4ceaa" d="M 27.5,76.5 C 30.3848,83.2461 30.0515,89.9128 26.5,96.5C 26.1667,96.5 25.8333,96.5 25.5,96.5C 28.6319,90.1069 29.2985,83.4402 27.5,76.5 Z"/></g>
<g><path style="opacity:0.441" fill="#e1af7d" d="M 321.5,81.5 C 322.837,83.3495 323.503,85.5161 323.5,88C 322.697,93.1368 322.364,98.3035 322.5,103.5C 321.508,96.3524 321.175,89.0191 321.5,81.5 Z"/></g>
<g><path style="opacity:1" fill="#f39503" d="M 47.5,27.5 C 47.4613,31.2017 47.628,35.2017 48,39.5C 49.7105,41.9562 51.0438,44.6229 52,47.5C 56.8607,55.0274 63.0274,61.194 70.5,66C 88.2851,75.4119 107.285,79.9119 127.5,79.5C 138.988,80.4949 150.655,80.8283 162.5,80.5C 160.708,81.3091 158.708,81.8091 156.5,82C 162.473,84.2685 168.473,86.4352 174.5,88.5C 177.473,90.8062 180.14,93.4728 182.5,96.5C 192.003,116.189 194.836,136.856 191,158.5C 186.699,167.771 179.532,173.438 169.5,175.5C 152.793,175.026 136.126,174.026 119.5,172.5C 116.833,172.5 114.167,172.5 111.5,172.5C 106.911,170.125 101.911,169.125 96.5,169.5C 96.1667,169.5 95.8333,169.5 95.5,169.5C 95.5,168.5 95.5,167.5 95.5,166.5C 89.5689,165.185 83.5689,164.185 77.5,163.5C 75.8243,161.166 73.491,160.166 70.5,160.5C 70.1667,160.5 69.8333,160.5 69.5,160.5C 67.9261,157.292 65.2594,155.958 61.5,156.5C 60.656,154.241 58.9893,153.241 56.5,153.5C 55.5084,153.672 54.8417,153.338 54.5,152.5C 54.0269,151.094 53.0269,150.427 51.5,150.5C 51.0269,149.094 50.0269,148.427 48.5,148.5C 47.7377,146.738 46.4044,145.738 44.5,145.5C 44.1667,144.833 43.8333,144.167 43.5,143.5C 43.9382,143.565 44.2716,143.399 44.5,143C 41.6966,138.854 38.8633,134.688 36,130.5C 27.8494,107.983 35.3494,100.483 58.5,108C 71.4187,111.96 84.4187,115.626 97.5,119C 107.488,120.667 117.488,120.833 127.5,119.5C 127.439,116.27 125.772,114.437 122.5,114C 103.326,113.041 85.3256,108.041 68.5,99C 46.4809,83.7948 37.4809,62.9615 41.5,36.5C 41.6287,34.7839 41.962,33.1172 42.5,31.5C 44.1667,30.1667 45.8333,28.8333 47.5,27.5 Z"/></g>
<g><path style="opacity:0.745" fill="#e4a770" d="M 25.5,96.5 C 25.8333,96.5 26.1667,96.5 26.5,96.5C 25.626,100.033 24.2927,103.366 22.5,106.5C 21.5206,109.625 21.1872,112.958 21.5,116.5C 19.3368,109.183 20.6701,102.516 25.5,96.5 Z"/></g>
<g><path style="opacity:0.212" fill="#f0ba85" d="M 322.5,104.5 C 323.924,106.515 324.59,108.848 324.5,111.5C 324.167,111.5 323.833,111.5 323.5,111.5C 323.007,109.194 322.674,106.861 322.5,104.5 Z"/></g>
<g><path style="opacity:1" fill="#e67901" d="M 268.5,70.5 C 270.758,77.0214 273.591,83.3548 277,89.5C 280.021,102.859 283.021,116.192 286,129.5C 287.418,135.548 289.584,141.214 292.5,146.5C 291.833,147.167 291.167,147.833 290.5,148.5C 292.772,149.134 294.439,150.468 295.5,152.5C 295.5,152.833 295.5,153.167 295.5,153.5C 294.07,153.579 292.736,153.246 291.5,152.5C 290.614,153.325 290.281,154.325 290.5,155.5C 289.5,155.5 288.5,155.5 287.5,155.5C 287.5,156.5 287.5,157.5 287.5,158.5C 286.833,158.5 286.167,158.5 285.5,158.5C 283.052,136.575 279.218,114.908 274,93.5C 271.636,85.6328 268.136,78.2995 263.5,71.5C 265.117,70.962 266.784,70.6287 268.5,70.5 Z"/></g>
<g><path style="opacity:0.998" fill="#d5772b" d="M 22.5,106.5 C 22.1826,109.572 22.5159,112.572 23.5,115.5C 25.0576,119.506 26.3909,123.506 27.5,127.5C 27.1667,127.5 26.8333,127.5 26.5,127.5C 25.6618,127.158 25.3284,126.492 25.5,125.5C 24.6068,122.18 23.2735,119.18 21.5,116.5C 21.1872,112.958 21.5206,109.625 22.5,106.5 Z"/></g>
<g><path style="opacity:0.531" fill="#e6b262" d="M 324.5,111.5 C 325.973,114.017 326.64,116.85 326.5,120C 326.494,122.033 326.161,123.866 325.5,125.5C 325.167,125.5 324.833,125.5 324.5,125.5C 324.5,120.833 324.5,116.167 324.5,111.5 Z"/></g>
<g><path style="opacity:0.086" fill="#f3d0ac" d="M 21.5,116.5 C 23.2735,119.18 24.6068,122.18 25.5,125.5C 23.0257,123.102 21.6924,120.102 21.5,116.5 Z"/></g>
<g><path style="opacity:0.004" fill="#fde5c2" d="M 26.5,127.5 C 26.8333,127.5 27.1667,127.5 27.5,127.5C 29.2516,129.246 30.5849,131.246 31.5,133.5C 29.086,132.089 27.4194,130.089 26.5,127.5 Z"/></g>
<g><path style="opacity:1" fill="#e9971b" d="M 79.5,126.5 C 90.9605,127.493 101.961,130.326 112.5,135C 122.836,135.625 133.169,136.292 143.5,137C 148.527,138.223 150.694,141.39 150,146.5C 149.617,147.056 149.117,147.389 148.5,147.5C 148.945,144.635 148.278,142.135 146.5,140C 140.258,138.63 133.925,138.13 127.5,138.5C 125.052,137.527 122.385,137.194 119.5,137.5C 105.989,134.456 92.6559,130.789 79.5,126.5 Z"/></g>
<g><path style="opacity:0.698" fill="#ebbd71" d="M 324.5,125.5 C 324.833,125.5 325.167,125.5 325.5,125.5C 325.154,129.852 323.488,133.519 320.5,136.5C 321.587,132.707 322.92,129.04 324.5,125.5 Z"/></g>
<g><path style="opacity:0.012" fill="#fae4c1" d="M 31.5,133.5 C 33.4516,134.785 35.1182,136.451 36.5,138.5C 33.856,137.856 32.1894,136.189 31.5,133.5 Z"/></g>
<g><path style="opacity:1" fill="#f7bb66" d="M 119.5,137.5 C 122.385,137.194 125.052,137.527 127.5,138.5C 131.727,140.28 136.394,141.114 141.5,141C 144.792,141.756 145.792,143.589 144.5,146.5C 133.88,145.689 123.213,145.189 112.5,145C 112.167,144.667 111.833,144.333 111.5,144C 116.833,143.667 122.167,143.333 127.5,143C 126.833,142.667 126.167,142.333 125.5,142C 117.479,141.832 109.479,141.332 101.5,140.5C 97.1512,136.843 92.1512,135.676 86.5,137C 83.173,139.531 83.173,141.365 86.5,142.5C 89.4415,142.146 92.2748,141.48 95,140.5C 95.9794,142.32 97.4794,143.487 99.5,144C 91.5962,146.196 83.9296,145.529 76.5,142C 76.8333,141.667 77.1667,141.333 77.5,141C 72.1437,138.491 69.477,134.324 69.5,128.5C 74.1667,128.5 78.8333,128.5 83.5,128.5C 83.5,129.5 83.5,130.5 83.5,131.5C 90.7517,131.399 97.4183,133.233 103.5,137C 108.823,137.499 114.156,137.666 119.5,137.5 Z"/></g>
<g><path style="opacity:0.004" fill="#ffe9b3" d="M 320.5,136.5 C 320.573,138.027 319.906,139.027 318.5,139.5C 318.5,138.833 318.5,138.167 318.5,137.5C 319.167,137.167 319.833,136.833 320.5,136.5 Z"/></g>
<g><path style="opacity:0.455" fill="#f5cb9e" d="M 36.5,138.5 C 39.0934,139.754 41.4268,141.42 43.5,143.5C 43.8333,144.167 44.1667,144.833 44.5,145.5C 41.2358,143.906 38.5691,141.573 36.5,138.5 Z"/></g>
<g><path style="opacity:0.835" fill="#df9e3b" d="M 318.5,137.5 C 318.5,138.167 318.5,138.833 318.5,139.5C 316.596,139.738 315.262,140.738 314.5,142.5C 314.5,143.167 314.167,143.5 313.5,143.5C 311.973,143.427 310.973,144.094 310.5,145.5C 310.158,146.338 309.492,146.672 308.5,146.5C 308.167,146.5 307.833,146.5 307.5,146.5C 307.511,144.983 308.177,143.816 309.5,143C 312.198,140.652 315.198,138.819 318.5,137.5 Z"/></g>
<g><path style="opacity:0.016" fill="#fbe2b0" d="M 318.5,139.5 C 317.738,141.262 316.404,142.262 314.5,142.5C 315.262,140.738 316.596,139.738 318.5,139.5 Z"/></g>
<g><path style="opacity:1" fill="#f9bc60" d="M 79.5,126.5 C 92.6559,130.789 105.989,134.456 119.5,137.5C 114.156,137.666 108.823,137.499 103.5,137C 97.4183,133.233 90.7517,131.399 83.5,131.5C 83.5,130.5 83.5,129.5 83.5,128.5C 78.8333,128.5 74.1667,128.5 69.5,128.5C 69.477,134.324 72.1437,138.491 77.5,141C 77.1667,141.333 76.8333,141.667 76.5,142C 83.9296,145.529 91.5962,146.196 99.5,144C 97.4794,143.487 95.9794,142.32 95,140.5C 92.2748,141.48 89.4415,142.146 86.5,142.5C 83.173,141.365 83.173,139.531 86.5,137C 92.1512,135.676 97.1512,136.843 101.5,140.5C 109.479,141.332 117.479,141.832 125.5,142C 126.167,142.333 126.833,142.667 127.5,143C 122.167,143.333 116.833,143.667 111.5,144C 111.833,144.333 112.167,144.667 112.5,145C 123.213,145.189 133.88,145.689 144.5,146.5C 145.792,143.589 144.792,141.756 141.5,141C 136.394,141.114 131.727,140.28 127.5,138.5C 133.925,138.13 140.258,138.63 146.5,140C 148.278,142.135 148.945,144.635 148.5,147.5C 146.284,149.865 143.618,151.698 140.5,153C 117.922,155.215 96.2557,151.882 75.5,143C 72.2098,140.386 69.7098,137.219 68,133.5C 67.1041,130.975 67.6041,128.808 69.5,127C 72.8168,126.502 76.1501,126.335 79.5,126.5 Z"/></g>
<g><path style="opacity:1" fill="#e87701" d="M 167.5,76.5 C 167.297,78.0443 166.63,79.3777 165.5,80.5C 177.09,82.4651 187.09,87.4651 195.5,95.5C 198.464,99.8698 200.964,104.536 203,109.5C 206.337,131.378 207.837,153.378 207.5,175.5C 198.986,175.953 190.486,176.62 182,177.5C 180.342,177.325 179.009,176.658 178,175.5C 177.601,175.728 177.435,176.062 177.5,176.5C 176.833,176.5 176.167,176.5 175.5,176.5C 173.265,176.795 171.265,176.461 169.5,175.5C 179.532,173.438 186.699,167.771 191,158.5C 194.836,136.856 192.003,116.189 182.5,96.5C 180.14,93.4728 177.473,90.8062 174.5,88.5C 168.473,86.4352 162.473,84.2685 156.5,82C 158.708,81.8091 160.708,81.3091 162.5,80.5C 164.167,79.1667 165.833,77.8333 167.5,76.5 Z"/></g>
<g><path style="opacity:0.008" fill="#fde4b3" d="M 313.5,143.5 C 313.027,144.906 312.027,145.573 310.5,145.5C 310.973,144.094 311.973,143.427 313.5,143.5 Z"/></g>
<g><path style="opacity:0.227" fill="#fdd79f" d="M 44.5,145.5 C 46.4044,145.738 47.7377,146.738 48.5,148.5C 46.5956,148.262 45.2623,147.262 44.5,145.5 Z"/></g>
<g><path style="opacity:0.184" fill="#f8daa6" d="M 48.5,148.5 C 50.0269,148.427 51.0269,149.094 51.5,150.5C 49.9731,150.573 48.9731,149.906 48.5,148.5 Z"/></g>
<g><path style="opacity:0.498" fill="#edb56b" d="M 307.5,146.5 C 307.833,146.5 308.167,146.5 308.5,146.5C 304.653,149.593 300.32,151.926 295.5,153.5C 295.5,153.167 295.5,152.833 295.5,152.5C 299.015,149.624 303.015,147.624 307.5,146.5 Z"/></g>
<g><path style="opacity:0.118" fill="#f8dca1" d="M 51.5,150.5 C 53.0269,150.427 54.0269,151.094 54.5,152.5C 52.9731,152.573 51.9731,151.906 51.5,150.5 Z"/></g>
<g><path style="opacity:0.769" fill="#ebb164" d="M 56.5,153.5 C 58.9893,153.241 60.656,154.241 61.5,156.5C 59.5659,155.89 57.8993,154.89 56.5,153.5 Z"/></g>
<g><path style="opacity:0.671" fill="#de8e4d" d="M 295.5,153.5 C 293.206,155.653 290.54,157.32 287.5,158.5C 287.5,157.5 287.5,156.5 287.5,155.5C 288.5,155.5 289.5,155.5 290.5,155.5C 290.281,154.325 290.614,153.325 291.5,152.5C 292.736,153.246 294.07,153.579 295.5,153.5 Z"/></g>
<g><path style="opacity:0.522" fill="#e2ab52" d="M 61.5,156.5 C 65.2594,155.958 67.9261,157.292 69.5,160.5C 66.5152,159.674 63.8485,158.341 61.5,156.5 Z"/></g>
<g><path style="opacity:0.482" fill="#eab362" d="M 70.5,160.5 C 73.491,160.166 75.8243,161.166 77.5,163.5C 74.8427,163.065 72.5093,162.065 70.5,160.5 Z"/></g>
<g><path style="opacity:0.655" fill="#e2a043" d="M 77.5,163.5 C 83.5689,164.185 89.5689,165.185 95.5,166.5C 95.5,167.5 95.5,168.5 95.5,169.5C 89.2153,168.072 83.2153,166.072 77.5,163.5 Z"/></g>
<g><path style="opacity:0.396" fill="#ecbe7a" d="M 286.5,159.5 C 286.616,162.86 286.949,166.193 287.5,169.5C 286.028,167.883 285.361,165.883 285.5,163.5C 285.511,161.955 285.844,160.622 286.5,159.5 Z"/></g>
<g><path style="opacity:0.314" fill="#e8b56d" d="M 96.5,169.5 C 101.911,169.125 106.911,170.125 111.5,172.5C 106.269,172.075 101.269,171.075 96.5,169.5 Z"/></g>
<g><path style="opacity:0.224" fill="#e6b263" d="M 111.5,172.5 C 114.167,172.5 116.833,172.5 119.5,172.5C 123.267,173.097 126.934,174.097 130.5,175.5C 123.942,175.085 117.609,174.085 111.5,172.5 Z"/></g>
<g><path style="opacity:0.911" fill="#e89b37" d="M 119.5,172.5 C 136.126,174.026 152.793,175.026 169.5,175.5C 171.265,176.461 173.265,176.795 175.5,176.5C 175.5,177.167 175.167,177.5 174.5,177.5C 159.783,177.745 145.116,177.078 130.5,175.5C 126.934,174.097 123.267,173.097 119.5,172.5 Z"/></g>
<g><path style="opacity:1" fill="#ea7701" d="M 219.5,335.5 C 217.396,335.201 215.396,335.534 213.5,336.5C 213.709,337.086 214.043,337.586 214.5,338C 210.739,340.451 207.572,339.951 205,336.5C 204.29,337.973 203.124,338.64 201.5,338.5C 201.719,337.325 201.386,336.325 200.5,335.5C 199.705,337.495 199.039,339.495 198.5,341.5C 197.833,341.5 197.167,341.5 196.5,341.5C 194.621,340.659 192.621,340.325 190.5,340.5C 190.189,339.522 189.522,338.855 188.5,338.5C 187.824,339.602 187.158,340.602 186.5,341.5C 186.5,341.167 186.5,340.833 186.5,340.5C 184.462,329.713 182.462,319.046 180.5,308.5C 180.5,306.833 180.5,305.167 180.5,303.5C 180.938,292.61 180.272,281.943 178.5,271.5C 178.5,242.5 178.5,213.5 178.5,184.5C 183.704,184.702 188.871,184.369 194,183.5C 196.261,183.865 198.427,184.531 200.5,185.5C 202.504,215.823 204.337,246.156 206,276.5C 208.008,296.838 212.508,316.504 219.5,335.5 Z"/></g>
<g><path style="opacity:1" fill="#eb8c01" d="M 222.5,78.5 C 226.12,79.4515 227.787,81.7849 227.5,85.5C 228.675,85.281 229.675,85.6143 230.5,86.5C 232.587,90.3454 234.921,94.012 237.5,97.5C 239.317,104.455 241.817,111.122 245,117.5C 246.284,127.605 248.95,137.272 253,146.5C 254.229,157.122 256.562,167.456 260,177.5C 261.487,197.746 267.987,216.079 279.5,232.5C 283.411,237.978 288.078,242.811 293.5,247C 292.092,247.315 290.759,246.982 289.5,246C 286.223,242.884 282.557,240.384 278.5,238.5C 271.39,229.942 265.556,220.608 261,210.5C 259.283,198.656 257.117,186.989 254.5,175.5C 253.5,175.5 252.5,175.5 251.5,175.5C 250.89,163.729 248.39,152.396 244,141.5C 241.644,124.765 236.311,109.098 228,94.5C 225.899,89.2896 224.066,83.9563 222.5,78.5 Z"/></g>
<g><path style="opacity:0.961" fill="#e8a139" d="M 285.5,158.5 C 286.167,158.5 286.833,158.5 287.5,158.5C 287.5,159.167 287.167,159.5 286.5,159.5C 285.844,160.622 285.511,161.955 285.5,163.5C 285.361,165.883 286.028,167.883 287.5,169.5C 289.018,178.461 290.352,187.461 291.5,196.5C 291.5,197.5 291.5,198.5 291.5,199.5C 290.603,198.402 289.77,198.402 289,199.5C 288.626,198.584 288.126,197.75 287.5,197C 288.632,192.587 288.799,188.087 288,183.5C 287.147,179.531 286.481,175.531 286,171.5C 285.189,172.96 284.355,173.293 283.5,172.5C 285.168,167.733 284.835,163.233 282.5,159C 283.448,158.517 284.448,158.351 285.5,158.5 Z"/></g>
<g><path style="opacity:0.393" fill="#e0ad75" d="M 175.5,176.5 C 176.167,176.5 176.833,176.5 177.5,176.5C 177.5,200.167 177.5,223.833 177.5,247.5C 176.025,226.998 175.691,206.331 176.5,185.5C 176.379,182.559 175.713,179.892 174.5,177.5C 175.167,177.5 175.5,177.167 175.5,176.5 Z"/></g>
<g><path style="opacity:0.247" fill="#f5c980" d="M 291.5,196.5 C 292.768,198.905 293.435,201.572 293.5,204.5C 292.463,203.07 291.796,201.403 291.5,199.5C 291.5,198.5 291.5,197.5 291.5,196.5 Z"/></g>
<g><path style="opacity:0.173" fill="#ebc688" d="M 294.5,210.5 C 295.924,212.515 296.59,214.848 296.5,217.5C 295.076,215.485 294.41,213.152 294.5,210.5 Z"/></g>
<g><path style="opacity:0.792" fill="#e1af51" d="M 296.5,217.5 C 298.125,221.303 299.458,225.303 300.5,229.5C 299.542,229.047 298.708,228.381 298,227.5C 297.39,224.173 296.89,220.839 296.5,217.5 Z"/></g>
<g><path style="opacity:0.58" fill="#ebb464" d="M 300.5,229.5 C 304.151,238.14 307.818,246.806 311.5,255.5C 307.304,249.775 304.138,243.442 302,236.5C 301.667,236.833 301.333,237.167 301,237.5C 300.503,234.854 300.336,232.187 300.5,229.5 Z"/></g>
<g><path style="opacity:0.09" fill="#ffe3a8" d="M 313.5,259.5 C 315.25,260.659 316.25,262.326 316.5,264.5C 314.75,263.341 313.75,261.674 313.5,259.5 Z"/></g>
<g><path style="opacity:0.106" fill="#fee7bc" d="M 316.5,264.5 C 317.906,264.973 318.573,265.973 318.5,267.5C 317.094,267.027 316.427,266.027 316.5,264.5 Z"/></g>
<g><path style="opacity:0.098" fill="#fde8c7" d="M 318.5,267.5 C 320.326,269.147 321.66,271.147 322.5,273.5C 320.178,272.198 318.845,270.198 318.5,267.5 Z"/></g>
<g><path style="opacity:0.169" fill="#fce1b0" d="M 322.5,273.5 C 324.262,274.262 325.262,275.596 325.5,277.5C 324.833,277.167 324.167,276.833 323.5,276.5C 322.89,275.609 322.557,274.609 322.5,273.5 Z"/></g>
<g><path style="opacity:0.043" fill="#f9e5b4" d="M 325.5,282.5 C 323.5,281.167 321.5,281.167 319.5,282.5C 319.5,282.167 319.5,281.833 319.5,281.5C 320.167,281.5 320.5,281.167 320.5,280.5C 322.834,279.159 324.501,279.826 325.5,282.5 Z"/></g>
<g><path style="opacity:0.78" fill="#d89b40" d="M 323.5,276.5 C 324.167,276.833 324.833,277.167 325.5,277.5C 326.597,279.774 327.93,281.941 329.5,284C 329.333,284.5 329.167,285 329,285.5C 327.961,284.29 326.794,283.29 325.5,282.5C 324.501,279.826 322.834,279.159 320.5,280.5C 321.5,279.167 322.5,277.833 323.5,276.5 Z"/></g>
<g><path style="opacity:0.818" fill="#dd8e4a" d="M 177.5,271.5 C 177.833,271.5 178.167,271.5 178.5,271.5C 180.272,281.943 180.938,292.61 180.5,303.5C 180.167,303.5 179.833,303.5 179.5,303.5C 178.55,292.906 177.884,282.24 177.5,271.5 Z"/></g>
<g><path style="opacity:0.463" fill="#e5b570" d="M 319.5,281.5 C 319.5,281.833 319.5,282.167 319.5,282.5C 319.389,283.117 319.056,283.617 318.5,284C 321.419,289.637 324.419,295.137 327.5,300.5C 325.097,300.607 323.264,299.607 322,297.5C 319.888,294.273 318.055,290.94 316.5,287.5C 316.179,285.952 315.179,285.285 313.5,285.5C 315.12,283.587 317.12,282.253 319.5,281.5 Z"/></g>
<g><path style="opacity:0.031" fill="#fadcb2" d="M 313.5,285.5 C 315.179,285.285 316.179,285.952 316.5,287.5C 314.549,286.359 312.549,286.359 310.5,287.5C 310.973,286.094 311.973,285.427 313.5,285.5 Z"/></g>
<g><path style="opacity:0.627" fill="#e8c395" d="M 325.5,277.5 C 329.968,282.139 334.301,286.972 338.5,292C 337.344,293.615 336.011,293.615 334.5,292C 331.218,288.891 328.218,285.724 325.5,282.5C 326.794,283.29 327.961,284.29 329,285.5C 329.167,285 329.333,284.5 329.5,284C 327.93,281.941 326.597,279.774 325.5,277.5 Z"/></g>
<g><path style="opacity:0.533" fill="#eac389" d="M 310.5,287.5 C 310.167,288.167 309.833,288.833 309.5,289.5C 307.952,289.821 307.285,290.821 307.5,292.5C 305.647,289.978 303.647,289.978 301.5,292.5C 302.771,297.313 304.438,301.98 306.5,306.5C 306.444,307.737 305.944,308.737 305,309.5C 302.101,306.369 300.268,302.702 299.5,298.5C 298.661,297.359 297.994,296.026 297.5,294.5C 296.675,293.614 295.675,293.281 294.5,293.5C 295.884,292.199 297.384,292.199 299,293.5C 299.483,292.552 299.649,291.552 299.5,290.5C 303.099,289.301 306.765,288.301 310.5,287.5 Z"/></g>
<g><path style="opacity:0.153" fill="#ffe4b1" d="M 307.5,292.5 C 309.008,294.181 310.008,296.181 310.5,298.5C 308.461,297.089 307.461,295.089 307.5,292.5 Z"/></g>
<g><path style="opacity:0.808" fill="#dd9c53" d="M 309.5,289.5 C 310.674,290.514 311.34,291.847 311.5,293.5C 311.357,295.262 311.691,296.929 312.5,298.5C 312.03,299.463 311.363,299.463 310.5,298.5C 310.008,296.181 309.008,294.181 307.5,292.5C 307.285,290.821 307.952,289.821 309.5,289.5 Z"/></g>
<g><path style="opacity:0.655" fill="#f0cd96" d="M 294.5,293.5 C 293.791,294.404 292.791,294.737 291.5,294.5C 291.5,295.833 291.5,297.167 291.5,298.5C 290.105,296.946 289.439,297.279 289.5,299.5C 290.046,301.135 290.38,302.801 290.5,304.5C 289.065,302.402 287.898,300.069 287,297.5C 285.989,296.663 284.822,296.33 283.5,296.5C 287.149,295.609 290.816,294.609 294.5,293.5 Z"/></g>
<g><path style="opacity:0.798" fill="#d59936" d="M 299.5,298.5 C 299.345,293.9 300.012,293.567 301.5,297.5C 301.561,299.721 300.895,300.054 299.5,298.5 Z"/></g>
<g><path style="opacity:0.051" fill="#feeeb4" d="M 271.5,299.5 C 272.919,298.549 274.585,298.216 276.5,298.5C 276.5,299.167 276.5,299.833 276.5,300.5C 274.958,299.699 273.292,299.366 271.5,299.5 Z"/></g>
<g><path style="opacity:0.053" fill="#fef4d1" d="M 283.5,296.5 C 282.791,297.404 281.791,297.737 280.5,297.5C 280.5,299.5 280.5,301.5 280.5,303.5C 279.539,301.735 279.205,299.735 279.5,297.5C 280.568,296.566 281.901,296.232 283.5,296.5 Z"/></g>
<g><path style="opacity:0.694" fill="#e9b983" d="M 311.5,293.5 C 313.003,296.668 314.669,299.835 316.5,303C 316.37,304.059 315.87,304.892 315,305.5C 312.98,303.449 311.48,301.116 310.5,298.5C 311.363,299.463 312.03,299.463 312.5,298.5C 311.691,296.929 311.357,295.262 311.5,293.5 Z"/></g>
<g><path style="opacity:0.11" fill="#ffebbe" d="M 268.5,299.5 C 269.5,299.5 270.5,299.5 271.5,299.5C 270.909,300.151 270.243,300.818 269.5,301.5C 270.246,302.736 270.579,304.07 270.5,305.5C 268.926,303.898 268.259,301.898 268.5,299.5 Z"/></g>
<g><path style="opacity:0.729" fill="#d18f3b" d="M 291.5,298.5 C 291.318,300.591 291.652,302.591 292.5,304.5C 292.03,305.463 291.363,305.463 290.5,304.5C 290.38,302.801 290.046,301.135 289.5,299.5C 289.439,297.279 290.105,296.946 291.5,298.5 Z"/></g>
<g><path style="opacity:0.069" fill="#fde9c3" d="M 266.5,300.5 C 267.301,304.235 268.301,307.901 269.5,311.5C 267.54,308.823 266.04,305.823 265,302.5C 263.187,301.391 262.354,302.058 262.5,304.5C 261.596,303.791 261.263,302.791 261.5,301.5C 262.919,300.549 264.585,300.216 266.5,300.5 Z"/></g>
<g><path style="opacity:1" fill="#d86904" d="M 207.5,175.5 C 208.084,205.698 209.251,236.031 211,266.5C 213.103,287.04 218.436,306.707 227,325.5C 228.156,326.993 228.99,326.826 229.5,325C 227.042,318.576 224.709,312.076 222.5,305.5C 225.833,305.5 229.167,305.5 232.5,305.5C 234.135,312.178 236.801,318.512 240.5,324.5C 240.833,324.167 241.167,323.833 241.5,323.5C 238.47,317.743 236.47,311.743 235.5,305.5C 238.244,304.795 240.911,304.795 243.5,305.5C 245.983,311.628 248.649,317.628 251.5,323.5C 251.833,323 252.167,322.5 252.5,322C 250.028,316.223 247.695,310.39 245.5,304.5C 248.753,303.402 252.086,302.736 255.5,302.5C 256.526,309.068 259.026,315.068 263,320.5C 260.643,314.416 258.81,308.082 257.5,301.5C 258.833,301.5 260.167,301.5 261.5,301.5C 261.263,302.791 261.596,303.791 262.5,304.5C 262.42,307.781 263.087,310.781 264.5,313.5C 264.259,315.898 264.926,317.898 266.5,319.5C 266.357,321.262 266.691,322.929 267.5,324.5C 266.23,325.288 265.23,326.288 264.5,327.5C 264.158,328.338 263.492,328.672 262.5,328.5C 261.508,328.328 260.842,328.662 260.5,329.5C 255.129,329.26 250.129,330.427 245.5,333C 246.167,333.333 246.833,333.667 247.5,334C 246.584,334.278 245.918,334.778 245.5,335.5C 244.167,335.5 242.833,335.5 241.5,335.5C 237.755,335.772 234.422,336.772 231.5,338.5C 230.833,338.833 230.167,339.167 229.5,339.5C 227.352,338.576 225.018,338.576 222.5,339.5C 220.97,339.64 219.97,340.307 219.5,341.5C 219.167,341.5 218.833,341.5 218.5,341.5C 218.5,340.833 218.167,340.5 217.5,340.5C 218.167,338.833 218.833,337.167 219.5,335.5C 212.508,316.504 208.008,296.838 206,276.5C 204.337,246.156 202.504,215.823 200.5,185.5C 198.427,184.531 196.261,183.865 194,183.5C 188.871,184.369 183.704,184.702 178.5,184.5C 178.5,213.5 178.5,242.5 178.5,271.5C 178.167,271.5 177.833,271.5 177.5,271.5C 177.5,263.5 177.5,255.5 177.5,247.5C 177.5,223.833 177.5,200.167 177.5,176.5C 177.435,176.062 177.601,175.728 178,175.5C 179.009,176.658 180.342,177.325 182,177.5C 190.486,176.62 198.986,175.953 207.5,175.5 Z"/></g>
<g><path style="opacity:0.443" fill="#f4d0a4" d="M 262.5,304.5 C 263.913,307.219 264.58,310.219 264.5,313.5C 263.087,310.781 262.42,307.781 262.5,304.5 Z"/></g>
<g><path style="opacity:0.702" fill="#daa051" d="M 268.5,299.5 C 268.259,301.898 268.926,303.898 270.5,305.5C 271.404,306.209 271.737,307.209 271.5,308.5C 271.657,309.873 271.49,311.207 271,312.5C 270.617,311.944 270.117,311.611 269.5,311.5C 268.301,307.901 267.301,304.235 266.5,300.5C 266.842,299.662 267.508,299.328 268.5,299.5 Z"/></g>
<g><path style="opacity:0.659" fill="#e6b575" d="M 279.5,297.5 C 279.205,299.735 279.539,301.735 280.5,303.5C 283.298,307.082 284.298,311.082 283.5,315.5C 279.834,311.165 277.5,306.165 276.5,300.5C 276.5,299.833 276.5,299.167 276.5,298.5C 277.609,298.443 278.609,298.11 279.5,297.5 Z"/></g>
<g><path style="opacity:0.729" fill="#e4b676" d="M 291.5,298.5 C 292.972,302.292 294.639,306.125 296.5,310C 296.237,311.946 295.237,312.612 293.5,312C 292.009,309.692 291.009,307.192 290.5,304.5C 291.363,305.463 292.03,305.463 292.5,304.5C 291.652,302.591 291.318,300.591 291.5,298.5 Z"/></g>
<g><path style="opacity:0.743" fill="#d77b29" d="M 180.5,308.5 C 182.462,319.046 184.462,329.713 186.5,340.5C 185.833,339.833 185.167,339.167 184.5,338.5C 183.962,336.883 183.629,335.216 183.5,333.5C 183.678,329.878 183.011,326.544 181.5,323.5C 181.5,323.167 181.5,322.833 181.5,322.5C 181.46,317.807 181.127,313.141 180.5,308.5 Z"/></g>
<g><path style="opacity:0.153" fill="#eac08e" d="M 179.5,303.5 C 179.833,303.5 180.167,303.5 180.5,303.5C 180.5,305.167 180.5,306.833 180.5,308.5C 181.127,313.141 181.46,317.807 181.5,322.5C 180.004,316.395 179.337,310.062 179.5,303.5 Z"/></g>
<g><path style="opacity:0.471" fill="#efba94" d="M 264.5,313.5 C 265.738,315.214 266.405,317.214 266.5,319.5C 264.926,317.898 264.259,315.898 264.5,313.5 Z"/></g>
<g><path style="opacity:0.392" fill="#dfb886" d="M 271.5,308.5 C 273.945,311.333 275.112,314.666 275,318.5C 274.107,319.711 273.274,319.711 272.5,318.5C 271.212,316.261 270.212,313.928 269.5,311.5C 270.117,311.611 270.617,311.944 271,312.5C 271.49,311.207 271.657,309.873 271.5,308.5 Z"/></g>
<g><path style="opacity:0.039" fill="#f5d19f" d="M 181.5,323.5 C 183.011,326.544 183.678,329.878 183.5,333.5C 182.215,330.411 181.549,327.078 181.5,323.5 Z"/></g>
<g><path style="opacity:0.698" fill="#e4af84" d="M 266.5,319.5 C 268.341,321.849 269.674,324.515 270.5,327.5C 269.35,326.15 268.683,326.316 268.5,328C 268.989,329.138 269.322,330.305 269.5,331.5C 268.24,329.633 266.573,328.3 264.5,327.5C 265.23,326.288 266.23,325.288 267.5,324.5C 266.691,322.929 266.357,321.262 266.5,319.5 Z"/></g>
<g><path style="opacity:0.173" fill="#fccdb2" d="M 270.5,327.5 C 271.906,327.973 272.573,328.973 272.5,330.5C 271.094,330.027 270.427,329.027 270.5,327.5 Z"/></g>
<g><path style="opacity:1" fill="#cf773a" d="M 260.5,329.5 C 260.672,330.492 260.338,331.158 259.5,331.5C 257.435,331.517 255.435,331.85 253.5,332.5C 251.448,333.053 251.115,334.053 252.5,335.5C 252.698,337.575 252.865,339.575 253,341.5C 252.098,339.569 250.931,337.903 249.5,336.5C 248.432,335.566 247.099,335.232 245.5,335.5C 245.918,334.778 246.584,334.278 247.5,334C 246.833,333.667 246.167,333.333 245.5,333C 250.129,330.427 255.129,329.26 260.5,329.5 Z"/></g>
<g><path style="opacity:0.706" fill="#d39069" d="M 262.5,328.5 C 263.723,333.841 265.723,338.841 268.5,343.5C 268.5,344.833 267.833,345.5 266.5,345.5C 265.662,345.158 265.328,344.492 265.5,343.5C 264.921,340.669 263.588,338.336 261.5,336.5C 260.069,335.22 259.402,333.553 259.5,331.5C 260.338,331.158 260.672,330.492 260.5,329.5C 260.842,328.662 261.508,328.328 262.5,328.5 Z"/></g>
<g><path style="opacity:0.494" fill="#e8c0a3" d="M 269.5,331.5 C 271.446,332.035 272.446,333.368 272.5,335.5C 271.026,334.564 270.026,333.23 269.5,331.5 Z"/></g>
<g><path style="opacity:0.353" fill="#f5d2b5" d="M 272.5,330.5 C 274.262,331.262 275.262,332.596 275.5,334.5C 273.738,333.738 272.738,332.404 272.5,330.5 Z"/></g>
<g><path style="opacity:0.675" fill="#ac673f" d="M 270.5,327.5 C 270.427,329.027 271.094,330.027 272.5,330.5C 272.738,332.404 273.738,333.738 275.5,334.5C 275.631,335.239 275.464,335.906 275,336.5C 274.329,335.748 273.496,335.414 272.5,335.5C 272.446,333.368 271.446,332.035 269.5,331.5C 269.322,330.305 268.989,329.138 268.5,328C 268.683,326.316 269.35,326.15 270.5,327.5 Z"/></g>
<g><path style="opacity:0.055" fill="#ffeac5" d="M 253.5,332.5 C 252.89,333.391 252.557,334.391 252.5,335.5C 251.115,334.053 251.448,333.053 253.5,332.5 Z"/></g>
<g><path style="opacity:0.816" fill="#c76e33" d="M 241.5,335.5 C 241.054,338.01 241.72,340.01 243.5,341.5C 243.657,342.873 243.49,344.207 243,345.5C 242.098,343.569 240.931,341.903 239.5,340.5C 239.5,339.5 239.5,338.5 239.5,337.5C 237.585,337.216 235.919,337.549 234.5,338.5C 234.167,338.5 233.833,338.5 233.5,338.5C 232.833,338.5 232.167,338.5 231.5,338.5C 234.422,336.772 237.755,335.772 241.5,335.5 Z"/></g>
<g><path style="opacity:1" fill="#dd7917" d="M 219.5,335.5 C 218.833,337.167 218.167,338.833 217.5,340.5C 214.833,340.5 212.167,340.5 209.5,340.5C 208.833,340.833 208.167,341.167 207.5,341.5C 204.5,341.5 201.5,341.5 198.5,341.5C 199.039,339.495 199.705,337.495 200.5,335.5C 201.386,336.325 201.719,337.325 201.5,338.5C 203.124,338.64 204.29,337.973 205,336.5C 207.572,339.951 210.739,340.451 214.5,338C 214.043,337.586 213.709,337.086 213.5,336.5C 215.396,335.534 217.396,335.201 219.5,335.5 Z"/></g>
<g><path style="opacity:0.024" fill="#fef4e1" d="M 234.5,338.5 C 235.919,337.549 237.585,337.216 239.5,337.5C 239.5,338.5 239.5,339.5 239.5,340.5C 238.221,339.032 236.554,338.365 234.5,338.5 Z"/></g>
<g><path style="opacity:0.133" fill="#f4d1b0" d="M 241.5,335.5 C 242.833,335.5 244.167,335.5 245.5,335.5C 244.791,336.404 243.791,336.737 242.5,336.5C 242.629,338.216 242.962,339.883 243.5,341.5C 241.72,340.01 241.054,338.01 241.5,335.5 Z"/></g>
<g><path style="opacity:0.235" fill="#dfc5ad" d="M 275.5,334.5 C 277.296,335.793 278.963,337.293 280.5,339C 280.002,340.158 279.169,340.991 278,341.5C 275.483,340.138 273.65,338.138 272.5,335.5C 273.496,335.414 274.329,335.748 275,336.5C 275.464,335.906 275.631,335.239 275.5,334.5 Z"/></g>
<g><path style="opacity:0.09" fill="#fef0d0" d="M 231.5,338.5 C 232.167,338.5 232.833,338.5 233.5,338.5C 232.89,339.391 232.557,340.391 232.5,341.5C 231.596,340.791 231.263,339.791 231.5,338.5 Z"/></g>
<g><path style="opacity:0.082" fill="#fcddb3" d="M 209.5,340.5 C 212.167,340.5 214.833,340.5 217.5,340.5C 218.167,340.5 218.5,340.833 218.5,341.5C 218.993,343.806 219.326,346.139 219.5,348.5C 218.076,346.485 217.41,344.152 217.5,341.5C 215.167,341.5 212.833,341.5 210.5,341.5C 210.5,342.833 210.5,344.167 210.5,345.5C 209.549,344.081 209.216,342.415 209.5,340.5 Z"/></g>
<g><path style="opacity:0.122" fill="#fbd8a3" d="M 190.5,340.5 C 192.621,340.325 194.621,340.659 196.5,341.5C 196.5,342.833 196.5,344.167 196.5,345.5C 195.768,344.192 194.934,342.858 194,341.5C 192.701,341.966 191.201,341.966 189.5,341.5C 189.5,342.5 189.5,343.5 189.5,344.5C 188.876,344.083 188.543,343.416 188.5,342.5C 188.747,341.287 189.414,340.62 190.5,340.5 Z"/></g>
<g><path style="opacity:0.718" fill="#e4b38e" d="M 252.5,335.5 C 254.204,338.256 255.537,341.256 256.5,344.5C 255.35,343.15 254.683,343.316 254.5,345C 254.989,346.138 255.322,347.305 255.5,348.5C 252.465,345.098 250.465,341.098 249.5,336.5C 250.931,337.903 252.098,339.569 253,341.5C 252.865,339.575 252.698,337.575 252.5,335.5 Z"/></g>
<g><path style="opacity:0.306" fill="#f5c79b" d="M 229.5,339.5 C 230.323,342.461 230.99,345.461 231.5,348.5C 230.025,345.664 228.691,342.664 227.5,339.5C 225.591,340.348 223.591,340.682 221.5,340.5C 222.032,344.961 223.032,349.294 224.5,353.5C 223.685,352.571 222.852,351.571 222,350.5C 221.82,352.488 221.986,354.488 222.5,356.5C 220.733,354.208 219.733,351.542 219.5,348.5C 220.895,350.054 221.561,349.721 221.5,347.5C 221.122,345.283 220.455,343.283 219.5,341.5C 219.97,340.307 220.97,339.64 222.5,339.5C 225.018,338.576 227.352,338.576 229.5,339.5 Z"/></g>
<g><path style="opacity:0.059" fill="#f2dab6" d="M 261.5,336.5 C 263.588,338.336 264.921,340.669 265.5,343.5C 263.412,341.664 262.079,339.331 261.5,336.5 Z"/></g>
<g><path style="opacity:0.827" fill="#c87a3f" d="M 209.5,340.5 C 209.216,342.415 209.549,344.081 210.5,345.5C 210.054,348.01 210.72,350.01 212.5,351.5C 212.261,353.467 212.594,355.301 213.5,357C 212.906,357.464 212.239,357.631 211.5,357.5C 210.596,356.791 210.263,355.791 210.5,354.5C 209.192,350.224 208.192,345.891 207.5,341.5C 208.167,341.167 208.833,340.833 209.5,340.5 Z"/></g>
<g><path style="opacity:0.82" fill="#b85e2d" d="M 256.5,344.5 C 256.539,345.583 256.873,346.583 257.5,347.5C 257.043,348.298 256.376,348.631 255.5,348.5C 255.322,347.305 254.989,346.138 254.5,345C 254.683,343.316 255.35,343.15 256.5,344.5 Z"/></g>
<g><path style="opacity:0.059" fill="#ffedd7" d="M 232.5,342.5 C 234.074,344.102 234.741,346.102 234.5,348.5C 233.262,346.786 232.595,344.786 232.5,342.5 Z"/></g>
<g><path style="opacity:0.733" fill="#e6ba9a" d="M 239.5,340.5 C 240.931,341.903 242.098,343.569 243,345.5C 243.49,344.207 243.657,342.873 243.5,341.5C 245.02,343.89 246.02,346.557 246.5,349.5C 245.21,348.942 244.377,347.942 244,346.5C 243.517,347.448 243.351,348.448 243.5,349.5C 241.416,346.947 240.083,343.947 239.5,340.5 Z"/></g>
<g><path style="opacity:0.094" fill="#f2d7c1" d="M 268.5,343.5 C 269.404,344.209 269.737,345.209 269.5,346.5C 268.209,346.737 267.209,346.404 266.5,345.5C 267.833,345.5 268.5,344.833 268.5,343.5 Z"/></g>
<g><path style="opacity:0.804" fill="#d07c3b" d="M 196.5,341.5 C 197.167,341.5 197.833,341.5 198.5,341.5C 198.328,342.492 198.662,343.158 199.5,343.5C 199.666,347.373 198.666,348.04 196.5,345.5C 196.5,344.167 196.5,342.833 196.5,341.5 Z"/></g>
<g><path style="opacity:0.765" fill="#c87132" d="M 218.5,341.5 C 218.833,341.5 219.167,341.5 219.5,341.5C 220.455,343.283 221.122,345.283 221.5,347.5C 221.561,349.721 220.895,350.054 219.5,348.5C 219.326,346.139 218.993,343.806 218.5,341.5 Z"/></g>
<g><path style="opacity:0.106" fill="#fadcbb" d="M 198.5,341.5 C 201.5,341.5 204.5,341.5 207.5,341.5C 208.192,345.891 209.192,350.224 210.5,354.5C 208.065,350.942 206.732,346.942 206.5,342.5C 203.941,342.198 201.607,342.532 199.5,343.5C 198.662,343.158 198.328,342.492 198.5,341.5 Z"/></g>
<g><path style="opacity:0.776" fill="#c47e54" d="M 231.5,338.5 C 231.263,339.791 231.596,340.791 232.5,341.5C 232.5,341.833 232.5,342.167 232.5,342.5C 232.595,344.786 233.262,346.786 234.5,348.5C 235.11,349.391 235.443,350.391 235.5,351.5C 235.715,353.179 235.048,354.179 233.5,354.5C 232.262,352.786 231.595,350.786 231.5,348.5C 230.99,345.461 230.323,342.461 229.5,339.5C 230.167,339.167 230.833,338.833 231.5,338.5 Z"/></g>
<g><path style="opacity:0.42" fill="#eed1af" d="M 189.5,344.5 C 190.612,346.599 191.279,348.933 191.5,351.5C 189.837,349.562 189.171,347.228 189.5,344.5 Z"/></g>
<g><path style="opacity:0.063" fill="#e7c8ad" d="M 256.5,344.5 C 258.213,345.635 258.88,347.302 258.5,349.5C 257.209,349.737 256.209,349.404 255.5,348.5C 256.376,348.631 257.043,348.298 257.5,347.5C 256.873,346.583 256.539,345.583 256.5,344.5 Z"/></g>
<g><path style="opacity:0.69" fill="#f5c8a0" d="M 210.5,345.5 C 211.738,347.214 212.405,349.214 212.5,351.5C 210.72,350.01 210.054,348.01 210.5,345.5 Z"/></g>
<g><path style="opacity:0.584" fill="#b97e5e" d="M 246.5,349.5 C 247.404,350.209 247.737,351.209 247.5,352.5C 245.027,352.912 243.694,351.912 243.5,349.5C 243.351,348.448 243.517,347.448 244,346.5C 244.377,347.942 245.21,348.942 246.5,349.5 Z"/></g>
<g><path style="opacity:0.039" fill="#fddeb4" d="M 184.5,338.5 C 185.167,339.167 185.833,339.833 186.5,340.5C 186.5,340.833 186.5,341.167 186.5,341.5C 187.635,346.901 188.969,352.235 190.5,357.5C 187.506,351.583 185.506,345.25 184.5,338.5 Z"/></g>
<g><path style="opacity:0.784" fill="#be753c" d="M 190.5,340.5 C 189.414,340.62 188.747,341.287 188.5,342.5C 188.543,343.416 188.876,344.083 189.5,344.5C 189.171,347.228 189.837,349.562 191.5,351.5C 192.103,354.041 192.103,356.374 191.5,358.5C 190.833,358.5 190.5,358.167 190.5,357.5C 188.969,352.235 187.635,346.901 186.5,341.5C 187.158,340.602 187.824,339.602 188.5,338.5C 189.522,338.855 190.189,339.522 190.5,340.5 Z"/></g>
<g><path style="opacity:0.055" fill="#f6dcc6" d="M 224.5,353.5 C 225.434,354.568 225.768,355.901 225.5,357.5C 224.209,357.737 223.209,357.404 222.5,356.5C 224.048,356.179 224.715,355.179 224.5,353.5 Z"/></g>
<g><path style="opacity:0.075" fill="#e9d0c3" d="M 235.5,351.5 C 236.434,352.568 236.768,353.901 236.5,355.5C 235.209,355.737 234.209,355.404 233.5,354.5C 235.048,354.179 235.715,353.179 235.5,351.5 Z"/></g>
<g><path style="opacity:0.663" fill="#eac39b" d="M 212.5,351.5 C 214.126,354.004 214.459,356.67 213.5,359.5C 212.833,359.5 212.167,359.5 211.5,359.5C 211.5,358.833 211.5,358.167 211.5,357.5C 212.239,357.631 212.906,357.464 213.5,357C 212.594,355.301 212.261,353.467 212.5,351.5 Z"/></g>
<g><path style="opacity:0.635" fill="#b6754a" d="M 224.5,353.5 C 224.715,355.179 224.048,356.179 222.5,356.5C 221.986,354.488 221.82,352.488 222,350.5C 222.852,351.571 223.685,352.571 224.5,353.5 Z"/></g>
<g><path style="opacity:0.408" fill="#eeccae" d="M 191.5,351.5 C 193.414,353.953 194.081,356.619 193.5,359.5C 192.833,359.5 192.167,359.5 191.5,359.5C 191.5,359.167 191.5,358.833 191.5,358.5C 192.103,356.374 192.103,354.041 191.5,351.5 Z"/></g>
<g><path style="opacity:0.094" fill="#f2cba9" d="M 199.5,343.5 C 201.025,346.583 202.025,349.916 202.5,353.5C 204.13,355.358 204.463,357.358 203.5,359.5C 203.167,359.5 202.833,359.5 202.5,359.5C 199.179,355.582 197.179,350.915 196.5,345.5C 198.666,348.04 199.666,347.373 199.5,343.5 Z"/></g>
<g><path style="opacity:0.839" fill="#c17038" d="M 202.5,353.5 C 202.657,354.873 202.49,356.207 202,357.5C 200.098,355.13 199.431,352.464 200,349.5C 200.608,351.066 201.442,352.4 202.5,353.5 Z"/></g>
</svg>
