<?xml version="1.0" encoding="UTF-8"?>
<!DOCTYPE svg PUBLIC "-//W3C//DTD SVG 1.1//EN" "http://www.w3.org/Graphics/SVG/1.1/DTD/svg11.dtd">
<svg xmlns="http://www.w3.org/2000/svg" version="1.1" width="360px" height="360px" style="shape-rendering:geometricPrecision; text-rendering:geometricPrecision; image-rendering:optimizeQuality; fill-rule:evenodd; clip-rule:evenodd" xmlns:xlink="http://www.w3.org/1999/xlink">
<g><path style="opacity:0.713" fill="#292f36" d="M 213.5,58.5 C 216.059,58.1984 218.393,58.5318 220.5,59.5C 219.5,59.5 218.5,59.5 217.5,59.5C 216.041,59.4326 214.708,59.7659 213.5,60.5C 206.859,61.386 200.192,62.0527 193.5,62.5C 188.968,62.1818 184.634,62.5151 180.5,63.5C 173.5,63.5 166.5,63.5 159.5,63.5C 149.681,62.506 139.681,62.1726 129.5,62.5C 127.5,62.5 125.5,62.5 123.5,62.5C 122.833,62.5 122.167,62.5 121.5,62.5C 120.391,61.71 119.058,61.21 117.5,61C 120.482,60.502 123.482,60.3354 126.5,60.5C 155.535,60.9406 184.535,60.2739 213.5,58.5 Z"/></g>
<g><path style="opacity:1" fill="#3d678c" d="M 245.5,64.5 C 240.244,66.8574 234.744,68.5241 229,69.5C 227.124,70.619 226.291,72.2856 226.5,74.5C 225.408,69.6378 224.408,64.6378 223.5,59.5C 228.222,58.4849 232.889,57.1516 237.5,55.5C 240.903,57.8998 243.57,60.8998 245.5,64.5 Z"/></g>
<g><path style="opacity:0.216" fill="#82929f" d="M 99.5,60.5 C 99.573,62.0269 98.9063,63.0269 97.5,63.5C 97.427,61.9731 98.0937,60.9731 99.5,60.5 Z"/></g>
<g><path style="opacity:1" fill="#3c688d" d="M 213.5,60.5 C 214.486,64.4432 215.152,68.4432 215.5,72.5C 208.493,73.1008 201.493,73.7674 194.5,74.5C 193.728,70.5483 193.395,66.5483 193.5,62.5C 200.192,62.0527 206.859,61.386 213.5,60.5 Z"/></g>
<g><path style="opacity:1" fill="#3c688e" d="M 121.5,62.5 C 121.153,67.6804 120.487,72.6804 119.5,77.5C 114.571,75.7011 109.238,74.5345 103.5,74C 100.929,72.5462 98.2622,71.3795 95.5,70.5C 97.8685,66.4069 100.702,62.7403 104,59.5C 109.708,61.193 115.542,62.193 121.5,62.5 Z"/></g>
<g><path style="opacity:1" fill="#3c698f" d="M 159.5,63.5 C 166.5,63.5 173.5,63.5 180.5,63.5C 184.167,63.5 187.833,63.5 191.5,63.5C 191.472,68.8617 191.806,74.1951 192.5,79.5C 192.167,79.5 191.833,79.5 191.5,79.5C 191.5,78.1667 191.5,76.8333 191.5,75.5C 188.167,75.5 184.833,75.5 181.5,75.5C 182.511,73.5976 182.678,71.5976 182,69.5C 179.853,67.5239 177.353,66.1906 174.5,65.5C 171.797,66.0385 170.297,67.7052 170,70.5C 169.252,72.8401 169.752,74.8401 171.5,76.5C 157.833,76.5 144.167,76.5 130.5,76.5C 130.739,72.1578 131.073,67.8244 131.5,63.5C 140.833,63.5 150.167,63.5 159.5,63.5 Z"/></g>
<g><path style="opacity:1" fill="#5c8aad" d="M 245.5,64.5 C 246.479,65.7653 247.479,67.0986 248.5,68.5C 248.145,69.5223 247.478,70.189 246.5,70.5C 240.092,74.0074 233.425,75.3407 226.5,74.5C 226.291,72.2856 227.124,70.619 229,69.5C 234.744,68.5241 240.244,66.8574 245.5,64.5 Z"/></g>
<g><path style="opacity:1" fill="#5988ac" d="M 95.5,70.5 C 98.2622,71.3795 100.929,72.5462 103.5,74C 109.238,74.5345 114.571,75.7011 119.5,77.5C 119.5,78.5 119.5,79.5 119.5,80.5C 110.218,80.2311 101.218,78.5645 92.5,75.5C 93.1103,73.5659 94.1103,71.8993 95.5,70.5 Z"/></g>
<g><path style="opacity:1" fill="#021c39" d="M 181.5,75.5 C 178.322,77.5865 174.988,77.9198 171.5,76.5C 169.752,74.8401 169.252,72.8401 170,70.5C 170.297,67.7052 171.797,66.0385 174.5,65.5C 177.353,66.1906 179.853,67.5239 182,69.5C 182.678,71.5976 182.511,73.5976 181.5,75.5 Z"/></g>
<g><path style="opacity:1" fill="#446783" d="M 173.5,67.5 C 178.453,67.9286 180.453,70.4286 179.5,75C 172.056,76.4925 170.056,73.9925 173.5,67.5 Z"/></g>
<g><path style="opacity:1" fill="#588aad" d="M 181.5,75.5 C 184.833,75.5 188.167,75.5 191.5,75.5C 191.5,76.8333 191.5,78.1667 191.5,79.5C 171.361,81.2396 151.028,81.9063 130.5,81.5C 130.5,79.8333 130.5,78.1667 130.5,76.5C 144.167,76.5 157.833,76.5 171.5,76.5C 174.988,77.9198 178.322,77.5865 181.5,75.5 Z"/></g>
<g><path style="opacity:1" fill="#07172c" d="M 217.5,59.5 C 216.722,60.1556 216.056,60.9889 215.5,62C 216.862,66.3975 217.696,70.8975 218,75.5C 219.699,76.4061 221.533,76.7394 223.5,76.5C 223.365,70.819 223.032,65.1523 222.5,59.5C 222.833,59.5 223.167,59.5 223.5,59.5C 224.408,64.6378 225.408,69.6378 226.5,74.5C 233.425,75.3407 240.092,74.0074 246.5,70.5C 246.328,71.4916 246.662,72.1583 247.5,72.5C 247.5,73.1667 247.167,73.5 246.5,73.5C 245.209,73.2627 244.209,73.596 243.5,74.5C 231.118,78.1278 218.451,80.4612 205.5,81.5C 206.18,82.8599 206.847,84.1932 207.5,85.5C 207.663,87.8568 207.497,90.1902 207,92.5C 206.802,90.6183 206.302,88.9516 205.5,87.5C 205.643,85.7376 205.309,84.0709 204.5,82.5C 200.79,81.2418 197.123,81.2418 193.5,82.5C 193.737,81.209 193.404,80.209 192.5,79.5C 191.806,74.1951 191.472,68.8617 191.5,63.5C 187.833,63.5 184.167,63.5 180.5,63.5C 184.634,62.5151 188.968,62.1818 193.5,62.5C 193.395,66.5483 193.728,70.5483 194.5,74.5C 194.5,76.1667 194.5,77.8333 194.5,79.5C 201.804,78.6979 209.138,78.3646 216.5,78.5C 216.795,76.2646 216.461,74.2646 215.5,72.5C 215.152,68.4432 214.486,64.4432 213.5,60.5C 214.708,59.7659 216.041,59.4326 217.5,59.5 Z"/></g>
<g><path style="opacity:1" fill="#5988ab" d="M 215.5,72.5 C 216.461,74.2646 216.795,76.2646 216.5,78.5C 209.138,78.3646 201.804,78.6979 194.5,79.5C 194.5,77.8333 194.5,76.1667 194.5,74.5C 201.493,73.7674 208.493,73.1008 215.5,72.5 Z"/></g>
<g><path style="opacity:1" fill="#436b8d" d="M 217.5,59.5 C 218.5,59.5 219.5,59.5 220.5,59.5C 221.167,59.5 221.833,59.5 222.5,59.5C 223.032,65.1523 223.365,70.819 223.5,76.5C 221.533,76.7394 219.699,76.4061 218,75.5C 217.696,70.8975 216.862,66.3975 215.5,62C 216.056,60.9889 216.722,60.1556 217.5,59.5 Z"/></g>
<g><path style="opacity:1" fill="#06182f" d="M 121.5,62.5 C 122.167,62.5 122.833,62.5 123.5,62.5C 122.833,68.5 122.167,74.5 121.5,80.5C 124.079,80.9167 126.246,80.25 128,78.5C 128.977,73.2074 129.477,67.8741 129.5,62.5C 139.681,62.1726 149.681,62.506 159.5,63.5C 150.167,63.5 140.833,63.5 131.5,63.5C 131.073,67.8244 130.739,72.1578 130.5,76.5C 130.5,78.1667 130.5,79.8333 130.5,81.5C 127.075,81.3668 126.742,82.0335 129.5,83.5C 116.385,83.3853 103.718,81.052 91.5,76.5C 91.5,75.8333 91.8333,75.5 92.5,75.5C 101.218,78.5645 110.218,80.2311 119.5,80.5C 119.5,79.5 119.5,78.5 119.5,77.5C 120.487,72.6804 121.153,67.6804 121.5,62.5 Z"/></g>
<g><path style="opacity:1" fill="#4a7091" d="M 123.5,62.5 C 125.5,62.5 127.5,62.5 129.5,62.5C 129.477,67.8741 128.977,73.2074 128,78.5C 126.246,80.25 124.079,80.9167 121.5,80.5C 122.167,74.5 122.833,68.5 123.5,62.5 Z"/></g>
<g><path style="opacity:1" fill="#2c4f75" d="M 243.5,74.5 C 244.401,75.2905 245.068,76.2905 245.5,77.5C 237.131,81.1813 228.464,84.0146 219.5,86C 215.446,86.6936 211.446,86.5269 207.5,85.5C 206.847,84.1932 206.18,82.8599 205.5,81.5C 218.451,80.4612 231.118,78.1278 243.5,74.5 Z"/></g>
<g><path style="opacity:1" fill="#041b3b" d="M 243.5,74.5 C 244.209,73.596 245.209,73.2627 246.5,73.5C 247.769,78.0427 249.603,82.376 252,86.5C 258.921,98.6738 265.588,111.007 272,123.5C 272.49,124.793 272.657,126.127 272.5,127.5C 263.875,110.617 254.875,93.95 245.5,77.5C 245.068,76.2905 244.401,75.2905 243.5,74.5 Z"/></g>
<g><path style="opacity:0.741" fill="#1f252f" d="M 292.5,151.5 C 291.5,150.833 290.5,150.167 289.5,149.5C 288.675,147.19 287.342,145.19 285.5,143.5C 285.241,140.728 284.241,138.395 282.5,136.5C 282.167,135.833 281.833,135.167 281.5,134.5C 279.698,127.598 277.198,120.931 274,114.5C 266.929,100.692 259.596,87.0256 252,73.5C 250.774,71.4523 249.274,71.119 247.5,72.5C 246.662,72.1583 246.328,71.4916 246.5,70.5C 247.478,70.189 248.145,69.5223 248.5,68.5C 247.479,67.0986 246.479,65.7653 245.5,64.5C 243.57,60.8998 240.903,57.8998 237.5,55.5C 232.889,57.1516 228.222,58.4849 223.5,59.5C 223.167,59.5 222.833,59.5 222.5,59.5C 221.833,59.5 221.167,59.5 220.5,59.5C 218.393,58.5318 216.059,58.1984 213.5,58.5C 221.653,57.3993 229.653,55.3993 237.5,52.5C 240.433,53.93 242.933,55.93 245,58.5C 258.767,77.9452 270.433,98.6119 280,120.5C 284.733,130.628 288.9,140.962 292.5,151.5 Z"/></g>
<g><path style="opacity:1" fill="#38678f" d="M 94.5,82.5 C 98.2326,82.87 101.899,83.5367 105.5,84.5C 103.887,88.6775 102.887,93.0108 102.5,97.5C 105.245,97.627 107.245,96.4603 108.5,94C 106.833,94.3333 105.167,94.6667 103.5,95C 104.431,92.0933 105.431,89.26 106.5,86.5C 114.646,86.4136 122.646,87.4136 130.5,89.5C 130.5,90.5 130.5,91.5 130.5,92.5C 130.334,97.1785 130.501,101.845 131,106.5C 131.323,101.134 131.823,95.8009 132.5,90.5C 138.829,91.1639 145.162,91.8306 151.5,92.5C 156.173,92.2496 160.839,91.9163 165.5,91.5C 167.964,91.4101 170.13,90.7435 172,89.5C 172.278,90.4158 172.778,91.0825 173.5,91.5C 176.104,127.449 177.437,163.449 177.5,199.5C 177.666,203.846 177.499,208.179 177,212.5C 176.667,211.833 176.333,211.167 176,210.5C 170.584,211.639 165.084,211.806 159.5,211C 155.991,209.241 152.325,208.074 148.5,207.5C 147.577,206.697 146.577,206.53 145.5,207C 152.074,213.787 160.074,217.62 169.5,218.5C 171.599,219.612 173.933,220.279 176.5,220.5C 176.351,219.448 176.517,218.448 177,217.5C 177.232,218.737 177.732,219.737 178.5,220.5C 178.5,220.833 178.5,221.167 178.5,221.5C 176.412,242.026 173.245,262.359 169,282.5C 167.603,287.819 165.77,292.819 163.5,297.5C 156.332,296.731 149.332,295.731 142.5,294.5C 142.598,293.451 142.598,292.285 142.5,291C 139.266,290.289 136.099,289.455 133,288.5C 132.544,287.256 133.044,286.423 134.5,286C 132.59,283.518 130.257,283.018 127.5,284.5C 128.328,285.415 129.328,286.081 130.5,286.5C 131.583,287.365 131.749,288.365 131,289.5C 130.161,288.376 128.994,287.709 127.5,287.5C 125.357,287.529 124.023,288.196 123.5,289.5C 119.637,288.438 116.137,286.772 113,284.5C 111.082,288.032 109.582,288.032 108.5,284.5C 105.738,283.532 103.238,282.199 101,280.5C 97.6832,280.511 94.3498,280.511 91,280.5C 89.902,281.384 89.402,282.384 89.5,283.5C 84.6115,282.069 84.9449,280.569 90.5,279C 87.905,278.774 85.405,278.274 83,277.5C 80.0568,279.279 77.0568,279.945 74,279.5C 72.0421,276.175 69.7088,275.842 67,278.5C 65.5838,277.427 64.2504,277.427 63,278.5C 61.324,277.939 59.9906,276.939 59,275.5C 53.9029,275.377 48.7362,275.71 43.5,276.5C 42.8333,276.333 42.1667,276.167 41.5,276C 42.7375,275.768 43.7375,275.268 44.5,274.5C 43.5285,273.601 42.8618,272.434 42.5,271C 43.5426,259.825 44.7092,248.659 46,237.5C 48.7719,222.142 51.6052,206.808 54.5,191.5C 61.7015,168.871 69.0348,146.204 76.5,123.5C 77.5585,122.4 78.3918,121.066 79,119.5C 79.3333,120.833 79.6667,122.167 80,123.5C 81.2022,121.323 81.7022,118.989 81.5,116.5C 84.9067,116.875 85.4067,115.875 83,113.5C 82.237,116.063 81.737,116.063 81.5,113.5C 83.0911,110.325 84.0911,106.991 84.5,103.5C 88.1959,96.7848 91.5292,89.7848 94.5,82.5 Z"/></g>
<g><path style="opacity:1" fill="#2c5174" d="M 174.5,83.5 C 179.975,82.5111 185.642,82.1778 191.5,82.5C 191.5,84.8333 191.5,87.1667 191.5,89.5C 187.865,90.1143 184.198,90.4476 180.5,90.5C 179.532,88.3926 179.198,86.0593 179.5,83.5C 177.833,83.5 176.167,83.5 174.5,83.5 Z"/></g>
<g><path style="opacity:1" fill="#406689" d="M 281.5,134.5 C 279.863,135.218 278.197,135.384 276.5,135C 275.534,132.231 274.201,129.731 272.5,127.5C 272.657,126.127 272.49,124.793 272,123.5C 265.588,111.007 258.921,98.6738 252,86.5C 249.603,82.376 247.769,78.0427 246.5,73.5C 247.167,73.5 247.5,73.1667 247.5,72.5C 249.274,71.119 250.774,71.4523 252,73.5C 259.596,87.0256 266.929,100.692 274,114.5C 277.198,120.931 279.698,127.598 281.5,134.5 Z"/></g>
<g><path style="opacity:1" fill="#285075" d="M 91.5,76.5 C 103.718,81.052 116.385,83.3853 129.5,83.5C 144.5,83.5 159.5,83.5 174.5,83.5C 174.5,83.8333 174.5,84.1667 174.5,84.5C 173.503,84.4701 172.836,84.9701 172.5,86C 173.233,87.7659 173.567,89.5992 173.5,91.5C 172.778,91.0825 172.278,90.4158 172,89.5C 170.13,90.7435 167.964,91.4101 165.5,91.5C 160.839,91.9163 156.173,92.2496 151.5,92.5C 145.162,91.8306 138.829,91.1639 132.5,90.5C 133.666,88.834 133.666,87.1673 132.5,85.5C 131.832,87.9688 131.165,90.3021 130.5,92.5C 130.5,91.5 130.5,90.5 130.5,89.5C 122.646,87.4136 114.646,86.4136 106.5,86.5C 105.431,89.26 104.431,92.0933 103.5,95C 105.167,94.6667 106.833,94.3333 108.5,94C 107.245,96.4603 105.245,97.627 102.5,97.5C 102.887,93.0108 103.887,88.6775 105.5,84.5C 101.899,83.5367 98.2326,82.87 94.5,82.5C 93.9653,80.5544 92.632,79.5544 90.5,79.5C 90.5569,78.391 90.8902,77.391 91.5,76.5 Z"/></g>
<g><path style="opacity:1" fill="#38678f" d="M 245.5,77.5 C 254.875,93.95 263.875,110.617 272.5,127.5C 272.855,130.067 273.521,132.567 274.5,135C 267.138,139.675 259.138,143.342 250.5,146C 245.639,148.593 240.972,151.427 236.5,154.5C 235.357,157.976 235.19,161.642 236,165.5C 241.148,182.101 245.648,198.768 249.5,215.5C 252.529,226.241 255.529,236.907 258.5,247.5C 276.36,249.977 293.36,247.311 309.5,239.5C 309.833,239.5 310.167,239.5 310.5,239.5C 313.46,249.929 315.127,260.596 315.5,271.5C 316.675,271.719 317.675,271.386 318.5,270.5C 316.372,257.401 313.705,244.401 310.5,231.5C 310.752,229.927 311.418,228.594 312.5,227.5C 314.397,229.269 315.564,231.602 316,234.5C 318.029,247.21 320.196,259.876 322.5,272.5C 320.955,273.452 319.288,273.785 317.5,273.5C 298.158,276.891 278.824,280.391 259.5,284C 242.526,288.993 225.526,293.826 208.5,298.5C 209.348,296.907 210.681,295.74 212.5,295C 210.866,294.506 209.199,294.34 207.5,294.5C 201.449,275.133 195.783,255.633 190.5,236C 191.287,233.901 191.62,231.734 191.5,229.5C 193.179,229.715 194.179,229.048 194.5,227.5C 196.117,226.962 197.784,226.629 199.5,226.5C 201.308,226.509 202.975,226.009 204.5,225C 201.456,224.641 201.122,223.974 203.5,223C 199.996,221.994 196.662,220.494 193.5,218.5C 195.833,214.833 198.833,211.833 202.5,209.5C 203.807,208.135 203.807,206.802 202.5,205.5C 203.519,203.46 203.519,201.46 202.5,199.5C 201.55,202.42 199.884,204.753 197.5,206.5C 194.52,206.62 191.687,207.287 189,208.5C 187.959,200.049 186.792,191.715 185.5,183.5C 185.5,176.5 185.5,169.5 185.5,162.5C 186.999,163.678 187.999,165.345 188.5,167.5C 196.542,164.906 201.709,159.573 204,151.5C 204.632,130.79 204.299,110.123 203,89.5C 203.333,90.5 203.667,91.5 204,92.5C 204.352,90.7525 204.852,89.0858 205.5,87.5C 206.302,88.9516 206.802,90.6183 207,92.5C 207.497,90.1902 207.663,87.8568 207.5,85.5C 211.446,86.5269 215.446,86.6936 219.5,86C 228.464,84.0146 237.131,81.1813 245.5,77.5 Z"/></g>
<g><path style="opacity:1" fill="#072a4e" d="M 94.5,82.5 C 91.5292,89.7848 88.1959,96.7848 84.5,103.5C 86.5162,95.8035 89.8495,88.8035 94.5,82.5 Z"/></g>
<g><path style="opacity:1" fill="#001735" d="M 132.5,90.5 C 131.823,95.8009 131.323,101.134 131,106.5C 130.501,101.845 130.334,97.1785 130.5,92.5C 131.165,90.3021 131.832,87.9688 132.5,85.5C 133.666,87.1673 133.666,88.834 132.5,90.5 Z"/></g>
<g><path style="opacity:1" fill="#5487ac" d="M 174.5,83.5 C 176.167,83.5 177.833,83.5 179.5,83.5C 179.198,86.0593 179.532,88.3926 180.5,90.5C 180.5,91.1667 180.5,91.8333 180.5,92.5C 181.898,112.664 183.565,132.664 185.5,152.5C 184.859,153.482 184.193,154.482 183.5,155.5C 184.602,156.176 185.602,156.842 186.5,157.5C 184.574,159.293 182.241,160.293 179.5,160.5C 178.34,135.128 176.673,109.795 174.5,84.5C 174.5,84.1667 174.5,83.8333 174.5,83.5 Z"/></g>
<g><path style="opacity:1" fill="#2a5278" d="M 205.5,87.5 C 204.852,89.0858 204.352,90.7525 204,92.5C 203.667,91.5 203.333,90.5 203,89.5C 204.299,110.123 204.632,130.79 204,151.5C 201.709,159.573 196.542,164.906 188.5,167.5C 187.999,165.345 186.999,163.678 185.5,162.5C 184.833,162.5 184.167,162.5 183.5,162.5C 193.788,157.634 197.788,149.634 195.5,138.5C 194.75,119.837 194.084,101.17 193.5,82.5C 197.123,81.2418 200.79,81.2418 204.5,82.5C 205.309,84.0709 205.643,85.7376 205.5,87.5 Z"/></g>
<g><path style="opacity:1" fill="#040c1c" d="M 191.5,79.5 C 191.833,79.5 192.167,79.5 192.5,79.5C 193.404,80.209 193.737,81.209 193.5,82.5C 194.084,101.17 194.75,119.837 195.5,138.5C 195.923,140.781 195.256,142.448 193.5,143.5C 192.584,125.51 191.917,107.51 191.5,89.5C 191.5,87.1667 191.5,84.8333 191.5,82.5C 185.642,82.1778 179.975,82.5111 174.5,83.5C 159.5,83.5 144.5,83.5 129.5,83.5C 126.742,82.0335 127.075,81.3668 130.5,81.5C 151.028,81.9063 171.361,81.2396 191.5,79.5 Z"/></g>
<g><path style="opacity:1" fill="#244769" d="M 84.5,103.5 C 84.0911,106.991 83.0911,110.325 81.5,113.5C 81.737,116.063 82.237,116.063 83,113.5C 85.4067,115.875 84.9067,116.875 81.5,116.5C 81.7022,118.989 81.2022,121.323 80,123.5C 79.6667,122.167 79.3333,120.833 79,119.5C 78.3918,121.066 77.5585,122.4 76.5,123.5C 78.2053,116.371 80.872,109.704 84.5,103.5 Z"/></g>
<g><path style="opacity:1" fill="#06142b" d="M 174.5,84.5 C 176.673,109.795 178.34,135.128 179.5,160.5C 182.241,160.293 184.574,159.293 186.5,157.5C 191.453,154.262 193.786,149.595 193.5,143.5C 195.256,142.448 195.923,140.781 195.5,138.5C 197.788,149.634 193.788,157.634 183.5,162.5C 182.167,162.5 180.833,162.5 179.5,162.5C 179.787,181.168 180.121,199.834 180.5,218.5C 179.833,219.5 179.167,220.5 178.5,221.5C 178.5,221.167 178.5,220.833 178.5,220.5C 178.825,213.313 178.491,206.313 177.5,199.5C 177.437,163.449 176.104,127.449 173.5,91.5C 173.567,89.5992 173.233,87.7659 172.5,86C 172.836,84.9701 173.503,84.4701 174.5,84.5 Z"/></g>
<g><path style="opacity:1" fill="#3c6687" d="M 191.5,89.5 C 191.917,107.51 192.584,125.51 193.5,143.5C 193.786,149.595 191.453,154.262 186.5,157.5C 185.602,156.842 184.602,156.176 183.5,155.5C 184.193,154.482 184.859,153.482 185.5,152.5C 186.659,150.369 188.492,149.036 191,148.5C 191.83,142.804 191.663,137.137 190.5,131.5C 186.709,147.007 185.042,147.007 185.5,131.5C 185.337,125.383 186.003,119.383 187.5,113.5C 186.939,110.813 187.606,110.813 189.5,113.5C 188.684,117.537 188.851,121.87 190,126.5C 191.189,115.636 190.356,104.97 187.5,94.5C 185.293,93.3652 182.96,92.6985 180.5,92.5C 180.5,91.8333 180.5,91.1667 180.5,90.5C 184.198,90.4476 187.865,90.1143 191.5,89.5 Z"/></g>
<g><path style="opacity:1" fill="#38658f" d="M 180.5,92.5 C 182.96,92.6985 185.293,93.3652 187.5,94.5C 190.356,104.97 191.189,115.636 190,126.5C 188.851,121.87 188.684,117.537 189.5,113.5C 187.606,110.813 186.939,110.813 187.5,113.5C 186.003,119.383 185.337,125.383 185.5,131.5C 185.042,147.007 186.709,147.007 190.5,131.5C 191.663,137.137 191.83,142.804 191,148.5C 188.492,149.036 186.659,150.369 185.5,152.5C 183.565,132.664 181.898,112.664 180.5,92.5 Z"/></g>
<g><path style="opacity:0.794" fill="#202731" d="M 126.5,60.5 C 123.482,60.3354 120.482,60.502 117.5,61C 119.058,61.21 120.391,61.71 121.5,62.5C 115.542,62.193 109.708,61.193 104,59.5C 100.702,62.7403 97.8685,66.4069 95.5,70.5C 94.1103,71.8993 93.1103,73.5659 92.5,75.5C 91.8333,75.5 91.5,75.8333 91.5,76.5C 90.8902,77.391 90.5569,78.391 90.5,79.5C 61.4207,132.411 43.0873,189.077 35.5,249.5C 34.0586,259.298 33.2253,269.298 33,279.5C 31.9914,277.975 31.4914,276.308 31.5,274.5C 35.784,201.812 55.9507,133.812 92,70.5C 93.6971,67.98 95.5305,65.6467 97.5,63.5C 98.9063,63.0269 99.573,62.0269 99.5,60.5C 100.317,58.5221 101.817,57.5221 104,57.5C 111.637,58.5874 119.137,59.5874 126.5,60.5 Z"/></g>
<g><path style="opacity:1" fill="#386790" d="M 285.5,143.5 C 287.342,145.19 288.675,147.19 289.5,149.5C 289.4,152.108 290.067,154.442 291.5,156.5C 290.883,156.389 290.383,156.056 290,155.5C 286.098,160.2 281.265,163.533 275.5,165.5C 273.952,165.179 273.285,164.179 273.5,162.5C 271.516,162.617 269.85,161.95 268.5,160.5C 269.325,159.614 270.325,159.281 271.5,159.5C 271.762,158.022 271.429,156.689 270.5,155.5C 266.504,155.826 262.504,156.159 258.5,156.5C 256.336,154.316 253.669,152.983 250.5,152.5C 257.975,149.846 265.142,146.513 272,142.5C 272.561,143.022 273.228,143.355 274,143.5C 276.083,141.96 278.416,140.96 281,140.5C 282.893,141.008 284.393,142.008 285.5,143.5 Z"/></g>
<g><path style="opacity:1" fill="#3c6789" d="M 282.5,136.5 C 284.241,138.395 285.241,140.728 285.5,143.5C 284.393,142.008 282.893,141.008 281,140.5C 278.416,140.96 276.083,141.96 274,143.5C 273.228,143.355 272.561,143.022 272,142.5C 265.142,146.513 257.975,149.846 250.5,152.5C 253.669,152.983 256.336,154.316 258.5,156.5C 262.504,156.159 266.504,155.826 270.5,155.5C 271.429,156.689 271.762,158.022 271.5,159.5C 270.325,159.281 269.325,159.614 268.5,160.5C 269.85,161.95 271.516,162.617 273.5,162.5C 273.285,164.179 273.952,165.179 275.5,165.5C 273.465,167.195 271.132,168.528 268.5,169.5C 268.414,168.504 268.748,167.671 269.5,167C 264.796,166.352 260.129,166.519 255.5,167.5C 255.5,166.167 255.5,164.833 255.5,163.5C 258.421,163.854 260.754,162.854 262.5,160.5C 258.232,159.059 253.898,157.893 249.5,157C 248.667,156.167 247.833,155.333 247,154.5C 244.929,155.525 242.762,156.358 240.5,157C 242.577,157.192 244.577,157.692 246.5,158.5C 245.833,159.5 245.167,160.5 244.5,161.5C 245.934,162.23 247.1,163.23 248,164.5C 248.494,162.866 248.66,161.199 248.5,159.5C 250.948,159.01 252.615,159.843 253.5,162C 250.513,166.467 248.513,171.301 247.5,176.5C 247.5,177.833 247.5,179.167 247.5,180.5C 244.215,172.764 241.215,164.764 238.5,156.5C 252.402,148.091 267.068,141.424 282.5,136.5 Z"/></g>
<g><path style="opacity:1" fill="#041e3d" d="M 76.5,123.5 C 69.0348,146.204 61.7015,168.871 54.5,191.5C 57.7299,177.03 61.5632,162.696 66,148.5C 69.0005,139.847 72.5005,131.514 76.5,123.5 Z"/></g>
<g><path style="opacity:1" fill="#487395" d="M 183.5,162.5 C 184.167,162.5 184.833,162.5 185.5,162.5C 185.5,169.5 185.5,176.5 185.5,183.5C 185.666,190.508 185.5,197.508 185,204.5C 184.798,202.744 184.298,201.078 183.5,199.5C 183.167,200.167 182.833,200.833 182.5,201.5C 183.117,204.355 184.117,207.022 185.5,209.5C 185.333,210.167 185.167,210.833 185,211.5C 183.617,208.924 182.783,209.258 182.5,212.5C 182.803,214.114 183.47,215.448 184.5,216.5C 183.486,217.674 182.153,218.34 180.5,218.5C 180.121,199.834 179.787,181.168 179.5,162.5C 180.833,162.5 182.167,162.5 183.5,162.5 Z"/></g>
<g><path style="opacity:1" fill="#40678b" d="M 90.5,79.5 C 92.632,79.5544 93.9653,80.5544 94.5,82.5C 89.8495,88.8035 86.5162,95.8035 84.5,103.5C 80.872,109.704 78.2053,116.371 76.5,123.5C 72.5005,131.514 69.0005,139.847 66,148.5C 61.5632,162.696 57.7299,177.03 54.5,191.5C 46.4037,218.42 42.0704,246.087 41.5,274.5C 42.5,274.5 43.5,274.5 44.5,274.5C 43.7375,275.268 42.7375,275.768 41.5,276C 42.1667,276.167 42.8333,276.333 43.5,276.5C 48.7362,275.71 53.9029,275.377 59,275.5C 59.9906,276.939 61.324,277.939 63,278.5C 64.2504,277.427 65.5838,277.427 67,278.5C 69.7088,275.842 72.0421,276.175 74,279.5C 77.0568,279.945 80.0568,279.279 83,277.5C 85.405,278.274 87.905,278.774 90.5,279C 84.9449,280.569 84.6115,282.069 89.5,283.5C 89.402,282.384 89.902,281.384 91,280.5C 94.3498,280.511 97.6832,280.511 101,280.5C 103.238,282.199 105.738,283.532 108.5,284.5C 109.582,288.032 111.082,288.032 113,284.5C 116.137,286.772 119.637,288.438 123.5,289.5C 124.023,288.196 125.357,287.529 127.5,287.5C 128.994,287.709 130.161,288.376 131,289.5C 131.749,288.365 131.583,287.365 130.5,286.5C 129.328,286.081 128.328,285.415 127.5,284.5C 130.257,283.018 132.59,283.518 134.5,286C 133.044,286.423 132.544,287.256 133,288.5C 136.099,289.455 139.266,290.289 142.5,291C 142.598,292.285 142.598,293.451 142.5,294.5C 118.896,290.103 95.2289,285.937 71.5,282C 63.5739,280.401 55.5739,279.568 47.5,279.5C 43.4333,277.946 39.1,277.28 34.5,277.5C 34.6672,268.159 35.0005,258.826 35.5,249.5C 43.0873,189.077 61.4207,132.411 90.5,79.5 Z"/></g>
<g><path style="opacity:1" fill="#39688f" d="M 298.5,175.5 C 303.912,190.187 308.579,205.187 312.5,220.5C 306.807,222.179 301.474,224.679 296.5,228C 286.528,231.773 276.195,233.607 265.5,233.5C 265.5,235.167 265.5,236.833 265.5,238.5C 261.837,227.149 258.504,215.483 255.5,203.5C 254.47,197.727 253.304,192.061 252,186.5C 258.23,183.134 264.73,180.467 271.5,178.5C 271.675,181.329 270.342,182.996 267.5,183.5C 268.991,185.012 270.824,186.012 273,186.5C 273.339,190.521 274.839,194.021 277.5,197C 282.762,198.439 288.096,198.772 293.5,198C 293.587,194.572 293.253,191.072 292.5,187.5C 293.075,184.135 293.742,180.802 294.5,177.5C 291.947,175.403 289.614,173.07 287.5,170.5C 288.348,169.009 289.681,168.342 291.5,168.5C 294.987,169.427 296.32,171.76 295.5,175.5C 296.5,175.5 297.5,175.5 298.5,175.5 Z"/></g>
<g><path style="opacity:1" fill="#426786" d="M 294.5,164.5 C 296.217,167.98 297.55,171.647 298.5,175.5C 297.5,175.5 296.5,175.5 295.5,175.5C 296.32,171.76 294.987,169.427 291.5,168.5C 289.681,168.342 288.348,169.009 287.5,170.5C 289.614,173.07 291.947,175.403 294.5,177.5C 293.742,180.802 293.075,184.135 292.5,187.5C 293.253,191.072 293.587,194.572 293.5,198C 288.096,198.772 282.762,198.439 277.5,197C 274.839,194.021 273.339,190.521 273,186.5C 270.824,186.012 268.991,185.012 267.5,183.5C 270.342,182.996 271.675,181.329 271.5,178.5C 264.73,180.467 258.23,183.134 252,186.5C 253.304,192.061 254.47,197.727 255.5,203.5C 253.198,197.61 250.864,191.61 248.5,185.5C 255.535,182.21 262.702,179.21 270,176.5C 271.653,176.82 272.653,177.82 273,179.5C 273.78,184.931 275.613,189.931 278.5,194.5C 279.321,191.554 279.321,188.554 278.5,185.5C 281.127,184.908 283.794,184.575 286.5,184.5C 286.993,186.806 287.326,189.139 287.5,191.5C 284.99,191.991 282.656,192.991 280.5,194.5C 284.392,195.538 287.725,194.538 290.5,191.5C 289.14,184.292 286.807,177.459 283.5,171C 286.03,166.981 289.697,164.814 294.5,164.5 Z"/></g>
<g><path style="opacity:1" fill="#2c5376" d="M 185.5,183.5 C 186.792,191.715 187.959,200.049 189,208.5C 191.687,207.287 194.52,206.62 197.5,206.5C 194.146,211.021 189.813,214.354 184.5,216.5C 183.47,215.448 182.803,214.114 182.5,212.5C 182.783,209.258 183.617,208.924 185,211.5C 185.167,210.833 185.333,210.167 185.5,209.5C 184.117,207.022 183.117,204.355 182.5,201.5C 182.833,200.833 183.167,200.167 183.5,199.5C 184.298,201.078 184.798,202.744 185,204.5C 185.5,197.508 185.666,190.508 185.5,183.5 Z"/></g>
<g><path style="opacity:1" fill="#2f4f6f" d="M 236.5,154.5 C 241.757,174.041 247.923,193.374 255,212.5C 256.793,221.709 259.293,230.709 262.5,239.5C 264.787,240.922 267.287,241.589 270,241.5C 277.873,240.604 285.707,239.438 293.5,238C 298.553,235.107 303.886,232.94 309.5,231.5C 309.833,234.167 310.167,236.833 310.5,239.5C 310.167,239.5 309.833,239.5 309.5,239.5C 308.032,238.221 307.365,236.554 307.5,234.5C 304.038,236.271 300.372,237.771 296.5,239C 290.753,239.844 285.086,241.011 279.5,242.5C 274.869,243.662 270.202,243.828 265.5,243C 264.069,242.535 262.903,241.701 262,240.5C 261.667,240.833 261.333,241.167 261,241.5C 257.825,234.559 255.825,227.226 255,219.5C 253.469,217.703 251.636,216.37 249.5,215.5C 245.648,198.768 241.148,182.101 236,165.5C 235.19,161.642 235.357,157.976 236.5,154.5 Z"/></g>
<g><path style="opacity:1" fill="#041631" d="M 148.5,207.5 C 155.565,212.812 163.565,216.312 172.5,218C 171.552,218.483 170.552,218.649 169.5,218.5C 160.074,217.62 152.074,213.787 145.5,207C 146.577,206.53 147.577,206.697 148.5,207.5 Z"/></g>
<g><path style="opacity:1" fill="#041a37" d="M 202.5,205.5 C 197.163,211.354 190.829,216.02 183.5,219.5C 182.571,220.689 182.238,222.022 182.5,223.5C 181.691,221.972 181.024,220.306 180.5,218.5C 182.153,218.34 183.486,217.674 184.5,216.5C 189.813,214.354 194.146,211.021 197.5,206.5C 199.884,204.753 201.55,202.42 202.5,199.5C 203.519,201.46 203.519,203.46 202.5,205.5 Z"/></g>
<g><path style="opacity:1" fill="#071223" d="M 272.5,127.5 C 274.201,129.731 275.534,132.231 276.5,135C 278.197,135.384 279.863,135.218 281.5,134.5C 281.833,135.167 282.167,135.833 282.5,136.5C 267.068,141.424 252.402,148.091 238.5,156.5C 241.215,164.764 244.215,172.764 247.5,180.5C 247.369,181.239 247.536,181.906 248,182.5C 260.401,177.381 272.567,171.881 284.5,166C 286.917,164.374 289.417,162.874 292,161.5C 292.64,159.735 292.473,158.068 291.5,156.5C 290.067,154.442 289.4,152.108 289.5,149.5C 290.5,150.167 291.5,150.833 292.5,151.5C 293.537,152.93 294.204,154.597 294.5,156.5C 294.5,159.167 294.5,161.833 294.5,164.5C 289.697,164.814 286.03,166.981 283.5,171C 286.807,177.459 289.14,184.292 290.5,191.5C 287.725,194.538 284.392,195.538 280.5,194.5C 282.656,192.991 284.99,191.991 287.5,191.5C 287.326,189.139 286.993,186.806 286.5,184.5C 283.794,184.575 281.127,184.908 278.5,185.5C 279.321,188.554 279.321,191.554 278.5,194.5C 275.613,189.931 273.78,184.931 273,179.5C 272.653,177.82 271.653,176.82 270,176.5C 262.702,179.21 255.535,182.21 248.5,185.5C 250.864,191.61 253.198,197.61 255.5,203.5C 258.504,215.483 261.837,227.149 265.5,238.5C 281.891,238.367 297.224,234.367 311.5,226.5C 311.5,227.167 311.833,227.5 312.5,227.5C 311.418,228.594 310.752,229.927 310.5,231.5C 313.705,244.401 316.372,257.401 318.5,270.5C 317.675,271.386 316.675,271.719 315.5,271.5C 315.127,260.596 313.46,249.929 310.5,239.5C 310.167,236.833 309.833,234.167 309.5,231.5C 303.886,232.94 298.553,235.107 293.5,238C 285.707,239.438 277.873,240.604 270,241.5C 267.287,241.589 264.787,240.922 262.5,239.5C 259.293,230.709 256.793,221.709 255,212.5C 247.923,193.374 241.757,174.041 236.5,154.5C 240.972,151.427 245.639,148.593 250.5,146C 259.138,143.342 267.138,139.675 274.5,135C 273.521,132.567 272.855,130.067 272.5,127.5 Z"/></g>
<g><path style="opacity:1" fill="#5a6b7f" d="M 279.5,179.5 C 281.288,179.215 282.955,179.548 284.5,180.5C 282.258,181.692 279.925,182.692 277.5,183.5C 276.614,182.675 276.281,181.675 276.5,180.5C 277.791,180.737 278.791,180.404 279.5,179.5 Z"/></g>
<g><path style="opacity:1" fill="#4b647c" d="M 279.5,171.5 C 281.741,172.3 282.741,173.966 282.5,176.5C 279.728,176.22 277.228,176.887 275,178.5C 273.635,177.407 273.301,176.074 274,174.5C 275.876,173.391 277.709,172.391 279.5,171.5 Z"/></g>
<g><path style="opacity:1" fill="#5989ad" d="M 291.5,156.5 C 292.473,158.068 292.64,159.735 292,161.5C 289.417,162.874 286.917,164.374 284.5,166C 272.567,171.881 260.401,177.381 248,182.5C 247.536,181.906 247.369,181.239 247.5,180.5C 247.5,179.167 247.5,177.833 247.5,176.5C 255.006,175.553 262.006,173.22 268.5,169.5C 271.132,168.528 273.465,167.195 275.5,165.5C 281.265,163.533 286.098,160.2 290,155.5C 290.383,156.056 290.883,156.389 291.5,156.5 Z"/></g>
<g><path style="opacity:1" fill="#386692" d="M 268.5,169.5 C 262.006,173.22 255.006,175.553 247.5,176.5C 248.513,171.301 250.513,166.467 253.5,162C 252.615,159.843 250.948,159.01 248.5,159.5C 248.66,161.199 248.494,162.866 248,164.5C 247.1,163.23 245.934,162.23 244.5,161.5C 245.167,160.5 245.833,159.5 246.5,158.5C 244.577,157.692 242.577,157.192 240.5,157C 242.762,156.358 244.929,155.525 247,154.5C 247.833,155.333 248.667,156.167 249.5,157C 253.898,157.893 258.232,159.059 262.5,160.5C 260.754,162.854 258.421,163.854 255.5,163.5C 255.5,164.833 255.5,166.167 255.5,167.5C 260.129,166.519 264.796,166.352 269.5,167C 268.748,167.671 268.414,168.504 268.5,169.5 Z"/></g>
<g><path style="opacity:1" fill="#2d4f73" d="M 177.5,199.5 C 178.491,206.313 178.825,213.313 178.5,220.5C 177.732,219.737 177.232,218.737 177,217.5C 176.517,218.448 176.351,219.448 176.5,220.5C 173.933,220.279 171.599,219.612 169.5,218.5C 170.552,218.649 171.552,218.483 172.5,218C 163.565,216.312 155.565,212.812 148.5,207.5C 152.325,208.074 155.991,209.241 159.5,211C 165.084,211.806 170.584,211.639 176,210.5C 176.333,211.167 176.667,211.833 177,212.5C 177.499,208.179 177.666,203.846 177.5,199.5 Z"/></g>
<g><path style="opacity:1" fill="#031b39" d="M 54.5,191.5 C 51.6052,206.808 48.7719,222.142 46,237.5C 44.7092,248.659 43.5426,259.825 42.5,271C 42.8618,272.434 43.5285,273.601 44.5,274.5C 43.5,274.5 42.5,274.5 41.5,274.5C 42.0704,246.087 46.4037,218.42 54.5,191.5 Z"/></g>
<g><path style="opacity:0.173" fill="#6b7374" d="M 317.5,228.5 C 318.768,230.905 319.435,233.572 319.5,236.5C 317.96,234.162 317.294,231.495 317.5,228.5 Z"/></g>
<g><path style="opacity:1" fill="#265178" d="M 249.5,215.5 C 251.636,216.37 253.469,217.703 255,219.5C 255.825,227.226 257.825,234.559 261,241.5C 261.333,241.167 261.667,240.833 262,240.5C 262.903,241.701 264.069,242.535 265.5,243C 270.202,243.828 274.869,243.662 279.5,242.5C 285.086,241.011 290.753,239.844 296.5,239C 300.372,237.771 304.038,236.271 307.5,234.5C 307.365,236.554 308.032,238.221 309.5,239.5C 293.36,247.311 276.36,249.977 258.5,247.5C 255.529,236.907 252.529,226.241 249.5,215.5 Z"/></g>
<g><path style="opacity:1" fill="#33485e" d="M 35.5,249.5 C 35.0005,258.826 34.6672,268.159 34.5,277.5C 39.1,277.28 43.4333,277.946 47.5,279.5C 47.5,279.833 47.5,280.167 47.5,280.5C 43.1434,280.414 38.81,280.08 34.5,279.5C 34.2587,281.886 34.9254,283.886 36.5,285.5C 35.5,285.5 34.5,285.5 33.5,285.5C 32.9969,280.5 32.6636,280.833 32.5,286.5C 31.6125,283.517 30.9458,280.35 30.5,277C 30.528,275.93 30.8614,275.097 31.5,274.5C 31.4914,276.308 31.9914,277.975 33,279.5C 33.2253,269.298 34.0586,259.298 35.5,249.5 Z"/></g>
<g><path style="opacity:1" fill="#2d5176" d="M 202.5,205.5 C 203.807,206.802 203.807,208.135 202.5,209.5C 198.833,211.833 195.833,214.833 193.5,218.5C 196.662,220.494 199.996,221.994 203.5,223C 201.122,223.974 201.456,224.641 204.5,225C 202.975,226.009 201.308,226.509 199.5,226.5C 194.684,225.35 189.684,225.184 184.5,226C 187.726,227.199 191.059,227.699 194.5,227.5C 194.179,229.048 193.179,229.715 191.5,229.5C 191.62,231.734 191.287,233.901 190.5,236C 195.783,255.633 201.449,275.133 207.5,294.5C 209.199,294.34 210.866,294.506 212.5,295C 210.681,295.74 209.348,296.907 208.5,298.5C 207.833,298.833 207.167,299.167 206.5,299.5C 205.883,299.611 205.383,299.944 205,300.5C 202.662,294.815 200.329,289.148 198,283.5C 194.406,269.385 190.406,255.385 186,241.5C 184.83,235.489 183.663,229.489 182.5,223.5C 182.238,222.022 182.571,220.689 183.5,219.5C 190.829,216.02 197.163,211.354 202.5,205.5 Z"/></g>
<g><path style="opacity:0.899" fill="#1f252e" d="M 294.5,156.5 C 304.548,179.648 312.215,203.648 317.5,228.5C 317.294,231.495 317.96,234.162 319.5,236.5C 322.196,250.086 324.529,263.752 326.5,277.5C 325.968,279.741 324.635,281.241 322.5,282C 300.588,289.328 278.421,294.495 256,297.5C 240.358,301.868 224.525,305.535 208.5,308.5C 206.077,308.45 204.244,307.45 203,305.5C 199.797,298.392 197.297,291.059 195.5,283.5C 195.946,280.99 195.28,278.99 193.5,277.5C 187.935,261.908 183.935,245.908 181.5,229.5C 181.719,228.325 181.386,227.325 180.5,226.5C 179.534,228.396 179.201,230.396 179.5,232.5C 179.5,233.833 179.5,235.167 179.5,236.5C 178.291,240.618 177.624,244.951 177.5,249.5C 175.445,269.216 171.112,288.383 164.5,307C 127.979,301.025 91.3119,295.692 54.5,291C 46.9799,289.678 39.6466,288.178 32.5,286.5C 32.6636,280.833 32.9969,280.5 33.5,285.5C 34.5,285.5 35.5,285.5 36.5,285.5C 78.7325,290.539 120.732,296.873 162.5,304.5C 162.366,302.708 162.699,301.042 163.5,299.5C 163.5,298.833 163.5,298.167 163.5,297.5C 165.77,292.819 167.603,287.819 169,282.5C 173.245,262.359 176.412,242.026 178.5,221.5C 179.167,220.5 179.833,219.5 180.5,218.5C 181.024,220.306 181.691,221.972 182.5,223.5C 183.663,229.489 184.83,235.489 186,241.5C 190.406,255.385 194.406,269.385 198,283.5C 200.329,289.148 202.662,294.815 205,300.5C 205.383,299.944 205.883,299.611 206.5,299.5C 206.5,300.167 206.833,300.5 207.5,300.5C 205.59,301.684 205.257,303.184 206.5,305C 208.5,305.667 210.5,305.667 212.5,305C 237.324,298.544 262.324,292.877 287.5,288C 299.174,284.828 310.841,281.661 322.5,278.5C 322.5,277.5 322.5,276.5 322.5,275.5C 321.5,275.5 320.5,275.5 319.5,275.5C 318.833,274.833 318.167,274.167 317.5,273.5C 319.288,273.785 320.955,273.452 322.5,272.5C 320.196,259.876 318.029,247.21 316,234.5C 315.564,231.602 314.397,229.269 312.5,227.5C 311.833,227.5 311.5,227.167 311.5,226.5C 313.662,224.831 313.995,222.831 312.5,220.5C 308.579,205.187 303.912,190.187 298.5,175.5C 297.55,171.647 296.217,167.98 294.5,164.5C 294.5,161.833 294.5,159.167 294.5,156.5 Z"/></g>
<g><path style="opacity:0.467" fill="#585e64" d="M 193.5,277.5 C 195.28,278.99 195.946,280.99 195.5,283.5C 194.262,281.786 193.595,279.786 193.5,277.5 Z"/></g>
<g><path style="opacity:1" fill="#021732" d="M 317.5,273.5 C 318.167,274.167 318.833,274.833 319.5,275.5C 300.072,278.048 280.739,281.215 261.5,285C 243.481,290.171 225.481,295.337 207.5,300.5C 206.833,300.5 206.5,300.167 206.5,299.5C 207.167,299.167 207.833,298.833 208.5,298.5C 225.526,293.826 242.526,288.993 259.5,284C 278.824,280.391 298.158,276.891 317.5,273.5 Z"/></g>
<g><path style="opacity:0.067" fill="#b0b5ba" d="M 179.5,236.5 C 179.72,241.1 179.054,245.433 177.5,249.5C 177.624,244.951 178.291,240.618 179.5,236.5 Z"/></g>
<g><path style="opacity:1" fill="#5889ad" d="M 312.5,220.5 C 313.995,222.831 313.662,224.831 311.5,226.5C 297.224,234.367 281.891,238.367 265.5,238.5C 265.5,236.833 265.5,235.167 265.5,233.5C 276.195,233.607 286.528,231.773 296.5,228C 301.474,224.679 306.807,222.179 312.5,220.5 Z"/></g>
<g><path style="opacity:0.086" fill="#c0cacd" d="M 181.5,229.5 C 180.833,230.5 180.167,231.5 179.5,232.5C 179.201,230.396 179.534,228.396 180.5,226.5C 181.386,227.325 181.719,228.325 181.5,229.5 Z"/></g>
<g><path style="opacity:1" fill="#011531" d="M 199.5,226.5 C 197.784,226.629 196.117,226.962 194.5,227.5C 191.059,227.699 187.726,227.199 184.5,226C 189.684,225.184 194.684,225.35 199.5,226.5 Z"/></g>
<g><path style="opacity:1" fill="#041a37" d="M 47.5,280.5 C 47.5,280.167 47.5,279.833 47.5,279.5C 55.5739,279.568 63.5739,280.401 71.5,282C 95.2289,285.937 118.896,290.103 142.5,294.5C 149.332,295.731 156.332,296.731 163.5,297.5C 163.5,298.167 163.5,298.833 163.5,299.5C 124.957,292.532 86.29,286.199 47.5,280.5 Z"/></g>
<g><path style="opacity:1" fill="#3f688b" d="M 319.5,275.5 C 320.5,275.5 321.5,275.5 322.5,275.5C 322.5,276.5 322.5,277.5 322.5,278.5C 310.841,281.661 299.174,284.828 287.5,288C 262.324,292.877 237.324,298.544 212.5,305C 210.5,305.667 208.5,305.667 206.5,305C 205.257,303.184 205.59,301.684 207.5,300.5C 225.481,295.337 243.481,290.171 261.5,285C 280.739,281.215 300.072,278.048 319.5,275.5 Z"/></g>
<g><path style="opacity:1" fill="#41688b" d="M 47.5,280.5 C 86.29,286.199 124.957,292.532 163.5,299.5C 162.699,301.042 162.366,302.708 162.5,304.5C 120.732,296.873 78.7325,290.539 36.5,285.5C 34.9254,283.886 34.2587,281.886 34.5,279.5C 38.81,280.08 43.1434,280.414 47.5,280.5 Z"/></g>
</svg>
