<?xml version="1.0" encoding="UTF-8"?>
<!DOCTYPE svg PUBLIC "-//W3C//DTD SVG 1.1//EN" "http://www.w3.org/Graphics/SVG/1.1/DTD/svg11.dtd">
<svg xmlns="http://www.w3.org/2000/svg" version="1.1" width="360px" height="360px" style="shape-rendering:geometricPrecision; text-rendering:geometricPrecision; image-rendering:optimizeQuality; fill-rule:evenodd; clip-rule:evenodd" xmlns:xlink="http://www.w3.org/1999/xlink">
<g><path style="opacity:0.655" fill="#465749" d="M 220.5,35.5 C 224.307,35.0505 227.641,36.3839 230.5,39.5C 229.833,39.5 229.167,39.5 228.5,39.5C 226.216,39.0248 224.216,38.0248 222.5,36.5C 222.158,35.6618 221.492,35.3284 220.5,35.5 Z"/></g>
<g><path style="opacity:1" fill="#e6fef0" d="M 131.5,42.5 C 132.319,44.7722 132.985,47.1055 133.5,49.5C 131.493,48.3215 131.16,48.8215 132.5,51C 129.552,52.0095 128.886,53.8429 130.5,56.5C 134.107,57.598 136.107,59.9314 136.5,63.5C 138.842,63.5041 140.842,64.3375 142.5,66C 142.167,66.3333 141.833,66.6667 141.5,67C 142.574,69.456 143.574,71.956 144.5,74.5C 145.086,74.2907 145.586,73.9574 146,73.5C 148.03,75.7375 150.53,77.2375 153.5,78C 152.304,78.6543 152.304,79.1543 153.5,79.5C 156.376,76.8205 158.709,77.3205 160.5,81C 162.246,81.4709 163.913,82.1376 165.5,83C 164.542,84.1475 164.875,85.1475 166.5,86C 168,86.5 169.5,87 171,87.5C 171.945,87.0946 172.612,86.428 173,85.5C 174.849,86.5608 176.849,87.2275 179,87.5C 181.667,86.1667 184.333,86.1667 187,87.5C 189.188,87.646 190.521,86.646 191,84.5C 192.113,85.7111 193.28,85.7111 194.5,84.5C 195.548,85.3829 196.715,86.0496 198,86.5C 200.825,83.856 204.492,81.5227 209,79.5C 212.565,81.0535 215.899,80.7201 219,78.5C 221.23,74.0383 222.897,69.3716 224,64.5C 225.067,63.8095 226.234,63.3095 227.5,63C 226.549,62.2825 226.383,61.4491 227,60.5C 231.249,57.2699 233.082,52.9366 232.5,47.5C 237.941,47.1526 243.107,48.486 248,51.5C 248.414,51.0426 248.914,50.7093 249.5,50.5C 249.109,51.7185 249.776,52.5518 251.5,53C 253.568,53.6869 255.568,53.5202 257.5,52.5C 264.851,56.0543 272.018,60.3876 279,65.5C 279.638,66.6086 280.138,67.7753 280.5,69C 278.418,73.087 275.918,76.9203 273,80.5C 270.933,84.9594 269.766,89.6261 269.5,94.5C 269.072,97.7846 268.072,100.785 266.5,103.5C 264.408,101.789 262.741,99.6226 261.5,97C 261.957,96.586 262.291,96.086 262.5,95.5C 260.528,93.5847 259.528,91.2514 259.5,88.5C 257.891,88.0941 256.557,88.0941 255.5,88.5C 254.905,95.4139 255.571,102.581 257.5,110C 256.481,114.358 256.814,118.692 258.5,123C 257.695,126.803 257.028,130.636 256.5,134.5C 258.453,139.022 258.12,143.522 255.5,148C 256.399,150.401 258.066,151.901 260.5,152.5C 261.747,178.826 261.747,205.16 260.5,231.5C 260.893,246.545 261.893,261.545 263.5,276.5C 264.685,281.425 265.351,286.425 265.5,291.5C 263.5,292.167 261.5,292.833 259.5,293.5C 259.329,292.121 259.162,290.454 259,288.5C 256.18,291.897 252.847,294.564 249,296.5C 245.843,295.363 242.677,295.363 239.5,296.5C 239.749,299.575 238.415,300.242 235.5,298.5C 233.258,299.771 230.925,300.937 228.5,302C 221.5,302.333 214.5,302.667 207.5,303C 207.833,303.333 208.167,303.667 208.5,304C 193.52,304.565 178.52,306.065 163.5,308.5C 154.391,306.358 145.224,305.692 136,306.5C 134.989,306.108 134.489,305.441 134.5,304.5C 133.914,304.709 133.414,305.043 133,305.5C 126.819,303.378 120.652,303.045 114.5,304.5C 113.209,304.737 112.209,304.404 111.5,303.5C 112.239,303.631 112.906,303.464 113.5,303C 107.121,296.487 99.4541,294.32 90.5,296.5C 89.2404,294.647 89.2404,292.814 90.5,291C 94.0985,289.986 97.7652,289.153 101.5,288.5C 99.9775,286.717 97.9775,286.051 95.5,286.5C 95.7261,283.751 95.3928,281.084 94.5,278.5C 95.2305,275.891 95.7305,273.224 96,270.5C 96.4998,260.172 96.6665,249.839 96.5,239.5C 101.5,239.5 106.5,239.5 111.5,239.5C 111.832,228.813 111.499,218.146 110.5,207.5C 109.505,212.792 109.172,218.125 109.5,223.5C 107.326,223.92 105.326,223.92 103.5,223.5C 102.676,220.215 102.176,216.882 102,213.5C 101.667,214.167 101.333,214.833 101,215.5C 100.833,214.333 100.667,213.167 100.5,212C 101.94,209.32 102.94,206.653 103.5,204C 102.833,203 102.167,202 101.5,201C 102.245,198.522 102.911,196.022 103.5,193.5C 103.629,179.566 103.296,165.733 102.5,152C 104.046,147.688 104.713,143.188 104.5,138.5C 103.805,129.365 103.138,120.365 102.5,111.5C 105.688,107.056 107.188,102.056 107,96.5C 111.037,93.7499 111.371,90.4165 108,86.5C 107.503,84.1902 107.337,81.8568 107.5,79.5C 102.226,79.5836 98.7256,82.2502 97,87.5C 95.3602,85.421 94.1936,83.0876 93.5,80.5C 90.1651,79.4516 88.6651,77.1183 89,73.5C 88.0754,72.9535 87.2421,72.2868 86.5,71.5C 87.2357,69.2072 87.4024,66.8739 87,64.5C 89.7191,63.5562 92.5525,63.2229 95.5,63.5C 95.3012,60.9887 94.9679,58.822 94.5,57C 95.7014,56.0975 96.5348,54.9308 97,53.5C 97.3333,54.1667 97.6667,54.8333 98,55.5C 99.0968,53.9474 100.43,52.614 102,51.5C 103.087,53.9316 103.587,53.5983 103.5,50.5C 106.968,49.8484 110.135,48.515 113,46.5C 114.388,47.5536 115.888,47.7203 117.5,47C 120.07,46.2771 122.403,45.1104 124.5,43.5C 126.428,45.0499 128.261,46.7166 130,48.5C 130.496,46.9651 130.33,45.4651 129.5,44C 129.836,42.9701 130.503,42.4701 131.5,42.5 Z"/></g>
<g><path style="opacity:1" fill="#8bbda0" d="M 156.5,41.5 C 178.16,45.0776 199.493,43.7443 220.5,37.5C 221.437,41.7303 219.771,44.2303 215.5,45C 190.968,52.6558 166.634,52.1558 142.5,43.5C 141.205,41.6721 140.205,39.6721 139.5,37.5C 138.925,41.1813 139.925,44.5146 142.5,47.5C 148.316,59.7914 157.982,67.6248 171.5,71C 186.217,73.9908 199.55,70.9908 211.5,62C 218.581,55.0018 222.248,46.5018 222.5,36.5C 224.216,38.0248 226.216,39.0248 228.5,39.5C 223.977,63.1846 209.644,76.3513 185.5,79C 171.252,80.0814 158.585,76.2481 147.5,67.5C 138.666,59.8322 134.166,50.1656 134,38.5C 135.438,37.2815 137.105,36.6148 139,36.5C 144.809,38.27 150.643,39.9367 156.5,41.5 Z"/></g>
<g><path style="opacity:0.737" fill="#343735" d="M 231.5,39.5 C 241.599,43.8795 251.933,47.7129 262.5,51C 270.617,54.4713 277.783,59.3047 284,65.5C 288.186,73.7123 292.186,82.0457 296,90.5C 298.584,98.7478 300.917,107.081 303,115.5C 304.227,119.211 306.06,122.545 308.5,125.5C 307.833,125.833 307.167,126.167 306.5,126.5C 303.833,122.499 301.666,118.166 300,113.5C 299.206,116.471 298.539,119.471 298,122.5C 297.401,117.98 297.568,113.48 298.5,109C 296.453,96.3623 292.12,84.5289 285.5,73.5C 284.998,72.479 284.332,72.3123 283.5,73C 282.837,74.5185 281.837,75.6851 280.5,76.5C 280.5,76.1667 280.5,75.8333 280.5,75.5C 281.259,73.5642 282.259,71.7309 283.5,70C 279.33,62.1684 272.997,56.8351 264.5,54C 253.833,50 243.167,46 232.5,42C 231.944,41.6174 231.611,41.1174 231.5,40.5C 231.5,40.1667 231.5,39.8333 231.5,39.5 Z"/></g>
<g><path style="opacity:0.831" fill="#28302b" d="M 159.5,40.5 C 158.209,40.2627 157.209,40.596 156.5,41.5C 150.643,39.9367 144.809,38.27 139,36.5C 137.105,36.6148 135.438,37.2815 134,38.5C 134.166,50.1656 138.666,59.8322 147.5,67.5C 146.833,67.5 146.5,67.8333 146.5,68.5C 140.438,63.3854 136.105,57.0521 133.5,49.5C 132.985,47.1055 132.319,44.7722 131.5,42.5C 131.649,41.448 131.483,40.448 131,39.5C 119.737,42.6216 108.57,46.1216 97.5,50C 90.1866,53.307 84.0199,58.1403 79,64.5C 77.8129,66.0444 77.4795,67.7111 78,69.5C 83.0159,76.8654 87.5159,84.5321 91.5,92.5C 90.8333,92.5 90.5,92.8333 90.5,93.5C 86.4465,85.0652 81.6132,77.0652 76,69.5C 70.7655,77.3022 66.5989,85.6356 63.5,94.5C 63.5,94.8333 63.5,95.1667 63.5,95.5C 60.9112,102.86 59.0778,110.527 58,118.5C 57.6667,116.833 57.3333,115.167 57,113.5C 55.6274,116.412 54.1274,119.246 52.5,122C 66.3956,131.108 80.3956,139.941 94.5,148.5C 93.8333,148.5 93.5,148.833 93.5,149.5C 79.6945,141.429 66.0278,133.096 52.5,124.5C 49.9788,126.26 49.1455,128.593 50,131.5C 54.3783,135.935 59.2116,139.768 64.5,143C 74.3743,147.791 84.3743,152.291 94.5,156.5C 95.4656,154.604 95.7989,152.604 95.5,150.5C 96.7752,153.396 96.7752,156.396 95.5,159.5C 83.8596,154.014 72.1929,148.514 60.5,143C 55.3964,140.196 51.2298,136.363 48,131.5C 47.3333,130.167 47.3333,128.833 48,127.5C 50.4728,121.221 53.4728,115.221 57,109.5C 61.1421,91.8922 68.4754,75.8922 79,61.5C 84.3256,55.8402 90.4922,51.3402 97.5,48C 107.596,44.2255 117.929,41.2255 128.5,39C 131.808,37.0973 135.308,35.5973 139,34.5C 145.908,36.6403 152.741,38.6403 159.5,40.5 Z"/></g>
<g><path style="opacity:1" fill="#192c1d" d="M 220.5,35.5 C 221.492,35.3284 222.158,35.6618 222.5,36.5C 222.248,46.5018 218.581,55.0018 211.5,62C 199.55,70.9908 186.217,73.9908 171.5,71C 157.982,67.6248 148.316,59.7914 142.5,47.5C 139.925,44.5146 138.925,41.1813 139.5,37.5C 140.205,39.6721 141.205,41.6721 142.5,43.5C 166.634,52.1558 190.968,52.6558 215.5,45C 219.771,44.2303 221.437,41.7303 220.5,37.5C 199.493,43.7443 178.16,45.0776 156.5,41.5C 157.209,40.596 158.209,40.2627 159.5,40.5C 171.817,41.5105 184.15,41.6771 196.5,41C 204.723,39.776 212.723,37.9427 220.5,35.5 Z"/></g>
<g><path style="opacity:1" fill="#c1e3cd" d="M 142.5,47.5 C 142.369,46.6236 142.702,45.9569 143.5,45.5C 155.551,50.1426 168.051,52.1426 181,51.5C 194.335,52.5006 207.002,50.1673 219,44.5C 216.155,56.0229 208.988,63.8562 197.5,68C 174.239,74.0242 155.906,67.1908 142.5,47.5 Z"/></g>
<g><path style="opacity:1" fill="#101c13" d="M 228.5,39.5 C 229.167,39.5 229.833,39.5 230.5,39.5C 230.833,39.5 231.167,39.5 231.5,39.5C 231.5,39.8333 231.5,40.1667 231.5,40.5C 222.281,70.1449 201.947,83.3116 170.5,80C 161.539,78.0182 153.539,74.1849 146.5,68.5C 146.5,67.8333 146.833,67.5 147.5,67.5C 158.585,76.2481 171.252,80.0814 185.5,79C 209.644,76.3513 223.977,63.1846 228.5,39.5 Z"/></g>
<g><path style="opacity:1" fill="#e7fef0" d="M 63.5,95.5 C 63.5,95.1667 63.5,94.8333 63.5,94.5C 64.552,94.6495 65.552,94.4828 66.5,94C 66.1667,93.6667 65.8333,93.3333 65.5,93C 66.8198,90.6829 68.4864,88.6829 70.5,87C 69.8333,86.6667 69.1667,86.3333 68.5,86C 70.2189,84.1295 71.2189,81.9628 71.5,79.5C 74.1667,79.5 76.8333,79.5 79.5,79.5C 79.5751,82.2062 79.9084,84.8728 80.5,87.5C 82.1667,87.5 83.8333,87.5 85.5,87.5C 86.8427,92.72 88.0094,97.72 89,102.5C 91.0366,103.909 92.5366,105.743 93.5,108C 93.0556,109.762 92.5556,109.595 92,107.5C 91.8333,108 91.6667,108.5 91.5,109C 91.2186,118.759 91.5519,128.592 92.5,138.5C 92.2237,140.33 91.557,141.997 90.5,143.5C 88.5729,140.65 86.4062,137.983 84,135.5C 82.6667,136.167 81.6667,137.167 81,138.5C 79.6253,136.063 79.1253,133.397 79.5,130.5C 78.1266,130.657 76.7932,130.49 75.5,130C 74.1667,129.333 74.1667,128.667 75.5,128C 71.5138,127.501 67.5138,127.334 63.5,127.5C 63.1084,124.854 63.1084,122.354 63.5,120C 62.8333,119.667 62.1667,119.333 61.5,119C 62.2931,117.915 62.9598,116.748 63.5,115.5C 63.1612,109.203 63.1612,102.536 63.5,95.5 Z"/></g>
<g><path style="opacity:1" fill="#e8f7ef" d="M 231.5,40.5 C 231.611,41.1174 231.944,41.6174 232.5,42C 243.167,46 253.833,50 264.5,54C 272.997,56.8351 279.33,62.1684 283.5,70C 282.259,71.7309 281.259,73.5642 280.5,75.5C 279.115,76.5736 277.949,77.9069 277,79.5C 274.454,84.5919 271.954,89.5919 269.5,94.5C 269.766,89.6261 270.933,84.9594 273,80.5C 275.918,76.9203 278.418,73.087 280.5,69C 280.138,67.7753 279.638,66.6086 279,65.5C 272.018,60.3876 264.851,56.0543 257.5,52.5C 255.568,53.5202 253.568,53.6869 251.5,53C 249.776,52.5518 249.109,51.7185 249.5,50.5C 248.914,50.7093 248.414,51.0426 248,51.5C 243.107,48.486 237.941,47.1526 232.5,47.5C 233.082,52.9366 231.249,57.2699 227,60.5C 226.383,61.4491 226.549,62.2825 227.5,63C 226.234,63.3095 225.067,63.8095 224,64.5C 222.897,69.3716 221.23,74.0383 219,78.5C 215.899,80.7201 212.565,81.0535 209,79.5C 204.492,81.5227 200.825,83.856 198,86.5C 196.715,86.0496 195.548,85.3829 194.5,84.5C 193.28,85.7111 192.113,85.7111 191,84.5C 190.521,86.646 189.188,87.646 187,87.5C 184.333,86.1667 181.667,86.1667 179,87.5C 176.849,87.2275 174.849,86.5608 173,85.5C 172.612,86.428 171.945,87.0946 171,87.5C 169.5,87 168,86.5 166.5,86C 164.875,85.1475 164.542,84.1475 165.5,83C 163.913,82.1376 162.246,81.4709 160.5,81C 158.709,77.3205 156.376,76.8205 153.5,79.5C 152.304,79.1543 152.304,78.6543 153.5,78C 150.53,77.2375 148.03,75.7375 146,73.5C 145.586,73.9574 145.086,74.2907 144.5,74.5C 143.574,71.956 142.574,69.456 141.5,67C 141.833,66.6667 142.167,66.3333 142.5,66C 140.842,64.3375 138.842,63.5041 136.5,63.5C 136.107,59.9314 134.107,57.598 130.5,56.5C 128.886,53.8429 129.552,52.0095 132.5,51C 131.16,48.8215 131.493,48.3215 133.5,49.5C 136.105,57.0521 140.438,63.3854 146.5,68.5C 153.539,74.1849 161.539,78.0182 170.5,80C 201.947,83.3116 222.281,70.1449 231.5,40.5 Z"/></g>
<g><path style="opacity:1" fill="#e8fcf0" d="M 279.5,79.5 C 286.5,77.8333 289.167,80.5 287.5,87.5C 288.5,87.5 289.5,87.5 290.5,87.5C 291.432,93.1379 293.432,98.8045 296.5,104.5C 295.939,107.535 295.273,110.535 294.5,113.5C 295.811,118.031 295.811,122.531 294.5,127C 295.167,127.333 295.833,127.667 296.5,128C 294.482,130.432 291.982,132.265 289,133.5C 288.517,134.448 288.351,135.448 288.5,136.5C 279.451,141.108 270.617,146.108 262,151.5C 260.378,125.564 266.211,101.564 279.5,79.5 Z"/></g>
<g><path style="opacity:1" fill="#e7f1ec" d="M 306.5,126.5 C 300.755,130.234 294.755,133.568 288.5,136.5C 288.351,135.448 288.517,134.448 289,133.5C 291.982,132.265 294.482,130.432 296.5,128C 295.833,127.667 295.167,127.333 294.5,127C 295.811,122.531 295.811,118.031 294.5,113.5C 295.273,110.535 295.939,107.535 296.5,104.5C 293.432,98.8045 291.432,93.1379 290.5,87.5C 289.5,87.5 288.5,87.5 287.5,87.5C 289.167,80.5 286.5,77.8333 279.5,79.5C 279.557,78.391 279.89,77.391 280.5,76.5C 281.837,75.6851 282.837,74.5185 283.5,73C 284.332,72.3123 284.998,72.479 285.5,73.5C 292.12,84.5289 296.453,96.3623 298.5,109C 297.568,113.48 297.401,117.98 298,122.5C 298.539,119.471 299.206,116.471 300,113.5C 301.666,118.166 303.833,122.499 306.5,126.5 Z"/></g>
<g><path style="opacity:1" fill="#e8f6ef" d="M 90.5,93.5 C 92.497,98.3266 93.997,103.327 95,108.5C 95.827,122.006 95.6604,135.34 94.5,148.5C 80.3956,139.941 66.3956,131.108 52.5,122C 54.1274,119.246 55.6274,116.412 57,113.5C 57.3333,115.167 57.6667,116.833 58,118.5C 59.0778,110.527 60.9112,102.86 63.5,95.5C 63.1612,102.536 63.1612,109.203 63.5,115.5C 62.9598,116.748 62.2931,117.915 61.5,119C 62.1667,119.333 62.8333,119.667 63.5,120C 63.1084,122.354 63.1084,124.854 63.5,127.5C 67.5138,127.334 71.5138,127.501 75.5,128C 74.1667,128.667 74.1667,129.333 75.5,130C 76.7932,130.49 78.1266,130.657 79.5,130.5C 79.1253,133.397 79.6253,136.063 81,138.5C 81.6667,137.167 82.6667,136.167 84,135.5C 86.4062,137.983 88.5729,140.65 90.5,143.5C 91.557,141.997 92.2237,140.33 92.5,138.5C 91.5519,128.592 91.2186,118.759 91.5,109C 91.6667,108.5 91.8333,108 92,107.5C 92.5556,109.595 93.0556,109.762 93.5,108C 92.5366,105.743 91.0366,103.909 89,102.5C 88.0094,97.72 86.8427,92.72 85.5,87.5C 83.8333,87.5 82.1667,87.5 80.5,87.5C 79.9084,84.8728 79.5751,82.2062 79.5,79.5C 76.8333,79.5 74.1667,79.5 71.5,79.5C 71.2189,81.9628 70.2189,84.1295 68.5,86C 69.1667,86.3333 69.8333,86.6667 70.5,87C 68.4864,88.6829 66.8198,90.6829 65.5,93C 65.8333,93.3333 66.1667,93.6667 66.5,94C 65.552,94.4828 64.552,94.6495 63.5,94.5C 66.5989,85.6356 70.7655,77.3022 76,69.5C 81.6132,77.0652 86.4465,85.0652 90.5,93.5 Z"/></g>
<g><path style="opacity:1" fill="#8abe9e" d="M 309.5,132.5 C 309.607,134.903 308.607,136.736 306.5,138C 291.967,146.432 277.301,154.599 262.5,162.5C 262.335,159.15 262.502,155.817 263,152.5C 277.914,144.293 292.748,135.96 307.5,127.5C 308.95,128.85 309.617,130.516 309.5,132.5 Z"/></g>
<g><path style="opacity:1" fill="#edf8f3" d="M 266.5,103.5 C 265.237,108.126 264.07,112.793 263,117.5C 262.226,108.958 260.559,100.625 258,92.5C 258.642,97.0984 259.309,101.765 260,106.5C 260.5,121.83 260.667,137.163 260.5,152.5C 258.066,151.901 256.399,150.401 255.5,148C 258.12,143.522 258.453,139.022 256.5,134.5C 257.028,130.636 257.695,126.803 258.5,123C 256.814,118.692 256.481,114.358 257.5,110C 255.571,102.581 254.905,95.4139 255.5,88.5C 256.557,88.0941 257.891,88.0941 259.5,88.5C 259.528,91.2514 260.528,93.5847 262.5,95.5C 262.291,96.086 261.957,96.586 261.5,97C 262.741,99.6226 264.408,101.789 266.5,103.5 Z"/></g>
<g><path style="opacity:1" fill="#8bbfa0" d="M 93.5,149.5 C 94.4916,149.328 95.1583,149.662 95.5,150.5C 95.7989,152.604 95.4656,154.604 94.5,156.5C 84.3743,152.291 74.3743,147.791 64.5,143C 59.2116,139.768 54.3783,135.935 50,131.5C 49.1455,128.593 49.9788,126.26 52.5,124.5C 66.0278,133.096 79.6945,141.429 93.5,149.5 Z"/></g>
<g><path style="opacity:0.753" fill="#2c382f" d="M 309.5,132.5 C 310.167,133.5 310.833,134.5 311.5,135.5C 308.424,138.552 305.09,141.386 301.5,144C 288.117,150.687 275.117,157.854 262.5,165.5C 262.5,164.5 262.5,163.5 262.5,162.5C 277.301,154.599 291.967,146.432 306.5,138C 308.607,136.736 309.607,134.903 309.5,132.5 Z"/></g>
<g><path style="opacity:1" fill="#202521" d="M 280.5,75.5 C 280.5,75.8333 280.5,76.1667 280.5,76.5C 279.89,77.391 279.557,78.391 279.5,79.5C 266.211,101.564 260.378,125.564 262,151.5C 270.617,146.108 279.451,141.108 288.5,136.5C 294.755,133.568 300.755,130.234 306.5,126.5C 307.167,126.167 307.833,125.833 308.5,125.5C 310.976,128.288 311.976,131.622 311.5,135.5C 310.833,134.5 310.167,133.5 309.5,132.5C 309.617,130.516 308.95,128.85 307.5,127.5C 292.748,135.96 277.914,144.293 263,152.5C 262.502,155.817 262.335,159.15 262.5,162.5C 262.5,163.5 262.5,164.5 262.5,165.5C 263.678,187.319 263.678,209.152 262.5,231C 262.879,244.185 263.546,257.352 264.5,270.5C 264.795,272.735 264.461,274.735 263.5,276.5C 261.893,261.545 260.893,246.545 260.5,231.5C 261.747,205.16 261.747,178.826 260.5,152.5C 260.667,137.163 260.5,121.83 260,106.5C 259.309,101.765 258.642,97.0984 258,92.5C 260.559,100.625 262.226,108.958 263,117.5C 264.07,112.793 265.237,108.126 266.5,103.5C 268.072,100.785 269.072,97.7846 269.5,94.5C 271.954,89.5919 274.454,84.5919 277,79.5C 277.949,77.9069 279.115,76.5736 280.5,75.5 Z"/></g>
<g><path style="opacity:1" fill="#e9f7f0" d="M 201.5,110.5 C 206.091,111.146 210.591,112.146 215,113.5C 216.923,112.684 218.923,112.017 221,111.5C 224.757,112.223 228.757,112.556 233,112.5C 236.519,109.938 240.019,110.105 243.5,113C 242.304,113.654 242.304,114.154 243.5,114.5C 244.451,113.674 245.451,113.508 246.5,114C 246.167,114.333 245.833,114.667 245.5,115C 246.845,118.678 248.845,122.011 251.5,125C 249.983,126.541 248.816,128.375 248,130.5C 247.797,134.421 247.297,138.255 246.5,142C 246.833,142.333 247.167,142.667 247.5,143C 246.289,143.787 245.289,144.454 244.5,145C 245.695,146.533 245.695,148.033 244.5,149.5C 247.172,151.425 248.172,154.092 247.5,157.5C 244.402,157.413 244.068,157.913 246.5,159C 243.117,159.526 240.117,160.859 237.5,163C 239.686,163.604 239.852,164.77 238,166.5C 237.586,166.043 237.086,165.709 236.5,165.5C 235.618,166.76 234.618,167.926 233.5,169C 225.668,172.502 218.001,172.169 210.5,168C 208.18,164.515 205.513,161.349 202.5,158.5C 200.029,155.02 198.029,150.02 196.5,143.5C 195.5,143.5 194.5,143.5 193.5,143.5C 192.8,132.878 192.8,124.544 193.5,118.5C 194.675,118.719 195.675,118.386 196.5,117.5C 196.519,115.894 196.353,114.228 196,112.5C 197.333,112.5 198.667,112.5 200,112.5C 200.717,111.956 201.217,111.289 201.5,110.5 Z"/></g>
<g><path style="opacity:1" fill="#171d19" d="M 199.5,118.5 C 200.713,119.575 202.213,120.241 204,120.5C 217.15,119.732 230.317,119.232 243.5,119C 231.091,115.922 218.591,115.756 206,118.5C 204.615,118.486 203.449,118.152 202.5,117.5C 210.118,116.221 217.785,115.221 225.5,114.5C 232.173,115.168 238.84,115.834 245.5,116.5C 247.407,134.389 242.741,150.222 231.5,164C 219.888,170.553 210.721,168.053 204,156.5C 198.723,144.249 197.223,131.582 199.5,118.5 Z"/></g>
<g><path style="opacity:1" fill="#666d6b" d="M 200.5,127.5 C 202.256,128.552 202.923,130.219 202.5,132.5C 200.744,131.448 200.077,129.781 200.5,127.5 Z"/></g>
<g><path style="opacity:1" fill="#a1a7a5" d="M 242.5,122.5 C 242.56,121.957 242.893,121.624 243.5,121.5C 244.803,124.645 244.803,127.645 243.5,130.5C 243.096,129.244 242.429,128.077 241.5,127C 242.167,126 242.833,125 243.5,124C 243.43,123.235 243.097,122.735 242.5,122.5 Z"/></g>
<g><path style="opacity:1" fill="#e7fcf0" d="M 242.5,122.5 C 243.097,122.735 243.43,123.235 243.5,124C 242.833,125 242.167,126 241.5,127C 242.429,128.077 243.096,129.244 243.5,130.5C 243.5,132.167 243.5,133.833 243.5,135.5C 242.71,134.391 242.21,133.058 242,131.5C 241.667,132.833 241.333,134.167 241,135.5C 240.346,134.304 239.846,134.304 239.5,135.5C 239.833,136.167 240.167,136.833 240.5,137.5C 239.184,141.429 238.184,145.429 237.5,149.5C 235.857,149.52 234.524,148.853 233.5,147.5C 233.306,149.07 233.306,150.57 233.5,152C 230.41,153.845 227.743,156.178 225.5,159C 221.458,160.687 217.458,160.687 213.5,159C 212.683,155.685 210.683,153.518 207.5,152.5C 206.662,152.158 206.328,151.492 206.5,150.5C 207.573,149.749 207.74,148.749 207,147.5C 206.667,147.833 206.333,148.167 206,148.5C 205.722,147.584 205.222,146.918 204.5,146.5C 204.5,145.5 204.5,144.5 204.5,143.5C 203.917,140.173 202.584,137.173 200.5,134.5C 201.243,133.818 201.909,133.151 202.5,132.5C 202.923,130.219 202.256,128.552 200.5,127.5C 200.5,125.5 200.5,123.5 200.5,121.5C 201.29,122.609 201.79,123.942 202,125.5C 202.49,124.207 202.657,122.873 202.5,121.5C 215.489,120.834 228.489,120.5 241.5,120.5C 241.246,122.401 241.58,123.067 242.5,122.5 Z"/></g>
<g><path style="opacity:1" fill="#97b9a7" d="M 199.5,118.5 C 200.209,117.596 201.209,117.263 202.5,117.5C 203.449,118.152 204.615,118.486 206,118.5C 218.591,115.756 231.091,115.922 243.5,119C 230.317,119.232 217.15,119.732 204,120.5C 202.213,120.241 200.713,119.575 199.5,118.5 Z"/></g>
<g><path style="opacity:1" fill="#d9e1de" d="M 200.5,121.5 C 200.5,123.5 200.5,125.5 200.5,127.5C 200.077,129.781 200.744,131.448 202.5,132.5C 201.909,133.151 201.243,133.818 200.5,134.5C 202.584,137.173 203.917,140.173 204.5,143.5C 203.624,143.369 202.957,143.702 202.5,144.5C 203,145.5 203.5,146.5 204,147.5C 204.399,147.272 204.565,146.938 204.5,146.5C 205.222,146.918 205.722,147.584 206,148.5C 206.333,148.167 206.667,147.833 207,147.5C 207.74,148.749 207.573,149.749 206.5,150.5C 205.203,151.849 205.37,153.182 207,154.5C 207.464,153.906 207.631,153.239 207.5,152.5C 210.683,153.518 212.683,155.685 213.5,159C 217.458,160.687 221.458,160.687 225.5,159C 227.743,156.178 230.41,153.845 233.5,152C 233.306,150.57 233.306,149.07 233.5,147.5C 234.524,148.853 235.857,149.52 237.5,149.5C 238.184,145.429 239.184,141.429 240.5,137.5C 240.167,136.833 239.833,136.167 239.5,135.5C 239.846,134.304 240.346,134.304 241,135.5C 241.333,134.167 241.667,132.833 242,131.5C 242.21,133.058 242.71,134.391 243.5,135.5C 242.073,147.864 236.406,157.697 226.5,165C 215.665,167.325 208.165,163.158 204,152.5C 199.961,142.319 198.794,131.986 200.5,121.5 Z"/></g>
<g><path style="opacity:1" fill="#202521" d="M 208.5,156.5 C 210.446,157.254 211.279,158.588 211,160.5C 209.519,159.529 208.685,158.196 208.5,156.5 Z"/></g>
<g><path style="opacity:1" fill="#2d3330" d="M 206.5,150.5 C 206.328,151.492 206.662,152.158 207.5,152.5C 207.631,153.239 207.464,153.906 207,154.5C 205.37,153.182 205.203,151.849 206.5,150.5 Z"/></g>
<g><path style="opacity:1" fill="#2d3530" d="M 204.5,143.5 C 204.5,144.5 204.5,145.5 204.5,146.5C 204.565,146.938 204.399,147.272 204,147.5C 203.5,146.5 203,145.5 202.5,144.5C 202.957,143.702 203.624,143.369 204.5,143.5 Z"/></g>
<g><path style="opacity:1" fill="#565f5c" d="M 214.5,162.5 C 215.386,161.224 216.386,161.224 217.5,162.5C 216.575,163.562 215.575,163.562 214.5,162.5 Z"/></g>
<g><path style="opacity:1" fill="#454d4b" d="M 225.5,161.5 C 229.276,161.469 229.443,162.136 226,163.5C 224.316,163.317 224.15,162.65 225.5,161.5 Z"/></g>
<g><path style="opacity:1" fill="#343b39" d="M 220.5,162.5 C 222.337,162.639 222.67,163.306 221.5,164.5C 220.702,164.043 220.369,163.376 220.5,162.5 Z"/></g>
<g><path style="opacity:0.715" fill="#252927" d="M 89.5,297.5 C 89.5,298.167 89.1667,298.5 88.5,298.5C 87.6618,298.842 87.3284,299.508 87.5,300.5C 86.5489,299.081 86.2155,297.415 86.5,295.5C 88.8548,259.804 91.6881,224.138 95,188.5C 95.4998,178.839 95.6665,169.172 95.5,159.5C 96.7752,156.396 96.7752,153.396 95.5,150.5C 95.1583,149.662 94.4916,149.328 93.5,149.5C 93.5,148.833 93.8333,148.5 94.5,148.5C 95.6604,135.34 95.827,122.006 95,108.5C 93.997,103.327 92.497,98.3266 90.5,93.5C 90.5,92.8333 90.8333,92.5 91.5,92.5C 93.889,97.9549 95.7224,103.622 97,109.5C 97.9213,102.142 99.9213,95.1415 103,88.5C 101.199,96.0467 99.5328,103.713 98,111.5C 97.6667,138.167 97.3333,164.833 97,191.5C 93.7088,225.995 90.5422,260.495 87.5,295C 87.6842,296.376 88.3509,297.209 89.5,297.5 Z"/></g>
<g><path style="opacity:1" fill="#eafaf1" d="M 131.5,42.5 C 130.503,42.4701 129.836,42.9701 129.5,44C 130.33,45.4651 130.496,46.9651 130,48.5C 128.261,46.7166 126.428,45.0499 124.5,43.5C 122.403,45.1104 120.07,46.2771 117.5,47C 115.888,47.7203 114.388,47.5536 113,46.5C 110.135,48.515 106.968,49.8484 103.5,50.5C 103.587,53.5983 103.087,53.9316 102,51.5C 100.43,52.614 99.0968,53.9474 98,55.5C 97.6667,54.8333 97.3333,54.1667 97,53.5C 96.5348,54.9308 95.7014,56.0975 94.5,57C 94.9679,58.822 95.3012,60.9887 95.5,63.5C 92.5525,63.2229 89.7191,63.5562 87,64.5C 87.4024,66.8739 87.2357,69.2072 86.5,71.5C 87.2421,72.2868 88.0754,72.9535 89,73.5C 88.6651,77.1183 90.1651,79.4516 93.5,80.5C 94.1936,83.0876 95.3602,85.421 97,87.5C 98.7256,82.2502 102.226,79.5836 107.5,79.5C 107.337,81.8568 107.503,84.1902 108,86.5C 111.371,90.4165 111.037,93.7499 107,96.5C 107.188,102.056 105.688,107.056 102.5,111.5C 103.138,120.365 103.805,129.365 104.5,138.5C 104.713,143.188 104.046,147.688 102.5,152C 103.296,165.733 103.629,179.566 103.5,193.5C 102.911,196.022 102.245,198.522 101.5,201C 102.167,202 102.833,203 103.5,204C 102.94,206.653 101.94,209.32 100.5,212C 100.667,213.167 100.833,214.333 101,215.5C 101.333,214.833 101.667,214.167 102,213.5C 102.176,216.882 102.676,220.215 103.5,223.5C 105.326,223.92 107.326,223.92 109.5,223.5C 109.172,218.125 109.505,212.792 110.5,207.5C 111.499,218.146 111.832,228.813 111.5,239.5C 106.5,239.5 101.5,239.5 96.5,239.5C 96.6665,249.839 96.4998,260.172 96,270.5C 95.7305,273.224 95.2305,275.891 94.5,278.5C 95.3928,281.084 95.7261,283.751 95.5,286.5C 97.9775,286.051 99.9775,286.717 101.5,288.5C 97.7652,289.153 94.0985,289.986 90.5,291C 89.2404,292.814 89.2404,294.647 90.5,296.5C 99.4541,294.32 107.121,296.487 113.5,303C 112.906,303.464 112.239,303.631 111.5,303.5C 103.883,302.43 96.5494,300.43 89.5,297.5C 88.3509,297.209 87.6842,296.376 87.5,295C 90.5422,260.495 93.7088,225.995 97,191.5C 97.3333,164.833 97.6667,138.167 98,111.5C 99.5328,103.713 101.199,96.0467 103,88.5C 99.9213,95.1415 97.9213,102.142 97,109.5C 95.7224,103.622 93.889,97.9549 91.5,92.5C 87.5159,84.5321 83.0159,76.8654 78,69.5C 77.4795,67.7111 77.8129,66.0444 79,64.5C 84.0199,58.1403 90.1866,53.307 97.5,50C 108.57,46.1216 119.737,42.6216 131,39.5C 131.483,40.448 131.649,41.448 131.5,42.5 Z"/></g>
<g><path style="opacity:1" fill="#ecf8f0" d="M 259.5,293.5 C 248.112,299.131 236.112,303.297 223.5,306C 187.007,312.439 150.673,311.939 114.5,304.5C 120.652,303.045 126.819,303.378 133,305.5C 133.414,305.043 133.914,304.709 134.5,304.5C 134.489,305.441 134.989,306.108 136,306.5C 145.224,305.692 154.391,306.358 163.5,308.5C 178.52,306.065 193.52,304.565 208.5,304C 208.167,303.667 207.833,303.333 207.5,303C 214.5,302.667 221.5,302.333 228.5,302C 230.925,300.937 233.258,299.771 235.5,298.5C 238.415,300.242 239.749,299.575 239.5,296.5C 242.677,295.363 245.843,295.363 249,296.5C 252.847,294.564 256.18,291.897 259,288.5C 259.162,290.454 259.329,292.121 259.5,293.5 Z"/></g>
<g><path style="opacity:1" fill="#91bfa4" d="M 265.5,292.5 C 266.343,294.487 267.01,296.654 267.5,299C 259.952,303.749 251.952,307.749 243.5,311C 190.948,328.278 139.281,325.945 88.5,304C 87.6634,302.989 87.33,301.822 87.5,300.5C 87.3284,299.508 87.6618,298.842 88.5,298.5C 109.631,306.494 131.631,310.994 154.5,312C 176.644,313.307 198.644,312.141 220.5,308.5C 221.376,308.369 222.043,308.702 222.5,309.5C 220.922,310.298 219.256,310.798 217.5,311C 189.222,314.919 160.889,315.419 132.5,312.5C 130.833,312.833 129.167,313.167 127.5,313.5C 131.913,314.687 136.246,316.187 140.5,318C 174.132,322.927 207.132,320.594 239.5,311C 247.791,307.633 255.791,303.8 263.5,299.5C 264.652,297.603 264.319,295.936 262.5,294.5C 263.5,293.833 264.5,293.167 265.5,292.5 Z"/></g>
<g><path style="opacity:1" fill="#132017" d="M 265.5,291.5 C 265.5,291.833 265.5,292.167 265.5,292.5C 264.5,293.167 263.5,293.833 262.5,294.5C 248.911,300.585 234.911,305.252 220.5,308.5C 198.644,312.141 176.644,313.307 154.5,312C 131.631,310.994 109.631,306.494 88.5,298.5C 89.1667,298.5 89.5,298.167 89.5,297.5C 96.5494,300.43 103.883,302.43 111.5,303.5C 112.209,304.404 113.209,304.737 114.5,304.5C 150.673,311.939 187.007,312.439 223.5,306C 236.112,303.297 248.112,299.131 259.5,293.5C 261.5,292.833 263.5,292.167 265.5,291.5 Z"/></g>
<g><path style="opacity:1" fill="#82be9a" d="M 262.5,294.5 C 264.319,295.936 264.652,297.603 263.5,299.5C 255.791,303.8 247.791,307.633 239.5,311C 207.132,320.594 174.132,322.927 140.5,318C 136.246,316.187 131.913,314.687 127.5,313.5C 129.167,313.167 130.833,312.833 132.5,312.5C 160.889,315.419 189.222,314.919 217.5,311C 219.256,310.798 220.922,310.298 222.5,309.5C 222.043,308.702 221.376,308.369 220.5,308.5C 234.911,305.252 248.911,300.585 262.5,294.5 Z"/></g>
<g><path style="opacity:0.914" fill="#2c382f" d="M 264.5,270.5 C 266.152,279.696 267.819,289.029 269.5,298.5C 269.471,300.029 268.804,301.196 267.5,302C 231.063,320.852 192.397,327.852 151.5,323C 128.896,320.266 107.229,314.266 86.5,305C 85.1816,301.731 85.1816,298.565 86.5,295.5C 86.2155,297.415 86.5489,299.081 87.5,300.5C 87.33,301.822 87.6634,302.989 88.5,304C 139.281,325.945 190.948,328.278 243.5,311C 251.952,307.749 259.952,303.749 267.5,299C 267.01,296.654 266.343,294.487 265.5,292.5C 265.5,292.167 265.5,291.833 265.5,291.5C 265.351,286.425 264.685,281.425 263.5,276.5C 264.461,274.735 264.795,272.735 264.5,270.5 Z"/></g>
</svg>
