<?xml version="1.0" encoding="UTF-8"?>
<!DOCTYPE svg PUBLIC "-//W3C//DTD SVG 1.1//EN" "http://www.w3.org/Graphics/SVG/1.1/DTD/svg11.dtd">
<svg xmlns="http://www.w3.org/2000/svg" version="1.1" width="360px" height="360px" style="shape-rendering:geometricPrecision; text-rendering:geometricPrecision; image-rendering:optimizeQuality; fill-rule:evenodd; clip-rule:evenodd" xmlns:xlink="http://www.w3.org/1999/xlink">
<g><path style="opacity:0.29" fill="#a4a4a4" d="M 151.5,34.5 C 147.036,35.6437 142.37,36.3104 137.5,36.5C 136.5,36.5 135.5,36.5 134.5,36.5C 139.929,34.9879 145.596,34.3213 151.5,34.5 Z"/></g>
<g><path style="opacity:0.862" fill="#373737" d="M 187.5,33.5 C 195.84,33.3336 204.173,33.5003 212.5,34C 188.799,34.6674 165.132,35.8341 141.5,37.5C 139.955,37.4892 138.622,37.1558 137.5,36.5C 142.37,36.3104 147.036,35.6437 151.5,34.5C 163.516,32.829 175.516,32.4957 187.5,33.5 Z"/></g>
<g><path style="opacity:0.294" fill="#8a8a8a" d="M 239.5,36.5 C 238.209,36.7373 237.209,36.404 236.5,35.5C 236.435,35.0618 236.601,34.7284 237,34.5C 237.995,35.0659 238.828,35.7326 239.5,36.5 Z"/></g>
<g><path style="opacity:1" fill="#424242" d="M 187.5,33.5 C 192.322,32.834 197.322,32.5007 202.5,32.5C 211.047,32.389 219.38,33.0556 227.5,34.5C 223.818,34.3347 220.152,34.5014 216.5,35C 218.81,35.4966 221.143,35.6633 223.5,35.5C 223.5,36.5 223.5,37.5 223.5,38.5C 217.491,38.3338 211.491,38.5005 205.5,39C 208.036,39.1862 210.369,39.6862 212.5,40.5C 209.5,40.5 206.5,40.5 203.5,40.5C 183.833,39.1667 164.167,39.1667 144.5,40.5C 143.5,40.5 142.5,40.5 141.5,40.5C 140.066,49.6621 139.399,49.3288 139.5,39.5C 137.5,39.5 135.5,39.5 133.5,39.5C 133.323,46.1344 132.823,46.1344 132,39.5C 131.503,42.146 131.336,44.8127 131.5,47.5C 131.008,49.8185 130.008,51.8185 128.5,53.5C 128.737,52.209 128.404,51.209 127.5,50.5C 128.822,46.7452 129.822,42.9119 130.5,39C 130.167,38.6667 129.833,38.3333 129.5,38C 130.905,36.7308 132.571,36.2308 134.5,36.5C 135.5,36.5 136.5,36.5 137.5,36.5C 138.622,37.1558 139.955,37.4892 141.5,37.5C 165.132,35.8341 188.799,34.6674 212.5,34C 204.173,33.5003 195.84,33.3336 187.5,33.5 Z"/></g>
<g><path style="opacity:1" fill="#262626" d="M 227.5,34.5 C 230.609,34.2641 233.609,34.5975 236.5,35.5C 237.209,36.404 238.209,36.7373 239.5,36.5C 240.477,39.2869 240.81,42.2869 240.5,45.5C 239.127,45.6567 237.793,45.49 236.5,45C 238.291,42.8938 238.958,40.3938 238.5,37.5C 235.234,37.4326 233.734,39.0992 234,42.5C 233.768,41.2625 233.268,40.2625 232.5,39.5C 231.551,38.8476 230.385,38.5143 229,38.5C 223.432,39.0315 217.932,39.6982 212.5,40.5C 210.369,39.6862 208.036,39.1862 205.5,39C 211.491,38.5005 217.491,38.3338 223.5,38.5C 223.5,37.5 223.5,36.5 223.5,35.5C 221.143,35.6633 218.81,35.4966 216.5,35C 220.152,34.5014 223.818,34.3347 227.5,34.5 Z"/></g>
<g><path style="opacity:1" fill="#2c2c2c" d="M 144.5,40.5 C 164.167,39.1667 183.833,39.1667 203.5,40.5C 195.826,40.3336 188.159,40.5003 180.5,41C 178.901,42.7863 178.067,44.953 178,47.5C 177.505,45.5273 177.338,43.5273 177.5,41.5C 176.448,41.3505 175.448,41.5172 174.5,42C 175.867,44.3015 176.534,46.8015 176.5,49.5C 181.5,49.5 186.5,49.5 191.5,49.5C 191.263,48.209 191.596,47.209 192.5,46.5C 192.5,51.5 192.5,56.5 192.5,61.5C 192.663,63.8568 192.497,66.1902 192,68.5C 191.501,62.8431 191.334,57.1764 191.5,51.5C 189.167,51.5 186.833,51.5 184.5,51.5C 185.607,63.8003 185.773,76.1337 185,88.5C 183.521,76.327 183.021,63.9937 183.5,51.5C 181.167,51.5 178.833,51.5 176.5,51.5C 176.826,60.0168 176.493,68.3501 175.5,76.5C 175.666,66.8276 175.5,57.1609 175,47.5C 174.5,58.1615 174.333,68.8281 174.5,79.5C 173.344,70.3519 172.677,61.0185 172.5,51.5C 163.146,51.61 153.812,51.2767 144.5,50.5C 144.076,56.2237 143.243,61.8903 142,67.5C 141.051,69.0931 139.885,70.4264 138.5,71.5C 141.636,64.8343 142.303,57.8343 140.5,50.5C 149.833,49.8333 159.167,49.1667 168.5,48.5C 167.484,45.8663 167.484,43.1996 168.5,40.5C 160.5,40.5 152.5,40.5 144.5,40.5 Z"/></g>
<g><path style="opacity:0.125" fill="#b0b0b0" d="M 241.5,47.5 C 243.104,48.287 243.771,49.6203 243.5,51.5C 242.599,50.7095 241.932,49.7095 241.5,48.5C 241.5,48.1667 241.5,47.8333 241.5,47.5 Z"/></g>
<g><path style="opacity:1" fill="#454545" d="M 144.5,40.5 C 152.5,40.5 160.5,40.5 168.5,40.5C 167.484,43.1996 167.484,45.8663 168.5,48.5C 159.167,49.1667 149.833,49.8333 140.5,50.5C 142.303,57.8343 141.636,64.8343 138.5,71.5C 136.224,73.3306 134.391,75.6639 133,78.5C 132.329,79.2524 131.496,79.5858 130.5,79.5C 131.889,72.274 131.556,65.1073 129.5,58C 129.868,54.4295 131.202,51.2629 133.5,48.5C 133.043,47.7025 132.376,47.3691 131.5,47.5C 131.336,44.8127 131.503,42.146 132,39.5C 132.823,46.1344 133.323,46.1344 133.5,39.5C 135.5,39.5 137.5,39.5 139.5,39.5C 139.399,49.3288 140.066,49.6621 141.5,40.5C 142.5,40.5 143.5,40.5 144.5,40.5 Z"/></g>
<g><path style="opacity:1" fill="#292929" d="M 240.5,45.5 C 241.338,45.8417 241.672,46.5084 241.5,47.5C 241.5,47.8333 241.5,48.1667 241.5,48.5C 240.833,48.5 240.5,48.8333 240.5,49.5C 239.288,48.7701 238.288,47.7701 237.5,46.5C 237.167,47 236.833,47.5 236.5,48C 239.662,51.1653 240.995,54.9986 240.5,59.5C 238.328,65.9486 237.994,72.6153 239.5,79.5C 235.938,81.9391 232.104,81.9391 228,79.5C 227.841,75.9513 228.341,72.4513 229.5,69C 226.931,62.4184 225.597,55.585 225.5,48.5C 229.246,47.7858 230.246,48.9525 228.5,52C 229.196,58.2732 231.53,63.7732 235.5,68.5C 236.086,68.2907 236.586,67.9574 237,67.5C 238.418,62.5715 238.751,57.5715 238,52.5C 236.647,51.3147 235.48,49.9814 234.5,48.5C 233.284,49.0016 232.117,49.3349 231,49.5C 230.333,46.1667 230.333,42.8333 231,39.5C 231.826,47.4728 232.326,47.4728 232.5,39.5C 233.268,40.2625 233.768,41.2625 234,42.5C 233.734,39.0992 235.234,37.4326 238.5,37.5C 238.958,40.3938 238.291,42.8938 236.5,45C 237.793,45.49 239.127,45.6567 240.5,45.5 Z"/></g>
<g><path style="opacity:1" fill="#474747" d="M 174.5,79.5 C 174.5,79.8333 174.5,80.1667 174.5,80.5C 174.013,85.3095 174.013,90.3095 174.5,95.5C 166.136,95.4536 157.803,95.287 149.5,95C 154.918,98.8829 160.918,100.716 167.5,100.5C 168.952,101.302 170.618,101.802 172.5,102C 169.42,102.766 166.42,103.766 163.5,105C 167.486,105.499 171.486,105.666 175.5,105.5C 173.708,106.309 171.708,106.809 169.5,107C 173.152,107.499 176.818,107.665 180.5,107.5C 180.421,108.93 180.754,110.264 181.5,111.5C 171.333,113.375 161.333,115.875 151.5,119C 162.104,117.233 172.771,115.9 183.5,115C 184.535,116.507 184.368,118.007 183,119.5C 180.961,121.874 178.628,123.874 176,125.5C 175.536,126.094 175.369,126.761 175.5,127.5C 178.414,126.094 180.914,124.094 183,121.5C 182.619,127.997 182.786,134.33 183.5,140.5C 183.795,142.735 183.461,144.735 182.5,146.5C 182.66,144.801 182.494,143.134 182,141.5C 179.043,158.241 177.543,174.908 177.5,191.5C 177.364,201.354 176.698,211.021 175.5,220.5C 175.665,217.482 175.498,214.482 175,211.5C 173.321,223.633 172.821,235.633 173.5,247.5C 174.41,265.493 174.577,283.493 174,301.5C 172.476,303.898 170.976,306.231 169.5,308.5C 169.853,306.365 169.02,305.032 167,304.5C 153.722,310.477 140.889,309.81 128.5,302.5C 127.833,298.018 127.166,293.684 126.5,289.5C 127.332,280.847 127.998,272.18 128.5,263.5C 129.476,256.003 129.476,248.67 128.5,241.5C 128.5,234.167 128.5,226.833 128.5,219.5C 129.291,211.176 129.458,202.843 129,194.5C 128.003,201.467 127.503,208.467 127.5,215.5C 127.167,215.5 126.833,215.5 126.5,215.5C 125.643,222.641 124.977,234.975 124.5,252.5C 124.5,232.833 124.5,213.167 124.5,193.5C 125.832,179.521 126.832,165.521 127.5,151.5C 127.333,164.837 127.5,178.171 128,191.5C 128.916,166.507 129.416,141.507 129.5,116.5C 129.5,116.167 129.5,115.833 129.5,115.5C 130.33,105.008 130.83,94.3412 131,83.5C 134.574,80.1087 137.074,76.1087 138.5,71.5C 139.885,70.4264 141.051,69.0931 142,67.5C 143.243,61.8903 144.076,56.2237 144.5,50.5C 153.812,51.2767 163.146,51.61 172.5,51.5C 172.677,61.0185 173.344,70.3519 174.5,79.5 Z"/></g>
<g><path style="opacity:1" fill="#e2e2e2" d="M 240.5,49.5 C 242.417,53.4017 242.751,57.4017 241.5,61.5C 240.662,61.1583 240.328,60.4916 240.5,59.5C 240.995,54.9986 239.662,51.1653 236.5,48C 236.833,47.5 237.167,47 237.5,46.5C 238.288,47.7701 239.288,48.7701 240.5,49.5 Z"/></g>
<g><path style="opacity:1" fill="#bcbcbc" d="M 194.5,49.5 C 194.5,59.5 194.5,69.5 194.5,79.5C 194.66,81.1992 194.494,82.8659 194,84.5C 193.829,76.6557 193.329,68.989 192.5,61.5C 192.5,56.5 192.5,51.5 192.5,46.5C 192.56,45.9569 192.893,45.6236 193.5,45.5C 194.429,46.6888 194.762,48.0222 194.5,49.5 Z"/></g>
<g><path style="opacity:0.964" fill="#2a2a2a" d="M 127.5,50.5 C 128.404,51.209 128.737,52.209 128.5,53.5C 127.944,60.1086 127.944,66.7752 128.5,73.5C 127.175,72.0474 126.342,72.3808 126,74.5C 125.517,73.552 125.351,72.552 125.5,71.5C 125.366,69.7085 125.699,68.0418 126.5,66.5C 126.567,65.0413 126.234,63.7079 125.5,62.5C 124.24,58.199 124.907,54.199 127.5,50.5 Z"/></g>
<g><path style="opacity:1" fill="#181818" d="M 194.5,49.5 C 201.508,49.3337 208.508,49.5004 215.5,50C 208.842,50.4996 202.175,50.6663 195.5,50.5C 195.827,60.3478 195.494,70.0144 194.5,79.5C 194.5,69.5 194.5,59.5 194.5,49.5 Z"/></g>
<g><path style="opacity:0.231" fill="#c1c1c1" d="M 125.5,62.5 C 126.234,63.7079 126.567,65.0413 126.5,66.5C 124.862,65.2954 124.529,63.9621 125.5,62.5 Z"/></g>
<g><path style="opacity:1" fill="#ebebeb" d="M 131.5,47.5 C 132.376,47.3691 133.043,47.7025 133.5,48.5C 131.202,51.2629 129.868,54.4295 129.5,58C 131.556,65.1073 131.889,72.274 130.5,79.5C 129.85,81.4352 129.517,83.4352 129.5,85.5C 128.833,94.1667 128.167,102.833 127.5,111.5C 127.5,110.5 127.5,109.5 127.5,108.5C 127.721,100.308 127.388,92.1409 126.5,84C 127.276,80.5105 127.942,77.0105 128.5,73.5C 127.944,66.7752 127.944,60.1086 128.5,53.5C 130.008,51.8185 131.008,49.8185 131.5,47.5 Z"/></g>
<g><path style="opacity:1" fill="#dfdfdf" d="M 175.5,76.5 C 176.551,79.6558 176.551,82.6558 175.5,85.5C 174.549,84.0813 174.216,82.4147 174.5,80.5C 174.5,80.1667 174.5,79.8333 174.5,79.5C 174.333,68.8281 174.5,58.1615 175,47.5C 175.5,57.1609 175.666,66.8276 175.5,76.5 Z"/></g>
<g><path style="opacity:0.999" fill="#474747" d="M 232.5,39.5 C 232.326,47.4728 231.826,47.4728 231,39.5C 230.333,42.8333 230.333,46.1667 231,49.5C 232.117,49.3349 233.284,49.0016 234.5,48.5C 235.48,49.9814 236.647,51.3147 238,52.5C 238.751,57.5715 238.418,62.5715 237,67.5C 236.586,67.9574 236.086,68.2907 235.5,68.5C 231.53,63.7732 229.196,58.2732 228.5,52C 230.246,48.9525 229.246,47.7858 225.5,48.5C 225.597,55.585 226.931,62.4184 229.5,69C 228.341,72.4513 227.841,75.9513 228,79.5C 232.104,81.9391 235.938,81.9391 239.5,79.5C 240.167,82.1667 240.833,84.8333 241.5,87.5C 241.389,100.84 241.055,114.173 240.5,127.5C 240.249,164.005 240.082,200.672 240,237.5C 238.159,243.367 236.826,249.367 236,255.5C 232.266,267.472 228.099,279.305 223.5,291C 223.833,291.833 224.167,292.667 224.5,293.5C 225.5,292.833 226.5,292.167 227.5,291.5C 232.648,285.201 237.148,278.535 241,271.5C 241.333,272.833 241.667,274.167 242,275.5C 242.464,274.906 242.631,274.239 242.5,273.5C 243.398,279.666 244.064,286 244.5,292.5C 245.497,295.328 245.497,297.995 244.5,300.5C 241.395,303.709 237.395,306.875 232.5,310C 224.198,311.29 215.865,311.623 207.5,311C 206.975,310.308 206.308,309.808 205.5,309.5C 205.624,310.61 205.291,311.944 204.5,313.5C 201.665,309.836 199.332,305.836 197.5,301.5C 198.224,299.782 198.891,297.948 199.5,296C 198.674,278.24 198.174,260.407 198,242.5C 197.831,255.007 197.331,267.34 196.5,279.5C 196.667,265.829 196.5,252.163 196,238.5C 194.779,225.52 193.946,212.52 193.5,199.5C 194.393,190.276 193.893,180.943 192,171.5C 191.505,173.473 191.338,175.473 191.5,177.5C 190.532,175.393 190.198,173.059 190.5,170.5C 191.275,162.942 190.775,155.275 189,147.5C 188.51,148.793 188.343,150.127 188.5,151.5C 187.437,147.361 186.77,143.028 186.5,138.5C 186.22,130.994 186.22,123.327 186.5,115.5C 191.924,117.044 197.257,118.877 202.5,121C 208.391,122.913 214.391,123.913 220.5,124C 208.151,118.827 195.484,114.327 182.5,110.5C 181.754,109.264 181.421,107.93 181.5,106.5C 191.275,106.237 200.941,105.07 210.5,103C 198.733,102.644 187.067,103.477 175.5,105.5C 171.486,105.666 167.486,105.499 163.5,105C 166.42,103.766 169.42,102.766 172.5,102C 170.618,101.802 168.952,101.302 167.5,100.5C 175.554,100.205 183.554,99.3715 191.5,98C 194.883,97.1245 198.216,96.1245 201.5,95C 193.197,95.287 184.864,95.4536 176.5,95.5C 176.747,92.0613 176.414,88.728 175.5,85.5C 176.551,82.6558 176.551,79.6558 175.5,76.5C 176.493,68.3501 176.826,60.0168 176.5,51.5C 178.833,51.5 181.167,51.5 183.5,51.5C 183.021,63.9937 183.521,76.327 185,88.5C 185.773,76.1337 185.607,63.8003 184.5,51.5C 186.833,51.5 189.167,51.5 191.5,51.5C 191.334,57.1764 191.501,62.8431 192,68.5C 192.497,66.1902 192.663,63.8568 192.5,61.5C 193.329,68.989 193.829,76.6557 194,84.5C 194.494,82.8659 194.66,81.1992 194.5,79.5C 195.494,70.0144 195.827,60.3478 195.5,50.5C 202.175,50.6663 208.842,50.4996 215.5,50C 208.508,49.5004 201.508,49.3337 194.5,49.5C 194.762,48.0222 194.429,46.6888 193.5,45.5C 192.893,45.6236 192.56,45.9569 192.5,46.5C 191.596,47.209 191.263,48.209 191.5,49.5C 186.5,49.5 181.5,49.5 176.5,49.5C 176.534,46.8015 175.867,44.3015 174.5,42C 175.448,41.5172 176.448,41.3505 177.5,41.5C 177.338,43.5273 177.505,45.5273 178,47.5C 178.067,44.953 178.901,42.7863 180.5,41C 188.159,40.5003 195.826,40.3336 203.5,40.5C 206.5,40.5 209.5,40.5 212.5,40.5C 217.932,39.6982 223.432,39.0315 229,38.5C 230.385,38.5143 231.551,38.8476 232.5,39.5 Z"/></g>
<g><path style="opacity:0.561" fill="#a2a2a2" d="M 244.5,68.5 C 245.612,70.5994 246.279,72.9327 246.5,75.5C 244.837,73.5615 244.171,71.2282 244.5,68.5 Z"/></g>
<g><path style="opacity:1" fill="#373737" d="M 241.5,48.5 C 241.932,49.7095 242.599,50.7095 243.5,51.5C 244.837,53.3495 245.503,55.5161 245.5,58C 244.837,61.4726 244.504,64.9726 244.5,68.5C 244.171,71.2282 244.837,73.5615 246.5,75.5C 246.5,75.8333 246.5,76.1667 246.5,76.5C 246.175,84.3516 246.508,92.0182 247.5,99.5C 248.943,127.548 248.61,155.548 246.5,183.5C 246.538,148.336 246.038,113.003 245,77.5C 244.722,78.4158 244.222,79.0825 243.5,79.5C 242.71,78.3915 242.21,77.0581 242,75.5C 241.501,70.8452 241.334,66.1785 241.5,61.5C 242.751,57.4017 242.417,53.4017 240.5,49.5C 240.5,48.8333 240.833,48.5 241.5,48.5 Z"/></g>
<g><path style="opacity:1" fill="#222222" d="M 138.5,71.5 C 137.074,76.1087 134.574,80.1087 131,83.5C 130.83,94.3412 130.33,105.008 129.5,115.5C 129.5,105.5 129.5,95.5 129.5,85.5C 129.517,83.4352 129.85,81.4352 130.5,79.5C 131.496,79.5858 132.329,79.2524 133,78.5C 134.391,75.6639 136.224,73.3306 138.5,71.5 Z"/></g>
<g><path style="opacity:1" fill="#979797" d="M 240.5,59.5 C 240.328,60.4916 240.662,61.1583 241.5,61.5C 241.334,66.1785 241.501,70.8452 242,75.5C 242.21,77.0581 242.71,78.3915 243.5,79.5C 243.827,88.6822 243.493,97.6822 242.5,106.5C 242.866,98.1061 242.533,91.7728 241.5,87.5C 240.833,84.8333 240.167,82.1667 239.5,79.5C 237.994,72.6153 238.328,65.9486 240.5,59.5 Z"/></g>
<g><path style="opacity:0.263" fill="#909090" d="M 246.5,76.5 C 247.182,83.9013 247.848,91.4013 248.5,99C 248.272,99.3988 247.938,99.5654 247.5,99.5C 246.508,92.0182 246.175,84.3516 246.5,76.5 Z"/></g>
<g><path style="opacity:1" fill="#292929" d="M 174.5,80.5 C 174.216,82.4147 174.549,84.0813 175.5,85.5C 176.414,88.728 176.747,92.0613 176.5,95.5C 184.864,95.4536 193.197,95.287 201.5,95C 198.216,96.1245 194.883,97.1245 191.5,98C 183.554,99.3715 175.554,100.205 167.5,100.5C 160.918,100.716 154.918,98.8829 149.5,95C 157.803,95.287 166.136,95.4536 174.5,95.5C 174.013,90.3095 174.013,85.3095 174.5,80.5 Z"/></g>
<g><path style="opacity:1" fill="#2c2c2c" d="M 186.5,138.5 C 185.683,136.031 185.183,133.365 185,130.5C 184.752,133.919 184.252,137.253 183.5,140.5C 182.786,134.33 182.619,127.997 183,121.5C 180.914,124.094 178.414,126.094 175.5,127.5C 175.369,126.761 175.536,126.094 176,125.5C 178.628,123.874 180.961,121.874 183,119.5C 184.368,118.007 184.535,116.507 183.5,115C 172.771,115.9 162.104,117.233 151.5,119C 161.333,115.875 171.333,113.375 181.5,111.5C 180.754,110.264 180.421,108.93 180.5,107.5C 176.818,107.665 173.152,107.499 169.5,107C 171.708,106.809 173.708,106.309 175.5,105.5C 187.067,103.477 198.733,102.644 210.5,103C 200.941,105.07 191.275,106.237 181.5,106.5C 181.421,107.93 181.754,109.264 182.5,110.5C 195.484,114.327 208.151,118.827 220.5,124C 214.391,123.913 208.391,122.913 202.5,121C 197.257,118.877 191.924,117.044 186.5,115.5C 186.22,123.327 186.22,130.994 186.5,138.5 Z"/></g>
<g><path style="opacity:0.994" fill="#373737" d="M 246.5,183.5 C 246.83,201.341 246.497,219.008 245.5,236.5C 245.667,220.163 245.5,203.83 245,187.5C 244.667,192.167 244.333,196.833 244,201.5C 243.821,197.975 243.321,194.641 242.5,191.5C 243.708,175.343 243.708,159.343 242.5,143.5C 242.5,131.167 242.5,118.833 242.5,106.5C 243.493,97.6822 243.827,88.6822 243.5,79.5C 244.222,79.0825 244.722,78.4158 245,77.5C 246.038,113.003 246.538,148.336 246.5,183.5 Z"/></g>
<g><path style="opacity:1" fill="#4f4f4f" d="M 125.5,71.5 C 125.351,72.552 125.517,73.552 126,74.5C 126.342,72.3808 127.175,72.0474 128.5,73.5C 127.942,77.0105 127.276,80.5105 126.5,84C 127.388,92.1409 127.721,100.308 127.5,108.5C 126.766,127.179 125.766,145.846 124.5,164.5C 124.667,135.831 124.5,107.165 124,78.5C 123.83,88.342 123.33,98.0087 122.5,107.5C 122.334,97.4944 122.5,87.4944 123,77.5C 123.24,75.1484 124.073,73.1484 125.5,71.5 Z"/></g>
<g><path style="opacity:0.83" fill="#1b1b1b" d="M 124.5,164.5 C 124.818,169.032 124.485,173.366 123.5,177.5C 122.53,154.199 122.197,130.866 122.5,107.5C 123.33,98.0087 123.83,88.342 124,78.5C 124.5,107.165 124.667,135.831 124.5,164.5 Z"/></g>
<g><path style="opacity:1" fill="#a4a4a4" d="M 129.5,85.5 C 129.5,95.5 129.5,105.5 129.5,115.5C 129.5,115.833 129.5,116.167 129.5,116.5C 128.833,122.833 128.167,129.167 127.5,135.5C 127.5,127.5 127.5,119.5 127.5,111.5C 128.167,102.833 128.833,94.1667 129.5,85.5 Z"/></g>
<g><path style="opacity:1" fill="#ededed" d="M 242.5,106.5 C 242.5,118.833 242.5,131.167 242.5,143.5C 242.826,151.684 242.492,159.684 241.5,167.5C 241.288,154.163 240.954,140.83 240.5,127.5C 241.055,114.173 241.389,100.84 241.5,87.5C 242.533,91.7728 242.866,98.1061 242.5,106.5 Z"/></g>
<g><path style="opacity:1" fill="#292929" d="M 175.5,127.5 C 168.738,135.765 161.405,143.599 153.5,151C 152.833,151.667 152.167,151.667 151.5,151C 158.142,141.522 166.142,133.689 175.5,127.5 Z"/></g>
<g><path style="opacity:1" fill="#252525" d="M 188.5,122.5 C 196.483,134.695 204.816,146.862 213.5,159C 212.004,159.507 210.837,159.007 210,157.5C 201.288,146.736 194.122,135.069 188.5,122.5 Z"/></g>
<g><path style="opacity:1" fill="#f3f3f3" d="M 129.5,116.5 C 129.416,141.507 128.916,166.507 128,191.5C 127.5,178.171 127.333,164.837 127.5,151.5C 127.5,146.167 127.5,140.833 127.5,135.5C 128.167,129.167 128.833,122.833 129.5,116.5 Z"/></g>
<g><path style="opacity:0.269" fill="#333333" d="M 190.5,170.5 C 189.253,164.37 188.586,158.037 188.5,151.5C 188.343,150.127 188.51,148.793 189,147.5C 190.775,155.275 191.275,162.942 190.5,170.5 Z"/></g>
<g><path style="opacity:0.292" fill="#2b2b2b" d="M 182.5,146.5 C 181.151,161.677 179.484,176.677 177.5,191.5C 177.543,174.908 179.043,158.241 182,141.5C 182.494,143.134 182.66,144.801 182.5,146.5 Z"/></g>
<g><path style="opacity:0.977" fill="#313131" d="M 127.5,108.5 C 127.5,109.5 127.5,110.5 127.5,111.5C 127.5,119.5 127.5,127.5 127.5,135.5C 127.5,140.833 127.5,146.167 127.5,151.5C 126.832,165.521 125.832,179.521 124.5,193.5C 123.6,188.228 123.267,182.895 123.5,177.5C 124.485,173.366 124.818,169.032 124.5,164.5C 125.766,145.846 126.766,127.179 127.5,108.5 Z"/></g>
<g><path style="opacity:0.442" fill="#3c3c3c" d="M 193.5,199.5 C 192.384,192.354 191.717,185.02 191.5,177.5C 191.338,175.473 191.505,173.473 192,171.5C 193.893,180.943 194.393,190.276 193.5,199.5 Z"/></g>
<g><path style="opacity:1" fill="#dcdcdc" d="M 128.5,219.5 C 127.566,218.432 127.232,217.099 127.5,215.5C 127.503,208.467 128.003,201.467 129,194.5C 129.458,202.843 129.291,211.176 128.5,219.5 Z"/></g>
<g><path style="opacity:1" fill="#9f9f9f" d="M 126.5,215.5 C 126.833,215.5 127.167,215.5 127.5,215.5C 127.232,217.099 127.566,218.432 128.5,219.5C 128.5,226.833 128.5,234.167 128.5,241.5C 128.737,242.791 128.404,243.791 127.5,244.5C 127.291,234.828 126.958,225.161 126.5,215.5 Z"/></g>
<g><path style="opacity:1" fill="#818181" d="M 242.5,143.5 C 243.708,159.343 243.708,175.343 242.5,191.5C 243.345,214.537 243.678,237.537 243.5,260.5C 242.566,261.568 242.232,262.901 242.5,264.5C 241.367,251.498 241.367,238.331 242.5,225C 240.715,205.878 240.382,186.711 241.5,167.5C 242.492,159.684 242.826,151.684 242.5,143.5 Z"/></g>
<g><path style="opacity:0.497" fill="#363636" d="M 175.5,220.5 C 175.355,229.688 174.689,238.688 173.5,247.5C 172.821,235.633 173.321,223.633 175,211.5C 175.498,214.482 175.665,217.482 175.5,220.5 Z"/></g>
<g><path style="opacity:1" fill="#747474" d="M 128.5,241.5 C 129.476,248.67 129.476,256.003 128.5,263.5C 128.167,263.5 127.833,263.5 127.5,263.5C 127.5,257.167 127.5,250.833 127.5,244.5C 128.404,243.791 128.737,242.791 128.5,241.5 Z"/></g>
<g><path style="opacity:0.939" fill="#282828" d="M 126.5,215.5 C 126.958,225.161 127.291,234.828 127.5,244.5C 127.5,250.833 127.5,257.167 127.5,263.5C 125.839,275.758 124.839,288.091 124.5,300.5C 124.421,301.93 124.754,303.264 125.5,304.5C 125.03,305.463 124.363,305.463 123.5,304.5C 122.335,302.165 121.668,299.665 121.5,297C 122.423,281.979 123.423,267.145 124.5,252.5C 124.977,234.975 125.643,222.641 126.5,215.5 Z"/></g>
<g><path style="opacity:1" fill="#2a2a2a" d="M 240.5,127.5 C 240.954,140.83 241.288,154.163 241.5,167.5C 240.382,186.711 240.715,205.878 242.5,225C 241.367,238.331 241.367,251.498 242.5,264.5C 242.5,267.5 242.5,270.5 242.5,273.5C 242.631,274.239 242.464,274.906 242,275.5C 241.667,274.167 241.333,272.833 241,271.5C 237.148,278.535 232.648,285.201 227.5,291.5C 226.5,292.167 225.5,292.833 224.5,293.5C 224.167,292.667 223.833,291.833 223.5,291C 228.099,279.305 232.266,267.472 236,255.5C 236.826,249.367 238.159,243.367 240,237.5C 240.082,200.672 240.249,164.005 240.5,127.5 Z"/></g>
<g><path style="opacity:1" fill="#dbdbdb" d="M 243.5,260.5 C 244.579,270.136 245.246,279.802 245.5,289.5C 245.737,290.791 245.404,291.791 244.5,292.5C 244.064,286 243.398,279.666 242.5,273.5C 242.5,270.5 242.5,267.5 242.5,264.5C 242.232,262.901 242.566,261.568 243.5,260.5 Z"/></g>
<g><path style="opacity:1" fill="#e1e1e1" d="M 127.5,263.5 C 127.833,263.5 128.167,263.5 128.5,263.5C 127.998,272.18 127.332,280.847 126.5,289.5C 126.5,290.833 126.5,292.167 126.5,293.5C 125.833,295.833 125.167,298.167 124.5,300.5C 124.839,288.091 125.839,275.758 127.5,263.5 Z"/></g>
<g><path style="opacity:0.79" fill="#232323" d="M 197.5,301.5 C 196.508,294.352 196.175,287.019 196.5,279.5C 197.331,267.34 197.831,255.007 198,242.5C 198.174,260.407 198.674,278.24 199.5,296C 198.891,297.948 198.224,299.782 197.5,301.5 Z"/></g>
<g><path style="opacity:0.663" fill="#2e2e2e" d="M 245.5,236.5 C 246.303,255.595 247.636,274.928 249.5,294.5C 249.602,298.117 248.935,301.45 247.5,304.5C 246.637,305.463 245.97,305.463 245.5,304.5C 246.804,299.37 246.804,294.37 245.5,289.5C 245.246,279.802 244.579,270.136 243.5,260.5C 243.678,237.537 243.345,214.537 242.5,191.5C 243.321,194.641 243.821,197.975 244,201.5C 244.333,196.833 244.667,192.167 245,187.5C 245.5,203.83 245.667,220.163 245.5,236.5 Z"/></g>
<g><path style="opacity:0.835" fill="#747474" d="M 126.5,293.5 C 126.335,297.182 126.501,300.848 127,304.5C 128.454,307.071 129.62,309.738 130.5,312.5C 128.864,311.251 127.697,309.584 127,307.5C 126.536,308.094 126.369,308.761 126.5,309.5C 125.11,308.101 124.11,306.434 123.5,304.5C 124.363,305.463 125.03,305.463 125.5,304.5C 124.754,303.264 124.421,301.93 124.5,300.5C 125.167,298.167 125.833,295.833 126.5,293.5 Z"/></g>
<g><path style="opacity:0.714" fill="#848484" d="M 245.5,289.5 C 246.804,294.37 246.804,299.37 245.5,304.5C 245.97,305.463 246.637,305.463 247.5,304.5C 246.89,306.434 245.89,308.101 244.5,309.5C 243.459,306.542 243.459,303.542 244.5,300.5C 245.497,297.995 245.497,295.328 244.5,292.5C 245.404,291.791 245.737,290.791 245.5,289.5 Z"/></g>
<g><path style="opacity:1" fill="#2a2a2a" d="M 126.5,289.5 C 127.166,293.684 127.833,298.018 128.5,302.5C 140.889,309.81 153.722,310.477 167,304.5C 169.02,305.032 169.853,306.365 169.5,308.5C 166.941,314.141 165.774,320.141 166,326.5C 165.583,327.756 164.75,328.423 163.5,328.5C 161.15,327.89 161.483,327.556 164.5,327.5C 164.5,323.833 164.5,320.167 164.5,316.5C 154.266,314.901 143.932,314.068 133.5,314C 132.263,313.768 131.263,313.268 130.5,312.5C 129.62,309.738 128.454,307.071 127,304.5C 126.501,300.848 126.335,297.182 126.5,293.5C 126.5,292.167 126.5,290.833 126.5,289.5 Z"/></g>
<g><path style="opacity:0.997" fill="#494949" d="M 130.5,312.5 C 131.263,313.268 132.263,313.768 133.5,314C 143.932,314.068 154.266,314.901 164.5,316.5C 164.5,320.167 164.5,323.833 164.5,327.5C 161.483,327.556 161.15,327.89 163.5,328.5C 158.767,330.046 153.767,330.713 148.5,330.5C 142.313,330.782 136.313,329.949 130.5,328C 129.667,327.167 128.833,326.333 128,325.5C 127.785,320.085 127.285,314.752 126.5,309.5C 126.369,308.761 126.536,308.094 127,307.5C 127.697,309.584 128.864,311.251 130.5,312.5 Z"/></g>
<g><path style="opacity:0.994" fill="#474747" d="M 210.5,329.5 C 206.808,329.676 204.808,328.009 204.5,324.5C 206.328,321.022 206.995,317.356 206.5,313.5C 214.778,314.47 223.111,314.803 231.5,314.5C 231.983,319.098 231.983,323.598 231.5,328C 224.321,328.171 217.321,328.671 210.5,329.5 Z"/></g>
<g><path style="opacity:1" fill="#313131" d="M 244.5,300.5 C 243.459,303.542 243.459,306.542 244.5,309.5C 243.715,314.752 243.215,320.085 243,325.5C 240.293,327.936 237.127,329.436 233.5,330C 225.785,330.767 218.118,330.6 210.5,329.5C 217.321,328.671 224.321,328.171 231.5,328C 231.983,323.598 231.983,319.098 231.5,314.5C 223.111,314.803 214.778,314.47 206.5,313.5C 206.995,317.356 206.328,321.022 204.5,324.5C 204.5,320.833 204.5,317.167 204.5,313.5C 205.291,311.944 205.624,310.61 205.5,309.5C 206.308,309.808 206.975,310.308 207.5,311C 215.865,311.623 224.198,311.29 232.5,310C 237.395,306.875 241.395,303.709 244.5,300.5 Z"/></g>
</svg>
