<?xml version="1.0" encoding="UTF-8"?>
<!DOCTYPE svg PUBLIC "-//W3C//DTD SVG 1.1//EN" "http://www.w3.org/Graphics/SVG/1.1/DTD/svg11.dtd">
<svg xmlns="http://www.w3.org/2000/svg" version="1.1" width="360px" height="360px" style="shape-rendering:geometricPrecision; text-rendering:geometricPrecision; image-rendering:optimizeQuality; fill-rule:evenodd; clip-rule:evenodd" xmlns:xlink="http://www.w3.org/1999/xlink">
<g><path style="opacity:0.09" fill="#f4e7ab" d="M 167.5,13.5 C 167.5,13.1667 167.5,12.8333 167.5,12.5C 175.937,14.1927 184.27,16.3594 192.5,19C 193.252,19.6708 193.586,20.5041 193.5,21.5C 185.18,17.9167 176.514,15.25 167.5,13.5 Z"/></g>
<g><path style="opacity:0.898" fill="#af9422" d="M 167.5,13.5 C 176.514,15.25 185.18,17.9167 193.5,21.5C 193.5,22.1667 193.5,22.8333 193.5,23.5C 184.221,19.8363 174.554,17.1696 164.5,15.5C 156.91,17.6362 149.576,20.3028 142.5,23.5C 148.208,19.3437 154.541,16.177 161.5,14C 163.473,13.5045 165.473,13.3379 167.5,13.5 Z"/></g>
<g><path style="opacity:0.557" fill="#d4bc78" d="M 167.5,12.5 C 167.5,12.8333 167.5,13.1667 167.5,13.5C 165.473,13.3379 163.473,13.5045 161.5,14C 154.541,16.177 148.208,19.3437 142.5,23.5C 141.833,23.5 141.167,23.5 140.5,23.5C 140.953,22.5416 141.619,21.7083 142.5,21C 149.943,17.278 157.61,14.1113 165.5,11.5C 166.416,11.5427 167.083,11.8761 167.5,12.5 Z"/></g>
<g><path style="opacity:0.165" fill="#dcc67f" d="M 193.5,21.5 C 194.906,21.9731 195.573,22.9731 195.5,24.5C 194.833,24.1667 194.167,23.8333 193.5,23.5C 193.5,22.8333 193.5,22.1667 193.5,21.5 Z"/></g>
<g><path style="opacity:0.133" fill="#ddc482" d="M 140.5,23.5 C 140.573,25.0269 139.906,26.0269 138.5,26.5C 138.427,24.9731 139.094,23.9731 140.5,23.5 Z"/></g>
<g><path style="opacity:1" fill="#fce656" d="M 193.5,23.5 C 197.674,32.0091 202.674,40.0091 208.5,47.5C 208.5,47.8333 208.5,48.1667 208.5,48.5C 208.083,49.1239 207.416,49.4573 206.5,49.5C 193.227,46.1815 179.894,43.1815 166.5,40.5C 153.037,43.602 139.871,47.602 127,52.5C 126.536,51.9056 126.369,51.2389 126.5,50.5C 129.525,47.4434 131.525,43.7768 132.5,39.5C 136.32,34.5393 139.653,29.2059 142.5,23.5C 149.576,20.3028 156.91,17.6362 164.5,15.5C 174.554,17.1696 184.221,19.8363 193.5,23.5 Z"/></g>
<g><path style="opacity:0.91" fill="#aa9122" d="M 193.5,23.5 C 194.167,23.8333 194.833,24.1667 195.5,24.5C 195.427,26.0269 196.094,27.0269 197.5,27.5C 197.427,29.0269 198.094,30.0269 199.5,30.5C 199.427,32.0269 200.094,33.0269 201.5,33.5C 201.427,35.0269 202.094,36.0269 203.5,36.5C 203.427,38.0269 204.094,39.0269 205.5,39.5C 205.427,41.0269 206.094,42.0269 207.5,42.5C 207.427,44.0269 208.094,45.0269 209.5,45.5C 209.5,46.1667 209.5,46.8333 209.5,47.5C 209.167,47.5 208.833,47.5 208.5,47.5C 202.674,40.0091 197.674,32.0091 193.5,23.5 Z"/></g>
<g><path style="opacity:0.141" fill="#e3cd89" d="M 195.5,24.5 C 196.906,24.9731 197.573,25.9731 197.5,27.5C 196.094,27.0269 195.427,26.0269 195.5,24.5 Z"/></g>
<g><path style="opacity:0.141" fill="#ead28e" d="M 138.5,26.5 C 138.573,28.0269 137.906,29.0269 136.5,29.5C 136.427,27.9731 137.094,26.9731 138.5,26.5 Z"/></g>
<g><path style="opacity:0.129" fill="#e0ce83" d="M 197.5,27.5 C 198.906,27.9731 199.573,28.9731 199.5,30.5C 198.094,30.0269 197.427,29.0269 197.5,27.5 Z"/></g>
<g><path style="opacity:0.792" fill="#af9221" d="M 140.5,23.5 C 141.167,23.5 141.833,23.5 142.5,23.5C 139.653,29.2059 136.32,34.5393 132.5,39.5C 132.629,37.7839 132.962,36.1172 133.5,34.5C 135.408,33.5144 136.408,31.8477 136.5,29.5C 137.906,29.0269 138.573,28.0269 138.5,26.5C 139.906,26.0269 140.573,25.0269 140.5,23.5 Z"/></g>
<g><path style="opacity:0.161" fill="#e4d07f" d="M 199.5,30.5 C 200.906,30.9731 201.573,31.9731 201.5,33.5C 200.094,33.0269 199.427,32.0269 199.5,30.5 Z"/></g>
<g><path style="opacity:0.616" fill="#d0bf6e" d="M 136.5,29.5 C 136.408,31.8477 135.408,33.5144 133.5,34.5C 133.75,32.326 134.75,30.6594 136.5,29.5 Z"/></g>
<g><path style="opacity:0.149" fill="#e2d38a" d="M 201.5,33.5 C 202.906,33.9731 203.573,34.9731 203.5,36.5C 202.094,36.0269 201.427,35.0269 201.5,33.5 Z"/></g>
<g><path style="opacity:0.714" fill="#dbb872" d="M 133.5,34.5 C 132.962,36.1172 132.629,37.7839 132.5,39.5C 131.833,39.5 131.167,39.5 130.5,39.5C 130.75,37.326 131.75,35.6594 133.5,34.5 Z"/></g>
<g><path style="opacity:0.137" fill="#e6d487" d="M 203.5,36.5 C 204.906,36.9731 205.573,37.9731 205.5,39.5C 204.094,39.0269 203.427,38.0269 203.5,36.5 Z"/></g>
<g><path style="opacity:0.129" fill="#e9d191" d="M 205.5,39.5 C 206.906,39.9731 207.573,40.9731 207.5,42.5C 206.094,42.0269 205.427,41.0269 205.5,39.5 Z"/></g>
<g><path style="opacity:0.682" fill="#d1b86e" d="M 130.5,39.5 C 130.408,41.8477 129.408,43.5144 127.5,44.5C 127.75,42.326 128.75,40.6594 130.5,39.5 Z"/></g>
<g><path style="opacity:0.169" fill="#e2d48b" d="M 207.5,42.5 C 208.906,42.9731 209.573,43.9731 209.5,45.5C 208.094,45.0269 207.427,44.0269 207.5,42.5 Z"/></g>
<g><path style="opacity:1" fill="#c8990b" d="M 208.5,48.5 C 209.993,49.3121 210.66,50.6455 210.5,52.5C 209.253,55.4182 207.253,57.7515 204.5,59.5C 204.103,58.475 203.437,58.3083 202.5,59C 199.853,61.6566 196.853,63.8232 193.5,65.5C 192.214,67.9305 192.881,69.5972 195.5,70.5C 195.5,71.8333 195.5,73.1667 195.5,74.5C 194.833,74.5 194.167,74.5 193.5,74.5C 192.833,74.1667 192.167,73.8333 191.5,73.5C 191.328,68.8227 189.328,65.1561 185.5,62.5C 183.29,68.9474 179.624,74.2807 174.5,78.5C 172.57,78.7706 171.236,79.7706 170.5,81.5C 170.5,79.5 169.5,78.5 167.5,78.5C 165.95,77.5592 164.284,76.8925 162.5,76.5C 157.861,73.8609 154.194,70.1942 151.5,65.5C 151.369,64.7611 151.536,64.0944 152,63.5C 156.215,71.0667 162.549,75.4 171,76.5C 178.085,74.5749 181.585,69.9082 181.5,62.5C 169.988,62.1719 158.654,62.5052 147.5,63.5C 147.5,64.1667 147.167,64.5 146.5,64.5C 146.167,63.5 145.5,62.8333 144.5,62.5C 140.178,60.3681 135.844,59.3681 131.5,59.5C 129.608,58.2983 127.774,56.965 126,55.5C 125.22,53.6131 125.387,51.9464 126.5,50.5C 126.369,51.2389 126.536,51.9056 127,52.5C 139.871,47.602 153.037,43.602 166.5,40.5C 179.894,43.1815 193.227,46.1815 206.5,49.5C 207.416,49.4573 208.083,49.1239 208.5,48.5 Z"/></g>
<g><path style="opacity:0.353" fill="#d2bc7c" d="M 127.5,44.5 C 127.727,46.9328 126.727,48.5994 124.5,49.5C 125.11,47.5659 126.11,45.8993 127.5,44.5 Z"/></g>
<g><path style="opacity:1" fill="#f1aa19" d="M 178.5,45.5 C 188.668,47.2772 198.668,49.7772 208.5,53C 203.764,57.249 198.431,60.4157 192.5,62.5C 191.653,60.1556 189.986,58.6556 187.5,58C 182.97,57.0526 178.636,57.5526 174.5,59.5C 167.972,58.8291 161.472,57.8291 155,56.5C 150.265,57.5521 145.598,57.5521 141,56.5C 140.405,55.1011 140.572,53.7678 141.5,52.5C 144.045,50.5152 146.712,49.8485 149.5,50.5C 151.147,49.7224 152.48,48.5557 153.5,47C 157.861,46.2674 162.194,45.4341 166.5,44.5C 170.476,45.1638 174.476,45.4971 178.5,45.5 Z"/></g>
<g><path style="opacity:0.992" fill="#b39521" d="M 130.5,39.5 C 131.167,39.5 131.833,39.5 132.5,39.5C 131.525,43.7768 129.525,47.4434 126.5,50.5C 125.387,51.9464 125.22,53.6131 126,55.5C 127.774,56.965 129.608,58.2983 131.5,59.5C 134.729,61.9416 137.729,64.6082 140.5,67.5C 140.5,68.1667 140.167,68.5 139.5,68.5C 137.098,66.0908 134.431,64.0908 131.5,62.5C 130.415,60.4131 128.749,59.0798 126.5,58.5C 123.472,56.053 122.805,53.053 124.5,49.5C 126.727,48.5994 127.727,46.9328 127.5,44.5C 129.408,43.5144 130.408,41.8477 130.5,39.5 Z"/></g>
<g><path style="opacity:0.443" fill="#d3be79" d="M 209.5,45.5 C 213.694,48.2572 214.36,51.5905 211.5,55.5C 211.663,53.1432 211.497,50.8098 211,48.5C 210.617,47.944 210.117,47.6107 209.5,47.5C 209.5,46.8333 209.5,46.1667 209.5,45.5 Z"/></g>
<g><path style="opacity:1" fill="#eaac1b" d="M 178.5,45.5 C 174.476,45.4971 170.476,45.1638 166.5,44.5C 162.194,45.4341 157.861,46.2674 153.5,47C 152.48,48.5557 151.147,49.7224 149.5,50.5C 146.712,49.8485 144.045,50.5152 141.5,52.5C 140.572,53.7678 140.405,55.1011 141,56.5C 145.598,57.5521 150.265,57.5521 155,56.5C 161.472,57.8291 167.972,58.8291 174.5,59.5C 178.636,57.5526 182.97,57.0526 187.5,58C 189.986,58.6556 191.653,60.1556 192.5,62.5C 190.206,63.2121 188.206,62.3787 186.5,60C 185.167,59.8333 183.833,59.6667 182.5,59.5C 169.516,60.59 156.516,60.7566 143.5,60C 138.701,58.4687 134.035,56.6353 129.5,54.5C 141.63,49.6692 154.13,45.6692 167,42.5C 171.017,43.2946 174.851,44.2946 178.5,45.5 Z"/></g>
<g><path style="opacity:0.024" fill="#ecdb9e" d="M 124.5,49.5 C 122.805,53.053 123.472,56.053 126.5,58.5C 122.746,57.1724 121.579,54.5058 123,50.5C 123.383,49.944 123.883,49.6107 124.5,49.5 Z"/></g>
<g><path style="opacity:0.243" fill="#e5d089" d="M 126.5,58.5 C 128.749,59.0798 130.415,60.4131 131.5,62.5C 129.251,61.9202 127.585,60.5869 126.5,58.5 Z"/></g>
<g><path style="opacity:1" fill="#edab1a" d="M 147.5,63.5 C 158.654,62.5052 169.988,62.1719 181.5,62.5C 181.585,69.9082 178.085,74.5749 171,76.5C 162.549,75.4 156.215,71.0667 152,63.5C 151.536,64.0944 151.369,64.7611 151.5,65.5C 150.533,64.1938 149.199,63.5271 147.5,63.5 Z"/></g>
<g><path style="opacity:1" fill="#f9e052" d="M 144.5,62.5 C 144.435,64.6957 143.768,66.6957 142.5,68.5C 141.817,68.1373 141.15,67.8039 140.5,67.5C 137.729,64.6082 134.729,61.9416 131.5,59.5C 135.844,59.3681 140.178,60.3681 144.5,62.5 Z"/></g>
<g><path style="opacity:0.643" fill="#c6a74d" d="M 208.5,48.5 C 208.5,48.1667 208.5,47.8333 208.5,47.5C 208.833,47.5 209.167,47.5 209.5,47.5C 210.117,47.6107 210.617,47.944 211,48.5C 211.497,50.8098 211.663,53.1432 211.5,55.5C 208.179,60.1518 204.513,64.4851 200.5,68.5C 200.737,67.209 200.404,66.209 199.5,65.5C 201.167,63.5 202.833,61.5 204.5,59.5C 207.253,57.7515 209.253,55.4182 210.5,52.5C 210.66,50.6455 209.993,49.3121 208.5,48.5 Z"/></g>
<g><path style="opacity:1" fill="#fae555" d="M 204.5,59.5 C 202.833,61.5 201.167,63.5 199.5,65.5C 197.457,66.5794 196.124,68.246 195.5,70.5C 192.881,69.5972 192.214,67.9305 193.5,65.5C 196.853,63.8232 199.853,61.6566 202.5,59C 203.437,58.3083 204.103,58.475 204.5,59.5 Z"/></g>
<g><path style="opacity:0.212" fill="#e8da8d" d="M 131.5,62.5 C 134.431,64.0908 137.098,66.0908 139.5,68.5C 139.5,69.1667 139.5,69.8333 139.5,70.5C 138.833,70.5 138.167,70.5 137.5,70.5C 135.909,67.5691 133.909,64.9024 131.5,62.5 Z"/></g>
<g><path style="opacity:1" fill="#f9e354" d="M 191.5,73.5 C 190.035,77.0244 189.035,80.691 188.5,84.5C 183.358,83.4578 178.691,81.4578 174.5,78.5C 179.624,74.2807 183.29,68.9474 185.5,62.5C 189.328,65.1561 191.328,68.8227 191.5,73.5 Z"/></g>
<g><path style="opacity:0.125" fill="#e7d48f" d="M 200.5,68.5 C 199.972,69.7206 199.305,70.8873 198.5,72C 200.747,73.2775 202.747,74.7775 204.5,76.5C 199.376,76.1345 197.043,73.4678 197.5,68.5C 198.5,68.5 199.5,68.5 200.5,68.5 Z"/></g>
<g><path style="opacity:0.718" fill="#d1b96c" d="M 137.5,70.5 C 138.167,70.5 138.833,70.5 139.5,70.5C 135.5,72.8333 131.5,75.1667 127.5,77.5C 126.167,77.5 124.833,77.5 123.5,77.5C 127.849,74.6589 132.516,72.3255 137.5,70.5 Z"/></g>
<g><path style="opacity:0.694" fill="#bc982d" d="M 199.5,65.5 C 200.404,66.209 200.737,67.209 200.5,68.5C 199.5,68.5 198.5,68.5 197.5,68.5C 197.043,73.4678 199.376,76.1345 204.5,76.5C 205.492,76.3284 206.158,76.6618 206.5,77.5C 207.287,79.1042 208.62,79.7709 210.5,79.5C 211.833,80.5 211.833,81.5 210.5,82.5C 205.368,80.1005 200.368,77.4338 195.5,74.5C 195.5,73.1667 195.5,71.8333 195.5,70.5C 196.124,68.246 197.457,66.5794 199.5,65.5 Z"/></g>
<g><path style="opacity:1" fill="#fee656" d="M 163.5,81.5 C 163.885,133.679 163.218,186.013 161.5,238.5C 157.694,243.342 155.861,249.008 156,255.5C 152.013,253.891 149.68,250.891 149,246.5C 146.21,245.218 144.043,246.052 142.5,249C 139.232,250.213 135.899,250.546 132.5,250C 131.748,249.329 131.414,248.496 131.5,247.5C 135.177,248.813 138.843,248.647 142.5,247C 145.561,243.666 148.228,240.166 150.5,236.5C 151.82,235.058 153.486,234.392 155.5,234.5C 155.5,233.167 155.5,231.833 155.5,230.5C 156.626,227.473 158.126,227.14 160,229.5C 160.758,226.767 160.258,224.267 158.5,222C 159.895,217.115 159.728,212.282 158,207.5C 156.226,209.651 154.726,211.984 153.5,214.5C 151.894,215.077 150.228,215.41 148.5,215.5C 142.18,214.845 135.847,214.345 129.5,214C 127.963,212.89 127.297,211.39 127.5,209.5C 135.008,209.962 142.342,209.462 149.5,208C 142.342,206.538 135.008,206.038 127.5,206.5C 127.374,202.077 126.707,197.744 125.5,193.5C 127.392,191.119 127.892,188.453 127,185.5C 126.505,187.473 126.338,189.473 126.5,191.5C 124.833,191.5 123.167,191.5 121.5,191.5C 121.173,196.544 121.506,201.544 122.5,206.5C 123.931,206.977 125.264,207.643 126.5,208.5C 124.884,211.058 122.55,212.724 119.5,213.5C 118.833,212.833 118.167,212.167 117.5,211.5C 115.992,215.372 114.992,219.372 114.5,223.5C 113.167,223.5 111.833,223.5 110.5,223.5C 114.182,184.857 118.849,146.357 124.5,108C 124.169,102.336 123.002,96.8361 121,91.5C 120.208,88.8936 118.708,86.8936 116.5,85.5C 116.369,84.6236 116.702,83.9569 117.5,83.5C 121.037,81.6739 124.37,79.6739 127.5,77.5C 132.695,76.3793 137.528,74.3793 142,71.5C 143.221,72.2718 144.221,73.2718 145,74.5C 147.595,80.0265 150.428,85.3599 153.5,90.5C 156.853,87.4778 160.187,84.4778 163.5,81.5 Z"/></g>
<g><path style="opacity:1" fill="#fbe756" d="M 147.5,63.5 C 149.199,63.5271 150.533,64.1938 151.5,65.5C 154.194,70.1942 157.861,73.8609 162.5,76.5C 162.5,77.1667 162.5,77.8333 162.5,78.5C 160.299,81.0214 157.966,83.5214 155.5,86C 154.833,86.6667 154.167,86.6667 153.5,86C 150.872,81.2451 148.372,76.4118 146,71.5C 145.666,69.1527 145.833,66.8194 146.5,64.5C 147.167,64.5 147.5,64.1667 147.5,63.5 Z"/></g>
<g><path style="opacity:0.114" fill="#e3daa7" d="M 206.5,77.5 C 208.153,77.6596 209.486,78.3263 210.5,79.5C 208.62,79.7709 207.287,79.1042 206.5,77.5 Z"/></g>
<g><path style="opacity:0.141" fill="#f2e3a0" d="M 123.5,77.5 C 120.485,79.6744 117.151,81.3411 113.5,82.5C 116.247,79.7933 119.58,78.1266 123.5,77.5 Z"/></g>
<g><path style="opacity:1" fill="#fee656" d="M 193.5,74.5 C 194.167,74.5 194.833,74.5 195.5,74.5C 200.368,77.4338 205.368,80.1005 210.5,82.5C 210.842,83.3382 211.508,83.6716 212.5,83.5C 215.128,84.8139 217.795,86.1473 220.5,87.5C 218.815,91.688 216.648,95.688 214,99.5C 210.823,106.699 208.656,114.199 207.5,122C 213.106,157.801 218.439,193.634 223.5,229.5C 223.5,231.167 223.5,232.833 223.5,234.5C 223.447,237.14 222.78,239.64 221.5,242C 222.581,245.468 223.081,248.968 223,252.5C 222.333,251.167 221.333,250.167 220,249.5C 219,250.833 218,250.833 217,249.5C 216.851,245.867 216.018,242.534 214.5,239.5C 215.449,234.26 215.782,228.927 215.5,223.5C 214.5,223.5 213.5,223.5 212.5,223.5C 212.715,221.821 212.048,220.821 210.5,220.5C 210.189,219.522 209.522,218.855 208.5,218.5C 200.197,219.378 191.864,219.545 183.5,219C 180.189,221.681 179.855,224.515 182.5,227.5C 183.696,235.225 187.029,241.892 192.5,247.5C 195.167,248.167 197.833,248.833 200.5,249.5C 203.433,248.888 205.766,247.555 207.5,245.5C 209.194,244.473 210.527,243.139 211.5,241.5C 211.409,245.182 210.076,248.349 207.5,251C 202.964,252.379 198.297,252.879 193.5,252.5C 193.5,253.5 193.5,254.5 193.5,255.5C 190.167,255.163 189.167,253.496 190.5,250.5C 187.755,247.921 185.589,244.921 184,241.5C 182.151,245.627 182.651,249.46 185.5,253C 183.42,255.928 181.253,256.095 179,253.5C 177.298,249.387 177.131,245.22 178.5,241C 178.241,239.739 177.574,238.739 176.5,238C 177.891,236.98 179.391,236.147 181,235.5C 181.851,232.947 181.518,230.614 180,228.5C 179.333,229.167 178.667,229.833 178,230.5C 177.677,233.141 176.677,235.475 175,237.5C 174.851,233.867 174.018,230.534 172.5,227.5C 172.5,178.833 172.5,130.167 172.5,81.5C 178.167,83.5 183.833,85.5 189.5,87.5C 190.833,83.1667 192.167,78.8333 193.5,74.5 Z"/></g>
<g><path style="opacity:0.694" fill="#cbb159" d="M 210.5,79.5 C 213.004,80.5839 215.337,81.9172 217.5,83.5C 215.833,83.5 214.167,83.5 212.5,83.5C 211.508,83.6716 210.842,83.3382 210.5,82.5C 211.833,81.5 211.833,80.5 210.5,79.5 Z"/></g>
<g><path style="opacity:0.847" fill="#b29125" d="M 212.5,83.5 C 214.167,83.5 215.833,83.5 217.5,83.5C 218.911,85.539 220.911,86.539 223.5,86.5C 223.5,87.1667 223.5,87.8333 223.5,88.5C 222.609,87.8902 221.609,87.5569 220.5,87.5C 217.795,86.1473 215.128,84.8139 212.5,83.5 Z"/></g>
<g><path style="opacity:0.161" fill="#e3cc90" d="M 217.5,83.5 C 219.819,83.9925 221.819,84.9925 223.5,86.5C 220.911,86.539 218.911,85.539 217.5,83.5 Z"/></g>
<g><path style="opacity:1" fill="#bb9b11" d="M 144.5,62.5 C 145.5,62.8333 146.167,63.5 146.5,64.5C 145.833,66.8194 145.666,69.1527 146,71.5C 148.372,76.4118 150.872,81.2451 153.5,86C 154.167,86.6667 154.833,86.6667 155.5,86C 157.966,83.5214 160.299,81.0214 162.5,78.5C 163.239,78.369 163.906,78.5357 164.5,79C 163.748,79.6708 163.414,80.5041 163.5,81.5C 160.187,84.4778 156.853,87.4778 153.5,90.5C 150.428,85.3599 147.595,80.0265 145,74.5C 144.221,73.2718 143.221,72.2718 142,71.5C 137.528,74.3793 132.695,76.3793 127.5,77.5C 131.5,75.1667 135.5,72.8333 139.5,70.5C 139.5,69.8333 139.5,69.1667 139.5,68.5C 140.167,68.5 140.5,68.1667 140.5,67.5C 141.15,67.8039 141.817,68.1373 142.5,68.5C 143.768,66.6957 144.435,64.6957 144.5,62.5 Z"/></g>
<g><path style="opacity:0.086" fill="#deca8c" d="M 223.5,86.5 C 225.213,87.6354 225.88,89.302 225.5,91.5C 224.833,90.5 224.167,89.5 223.5,88.5C 223.5,87.8333 223.5,87.1667 223.5,86.5 Z"/></g>
<g><path style="opacity:0.173" fill="#e7d593" d="M 110.5,89.5 C 110.58,92.7814 109.913,95.7814 108.5,98.5C 108.42,95.2186 109.087,92.2186 110.5,89.5 Z"/></g>
<g><path style="opacity:0.235" fill="#e6d18f" d="M 108.5,98.5 C 108.083,104.17 106.749,109.503 104.5,114.5C 105.232,108.906 106.565,103.573 108.5,98.5 Z"/></g>
<g><path style="opacity:1" fill="#c59d0a" d="M 162.5,76.5 C 164.284,76.8925 165.95,77.5592 167.5,78.5C 167.5,79.5 167.5,80.5 167.5,81.5C 165.484,160.486 164.15,239.486 163.5,318.5C 162.668,301.672 162.168,284.672 162,267.5C 161.831,279.674 161.331,291.674 160.5,303.5C 160.671,281.83 161.005,260.164 161.5,238.5C 163.218,186.013 163.885,133.679 163.5,81.5C 163.414,80.5041 163.748,79.6708 164.5,79C 163.906,78.5357 163.239,78.369 162.5,78.5C 162.5,77.8333 162.5,77.1667 162.5,76.5 Z"/></g>
<g><path style="opacity:0.188" fill="#ebdb90" d="M 227.5,100.5 C 228.924,102.515 229.59,104.848 229.5,107.5C 227.837,105.562 227.171,103.228 227.5,100.5 Z"/></g>
<g><path style="opacity:0.878" fill="#bda143" d="M 223.5,88.5 C 224.167,89.5 224.833,90.5 225.5,91.5C 226.913,94.2186 227.58,97.2186 227.5,100.5C 227.171,103.228 227.837,105.562 229.5,107.5C 230.913,110.219 231.58,113.219 231.5,116.5C 231.5,118.167 231.5,119.833 231.5,121.5C 231.5,122.5 231.5,123.5 231.5,124.5C 230.59,122.981 229.757,121.315 229,119.5C 227.817,112.085 226.317,104.752 224.5,97.5C 224.296,94.4824 223.963,91.4824 223.5,88.5 Z"/></g>
<g><path style="opacity:1" fill="#be9e13" d="M 220.5,87.5 C 221.609,87.5569 222.609,87.8902 223.5,88.5C 223.963,91.4824 224.296,94.4824 224.5,97.5C 223.935,95.6136 222.935,93.9469 221.5,92.5C 215.377,101.033 211.71,110.533 210.5,121C 215.46,157.181 220.46,193.348 225.5,229.5C 224.833,229.5 224.167,229.5 223.5,229.5C 218.439,193.634 213.106,157.801 207.5,122C 208.656,114.199 210.823,106.699 214,99.5C 216.648,95.688 218.815,91.688 220.5,87.5 Z"/></g>
<g><path style="opacity:0.153" fill="#e7d190" d="M 231.5,116.5 C 232.768,118.905 233.435,121.572 233.5,124.5C 232.833,123.5 232.167,122.5 231.5,121.5C 231.5,119.833 231.5,118.167 231.5,116.5 Z"/></g>
<g><path style="opacity:0.804" fill="#c0a752" d="M 231.5,121.5 C 232.167,122.5 232.833,123.5 233.5,124.5C 234.967,128.702 235.967,133.035 236.5,137.5C 235.833,137.5 235.167,137.5 234.5,137.5C 234.33,135.152 233.997,132.818 233.5,130.5C 233.36,128.97 232.693,127.97 231.5,127.5C 231.5,126.5 231.5,125.5 231.5,124.5C 231.5,123.5 231.5,122.5 231.5,121.5 Z"/></g>
<g><path style="opacity:0.91" fill="#b49a1a" d="M 231.5,127.5 C 232.693,127.97 233.36,128.97 233.5,130.5C 233.997,132.818 234.33,135.152 234.5,137.5C 232.757,134.505 231.757,131.171 231.5,127.5 Z"/></g>
<g><path style="opacity:1" fill="#f9c913" d="M 169.5,318.5 C 167.5,318.5 165.5,318.5 163.5,318.5C 164.15,239.486 165.484,160.486 167.5,81.5C 168.117,81.3893 168.617,81.056 169,80.5C 169.5,159.833 169.667,239.166 169.5,318.5 Z"/></g>
<g><path style="opacity:0.212" fill="#efda8f" d="M 100.5,132.5 C 100.706,135.495 100.04,138.162 98.5,140.5C 98.5651,137.572 99.2318,134.905 100.5,132.5 Z"/></g>
<g><path style="opacity:0.2" fill="#ead996" d="M 238.5,145.5 C 239.768,147.905 240.435,150.572 240.5,153.5C 238.96,151.162 238.294,148.495 238.5,145.5 Z"/></g>
<g><path style="opacity:1" fill="#fde656" d="M 113.5,87.5 C 115.592,87.5614 117.092,88.5614 118,90.5C 120.203,96.4769 121.37,102.644 121.5,109C 117.715,137.112 114.215,165.279 111,193.5C 109.78,204.475 108.946,215.475 108.5,226.5C 100.874,227.897 93.5402,226.897 86.5,223.5C 84.5466,222.756 83.5466,221.256 83.5,219C 93.5787,175.185 103.579,131.352 113.5,87.5 Z"/></g>
<g><path style="opacity:1" fill="#fde656" d="M 224.5,97.5 C 226.317,104.752 227.817,112.085 229,119.5C 229.757,121.315 230.59,122.981 231.5,124.5C 231.5,125.5 231.5,126.5 231.5,127.5C 231.757,131.171 232.757,134.505 234.5,137.5C 241.001,166.506 247.668,195.506 254.5,224.5C 245.317,228.54 235.65,230.207 225.5,229.5C 220.46,193.348 215.46,157.181 210.5,121C 211.71,110.533 215.377,101.033 221.5,92.5C 222.935,93.9469 223.935,95.6136 224.5,97.5 Z"/></g>
<g><path style="opacity:0.169" fill="#e9d495" d="M 240.5,153.5 C 241.768,155.905 242.435,158.572 242.5,161.5C 240.96,159.162 240.294,156.495 240.5,153.5 Z"/></g>
<g><path style="opacity:0.22" fill="#e8d596" d="M 95.5,153.5 C 95.2417,159.528 93.9084,165.194 91.5,170.5C 92.0873,164.544 93.4207,158.878 95.5,153.5 Z"/></g>
<g><path style="opacity:1" fill="#bc9b10" d="M 116.5,85.5 C 118.708,86.8936 120.208,88.8936 121,91.5C 123.002,96.8361 124.169,102.336 124.5,108C 118.849,146.357 114.182,184.857 110.5,223.5C 110.658,226.902 110.324,230.236 109.5,233.5C 108.018,231.264 107.685,228.931 108.5,226.5C 108.946,215.475 109.78,204.475 111,193.5C 114.215,165.279 117.715,137.112 121.5,109C 121.37,102.644 120.203,96.4769 118,90.5C 117.092,88.5614 115.592,87.5614 113.5,87.5C 114.5,86.8333 115.5,86.1667 116.5,85.5 Z"/></g>
<g><path style="opacity:0.192" fill="#efdea5" d="M 91.5,170.5 C 91.7062,173.495 91.0395,176.162 89.5,178.5C 89.5651,175.572 90.2318,172.905 91.5,170.5 Z"/></g>
<g><path style="opacity:0.247" fill="#edd791" d="M 243.5,166.5 C 245.04,168.838 245.706,171.505 245.5,174.5C 243.96,172.162 243.294,169.495 243.5,166.5 Z"/></g>
<g><path style="opacity:0.349" fill="#ebdc9c" d="M 246.5,178.5 C 247.612,180.599 248.279,182.933 248.5,185.5C 246.837,183.562 246.171,181.228 246.5,178.5 Z"/></g>
<g><path style="opacity:0.192" fill="#f2e0a2" d="M 248.5,186.5 C 249.768,188.905 250.435,191.572 250.5,194.5C 248.96,192.162 248.294,189.495 248.5,186.5 Z"/></g>
<g><path style="opacity:1" fill="#bc9e37" d="M 123.5,77.5 C 124.833,77.5 126.167,77.5 127.5,77.5C 124.37,79.6739 121.037,81.6739 117.5,83.5C 116.702,83.9569 116.369,84.6236 116.5,85.5C 115.5,86.1667 114.5,86.8333 113.5,87.5C 103.579,131.352 93.5787,175.185 83.5,219C 83.5466,221.256 84.5466,222.756 86.5,223.5C 86.6716,224.492 86.3382,225.158 85.5,225.5C 83.9077,223.312 82.5743,223.312 81.5,225.5C 79.4272,231.675 78.0939,238.008 77.5,244.5C 77.3898,246.374 78.0564,247.874 79.5,249C 82.5256,250.183 85.5256,251.349 88.5,252.5C 88.5,252.833 88.5,253.167 88.5,253.5C 87.1667,253.5 85.8333,253.5 84.5,253.5C 83.3646,251.787 81.698,251.12 79.5,251.5C 78.4154,249.413 76.7488,248.08 74.5,247.5C 73.2801,245.95 73.2801,244.284 74.5,242.5C 76.0395,240.162 76.7062,237.495 76.5,234.5C 76.8816,229.908 77.8816,225.575 79.5,221.5C 81.9556,217.274 82.9556,212.607 82.5,207.5C 84.0395,205.162 84.7062,202.495 84.5,199.5C 86.0395,197.162 86.7062,194.495 86.5,191.5C 87.0566,186.948 88.0566,182.615 89.5,178.5C 91.0395,176.162 91.7062,173.495 91.5,170.5C 93.9084,165.194 95.2417,159.528 95.5,153.5C 96.0566,148.948 97.0566,144.615 98.5,140.5C 100.04,138.162 100.706,135.495 100.5,132.5C 101.207,126.339 102.541,120.339 104.5,114.5C 106.749,109.503 108.083,104.17 108.5,98.5C 109.913,95.7814 110.58,92.7814 110.5,89.5C 110.166,86.509 111.166,84.1757 113.5,82.5C 117.151,81.3411 120.485,79.6744 123.5,77.5 Z"/></g>
<g><path style="opacity:0.063" fill="#f8f1b8" d="M 86.5,191.5 C 86.7062,194.495 86.0395,197.162 84.5,199.5C 84.5651,196.572 85.2318,193.905 86.5,191.5 Z"/></g>
<g><path style="opacity:0.176" fill="#f1dfa6" d="M 250.5,194.5 C 252.927,201.211 254.593,208.211 255.5,215.5C 253.073,208.789 251.407,201.789 250.5,194.5 Z"/></g>
<g><path style="opacity:0.082" fill="#fcf1bd" d="M 84.5,199.5 C 84.7062,202.495 84.0395,205.162 82.5,207.5C 82.5651,204.572 83.2318,201.905 84.5,199.5 Z"/></g>
<g><path style="opacity:1" fill="#dcae08" d="M 167.5,78.5 C 169.5,78.5 170.5,79.5 170.5,81.5C 170.833,160.668 170.499,239.668 169.5,318.5C 169.667,239.166 169.5,159.833 169,80.5C 168.617,81.056 168.117,81.3893 167.5,81.5C 167.5,80.5 167.5,79.5 167.5,78.5 Z"/></g>
<g><path style="opacity:0.286" fill="#f0e1a1" d="M 82.5,207.5 C 82.9556,212.607 81.9556,217.274 79.5,221.5C 79.8985,216.588 80.8985,211.921 82.5,207.5 Z"/></g>
<g><path style="opacity:1" fill="#fee341" d="M 146.5,220.5 C 139.167,220.5 131.833,220.5 124.5,220.5C 124.178,222.722 124.845,224.556 126.5,226C 133.141,227.959 139.808,227.959 146.5,226C 148.424,224.25 150.091,222.417 151.5,220.5C 152.458,220.953 153.292,221.619 154,222.5C 154.395,225.207 154.895,227.873 155.5,230.5C 155.5,231.833 155.5,233.167 155.5,234.5C 153.486,234.392 151.82,235.058 150.5,236.5C 152.139,232.284 152.973,227.951 153,223.5C 147.834,227.162 142.334,230.162 136.5,232.5C 130.9,231.282 126.067,228.616 122,224.5C 121.16,229.113 121.66,233.446 123.5,237.5C 123.328,238.492 123.662,239.158 124.5,239.5C 126.14,242.149 127.807,244.816 129.5,247.5C 122.966,246.974 120.3,243.64 121.5,237.5C 120.014,232.948 119.348,228.281 119.5,223.5C 122.5,223.833 123.833,222.5 123.5,219.5C 131.352,219.175 139.018,219.508 146.5,220.5 Z"/></g>
<g><path style="opacity:0.055" fill="#f4ebb3" d="M 255.5,215.5 C 256.768,217.905 257.435,220.572 257.5,223.5C 255.96,221.162 255.294,218.495 255.5,215.5 Z"/></g>
<g><path style="opacity:1" fill="#fee547" d="M 210.5,220.5 C 201.991,221.167 193.324,221.833 184.5,222.5C 185.947,225.567 188.28,227.734 191.5,229C 196.167,229.667 200.833,229.667 205.5,229C 208.621,228.033 210.954,226.2 212.5,223.5C 213.5,223.5 214.5,223.5 215.5,223.5C 215.782,228.927 215.449,234.26 214.5,239.5C 213.833,239.5 213.167,239.5 212.5,239.5C 213.164,235.846 213.831,232.18 214.5,228.5C 214.167,227.5 213.833,226.5 213.5,225.5C 211.456,227.219 209.456,228.886 207.5,230.5C 204.075,230.72 201.241,232.053 199,234.5C 195.766,232.421 192.266,230.921 188.5,230C 186.391,228.859 184.558,227.359 183,225.5C 182.536,226.094 182.369,226.761 182.5,227.5C 179.855,224.515 180.189,221.681 183.5,219C 191.864,219.545 200.197,219.378 208.5,218.5C 209.522,218.855 210.189,219.522 210.5,220.5 Z"/></g>
<g><path style="opacity:1" fill="#f4c916" d="M 210.5,220.5 C 212.048,220.821 212.715,221.821 212.5,223.5C 210.954,226.2 208.621,228.033 205.5,229C 200.833,229.667 196.167,229.667 191.5,229C 188.28,227.734 185.947,225.567 184.5,222.5C 193.324,221.833 201.991,221.167 210.5,220.5 Z"/></g>
<g><path style="opacity:1" fill="#fbc507" d="M 85.5,225.5 C 92.0767,228.602 99.0767,230.269 106.5,230.5C 106.128,237.837 105.628,245.171 105,252.5C 99.5313,253.766 94.0313,253.766 88.5,252.5C 85.5256,251.349 82.5256,250.183 79.5,249C 78.0564,247.874 77.3898,246.374 77.5,244.5C 78.0939,238.008 79.4272,231.675 81.5,225.5C 82.5743,223.312 83.9077,223.312 85.5,225.5 Z"/></g>
<g><path style="opacity:1" fill="#c59d07" d="M 254.5,224.5 C 254.833,225.167 255.167,225.833 255.5,226.5C 250.09,228.026 244.756,229.859 239.5,232C 235.179,232.499 230.846,232.666 226.5,232.5C 226.928,240.26 227.928,247.927 229.5,255.5C 228.833,255.5 228.167,255.5 227.5,255.5C 226.007,248.527 224.673,241.527 223.5,234.5C 223.5,232.833 223.5,231.167 223.5,229.5C 224.167,229.5 224.833,229.5 225.5,229.5C 235.65,230.207 245.317,228.54 254.5,224.5 Z"/></g>
<g><path style="opacity:0.969" fill="#bc9d34" d="M 234.5,137.5 C 235.167,137.5 235.833,137.5 236.5,137.5C 237.768,139.905 238.435,142.572 238.5,145.5C 238.294,148.495 238.96,151.162 240.5,153.5C 240.294,156.495 240.96,159.162 242.5,161.5C 243.451,162.919 243.784,164.585 243.5,166.5C 243.294,169.495 243.96,172.162 245.5,174.5C 246.434,175.568 246.768,176.901 246.5,178.5C 246.171,181.228 246.837,183.562 248.5,185.5C 248.5,185.833 248.5,186.167 248.5,186.5C 248.294,189.495 248.96,192.162 250.5,194.5C 251.407,201.789 253.073,208.789 255.5,215.5C 255.294,218.495 255.96,221.162 257.5,223.5C 259.118,227.575 260.118,231.908 260.5,236.5C 260.171,239.228 260.837,241.562 262.5,243.5C 263.833,246.167 263.833,248.833 262.5,251.5C 260.787,253.85 258.453,254.85 255.5,254.5C 256.622,253.053 258.122,252.053 260,251.5C 259.474,243.032 257.974,234.699 255.5,226.5C 255.167,225.833 254.833,225.167 254.5,224.5C 247.668,195.506 241.001,166.506 234.5,137.5 Z"/></g>
<g><path style="opacity:1" fill="#c89f0a" d="M 86.5,223.5 C 93.5402,226.897 100.874,227.897 108.5,226.5C 107.685,228.931 108.018,231.264 109.5,233.5C 108.976,241.034 107.976,248.368 106.5,255.5C 105.833,255.5 105.167,255.5 104.5,255.5C 100.833,255.5 97.1667,255.5 93.5,255.5C 92.8333,255.5 92.1667,255.5 91.5,255.5C 90.7095,254.599 89.7095,253.932 88.5,253.5C 88.5,253.167 88.5,252.833 88.5,252.5C 94.0313,253.766 99.5313,253.766 105,252.5C 105.628,245.171 106.128,237.837 106.5,230.5C 99.0767,230.269 92.0767,228.602 85.5,225.5C 86.3382,225.158 86.6716,224.492 86.5,223.5 Z"/></g>
<g><path style="opacity:1" fill="#fdc603" d="M 124.5,239.5 C 123.662,239.158 123.328,238.492 123.5,237.5C 123.756,235.208 123.423,233.041 122.5,231C 123,230.833 123.5,230.667 124,230.5C 127.939,231.288 132.105,232.288 136.5,233.5C 140.238,233.155 143.905,232.488 147.5,231.5C 149.111,235.938 147.777,238.938 143.5,240.5C 141.984,244.037 139.15,246.037 135,246.5C 131.292,244.472 127.792,242.139 124.5,239.5 Z"/></g>
<g><path style="opacity:1" fill="#fcc605" d="M 255.5,226.5 C 257.974,234.699 259.474,243.032 260,251.5C 258.122,252.053 256.622,253.053 255.5,254.5C 246.94,257.933 238.274,258.267 229.5,255.5C 227.928,247.927 226.928,240.26 226.5,232.5C 230.846,232.666 235.179,232.499 239.5,232C 244.756,229.859 250.09,228.026 255.5,226.5 Z"/></g>
<g><path style="opacity:1" fill="#fac707" d="M 212.5,239.5 C 212.672,240.492 212.338,241.158 211.5,241.5C 210.527,243.139 209.194,244.473 207.5,245.5C 203.645,247.482 199.645,247.815 195.5,246.5C 192.594,243.491 189.927,240.157 187.5,236.5C 186.754,235.264 186.421,233.93 186.5,232.5C 188.884,232.443 191.218,232.777 193.5,233.5C 197.204,237.284 201.204,237.451 205.5,234C 206.823,233.184 207.489,232.017 207.5,230.5C 209.456,228.886 211.456,227.219 213.5,225.5C 213.833,226.5 214.167,227.5 214.5,228.5C 213.831,232.18 213.164,235.846 212.5,239.5 Z"/></g>
<g><path style="opacity:1" fill="#f4c816" d="M 150.5,236.5 C 148.228,240.166 145.561,243.666 142.5,247C 138.843,248.647 135.177,248.813 131.5,247.5C 130.833,247.5 130.167,247.5 129.5,247.5C 127.807,244.816 126.14,242.149 124.5,239.5C 127.792,242.139 131.292,244.472 135,246.5C 139.15,246.037 141.984,244.037 143.5,240.5C 147.777,238.938 149.111,235.938 147.5,231.5C 143.905,232.488 140.238,233.155 136.5,233.5C 132.105,232.288 127.939,231.288 124,230.5C 123.5,230.667 123,230.833 122.5,231C 123.423,233.041 123.756,235.208 123.5,237.5C 121.66,233.446 121.16,229.113 122,224.5C 126.067,228.616 130.9,231.282 136.5,232.5C 142.334,230.162 147.834,227.162 153,223.5C 152.973,227.951 152.139,232.284 150.5,236.5 Z"/></g>
<g><path style="opacity:1" fill="#f3c818" d="M 207.5,230.5 C 207.489,232.017 206.823,233.184 205.5,234C 201.204,237.451 197.204,237.284 193.5,233.5C 191.218,232.777 188.884,232.443 186.5,232.5C 186.421,233.93 186.754,235.264 187.5,236.5C 189.927,240.157 192.594,243.491 195.5,246.5C 199.645,247.815 203.645,247.482 207.5,245.5C 205.766,247.555 203.433,248.888 200.5,249.5C 197.833,248.833 195.167,248.167 192.5,247.5C 187.029,241.892 183.696,235.225 182.5,227.5C 182.369,226.761 182.536,226.094 183,225.5C 184.558,227.359 186.391,228.859 188.5,230C 192.266,230.921 195.766,232.421 199,234.5C 201.241,232.053 204.075,230.72 207.5,230.5 Z"/></g>
<g><path style="opacity:0.208" fill="#f6e4b0" d="M 76.5,234.5 C 76.7062,237.495 76.0395,240.162 74.5,242.5C 74.5651,239.572 75.2318,236.905 76.5,234.5 Z"/></g>
<g><path style="opacity:0.165" fill="#f2dda7" d="M 260.5,236.5 C 261.924,238.515 262.59,240.848 262.5,243.5C 260.837,241.562 260.171,239.228 260.5,236.5 Z"/></g>
<g><path style="opacity:0.443" fill="#efdb99" d="M 74.5,247.5 C 76.7488,248.08 78.4154,249.413 79.5,251.5C 77.2512,250.92 75.5846,249.587 74.5,247.5 Z"/></g>
<g><path style="opacity:0.651" fill="#dfcc7b" d="M 79.5,251.5 C 81.698,251.12 83.3646,251.787 84.5,253.5C 82.4471,253.598 80.7804,252.931 79.5,251.5 Z"/></g>
<g><path style="opacity:1" fill="#fee657" d="M 155.5,230.5 C 154.895,227.873 154.395,225.207 154,222.5C 153.292,221.619 152.458,220.953 151.5,220.5C 149.833,220.5 148.167,220.5 146.5,220.5C 139.018,219.508 131.352,219.175 123.5,219.5C 123.833,222.5 122.5,223.833 119.5,223.5C 119.348,228.281 120.014,232.948 121.5,237.5C 120.3,243.64 122.966,246.974 129.5,247.5C 130.167,247.5 130.833,247.5 131.5,247.5C 131.414,248.496 131.748,249.329 132.5,250C 135.899,250.546 139.232,250.213 142.5,249C 144.043,246.052 146.21,245.218 149,246.5C 149.68,250.891 152.013,253.891 156,255.5C 155.861,249.008 157.694,243.342 161.5,238.5C 161.005,260.164 160.671,281.83 160.5,303.5C 160.5,308.5 160.5,313.5 160.5,318.5C 151.04,317.984 141.707,316.651 132.5,314.5C 131.5,314.5 130.5,314.5 129.5,314.5C 121.833,311.995 114.166,309.328 106.5,306.5C 106.167,306.5 105.833,306.5 105.5,306.5C 104.828,305.733 103.995,305.066 103,304.5C 102.833,302.167 102.667,299.833 102.5,297.5C 103.894,283.5 105.227,269.5 106.5,255.5C 107.976,248.368 108.976,241.034 109.5,233.5C 110.324,230.236 110.658,226.902 110.5,223.5C 111.833,223.5 113.167,223.5 114.5,223.5C 114.992,219.372 115.992,215.372 117.5,211.5C 118.167,212.167 118.833,212.833 119.5,213.5C 122.55,212.724 124.884,211.058 126.5,208.5C 125.264,207.643 123.931,206.977 122.5,206.5C 121.506,201.544 121.173,196.544 121.5,191.5C 123.167,191.5 124.833,191.5 126.5,191.5C 126.338,189.473 126.505,187.473 127,185.5C 127.892,188.453 127.392,191.119 125.5,193.5C 126.707,197.744 127.374,202.077 127.5,206.5C 135.008,206.038 142.342,206.538 149.5,208C 142.342,209.462 135.008,209.962 127.5,209.5C 127.297,211.39 127.963,212.89 129.5,214C 135.847,214.345 142.18,214.845 148.5,215.5C 150.228,215.41 151.894,215.077 153.5,214.5C 154.726,211.984 156.226,209.651 158,207.5C 159.728,212.282 159.895,217.115 158.5,222C 160.258,224.267 160.758,226.767 160,229.5C 158.126,227.14 156.626,227.473 155.5,230.5 Z"/></g>
<g><path style="opacity:1" fill="#f4c917" d="M 146.5,220.5 C 148.167,220.5 149.833,220.5 151.5,220.5C 150.091,222.417 148.424,224.25 146.5,226C 139.808,227.959 133.141,227.959 126.5,226C 124.845,224.556 124.178,222.722 124.5,220.5C 131.833,220.5 139.167,220.5 146.5,220.5 Z"/></g>
<g><path style="opacity:1" fill="#fee757" d="M 172.5,227.5 C 174.018,230.534 174.851,233.867 175,237.5C 176.677,235.475 177.677,233.141 178,230.5C 178.667,229.833 179.333,229.167 180,228.5C 181.518,230.614 181.851,232.947 181,235.5C 179.391,236.147 177.891,236.98 176.5,238C 177.574,238.739 178.241,239.739 178.5,241C 177.131,245.22 177.298,249.387 179,253.5C 181.253,256.095 183.42,255.928 185.5,253C 182.651,249.46 182.151,245.627 184,241.5C 185.589,244.921 187.755,247.921 190.5,250.5C 189.167,253.496 190.167,255.163 193.5,255.5C 193.5,254.5 193.5,253.5 193.5,252.5C 198.297,252.879 202.964,252.379 207.5,251C 210.076,248.349 211.409,245.182 211.5,241.5C 212.338,241.158 212.672,240.492 212.5,239.5C 213.167,239.5 213.833,239.5 214.5,239.5C 216.018,242.534 216.851,245.867 217,249.5C 218,250.833 219,250.833 220,249.5C 221.333,250.167 222.333,251.167 223,252.5C 223.081,248.968 222.581,245.468 221.5,242C 222.78,239.64 223.447,237.14 223.5,234.5C 224.673,241.527 226.007,248.527 227.5,255.5C 227.702,264.483 229.035,273.15 231.5,281.5C 231.5,281.833 231.5,282.167 231.5,282.5C 232.091,290.372 233.091,298.205 234.5,306C 234.415,307.107 234.081,308.107 233.5,309C 220.392,315.79 206.392,318.957 191.5,318.5C 185.167,318.5 178.833,318.5 172.5,318.5C 172.5,292.167 172.5,265.833 172.5,239.5C 172.5,235.5 172.5,231.5 172.5,227.5 Z"/></g>
<g><path style="opacity:0.18" fill="#e9cf80" d="M 84.5,253.5 C 85.8333,253.5 87.1667,253.5 88.5,253.5C 89.7095,253.932 90.7095,254.599 91.5,255.5C 88.8478,255.59 86.5145,254.924 84.5,253.5 Z"/></g>
<g><path style="opacity:0.533" fill="#d3b96e" d="M 262.5,251.5 C 261.254,254.643 258.92,256.643 255.5,257.5C 255.5,256.5 255.5,255.5 255.5,254.5C 258.453,254.85 260.787,253.85 262.5,251.5 Z"/></g>
<g><path style="opacity:0.337" fill="#cbae54" d="M 250.5,258.5 C 245.569,259.937 240.569,260.27 235.5,259.5C 233.36,259.556 231.694,260.223 230.5,261.5C 229.218,260.292 229.218,258.958 230.5,257.5C 237.108,258.462 243.774,258.795 250.5,258.5 Z"/></g>
<g><path style="opacity:0.341" fill="#e5cf88" d="M 93.5,255.5 C 97.1667,255.5 100.833,255.5 104.5,255.5C 104.806,258.385 104.473,261.052 103.5,263.5C 103.5,261.167 103.5,258.833 103.5,256.5C 99.9581,256.813 96.6248,256.479 93.5,255.5 Z"/></g>
<g><path style="opacity:1" fill="#bd9504" d="M 191.5,73.5 C 192.167,73.8333 192.833,74.1667 193.5,74.5C 192.167,78.8333 190.833,83.1667 189.5,87.5C 183.833,85.5 178.167,83.5 172.5,81.5C 172.5,130.167 172.5,178.833 172.5,227.5C 172.5,231.5 172.5,235.5 172.5,239.5C 171.502,265.995 171.169,292.661 171.5,319.5C 178.167,319.5 184.833,319.5 191.5,319.5C 188.396,320.233 183.896,320.566 178,320.5C 172.833,320.333 167.667,320.167 162.5,320C 161.956,319.283 161.289,318.783 160.5,318.5C 160.5,313.5 160.5,308.5 160.5,303.5C 161.331,291.674 161.831,279.674 162,267.5C 162.168,284.672 162.668,301.672 163.5,318.5C 165.5,318.5 167.5,318.5 169.5,318.5C 170.499,239.668 170.833,160.668 170.5,81.5C 171.236,79.7706 172.57,78.7706 174.5,78.5C 178.691,81.4578 183.358,83.4578 188.5,84.5C 189.035,80.691 190.035,77.0244 191.5,73.5 Z"/></g>
<g><path style="opacity:0.633" fill="#ba971f" d="M 255.5,254.5 C 255.5,255.5 255.5,256.5 255.5,257.5C 253.883,258.038 252.216,258.371 250.5,258.5C 243.774,258.795 237.108,258.462 230.5,257.5C 229.218,258.958 229.218,260.292 230.5,261.5C 230.5,261.833 230.5,262.167 230.5,262.5C 230.9,268.829 231.233,275.162 231.5,281.5C 229.035,273.15 227.702,264.483 227.5,255.5C 228.167,255.5 228.833,255.5 229.5,255.5C 238.274,258.267 246.94,257.933 255.5,254.5 Z"/></g>
<g><path style="opacity:0.99" fill="#ba9a2d" d="M 104.5,255.5 C 105.167,255.5 105.833,255.5 106.5,255.5C 105.227,269.5 103.894,283.5 102.5,297.5C 102.667,299.833 102.833,302.167 103,304.5C 103.995,305.066 104.828,305.733 105.5,306.5C 103.61,306.703 102.11,306.037 101,304.5C 100.905,298.843 101.072,293.176 101.5,287.5C 101.833,282.167 102.167,276.833 102.5,271.5C 102.194,268.615 102.527,265.948 103.5,263.5C 104.473,261.052 104.806,258.385 104.5,255.5 Z"/></g>
<g><path style="opacity:0.157" fill="#fbecaf" d="M 102.5,271.5 C 102.167,276.833 101.833,282.167 101.5,287.5C 101.167,287.5 100.833,287.5 100.5,287.5C 100.376,281.931 101.043,276.598 102.5,271.5 Z"/></g>
<g><path style="opacity:0.847" fill="#c3a64e" d="M 230.5,262.5 C 232.136,270.652 233.469,278.986 234.5,287.5C 234.5,288.833 234.5,290.167 234.5,291.5C 233.816,288.408 232.816,285.408 231.5,282.5C 231.5,282.167 231.5,281.833 231.5,281.5C 231.233,275.162 230.9,268.829 230.5,262.5 Z"/></g>
<g><path style="opacity:0.125" fill="#f9ebb3" d="M 234.5,287.5 C 235.709,291.618 236.376,295.951 236.5,300.5C 235.343,297.727 234.676,294.727 234.5,291.5C 234.5,290.167 234.5,288.833 234.5,287.5 Z"/></g>
<g><path style="opacity:0.816" fill="#cfb567" d="M 100.5,287.5 C 100.833,287.5 101.167,287.5 101.5,287.5C 101.072,293.176 100.905,298.843 101,304.5C 102.11,306.037 103.61,306.703 105.5,306.5C 105.833,306.5 106.167,306.5 106.5,306.5C 106.557,307.609 106.89,308.609 107.5,309.5C 103.684,308.846 100.851,306.846 99,303.5C 98.8787,297.997 99.3787,292.663 100.5,287.5 Z"/></g>
<g><path style="opacity:1" fill="#d2b020" d="M 172.5,239.5 C 172.5,265.833 172.5,292.167 172.5,318.5C 178.833,318.5 185.167,318.5 191.5,318.5C 191.5,318.833 191.5,319.167 191.5,319.5C 184.833,319.5 178.167,319.5 171.5,319.5C 171.169,292.661 171.502,265.995 172.5,239.5 Z"/></g>
<g><path style="opacity:0.918" fill="#ba9c34" d="M 231.5,282.5 C 232.816,285.408 233.816,288.408 234.5,291.5C 234.676,294.727 235.343,297.727 236.5,300.5C 237.833,303.5 237.833,306.5 236.5,309.5C 235.167,310.167 234.167,311.167 233.5,312.5C 231.819,314.008 229.819,315.008 227.5,315.5C 224.848,315.41 222.515,316.076 220.5,317.5C 216.434,319.018 212.101,319.851 207.5,320C 186.805,322.109 166.139,321.942 145.5,319.5C 141.833,317.655 137.833,316.488 133.5,316C 132.944,315.617 132.611,315.117 132.5,314.5C 141.707,316.651 151.04,317.984 160.5,318.5C 161.289,318.783 161.956,319.283 162.5,320C 167.667,320.167 172.833,320.333 178,320.5C 183.896,320.566 188.396,320.233 191.5,319.5C 191.5,319.167 191.5,318.833 191.5,318.5C 206.392,318.957 220.392,315.79 233.5,309C 234.081,308.107 234.415,307.107 234.5,306C 233.091,298.205 232.091,290.372 231.5,282.5 Z"/></g>
<g><path style="opacity:0.804" fill="#b69d31" d="M 106.5,306.5 C 114.166,309.328 121.833,311.995 129.5,314.5C 127.167,314.5 124.833,314.5 122.5,314.5C 117.085,313.806 112.085,312.14 107.5,309.5C 106.89,308.609 106.557,307.609 106.5,306.5 Z"/></g>
<g><path style="opacity:0.024" fill="#f6e5a7" d="M 236.5,309.5 C 236.5,311.5 235.5,312.5 233.5,312.5C 234.167,311.167 235.167,310.167 236.5,309.5 Z"/></g>
<g><path style="opacity:0.78" fill="#c2a64c" d="M 122.5,314.5 C 124.833,314.5 127.167,314.5 129.5,314.5C 130.5,314.5 131.5,314.5 132.5,314.5C 132.611,315.117 132.944,315.617 133.5,316C 137.833,316.488 141.833,317.655 145.5,319.5C 137.526,318.707 129.859,317.04 122.5,314.5 Z"/></g>
<g><path style="opacity:0.141" fill="#d4c174" d="M 227.5,315.5 C 225.485,316.924 223.152,317.59 220.5,317.5C 222.515,316.076 224.848,315.41 227.5,315.5 Z"/></g>
</svg>
